%TF.GenerationSoftware,KiCad,Pcbnew,9.0.2*%
%TF.CreationDate,2026-08-02T20:42:24+07:00*%
%TF.ProjectId,rangakainkelembapan,72616e67-616b-4616-996e-6b656c656d62,rev?*%
%TF.SameCoordinates,Original*%
%TF.FileFunction,Profile,NP*%
%FSLAX46Y46*%
G04 Gerber Fmt 4.6, Leading zero omitted, Abs format (unit mm)*
G04 Created by KiCad (PCBNEW 9.0.2) date 2026-08-02 20:42:24*
%MOMM*%
%LPD*%
G01*
G04 APERTURE LIST*
G04 Aperture macros list*
%AMRoundRect*
0 Rectangle with rounded corners*
0 $1 Rounding radius*
0 $2 $3 $4 $5 $6 $7 $8 $9 X,Y pos of 4 corners*
0 Add a 4 corners polygon primitive as box body*
4,1,4,$2,$3,$4,$5,$6,$7,$8,$9,$2,$3,0*
0 Add four circle primitives for the rounded corners*
1,1,$1+$1,$2,$3*
1,1,$1+$1,$4,$5*
1,1,$1+$1,$6,$7*
1,1,$1+$1,$8,$9*
0 Add four rect primitives between the rounded corners*
20,1,$1+$1,$2,$3,$4,$5,0*
20,1,$1+$1,$4,$5,$6,$7,0*
20,1,$1+$1,$6,$7,$8,$9,0*
20,1,$1+$1,$8,$9,$2,$3,0*%
G04 Aperture macros list end*
%TA.AperFunction,Profile*%
%ADD10C,0.050000*%
%TD*%
%TA.AperFunction,SMDPad,CuDef*%
%ADD11RoundRect,0.250000X-2.450000X0.650000X-2.450000X-0.650000X2.450000X-0.650000X2.450000X0.650000X0*%
%TD*%
%TA.AperFunction,SMDPad,CuDef*%
%ADD12RoundRect,0.250000X1.075000X-0.425000X1.075000X0.425000X-1.075000X0.425000X-1.075000X-0.425000X0*%
%TD*%
%TA.AperFunction,ComponentPad*%
%ADD13RoundRect,0.250000X-0.550000X-0.550000X0.550000X-0.550000X0.550000X0.550000X-0.550000X0.550000X0*%
%TD*%
%TA.AperFunction,ComponentPad*%
%ADD14C,1.600000*%
%TD*%
%TA.AperFunction,SMDPad,CuDef*%
%ADD15RoundRect,0.250000X0.625000X-0.400000X0.625000X0.400000X-0.625000X0.400000X-0.625000X-0.400000X0*%
%TD*%
%TA.AperFunction,SMDPad,CuDef*%
%ADD16RoundRect,0.250000X0.625000X-0.312500X0.625000X0.312500X-0.625000X0.312500X-0.625000X-0.312500X0*%
%TD*%
%TA.AperFunction,ComponentPad*%
%ADD17R,1.350000X1.350000*%
%TD*%
%TA.AperFunction,ComponentPad*%
%ADD18C,1.350000*%
%TD*%
%TA.AperFunction,SMDPad,CuDef*%
%ADD19RoundRect,0.250000X-1.000000X-0.750000X1.000000X-0.750000X1.000000X0.750000X-1.000000X0.750000X0*%
%TD*%
%TA.AperFunction,SMDPad,CuDef*%
%ADD20RoundRect,0.250000X-1.075000X0.425000X-1.075000X-0.425000X1.075000X-0.425000X1.075000X0.425000X0*%
%TD*%
%TA.AperFunction,ComponentPad*%
%ADD21R,3.960000X1.980000*%
%TD*%
%TA.AperFunction,ComponentPad*%
%ADD22O,3.960000X1.980000*%
%TD*%
%TA.AperFunction,Conductor*%
%ADD23C,0.200000*%
%TD*%
G04 APERTURE END LIST*
D10*
X114300000Y-82550000D02*
X233680000Y-82550000D01*
X233680000Y-119380000D01*
X114300000Y-119380000D01*
X114300000Y-82550000D01*
D11*
%TO.P,C2,1*%
%TO.N,/D_OUT*%
X181000000Y-98450000D03*
%TO.P,C2,2*%
%TO.N,GND*%
X181000000Y-103550000D03*
%TD*%
D12*
%TO.P,Trigger1,1,K*%
%TO.N,/D_OUT*%
X198120000Y-94670000D03*
%TO.P,Trigger1,2,A*%
%TO.N,Net-(Trigger1-A)*%
X198120000Y-90170000D03*
%TD*%
D13*
%TO.P,U1,1*%
%TO.N,/D_OUT*%
X153195000Y-92610000D03*
D14*
%TO.P,U1,2,-*%
%TO.N,Net-(U1B--)*%
X153195000Y-95150000D03*
%TO.P,U1,3,+*%
%TO.N,/A_OUT*%
X153195000Y-97690000D03*
%TO.P,U1,4,V-*%
%TO.N,GND*%
X153195000Y-100230000D03*
%TO.P,U1,5*%
%TO.N,N/C*%
X160815000Y-100230000D03*
%TO.P,U1,6*%
X160815000Y-97690000D03*
%TO.P,U1,7*%
X160815000Y-95150000D03*
%TO.P,U1,8,V+*%
%TO.N,VCC (3.3V{slash}5V)*%
X160815000Y-92610000D03*
%TD*%
D15*
%TO.P,Pull_Up_Resistor1,1*%
%TO.N,VCC (3.3V{slash}5V)*%
X122500000Y-103550000D03*
%TO.P,Pull_Up_Resistor1,2*%
%TO.N,/A_OUT*%
X122500000Y-100450000D03*
%TD*%
D16*
%TO.P,R2,1*%
%TO.N,VCC (3.3V{slash}5V)*%
X195580000Y-109220000D03*
%TO.P,R2,2*%
%TO.N,Net-(Trigger1-A)*%
X195580000Y-106295000D03*
%TD*%
D11*
%TO.P,C1,1*%
%TO.N,/A_OUT*%
X172000000Y-98450000D03*
%TO.P,C1,2*%
%TO.N,GND*%
X172000000Y-103550000D03*
%TD*%
D17*
%TO.P,J1,1,Pin_1*%
%TO.N,GND*%
X116600000Y-103000000D03*
D18*
%TO.P,J1,2,Pin_2*%
%TO.N,/A_OUT*%
X116600000Y-101000000D03*
%TD*%
D16*
%TO.P,R3,1*%
%TO.N,VCC (3.3V{slash}5V)*%
X199390000Y-109220000D03*
%TO.P,R3,2*%
%TO.N,Net-(Power1-A)*%
X199390000Y-106295000D03*
%TD*%
D19*
%TO.P,RV1,1,1*%
%TO.N,VCC (3.3V{slash}5V)*%
X130900000Y-102800000D03*
%TO.P,RV1,2,2*%
%TO.N,Net-(U1B--)*%
X139550000Y-100650000D03*
%TO.P,RV1,3,3*%
%TO.N,GND*%
X130900000Y-98500000D03*
%TD*%
D20*
%TO.P,Power1,1,K*%
%TO.N,GND*%
X198120000Y-98080000D03*
%TO.P,Power1,2,A*%
%TO.N,Net-(Power1-A)*%
X198120000Y-102580000D03*
%TD*%
D21*
%TO.P,J2,1,Pin_1*%
%TO.N,VCC (3.3V{slash}5V)*%
X217000000Y-107000000D03*
D22*
%TO.P,J2,2,Pin_2*%
%TO.N,/D_OUT*%
X217000000Y-102000000D03*
%TO.P,J2,3,Pin_3*%
%TO.N,/A_OUT*%
X217000000Y-97000000D03*
%TO.P,J2,4,Pin_4*%
%TO.N,GND*%
X217000000Y-92000000D03*
%TD*%
D23*
%TO.N,/A_OUT*%
X133000000Y-86500000D02*
X137160000Y-86500000D01*
X182000000Y-86500000D02*
X200336408Y-86500000D01*
X117110000Y-101990000D02*
X117110000Y-101240000D01*
X139700000Y-105410000D02*
X137160000Y-102870000D01*
X210836408Y-97000000D02*
X217000000Y-97000000D01*
X118500000Y-101000000D02*
X123750000Y-95750000D01*
X181500000Y-86500000D02*
X182000000Y-86500000D01*
X172000000Y-98450000D02*
X172000000Y-96000000D01*
X151230000Y-97690000D02*
X143510000Y-105410000D01*
X122500000Y-97000000D02*
X123750000Y-95750000D01*
X123750000Y-95750000D02*
X133000000Y-86500000D01*
X143510000Y-105410000D02*
X139700000Y-105410000D01*
X137160000Y-102870000D02*
X137160000Y-86500000D01*
X116600000Y-101000000D02*
X118500000Y-101000000D01*
X153195000Y-97690000D02*
X151230000Y-97690000D01*
X137160000Y-86500000D02*
X182000000Y-86500000D01*
X200336408Y-86500000D02*
X210836408Y-97000000D01*
X172000000Y-96000000D02*
X181500000Y-86500000D01*
X122500000Y-100450000D02*
X122500000Y-97000000D01*
%TO.N,GND*%
X116600000Y-103000000D02*
X119500000Y-103000000D01*
X231140000Y-106680000D02*
X231140000Y-101600000D01*
X172000000Y-107400000D02*
X172000000Y-103550000D01*
X157105000Y-114300000D02*
X165100000Y-114300000D01*
X181000000Y-103550000D02*
X181000000Y-113640000D01*
X212090000Y-104140000D02*
X228600000Y-104140000D01*
X231140000Y-96520000D02*
X226620000Y-92000000D01*
X153195000Y-110390000D02*
X157105000Y-114300000D01*
X121550000Y-107950000D02*
X121920000Y-107950000D01*
X180340000Y-114300000D02*
X223520000Y-114300000D01*
X116600000Y-103000000D02*
X116600000Y-105170000D01*
X122020000Y-110390000D02*
X153195000Y-110390000D01*
X181000000Y-113640000D02*
X180340000Y-114300000D01*
X226620000Y-92000000D02*
X217000000Y-92000000D01*
X153195000Y-100230000D02*
X153195000Y-110390000D01*
X127400000Y-102000000D02*
X130900000Y-98500000D01*
X223520000Y-114300000D02*
X231140000Y-106680000D01*
X121920000Y-110490000D02*
X122020000Y-110390000D01*
X119500000Y-103000000D02*
X120500000Y-102000000D01*
X165100000Y-114300000D02*
X172000000Y-107400000D01*
X198120000Y-98080000D02*
X206030000Y-98080000D01*
X231140000Y-101600000D02*
X231140000Y-96520000D01*
X165100000Y-114300000D02*
X180340000Y-114300000D01*
X116600000Y-105170000D02*
X121920000Y-110490000D01*
X120500000Y-102000000D02*
X127400000Y-102000000D01*
X228600000Y-104140000D02*
X231140000Y-101600000D01*
X206030000Y-98080000D02*
X212090000Y-104140000D01*
%TO.N,Net-(Trigger1-A)*%
X198120000Y-90170000D02*
X195580000Y-90170000D01*
X195580000Y-90170000D02*
X193040000Y-92710000D01*
X193040000Y-92710000D02*
X193040000Y-103755000D01*
X193040000Y-103755000D02*
X195580000Y-106295000D01*
%TO.N,/D_OUT*%
X181000000Y-90780000D02*
X184150000Y-87630000D01*
X186690000Y-87630000D02*
X199390000Y-87630000D01*
X155635000Y-90170000D02*
X165100000Y-90170000D01*
X184150000Y-87630000D02*
X186690000Y-87630000D01*
X166370000Y-97790000D02*
X168910000Y-100330000D01*
X168910000Y-100330000D02*
X185420000Y-100330000D01*
X213760000Y-102000000D02*
X217000000Y-102000000D01*
X186690000Y-99060000D02*
X186690000Y-87630000D01*
X198120000Y-94670000D02*
X202510000Y-94670000D01*
X199390000Y-87630000D02*
X204470000Y-92710000D01*
X166370000Y-91440000D02*
X166370000Y-97790000D01*
X153195000Y-92610000D02*
X155635000Y-90170000D01*
X181000000Y-98450000D02*
X181000000Y-90780000D01*
X185420000Y-100330000D02*
X186690000Y-99060000D01*
X204470000Y-92710000D02*
X213760000Y-102000000D01*
X202510000Y-94670000D02*
X204470000Y-92710000D01*
X165100000Y-90170000D02*
X166370000Y-91440000D01*
%TO.N,VCC (3.3V{slash}5V)*%
X195580000Y-109220000D02*
X199390000Y-109220000D01*
X185420000Y-101600000D02*
X166370000Y-101600000D01*
X205740000Y-109220000D02*
X199390000Y-109220000D01*
X207960000Y-107000000D02*
X205740000Y-109220000D01*
X130900000Y-102800000D02*
X124530000Y-102800000D01*
X132080000Y-106680000D02*
X144780000Y-106680000D01*
X124530000Y-102800000D02*
X123780000Y-103550000D01*
X163830000Y-99060000D02*
X163830000Y-93980000D01*
X123780000Y-103550000D02*
X122500000Y-103550000D01*
X195580000Y-109220000D02*
X193040000Y-109220000D01*
X144780000Y-106680000D02*
X158850000Y-92610000D01*
X130900000Y-105500000D02*
X132080000Y-106680000D01*
X166370000Y-101600000D02*
X163830000Y-99060000D01*
X193040000Y-109220000D02*
X185420000Y-101600000D01*
X158850000Y-92610000D02*
X160815000Y-92610000D01*
X163830000Y-93980000D02*
X162460000Y-92610000D01*
X130900000Y-102800000D02*
X130900000Y-105500000D01*
X162460000Y-92610000D02*
X160815000Y-92610000D01*
X217000000Y-107000000D02*
X207960000Y-107000000D01*
%TO.N,Net-(U1B--)*%
X143510000Y-99060000D02*
X143510000Y-97790000D01*
X141920000Y-100650000D02*
X143510000Y-99060000D01*
X146150000Y-95150000D02*
X153195000Y-95150000D01*
X143510000Y-97790000D02*
X146150000Y-95150000D01*
X139550000Y-100650000D02*
X141920000Y-100650000D01*
%TD*%
%TA.AperFunction,NonConductor*%
G36*
X186032539Y-88250185D02*
G01*
X186078294Y-88302989D01*
X186089500Y-88354500D01*
X186089500Y-98759903D01*
X186069815Y-98826942D01*
X186053181Y-98847584D01*
X185207584Y-99693181D01*
X185146261Y-99726666D01*
X185119903Y-99729500D01*
X184165677Y-99729500D01*
X184098638Y-99709815D01*
X184052883Y-99657011D01*
X184042939Y-99587853D01*
X184060138Y-99540404D01*
X184111404Y-99457288D01*
X184134814Y-99419334D01*
X184189999Y-99252797D01*
X184200500Y-99150009D01*
X184200499Y-97749992D01*
X184195391Y-97699992D01*
X184189999Y-97647203D01*
X184189998Y-97647200D01*
X184176011Y-97604991D01*
X184134814Y-97480666D01*
X184042712Y-97331344D01*
X183918656Y-97207288D01*
X183794037Y-97130423D01*
X183769336Y-97115187D01*
X183769331Y-97115185D01*
X183767862Y-97114698D01*
X183602797Y-97060001D01*
X183602795Y-97060000D01*
X183500016Y-97049500D01*
X183500009Y-97049500D01*
X181724500Y-97049500D01*
X181657461Y-97029815D01*
X181611706Y-96977011D01*
X181600500Y-96925500D01*
X181600500Y-91080097D01*
X181620185Y-91013058D01*
X181636819Y-90992416D01*
X184362417Y-88266819D01*
X184423740Y-88233334D01*
X184450098Y-88230500D01*
X185965500Y-88230500D01*
X186032539Y-88250185D01*
G37*
%TD.AperFunction*%
%TA.AperFunction,NonConductor*%
G36*
X183597941Y-87120185D02*
G01*
X183643696Y-87172989D01*
X183653640Y-87242147D01*
X183624615Y-87305703D01*
X183618583Y-87312181D01*
X180524518Y-90406245D01*
X180524516Y-90406247D01*
X180519480Y-90411284D01*
X180469360Y-90498095D01*
X180468849Y-90498978D01*
X180468816Y-90499035D01*
X180440425Y-90548209D01*
X180440424Y-90548210D01*
X180440423Y-90548215D01*
X180399499Y-90700943D01*
X180399499Y-90700945D01*
X180399499Y-90869046D01*
X180399500Y-90869059D01*
X180399500Y-96925500D01*
X180379815Y-96992539D01*
X180327011Y-97038294D01*
X180275500Y-97049500D01*
X178499998Y-97049500D01*
X178499981Y-97049501D01*
X178397203Y-97060000D01*
X178397200Y-97060001D01*
X178230668Y-97115185D01*
X178230663Y-97115187D01*
X178081342Y-97207289D01*
X177957289Y-97331342D01*
X177865187Y-97480663D01*
X177865187Y-97480664D01*
X177865186Y-97480666D01*
X177810001Y-97647203D01*
X177810001Y-97647204D01*
X177810000Y-97647204D01*
X177799500Y-97749983D01*
X177799500Y-99150001D01*
X177799501Y-99150018D01*
X177810000Y-99252796D01*
X177810001Y-99252799D01*
X177865185Y-99419331D01*
X177865189Y-99419340D01*
X177939862Y-99540404D01*
X177958302Y-99607796D01*
X177937379Y-99674459D01*
X177883737Y-99719229D01*
X177834323Y-99729500D01*
X175165677Y-99729500D01*
X175098638Y-99709815D01*
X175052883Y-99657011D01*
X175042939Y-99587853D01*
X175060138Y-99540404D01*
X175111404Y-99457288D01*
X175134814Y-99419334D01*
X175189999Y-99252797D01*
X175200500Y-99150009D01*
X175200499Y-97749992D01*
X175195391Y-97699992D01*
X175189999Y-97647203D01*
X175189998Y-97647200D01*
X175176011Y-97604991D01*
X175134814Y-97480666D01*
X175042712Y-97331344D01*
X174918656Y-97207288D01*
X174794037Y-97130423D01*
X174769336Y-97115187D01*
X174769331Y-97115185D01*
X174767862Y-97114698D01*
X174602797Y-97060001D01*
X174602795Y-97060000D01*
X174500016Y-97049500D01*
X174500009Y-97049500D01*
X172724500Y-97049500D01*
X172657461Y-97029815D01*
X172611706Y-96977011D01*
X172600500Y-96925500D01*
X172600500Y-96300097D01*
X172620185Y-96233058D01*
X172636819Y-96212416D01*
X181712416Y-87136819D01*
X181773739Y-87103334D01*
X181800097Y-87100500D01*
X181920943Y-87100500D01*
X183530902Y-87100500D01*
X183597941Y-87120185D01*
G37*
%TD.AperFunction*%
%TA.AperFunction,NonConductor*%
G36*
X179817942Y-87120185D02*
G01*
X179863697Y-87172989D01*
X179873641Y-87242147D01*
X179844616Y-87305703D01*
X179838584Y-87312180D01*
X175722917Y-91427847D01*
X171631286Y-95519478D01*
X171519481Y-95631282D01*
X171519479Y-95631285D01*
X171486903Y-95687710D01*
X171486902Y-95687712D01*
X171440423Y-95768214D01*
X171437315Y-95779814D01*
X171399499Y-95920943D01*
X171399499Y-95920945D01*
X171399499Y-96089046D01*
X171399500Y-96089059D01*
X171399500Y-96925500D01*
X171379815Y-96992539D01*
X171327011Y-97038294D01*
X171275500Y-97049500D01*
X169499998Y-97049500D01*
X169499981Y-97049501D01*
X169397203Y-97060000D01*
X169397200Y-97060001D01*
X169230668Y-97115185D01*
X169230663Y-97115187D01*
X169081342Y-97207289D01*
X168957289Y-97331342D01*
X168865187Y-97480663D01*
X168865187Y-97480664D01*
X168865186Y-97480666D01*
X168810001Y-97647203D01*
X168810001Y-97647204D01*
X168810000Y-97647204D01*
X168799500Y-97749983D01*
X168799500Y-99070903D01*
X168779815Y-99137942D01*
X168727011Y-99183697D01*
X168657853Y-99193641D01*
X168594297Y-99164616D01*
X168587819Y-99158584D01*
X167006819Y-97577584D01*
X166973334Y-97516261D01*
X166970500Y-97489903D01*
X166970500Y-91360944D01*
X166970499Y-91360940D01*
X166965297Y-91341523D01*
X166929577Y-91208215D01*
X166895225Y-91148716D01*
X166850520Y-91071284D01*
X166738716Y-90959480D01*
X166738715Y-90959479D01*
X166734385Y-90955149D01*
X166734374Y-90955139D01*
X165587590Y-89808355D01*
X165587588Y-89808352D01*
X165468717Y-89689481D01*
X165468716Y-89689480D01*
X165381904Y-89639360D01*
X165381904Y-89639359D01*
X165381900Y-89639358D01*
X165331785Y-89610423D01*
X165179057Y-89569499D01*
X165020943Y-89569499D01*
X165013347Y-89569499D01*
X165013331Y-89569500D01*
X155714057Y-89569500D01*
X155555943Y-89569500D01*
X155403215Y-89610423D01*
X155403214Y-89610423D01*
X155403212Y-89610424D01*
X155403209Y-89610425D01*
X155353096Y-89639359D01*
X155353095Y-89639360D01*
X155309689Y-89664420D01*
X155266285Y-89689479D01*
X155266282Y-89689481D01*
X155154478Y-89801286D01*
X153682582Y-91273181D01*
X153621259Y-91306666D01*
X153594901Y-91309500D01*
X152594998Y-91309500D01*
X152594980Y-91309501D01*
X152492203Y-91320000D01*
X152492200Y-91320001D01*
X152325668Y-91375185D01*
X152325663Y-91375187D01*
X152176342Y-91467289D01*
X152052289Y-91591342D01*
X151960187Y-91740663D01*
X151960186Y-91740666D01*
X151905001Y-91907203D01*
X151905001Y-91907204D01*
X151905000Y-91907204D01*
X151894500Y-92009983D01*
X151894500Y-93210001D01*
X151894501Y-93210018D01*
X151905000Y-93312796D01*
X151905001Y-93312799D01*
X151952856Y-93457213D01*
X151960186Y-93479334D01*
X152052288Y-93628656D01*
X152176344Y-93752712D01*
X152325666Y-93844814D01*
X152407570Y-93871954D01*
X152465015Y-93911727D01*
X152491838Y-93976243D01*
X152479523Y-94045018D01*
X152441451Y-94089978D01*
X152347787Y-94158028D01*
X152347782Y-94158032D01*
X152203028Y-94302786D01*
X152082715Y-94468385D01*
X152075883Y-94481795D01*
X152027909Y-94532591D01*
X151965398Y-94549500D01*
X146236670Y-94549500D01*
X146236654Y-94549499D01*
X146229058Y-94549499D01*
X146070943Y-94549499D01*
X145918215Y-94590423D01*
X145813681Y-94650776D01*
X145781281Y-94669482D01*
X143029481Y-97421282D01*
X143029480Y-97421284D01*
X142995196Y-97480666D01*
X142950423Y-97558215D01*
X142909499Y-97710943D01*
X142909499Y-97710945D01*
X142909499Y-97879046D01*
X142909500Y-97879059D01*
X142909500Y-98759902D01*
X142889815Y-98826941D01*
X142873181Y-98847583D01*
X141707584Y-100013181D01*
X141680656Y-100027884D01*
X141654838Y-100044477D01*
X141648637Y-100045368D01*
X141646261Y-100046666D01*
X141619903Y-100049500D01*
X141424499Y-100049500D01*
X141357460Y-100029815D01*
X141311705Y-99977011D01*
X141300499Y-99925500D01*
X141300499Y-99849998D01*
X141300498Y-99849981D01*
X141289999Y-99747203D01*
X141289998Y-99747200D01*
X141265894Y-99674459D01*
X141234814Y-99580666D01*
X141142712Y-99431344D01*
X141018656Y-99307288D01*
X140906367Y-99238028D01*
X140869336Y-99215187D01*
X140869331Y-99215185D01*
X140867862Y-99214698D01*
X140702797Y-99160001D01*
X140702795Y-99160000D01*
X140600010Y-99149500D01*
X138499998Y-99149500D01*
X138499981Y-99149501D01*
X138397203Y-99160000D01*
X138397200Y-99160001D01*
X138230668Y-99215185D01*
X138230663Y-99215187D01*
X138081342Y-99307289D01*
X137972181Y-99416451D01*
X137910858Y-99449936D01*
X137841166Y-99444952D01*
X137785233Y-99403080D01*
X137760816Y-99337616D01*
X137760500Y-99328770D01*
X137760500Y-87224500D01*
X137780185Y-87157461D01*
X137832989Y-87111706D01*
X137884500Y-87100500D01*
X179750903Y-87100500D01*
X179817942Y-87120185D01*
G37*
%TD.AperFunction*%
%TA.AperFunction,NonConductor*%
G36*
X164866942Y-90790185D02*
G01*
X164887584Y-90806819D01*
X165733181Y-91652416D01*
X165766666Y-91713739D01*
X165769500Y-91740097D01*
X165769500Y-97703330D01*
X165769499Y-97703348D01*
X165769499Y-97869054D01*
X165769498Y-97869054D01*
X165810423Y-98021785D01*
X165839358Y-98071900D01*
X165839359Y-98071904D01*
X165839360Y-98071904D01*
X165889479Y-98158714D01*
X165889481Y-98158717D01*
X166008349Y-98277585D01*
X166008355Y-98277590D01*
X168429478Y-100698713D01*
X168429480Y-100698716D01*
X168518584Y-100787820D01*
X168552068Y-100849141D01*
X168552067Y-100849142D01*
X168552068Y-100849143D01*
X168547084Y-100918834D01*
X168505212Y-100974768D01*
X168475315Y-100985918D01*
X168439749Y-100999184D01*
X168430902Y-100999500D01*
X166670097Y-100999500D01*
X166603058Y-100979815D01*
X166582416Y-100963181D01*
X164466819Y-98847584D01*
X164433334Y-98786261D01*
X164430500Y-98759903D01*
X164430500Y-94069060D01*
X164430501Y-94069047D01*
X164430501Y-93900944D01*
X164397114Y-93776344D01*
X164389577Y-93748216D01*
X164334194Y-93652289D01*
X164310524Y-93611290D01*
X164310518Y-93611282D01*
X162947590Y-92248355D01*
X162947588Y-92248352D01*
X162828717Y-92129481D01*
X162828716Y-92129480D01*
X162741380Y-92079057D01*
X162741378Y-92079055D01*
X162691788Y-92050424D01*
X162691787Y-92050423D01*
X162630693Y-92034053D01*
X162539057Y-92009499D01*
X162380943Y-92009499D01*
X162373347Y-92009499D01*
X162373331Y-92009500D01*
X162044602Y-92009500D01*
X161977563Y-91989815D01*
X161934117Y-91941795D01*
X161927284Y-91928385D01*
X161806971Y-91762786D01*
X161662213Y-91618028D01*
X161496613Y-91497715D01*
X161496612Y-91497714D01*
X161496610Y-91497713D01*
X161436898Y-91467288D01*
X161314223Y-91404781D01*
X161119534Y-91341522D01*
X160944995Y-91313878D01*
X160917352Y-91309500D01*
X160712648Y-91309500D01*
X160688329Y-91313351D01*
X160510465Y-91341522D01*
X160315776Y-91404781D01*
X160133386Y-91497715D01*
X159967786Y-91618028D01*
X159823028Y-91762786D01*
X159702715Y-91928385D01*
X159695883Y-91941795D01*
X159647909Y-91992591D01*
X159585398Y-92009500D01*
X158936669Y-92009500D01*
X158936653Y-92009499D01*
X158929057Y-92009499D01*
X158770943Y-92009499D01*
X158694579Y-92029961D01*
X158618212Y-92050423D01*
X158618211Y-92050424D01*
X158568619Y-92079057D01*
X158481287Y-92129477D01*
X158481282Y-92129481D01*
X158369478Y-92241286D01*
X154042106Y-96568657D01*
X154019409Y-96581050D01*
X153998850Y-96596745D01*
X153989241Y-96597523D01*
X153980783Y-96602142D01*
X153954987Y-96600297D01*
X153929208Y-96602385D01*
X153918608Y-96597695D01*
X153911091Y-96597158D01*
X153896025Y-96590363D01*
X153888468Y-96586328D01*
X153876610Y-96577713D01*
X153782838Y-96529933D01*
X153781814Y-96529387D01*
X153757710Y-96505732D01*
X153733123Y-96482511D01*
X153732825Y-96481311D01*
X153731946Y-96480448D01*
X153724453Y-96447502D01*
X153716328Y-96414690D01*
X153716725Y-96413522D01*
X153716452Y-96412318D01*
X153727967Y-96380533D01*
X153738865Y-96348555D01*
X153739868Y-96347685D01*
X153740252Y-96346627D01*
X153747292Y-96341252D01*
X153783917Y-96309516D01*
X153876610Y-96262287D01*
X153945252Y-96212416D01*
X154042213Y-96141971D01*
X154042215Y-96141968D01*
X154042219Y-96141966D01*
X154186966Y-95997219D01*
X154186968Y-95997215D01*
X154186971Y-95997213D01*
X154284401Y-95863110D01*
X154307287Y-95831610D01*
X154400220Y-95649219D01*
X154463477Y-95454534D01*
X154495500Y-95252352D01*
X154495500Y-95047648D01*
X154463477Y-94845466D01*
X154400220Y-94650781D01*
X154400218Y-94650778D01*
X154400218Y-94650776D01*
X154366503Y-94584607D01*
X154307287Y-94468390D01*
X154299556Y-94457749D01*
X154186971Y-94302786D01*
X154042219Y-94158034D01*
X154042211Y-94158028D01*
X153948547Y-94089978D01*
X153905882Y-94034649D01*
X153899903Y-93965036D01*
X153932508Y-93903240D01*
X153982426Y-93871955D01*
X154064334Y-93844814D01*
X154213656Y-93752712D01*
X154337712Y-93628656D01*
X154429814Y-93479334D01*
X154484999Y-93312797D01*
X154495500Y-93210009D01*
X154495499Y-92210095D01*
X154515183Y-92143057D01*
X154531813Y-92122420D01*
X155847416Y-90806819D01*
X155908739Y-90773334D01*
X155935097Y-90770500D01*
X164799903Y-90770500D01*
X164866942Y-90790185D01*
G37*
%TD.AperFunction*%
%TA.AperFunction,NonConductor*%
G36*
X121818834Y-98632914D02*
G01*
X121874767Y-98674786D01*
X121899184Y-98740250D01*
X121899500Y-98749096D01*
X121899500Y-99179911D01*
X121879815Y-99246950D01*
X121827011Y-99292705D01*
X121788102Y-99303269D01*
X121722202Y-99310001D01*
X121722200Y-99310001D01*
X121555668Y-99365185D01*
X121555663Y-99365187D01*
X121406342Y-99457289D01*
X121282289Y-99581342D01*
X121190187Y-99730663D01*
X121190185Y-99730668D01*
X121190148Y-99730781D01*
X121135001Y-99897203D01*
X121135001Y-99897204D01*
X121135000Y-99897204D01*
X121124500Y-99999983D01*
X121124500Y-100900001D01*
X121124501Y-100900019D01*
X121135000Y-101002796D01*
X121135001Y-101002799D01*
X121173666Y-101119480D01*
X121190186Y-101169334D01*
X121215518Y-101210404D01*
X121233958Y-101277796D01*
X121213035Y-101344459D01*
X121159393Y-101389229D01*
X121109979Y-101399500D01*
X120586670Y-101399500D01*
X120586654Y-101399499D01*
X120579058Y-101399499D01*
X120420943Y-101399499D01*
X120344579Y-101419961D01*
X120268214Y-101440423D01*
X120268209Y-101440426D01*
X120131290Y-101519475D01*
X120131282Y-101519481D01*
X119287584Y-102363181D01*
X119226261Y-102396666D01*
X119199903Y-102399500D01*
X117899499Y-102399500D01*
X117832460Y-102379815D01*
X117786705Y-102327011D01*
X117779899Y-102308240D01*
X117775499Y-102292166D01*
X117775499Y-102277128D01*
X117769091Y-102217517D01*
X117718796Y-102082669D01*
X117717778Y-102081310D01*
X117714900Y-102070794D01*
X117715039Y-102063215D01*
X117710500Y-102038054D01*
X117710500Y-101724500D01*
X117730185Y-101657461D01*
X117782989Y-101611706D01*
X117834500Y-101600500D01*
X118413331Y-101600500D01*
X118413347Y-101600501D01*
X118420943Y-101600501D01*
X118579054Y-101600501D01*
X118579057Y-101600501D01*
X118731785Y-101559577D01*
X118782147Y-101530500D01*
X118868716Y-101480520D01*
X118980520Y-101368716D01*
X118980520Y-101368714D01*
X118990724Y-101358511D01*
X118990727Y-101358506D01*
X121687821Y-98661413D01*
X121749142Y-98627930D01*
X121818834Y-98632914D01*
G37*
%TD.AperFunction*%
%TA.AperFunction,NonConductor*%
G36*
X152032437Y-95770185D02*
G01*
X152075883Y-95818205D01*
X152082715Y-95831614D01*
X152203028Y-95997213D01*
X152347786Y-96141971D01*
X152469666Y-96230520D01*
X152513390Y-96262287D01*
X152604840Y-96308883D01*
X152606080Y-96309515D01*
X152656876Y-96357490D01*
X152673671Y-96425311D01*
X152651134Y-96491446D01*
X152606080Y-96530485D01*
X152513386Y-96577715D01*
X152347786Y-96698028D01*
X152203028Y-96842786D01*
X152082715Y-97008385D01*
X152075883Y-97021795D01*
X152027909Y-97072591D01*
X151965398Y-97089500D01*
X151316670Y-97089500D01*
X151316654Y-97089499D01*
X151309058Y-97089499D01*
X151150943Y-97089499D01*
X151074579Y-97109961D01*
X150998214Y-97130423D01*
X150998209Y-97130426D01*
X150861290Y-97209475D01*
X150861282Y-97209481D01*
X143297584Y-104773181D01*
X143236261Y-104806666D01*
X143209903Y-104809500D01*
X140000097Y-104809500D01*
X139933058Y-104789815D01*
X139912416Y-104773181D01*
X137796819Y-102657584D01*
X137763334Y-102596261D01*
X137760500Y-102569903D01*
X137760500Y-101971230D01*
X137780185Y-101904191D01*
X137832989Y-101858436D01*
X137902147Y-101848492D01*
X137965703Y-101877517D01*
X137972181Y-101883549D01*
X138081344Y-101992712D01*
X138230666Y-102084814D01*
X138397203Y-102139999D01*
X138499991Y-102150500D01*
X140600008Y-102150499D01*
X140702797Y-102139999D01*
X140869334Y-102084814D01*
X141018656Y-101992712D01*
X141142712Y-101868656D01*
X141234814Y-101719334D01*
X141289999Y-101552797D01*
X141300500Y-101450009D01*
X141300500Y-101374500D01*
X141320185Y-101307461D01*
X141372989Y-101261706D01*
X141424500Y-101250500D01*
X141833331Y-101250500D01*
X141833347Y-101250501D01*
X141840943Y-101250501D01*
X141999054Y-101250501D01*
X141999057Y-101250501D01*
X142151785Y-101209577D01*
X142201904Y-101180639D01*
X142288716Y-101130520D01*
X142400520Y-101018716D01*
X142400520Y-101018714D01*
X142410728Y-101008507D01*
X142410729Y-101008504D01*
X143990520Y-99428716D01*
X144069577Y-99291784D01*
X144110501Y-99139057D01*
X144110501Y-98980942D01*
X144110501Y-98973339D01*
X144110500Y-98973329D01*
X144110500Y-98090097D01*
X144130185Y-98023058D01*
X144146819Y-98002416D01*
X146362417Y-95786819D01*
X146423740Y-95753334D01*
X146450098Y-95750500D01*
X151965398Y-95750500D01*
X152032437Y-95770185D01*
G37*
%TD.AperFunction*%
%TA.AperFunction,NonConductor*%
G36*
X151980000Y-98294787D02*
G01*
X151995206Y-98294136D01*
X152012843Y-98304431D01*
X152032437Y-98310185D01*
X152043335Y-98322230D01*
X152055547Y-98329359D01*
X152075883Y-98358205D01*
X152082712Y-98371609D01*
X152086299Y-98376546D01*
X152109774Y-98442354D01*
X152093945Y-98510407D01*
X152073657Y-98537106D01*
X144567584Y-106043181D01*
X144506261Y-106076666D01*
X144479903Y-106079500D01*
X143989099Y-106079500D01*
X143922060Y-106059815D01*
X143876305Y-106007011D01*
X143866361Y-105937853D01*
X143895386Y-105874297D01*
X143901417Y-105867819D01*
X143946268Y-105822968D01*
X143990520Y-105778716D01*
X143990520Y-105778714D01*
X144000728Y-105768507D01*
X144000729Y-105768504D01*
X151442417Y-98326819D01*
X151503740Y-98293334D01*
X151530098Y-98290500D01*
X151965398Y-98290500D01*
X151980000Y-98294787D01*
G37*
%TD.AperFunction*%
%TA.AperFunction,NonConductor*%
G36*
X136502539Y-87120185D02*
G01*
X136548294Y-87172989D01*
X136559500Y-87224500D01*
X136559500Y-99321688D01*
X136539815Y-99388727D01*
X136487011Y-99434482D01*
X136417853Y-99444426D01*
X136362614Y-99422006D01*
X136336172Y-99402795D01*
X136286433Y-99366657D01*
X136212076Y-99328770D01*
X136075996Y-99259433D01*
X135851368Y-99186446D01*
X135618097Y-99149500D01*
X135618092Y-99149500D01*
X135381908Y-99149500D01*
X135381903Y-99149500D01*
X135148631Y-99186446D01*
X134924003Y-99259433D01*
X134713566Y-99366657D01*
X134620214Y-99434482D01*
X134522490Y-99505483D01*
X134522488Y-99505485D01*
X134522487Y-99505485D01*
X134355485Y-99672487D01*
X134355485Y-99672488D01*
X134355483Y-99672490D01*
X134321941Y-99718657D01*
X134216657Y-99863566D01*
X134109433Y-100074003D01*
X134036446Y-100298631D01*
X133999500Y-100531902D01*
X133999500Y-100768097D01*
X134036446Y-101001368D01*
X134109433Y-101225996D01*
X134196395Y-101396666D01*
X134216657Y-101436433D01*
X134355483Y-101627510D01*
X134522490Y-101794517D01*
X134713567Y-101933343D01*
X134801822Y-101978311D01*
X134924003Y-102040566D01*
X134924005Y-102040566D01*
X134924008Y-102040568D01*
X135011688Y-102069057D01*
X135148631Y-102113553D01*
X135381903Y-102150500D01*
X135381908Y-102150500D01*
X135618097Y-102150500D01*
X135851368Y-102113553D01*
X135877719Y-102104991D01*
X136075992Y-102040568D01*
X136286433Y-101933343D01*
X136362614Y-101877993D01*
X136428420Y-101854513D01*
X136496474Y-101870338D01*
X136545169Y-101920443D01*
X136559500Y-101978311D01*
X136559500Y-102783330D01*
X136559499Y-102783348D01*
X136559499Y-102949054D01*
X136559498Y-102949054D01*
X136600423Y-103101785D01*
X136617824Y-103131924D01*
X136617823Y-103131924D01*
X136617824Y-103131925D01*
X136679475Y-103238709D01*
X136679481Y-103238717D01*
X136798349Y-103357585D01*
X136798355Y-103357590D01*
X139219478Y-105778713D01*
X139219480Y-105778716D01*
X139308584Y-105867820D01*
X139342068Y-105929141D01*
X139342067Y-105929142D01*
X139342068Y-105929143D01*
X139337084Y-105998834D01*
X139305739Y-106040705D01*
X139296286Y-106053334D01*
X139295212Y-106054768D01*
X139265315Y-106065918D01*
X139229749Y-106079184D01*
X139220902Y-106079500D01*
X132380097Y-106079500D01*
X132313058Y-106059815D01*
X132292416Y-106043181D01*
X131536819Y-105287584D01*
X131503334Y-105226261D01*
X131500500Y-105199903D01*
X131500500Y-104424499D01*
X131520185Y-104357460D01*
X131572989Y-104311705D01*
X131624500Y-104300499D01*
X131950002Y-104300499D01*
X131950008Y-104300499D01*
X131959798Y-104299499D01*
X131967895Y-104298671D01*
X132052797Y-104289999D01*
X132219334Y-104234814D01*
X132368656Y-104142712D01*
X132492712Y-104018656D01*
X132584814Y-103869334D01*
X132639999Y-103702797D01*
X132650500Y-103600009D01*
X132650499Y-101999992D01*
X132639999Y-101897203D01*
X132584814Y-101730666D01*
X132492712Y-101581344D01*
X132368656Y-101457288D01*
X132243052Y-101379815D01*
X132219336Y-101365187D01*
X132219331Y-101365185D01*
X132177323Y-101351265D01*
X132052797Y-101310001D01*
X132052795Y-101310000D01*
X131950010Y-101299500D01*
X129849998Y-101299500D01*
X129849981Y-101299501D01*
X129747203Y-101310000D01*
X129747200Y-101310001D01*
X129580668Y-101365185D01*
X129580663Y-101365187D01*
X129431342Y-101457289D01*
X129307289Y-101581342D01*
X129215187Y-101730663D01*
X129215186Y-101730666D01*
X129160001Y-101897203D01*
X129160001Y-101897204D01*
X129160000Y-101897204D01*
X129149500Y-101999983D01*
X129149500Y-102075500D01*
X129129815Y-102142539D01*
X129077011Y-102188294D01*
X129025500Y-102199500D01*
X128349097Y-102199500D01*
X128282058Y-102179815D01*
X128236303Y-102127011D01*
X128226359Y-102057853D01*
X128255384Y-101994297D01*
X128261416Y-101987819D01*
X130212416Y-100036818D01*
X130273739Y-100003333D01*
X130300097Y-100000499D01*
X131950002Y-100000499D01*
X131950008Y-100000499D01*
X132052797Y-99989999D01*
X132219334Y-99934814D01*
X132368656Y-99842712D01*
X132492712Y-99718656D01*
X132584814Y-99569334D01*
X132639999Y-99402797D01*
X132650500Y-99300009D01*
X132650499Y-97699992D01*
X132639999Y-97597203D01*
X132584814Y-97430666D01*
X132492712Y-97281344D01*
X132368656Y-97157288D01*
X132258752Y-97089499D01*
X132219336Y-97065187D01*
X132219331Y-97065185D01*
X132203684Y-97060000D01*
X132052797Y-97010001D01*
X132052795Y-97010000D01*
X131950010Y-96999500D01*
X129849998Y-96999500D01*
X129849981Y-96999501D01*
X129747203Y-97010000D01*
X129747200Y-97010001D01*
X129580668Y-97065185D01*
X129580663Y-97065187D01*
X129431342Y-97157289D01*
X129307289Y-97281342D01*
X129215187Y-97430663D01*
X129215185Y-97430668D01*
X129198617Y-97480667D01*
X129160001Y-97597203D01*
X129160001Y-97597204D01*
X129160000Y-97597204D01*
X129149500Y-97699983D01*
X129149500Y-99300000D01*
X129149502Y-99300023D01*
X129152897Y-99333263D01*
X129140126Y-99401956D01*
X129117220Y-99433543D01*
X127187584Y-101363181D01*
X127126261Y-101396666D01*
X127099903Y-101399500D01*
X123890021Y-101399500D01*
X123822982Y-101379815D01*
X123777227Y-101327011D01*
X123767283Y-101257853D01*
X123784481Y-101210405D01*
X123809814Y-101169334D01*
X123864999Y-101002797D01*
X123875500Y-100900009D01*
X123875499Y-99999992D01*
X123874950Y-99994622D01*
X123864999Y-99897203D01*
X123864998Y-99897200D01*
X123846942Y-99842710D01*
X123809814Y-99730666D01*
X123717712Y-99581344D01*
X123593656Y-99457288D01*
X123500888Y-99400069D01*
X123444336Y-99365187D01*
X123444331Y-99365185D01*
X123442862Y-99364698D01*
X123277797Y-99310001D01*
X123277794Y-99310000D01*
X123211897Y-99303268D01*
X123147205Y-99276871D01*
X123107054Y-99219690D01*
X123100500Y-99179910D01*
X123100500Y-97300097D01*
X123120185Y-97233058D01*
X123136819Y-97212416D01*
X133212416Y-87136819D01*
X133273739Y-87103334D01*
X133300097Y-87100500D01*
X136435500Y-87100500D01*
X136502539Y-87120185D01*
G37*
%TD.AperFunction*%
%TA.AperFunction,NonConductor*%
G36*
X151877222Y-100534525D02*
G01*
X151933155Y-100576397D01*
X151951819Y-100612388D01*
X151989781Y-100729223D01*
X152031204Y-100810519D01*
X152076801Y-100900008D01*
X152082715Y-100911613D01*
X152203028Y-101077213D01*
X152203034Y-101077219D01*
X152347781Y-101221966D01*
X152513390Y-101342287D01*
X152526793Y-101349116D01*
X152577589Y-101397088D01*
X152594500Y-101459601D01*
X152594500Y-109665500D01*
X152574815Y-109732539D01*
X152522011Y-109778294D01*
X152470500Y-109789500D01*
X122120097Y-109789500D01*
X122053058Y-109769815D01*
X122032416Y-109753181D01*
X120150178Y-107870943D01*
X120949500Y-107870943D01*
X120949500Y-108029057D01*
X120983783Y-108157001D01*
X120990423Y-108181783D01*
X120990426Y-108181790D01*
X121069475Y-108318709D01*
X121069479Y-108318714D01*
X121069480Y-108318716D01*
X121181284Y-108430520D01*
X121181286Y-108430521D01*
X121181290Y-108430524D01*
X121285173Y-108490500D01*
X121318216Y-108509577D01*
X121470943Y-108550500D01*
X121470945Y-108550500D01*
X121999055Y-108550500D01*
X121999057Y-108550500D01*
X122151784Y-108509577D01*
X122288716Y-108430520D01*
X122400520Y-108318716D01*
X122479577Y-108181784D01*
X122520500Y-108029057D01*
X122520500Y-107870943D01*
X122479577Y-107718216D01*
X122479573Y-107718209D01*
X122400524Y-107581290D01*
X122400518Y-107581282D01*
X122288717Y-107469481D01*
X122288709Y-107469475D01*
X122151790Y-107390426D01*
X122151786Y-107390424D01*
X122151784Y-107390423D01*
X121999057Y-107349500D01*
X121470943Y-107349500D01*
X121318216Y-107390423D01*
X121318209Y-107390426D01*
X121181290Y-107469475D01*
X121181282Y-107469481D01*
X121069481Y-107581282D01*
X121069475Y-107581290D01*
X120990426Y-107718209D01*
X120990423Y-107718216D01*
X120949500Y-107870943D01*
X120150178Y-107870943D01*
X117236819Y-104957584D01*
X117203334Y-104896261D01*
X117200500Y-104869903D01*
X117200500Y-104299499D01*
X117220185Y-104232460D01*
X117272989Y-104186705D01*
X117319611Y-104176562D01*
X117319576Y-104175900D01*
X117319571Y-104175854D01*
X117319573Y-104175853D01*
X117319564Y-104175676D01*
X117322857Y-104175499D01*
X117322872Y-104175499D01*
X117382483Y-104169091D01*
X117517331Y-104118796D01*
X117632546Y-104032546D01*
X117718796Y-103917331D01*
X117769091Y-103782483D01*
X117775500Y-103722873D01*
X117775500Y-103722845D01*
X117775678Y-103719548D01*
X117776934Y-103719615D01*
X117795185Y-103657461D01*
X117847989Y-103611706D01*
X117899500Y-103600500D01*
X119413331Y-103600500D01*
X119413347Y-103600501D01*
X119420943Y-103600501D01*
X119579054Y-103600501D01*
X119579057Y-103600501D01*
X119731785Y-103559577D01*
X119794765Y-103523215D01*
X119868716Y-103480520D01*
X119980520Y-103368716D01*
X119980520Y-103368714D01*
X119990724Y-103358511D01*
X119990727Y-103358506D01*
X120712417Y-102636819D01*
X120773740Y-102603334D01*
X120800098Y-102600500D01*
X121109979Y-102600500D01*
X121177018Y-102620185D01*
X121222773Y-102672989D01*
X121232717Y-102742147D01*
X121215518Y-102789594D01*
X121205158Y-102806391D01*
X121190187Y-102830663D01*
X121190185Y-102830668D01*
X121183785Y-102849983D01*
X121135001Y-102997203D01*
X121135001Y-102997204D01*
X121135000Y-102997204D01*
X121124500Y-103099983D01*
X121124500Y-104000001D01*
X121124501Y-104000009D01*
X121135000Y-104102796D01*
X121135001Y-104102799D01*
X121190185Y-104269331D01*
X121190187Y-104269336D01*
X121202932Y-104289999D01*
X121282288Y-104418656D01*
X121406344Y-104542712D01*
X121555666Y-104634814D01*
X121722203Y-104689999D01*
X121824991Y-104700500D01*
X123175008Y-104700499D01*
X123277797Y-104689999D01*
X123444334Y-104634814D01*
X123593656Y-104542712D01*
X123717712Y-104418656D01*
X123809814Y-104269334D01*
X123827199Y-104216867D01*
X123827355Y-104216642D01*
X123827366Y-104216366D01*
X123847287Y-104187853D01*
X123866971Y-104159423D01*
X123867278Y-104159241D01*
X123867383Y-104159091D01*
X123868405Y-104158573D01*
X123897790Y-104141171D01*
X123905132Y-104138154D01*
X124011785Y-104109577D01*
X124096021Y-104060943D01*
X124103222Y-104056785D01*
X124103228Y-104056783D01*
X124148709Y-104030524D01*
X124148708Y-104030524D01*
X124148716Y-104030520D01*
X124260520Y-103918716D01*
X124260520Y-103918714D01*
X124270724Y-103908511D01*
X124270727Y-103908506D01*
X124742416Y-103436819D01*
X124803739Y-103403334D01*
X124830097Y-103400500D01*
X129025501Y-103400500D01*
X129092540Y-103420185D01*
X129138295Y-103472989D01*
X129149501Y-103524500D01*
X129149501Y-103600018D01*
X129160000Y-103702796D01*
X129160001Y-103702799D01*
X129177465Y-103755500D01*
X129215186Y-103869334D01*
X129307288Y-104018656D01*
X129431344Y-104142712D01*
X129580666Y-104234814D01*
X129747203Y-104289999D01*
X129849991Y-104300500D01*
X130175500Y-104300499D01*
X130242539Y-104320183D01*
X130288294Y-104372987D01*
X130299500Y-104424499D01*
X130299500Y-105413330D01*
X130299499Y-105413348D01*
X130299499Y-105579054D01*
X130299498Y-105579054D01*
X130322036Y-105663168D01*
X130340423Y-105731785D01*
X130361141Y-105767669D01*
X130396956Y-105829703D01*
X130419479Y-105868714D01*
X130419481Y-105868717D01*
X130538349Y-105987585D01*
X130538355Y-105987590D01*
X131595139Y-107044374D01*
X131595149Y-107044385D01*
X131599479Y-107048715D01*
X131599480Y-107048716D01*
X131711284Y-107160520D01*
X131798095Y-107210639D01*
X131798097Y-107210641D01*
X131836151Y-107232611D01*
X131848215Y-107239577D01*
X132000943Y-107280501D01*
X132000946Y-107280501D01*
X132166653Y-107280501D01*
X132166669Y-107280500D01*
X144693331Y-107280500D01*
X144693347Y-107280501D01*
X144700943Y-107280501D01*
X144859054Y-107280501D01*
X144859057Y-107280501D01*
X145011785Y-107239577D01*
X145061904Y-107210639D01*
X145148716Y-107160520D01*
X145260520Y-107048716D01*
X145260520Y-107048714D01*
X145270728Y-107038507D01*
X145270730Y-107038504D01*
X151746209Y-100563024D01*
X151807530Y-100529541D01*
X151877222Y-100534525D01*
G37*
%TD.AperFunction*%
%TA.AperFunction,NonConductor*%
G36*
X199156942Y-88250185D02*
G01*
X199177584Y-88266819D01*
X203533083Y-92622318D01*
X203566568Y-92683641D01*
X203561584Y-92753333D01*
X203533083Y-92797680D01*
X202297584Y-94033181D01*
X202236261Y-94066666D01*
X202209903Y-94069500D01*
X200017017Y-94069500D01*
X199949978Y-94049815D01*
X199904223Y-93997011D01*
X199899311Y-93984505D01*
X199879814Y-93925666D01*
X199787712Y-93776344D01*
X199663656Y-93652288D01*
X199514334Y-93560186D01*
X199347797Y-93505001D01*
X199347795Y-93505000D01*
X199245010Y-93494500D01*
X196994998Y-93494500D01*
X196994981Y-93494501D01*
X196892203Y-93505000D01*
X196892200Y-93505001D01*
X196725668Y-93560185D01*
X196725663Y-93560187D01*
X196576342Y-93652289D01*
X196452289Y-93776342D01*
X196360187Y-93925663D01*
X196360186Y-93925666D01*
X196305001Y-94092203D01*
X196305001Y-94092204D01*
X196305000Y-94092204D01*
X196294500Y-94194983D01*
X196294500Y-95145001D01*
X196294501Y-95145019D01*
X196305000Y-95247796D01*
X196305001Y-95247799D01*
X196360185Y-95414331D01*
X196360186Y-95414334D01*
X196452288Y-95563656D01*
X196576344Y-95687712D01*
X196725666Y-95779814D01*
X196892203Y-95834999D01*
X196994991Y-95845500D01*
X199245008Y-95845499D01*
X199347797Y-95834999D01*
X199514334Y-95779814D01*
X199663656Y-95687712D01*
X199787712Y-95563656D01*
X199879814Y-95414334D01*
X199899311Y-95355493D01*
X199939084Y-95298051D01*
X200003600Y-95271228D01*
X200017017Y-95270500D01*
X202423331Y-95270500D01*
X202423347Y-95270501D01*
X202430943Y-95270501D01*
X202589054Y-95270501D01*
X202589057Y-95270501D01*
X202741785Y-95229577D01*
X202809601Y-95190423D01*
X202878716Y-95150520D01*
X202990520Y-95038716D01*
X202990520Y-95038714D01*
X203000724Y-95028511D01*
X203000727Y-95028506D01*
X204382322Y-93646912D01*
X204443641Y-93613430D01*
X204513333Y-93618414D01*
X204557680Y-93646915D01*
X213275139Y-102364374D01*
X213275149Y-102364385D01*
X213279479Y-102368715D01*
X213279480Y-102368716D01*
X213391284Y-102480520D01*
X213478095Y-102530639D01*
X213478097Y-102530641D01*
X213516151Y-102552611D01*
X213528215Y-102559577D01*
X213680943Y-102600501D01*
X213680946Y-102600501D01*
X213846653Y-102600501D01*
X213846669Y-102600500D01*
X214567155Y-102600500D01*
X214634194Y-102620185D01*
X214677640Y-102668205D01*
X214717892Y-102747204D01*
X214735212Y-102781195D01*
X214873104Y-102970989D01*
X214873108Y-102970994D01*
X215039005Y-103136891D01*
X215039010Y-103136895D01*
X215204558Y-103257171D01*
X215228808Y-103274790D01*
X215288128Y-103305015D01*
X215338924Y-103352990D01*
X215355719Y-103420811D01*
X215333182Y-103486946D01*
X215278466Y-103530397D01*
X215231833Y-103539500D01*
X212390097Y-103539500D01*
X212323058Y-103519815D01*
X212302416Y-103503181D01*
X206517590Y-97718355D01*
X206517588Y-97718352D01*
X206398717Y-97599481D01*
X206398716Y-97599480D01*
X206311904Y-97549360D01*
X206311904Y-97549359D01*
X206311900Y-97549358D01*
X206261785Y-97520423D01*
X206109057Y-97479499D01*
X205950943Y-97479499D01*
X205943347Y-97479499D01*
X205943331Y-97479500D01*
X200017017Y-97479500D01*
X199949978Y-97459815D01*
X199904223Y-97407011D01*
X199899311Y-97394505D01*
X199896316Y-97385466D01*
X199879814Y-97335666D01*
X199787712Y-97186344D01*
X199663656Y-97062288D01*
X199570888Y-97005069D01*
X199514336Y-96970187D01*
X199514331Y-96970185D01*
X199512862Y-96969698D01*
X199347797Y-96915001D01*
X199347795Y-96915000D01*
X199245010Y-96904500D01*
X196994998Y-96904500D01*
X196994981Y-96904501D01*
X196892203Y-96915000D01*
X196892200Y-96915001D01*
X196725668Y-96970185D01*
X196725663Y-96970187D01*
X196576342Y-97062289D01*
X196452289Y-97186342D01*
X196360187Y-97335663D01*
X196360185Y-97335668D01*
X196350673Y-97364374D01*
X196305001Y-97502203D01*
X196305001Y-97502204D01*
X196305000Y-97502204D01*
X196294500Y-97604983D01*
X196294500Y-98555001D01*
X196294501Y-98555019D01*
X196305000Y-98657796D01*
X196305001Y-98657799D01*
X196360185Y-98824331D01*
X196360187Y-98824336D01*
X196375718Y-98849515D01*
X196452288Y-98973656D01*
X196576344Y-99097712D01*
X196725666Y-99189814D01*
X196892203Y-99244999D01*
X196994991Y-99255500D01*
X199245008Y-99255499D01*
X199347797Y-99244999D01*
X199514334Y-99189814D01*
X199663656Y-99097712D01*
X199787712Y-98973656D01*
X199879814Y-98824334D01*
X199899311Y-98765493D01*
X199939084Y-98708051D01*
X200003600Y-98681228D01*
X200017017Y-98680500D01*
X205729903Y-98680500D01*
X205796942Y-98700185D01*
X205817584Y-98716819D01*
X211605139Y-104504374D01*
X211605149Y-104504385D01*
X211609479Y-104508715D01*
X211609480Y-104508716D01*
X211721284Y-104620520D01*
X211804659Y-104668656D01*
X211841625Y-104689999D01*
X211858215Y-104699577D01*
X212010943Y-104740500D01*
X212169057Y-104740500D01*
X228513331Y-104740500D01*
X228513347Y-104740501D01*
X228520943Y-104740501D01*
X228679054Y-104740501D01*
X228679057Y-104740501D01*
X228831785Y-104699577D01*
X228885341Y-104668656D01*
X228968716Y-104620520D01*
X229080520Y-104508716D01*
X229080520Y-104508714D01*
X229090724Y-104498511D01*
X229090727Y-104498506D01*
X230327820Y-103261413D01*
X230389142Y-103227930D01*
X230458834Y-103232914D01*
X230514767Y-103274786D01*
X230539184Y-103340250D01*
X230539500Y-103349096D01*
X230539500Y-106379903D01*
X230519815Y-106446942D01*
X230503181Y-106467584D01*
X223307584Y-113663181D01*
X223246261Y-113696666D01*
X223219903Y-113699500D01*
X181724501Y-113699500D01*
X181715818Y-113696950D01*
X181706859Y-113698239D01*
X181682813Y-113687259D01*
X181657462Y-113679815D01*
X181651537Y-113672977D01*
X181643302Y-113669217D01*
X181629008Y-113646978D01*
X181611707Y-113627011D01*
X181609420Y-113616500D01*
X181605525Y-113610440D01*
X181600503Y-113575517D01*
X181600501Y-113575506D01*
X181600501Y-113560943D01*
X181600500Y-113560939D01*
X181600500Y-105074499D01*
X181620185Y-105007460D01*
X181672989Y-104961705D01*
X181724500Y-104950499D01*
X183500002Y-104950499D01*
X183500008Y-104950499D01*
X183602797Y-104939999D01*
X183769334Y-104884814D01*
X183918656Y-104792712D01*
X184042712Y-104668656D01*
X184134814Y-104519334D01*
X184189999Y-104352797D01*
X184200500Y-104250009D01*
X184200499Y-102849992D01*
X184189999Y-102747203D01*
X184134814Y-102580666D01*
X184042712Y-102431344D01*
X184023549Y-102412181D01*
X183990064Y-102350858D01*
X183995048Y-102281166D01*
X184036920Y-102225233D01*
X184102384Y-102200816D01*
X184111230Y-102200500D01*
X185119903Y-102200500D01*
X185186942Y-102220185D01*
X185207584Y-102236819D01*
X192555139Y-109584374D01*
X192555149Y-109584385D01*
X192559479Y-109588715D01*
X192559480Y-109588716D01*
X192671284Y-109700520D01*
X192671286Y-109700521D01*
X192671290Y-109700524D01*
X192805994Y-109778294D01*
X192808216Y-109779577D01*
X192920019Y-109809534D01*
X192960942Y-109820500D01*
X192960943Y-109820500D01*
X194181652Y-109820500D01*
X194248691Y-109840185D01*
X194287189Y-109879401D01*
X194362288Y-110001156D01*
X194486344Y-110125212D01*
X194635666Y-110217314D01*
X194802203Y-110272499D01*
X194904991Y-110283000D01*
X196255008Y-110282999D01*
X196357797Y-110272499D01*
X196524334Y-110217314D01*
X196673656Y-110125212D01*
X196797712Y-110001156D01*
X196872809Y-109879402D01*
X196924757Y-109832679D01*
X196978348Y-109820500D01*
X197991652Y-109820500D01*
X198058691Y-109840185D01*
X198097189Y-109879401D01*
X198172288Y-110001156D01*
X198296344Y-110125212D01*
X198445666Y-110217314D01*
X198612203Y-110272499D01*
X198714991Y-110283000D01*
X200065008Y-110282999D01*
X200167797Y-110272499D01*
X200334334Y-110217314D01*
X200483656Y-110125212D01*
X200607712Y-110001156D01*
X200682809Y-109879402D01*
X200734757Y-109832679D01*
X200788348Y-109820500D01*
X205653331Y-109820500D01*
X205653347Y-109820501D01*
X205660943Y-109820501D01*
X205819054Y-109820501D01*
X205819057Y-109820501D01*
X205971785Y-109779577D01*
X206021904Y-109750639D01*
X206108716Y-109700520D01*
X206220520Y-109588716D01*
X206220520Y-109588714D01*
X206230728Y-109578507D01*
X206230729Y-109578504D01*
X208172416Y-107636819D01*
X208233739Y-107603334D01*
X208260097Y-107600500D01*
X214395501Y-107600500D01*
X214462540Y-107620185D01*
X214508295Y-107672989D01*
X214519501Y-107724500D01*
X214519501Y-108037876D01*
X214525908Y-108097483D01*
X214576202Y-108232328D01*
X214576206Y-108232335D01*
X214662452Y-108347544D01*
X214662455Y-108347547D01*
X214777664Y-108433793D01*
X214777671Y-108433797D01*
X214912517Y-108484091D01*
X214912516Y-108484091D01*
X214919444Y-108484835D01*
X214972127Y-108490500D01*
X219027872Y-108490499D01*
X219087483Y-108484091D01*
X219222331Y-108433796D01*
X219337546Y-108347546D01*
X219423796Y-108232331D01*
X219474091Y-108097483D01*
X219480500Y-108037873D01*
X219480499Y-105962128D01*
X219474091Y-105902517D01*
X219474091Y-105902516D01*
X219423797Y-105767670D01*
X219423793Y-105767664D01*
X219337547Y-105652455D01*
X219337544Y-105652452D01*
X219222335Y-105566206D01*
X219222328Y-105566202D01*
X219087482Y-105515908D01*
X219087483Y-105515908D01*
X219027883Y-105509501D01*
X219027881Y-105509500D01*
X219027873Y-105509500D01*
X219027864Y-105509500D01*
X214972129Y-105509500D01*
X214972123Y-105509501D01*
X214912516Y-105515908D01*
X214777671Y-105566202D01*
X214777664Y-105566206D01*
X214662455Y-105652452D01*
X214662452Y-105652455D01*
X214576206Y-105767664D01*
X214576203Y-105767670D01*
X214525908Y-105902517D01*
X214521810Y-105940639D01*
X214519501Y-105962123D01*
X214519500Y-105962135D01*
X214519500Y-106275500D01*
X214499815Y-106342539D01*
X214447011Y-106388294D01*
X214395500Y-106399500D01*
X208039057Y-106399500D01*
X207880943Y-106399500D01*
X207728215Y-106440423D01*
X207728214Y-106440423D01*
X207728212Y-106440424D01*
X207728209Y-106440425D01*
X207678096Y-106469359D01*
X207678095Y-106469360D01*
X207634689Y-106494420D01*
X207591285Y-106519479D01*
X207591282Y-106519481D01*
X207479480Y-106631284D01*
X207479478Y-106631286D01*
X206490580Y-107620185D01*
X205527584Y-108583181D01*
X205466261Y-108616666D01*
X205439903Y-108619500D01*
X200788348Y-108619500D01*
X200721309Y-108599815D01*
X200682809Y-108560597D01*
X200607712Y-108438844D01*
X200483656Y-108314788D01*
X200349971Y-108232331D01*
X200334336Y-108222687D01*
X200334331Y-108222685D01*
X200332862Y-108222198D01*
X200167797Y-108167501D01*
X200167795Y-108167500D01*
X200065010Y-108157000D01*
X198714998Y-108157000D01*
X198714981Y-108157001D01*
X198612203Y-108167500D01*
X198612200Y-108167501D01*
X198445668Y-108222685D01*
X198445663Y-108222687D01*
X198296342Y-108314789D01*
X198172289Y-108438842D01*
X198172288Y-108438844D01*
X198103419Y-108550500D01*
X198097191Y-108560597D01*
X198045243Y-108607321D01*
X197991652Y-108619500D01*
X196978348Y-108619500D01*
X196911309Y-108599815D01*
X196872809Y-108560597D01*
X196797712Y-108438844D01*
X196673656Y-108314788D01*
X196539971Y-108232331D01*
X196524336Y-108222687D01*
X196524331Y-108222685D01*
X196522862Y-108222198D01*
X196357797Y-108167501D01*
X196357795Y-108167500D01*
X196255010Y-108157000D01*
X194904998Y-108157000D01*
X194904981Y-108157001D01*
X194802203Y-108167500D01*
X194802200Y-108167501D01*
X194635668Y-108222685D01*
X194635663Y-108222687D01*
X194486342Y-108314789D01*
X194362289Y-108438842D01*
X194362288Y-108438844D01*
X194293419Y-108550500D01*
X194287191Y-108560597D01*
X194235243Y-108607321D01*
X194181652Y-108619500D01*
X193340097Y-108619500D01*
X193273058Y-108599815D01*
X193252416Y-108583181D01*
X188503289Y-103834054D01*
X192439498Y-103834054D01*
X192480423Y-103986785D01*
X192488058Y-104000009D01*
X192559477Y-104123712D01*
X192559481Y-104123717D01*
X192678349Y-104242585D01*
X192678355Y-104242590D01*
X194178013Y-105742248D01*
X194211498Y-105803571D01*
X194213690Y-105842531D01*
X194204500Y-105932481D01*
X194204500Y-106657501D01*
X194204501Y-106657519D01*
X194215000Y-106760296D01*
X194215001Y-106760299D01*
X194265199Y-106911783D01*
X194270186Y-106926834D01*
X194362288Y-107076156D01*
X194486344Y-107200212D01*
X194635666Y-107292314D01*
X194802203Y-107347499D01*
X194904991Y-107358000D01*
X196255008Y-107357999D01*
X196357797Y-107347499D01*
X196524334Y-107292314D01*
X196673656Y-107200212D01*
X196797712Y-107076156D01*
X196889814Y-106926834D01*
X196944999Y-106760297D01*
X196955500Y-106657509D01*
X196955499Y-105932492D01*
X196955498Y-105932483D01*
X198014500Y-105932483D01*
X198014500Y-106657501D01*
X198014501Y-106657519D01*
X198025000Y-106760296D01*
X198025001Y-106760299D01*
X198075199Y-106911783D01*
X198080186Y-106926834D01*
X198172288Y-107076156D01*
X198296344Y-107200212D01*
X198445666Y-107292314D01*
X198612203Y-107347499D01*
X198714991Y-107358000D01*
X200065008Y-107357999D01*
X200167797Y-107347499D01*
X200334334Y-107292314D01*
X200483656Y-107200212D01*
X200607712Y-107076156D01*
X200699814Y-106926834D01*
X200754999Y-106760297D01*
X200765500Y-106657509D01*
X200765499Y-105932492D01*
X200758892Y-105867818D01*
X200754999Y-105829703D01*
X200754998Y-105829700D01*
X200742438Y-105791796D01*
X200699814Y-105663166D01*
X200607712Y-105513844D01*
X200483656Y-105389788D01*
X200334334Y-105297686D01*
X200167797Y-105242501D01*
X200167795Y-105242500D01*
X200065010Y-105232000D01*
X198714998Y-105232000D01*
X198714981Y-105232001D01*
X198612203Y-105242500D01*
X198612200Y-105242501D01*
X198445668Y-105297685D01*
X198445663Y-105297687D01*
X198296342Y-105389789D01*
X198172289Y-105513842D01*
X198080187Y-105663163D01*
X198080185Y-105663168D01*
X198057448Y-105731785D01*
X198025001Y-105829703D01*
X198025001Y-105829704D01*
X198025000Y-105829704D01*
X198014500Y-105932483D01*
X196955498Y-105932483D01*
X196948892Y-105867818D01*
X196944999Y-105829703D01*
X196944998Y-105829700D01*
X196932438Y-105791796D01*
X196889814Y-105663166D01*
X196797712Y-105513844D01*
X196673656Y-105389788D01*
X196524334Y-105297686D01*
X196357797Y-105242501D01*
X196357795Y-105242500D01*
X196255016Y-105232000D01*
X196255009Y-105232000D01*
X195417597Y-105232000D01*
X195350558Y-105212315D01*
X195329916Y-105195681D01*
X193676819Y-103542584D01*
X193643334Y-103481261D01*
X193640500Y-103454903D01*
X193640500Y-102104983D01*
X196294500Y-102104983D01*
X196294500Y-103055001D01*
X196294501Y-103055019D01*
X196305000Y-103157796D01*
X196305001Y-103157799D01*
X196360185Y-103324331D01*
X196360187Y-103324336D01*
X196376338Y-103350521D01*
X196452288Y-103473656D01*
X196576344Y-103597712D01*
X196725666Y-103689814D01*
X196892203Y-103744999D01*
X196994991Y-103755500D01*
X199245008Y-103755499D01*
X199347797Y-103744999D01*
X199514334Y-103689814D01*
X199663656Y-103597712D01*
X199787712Y-103473656D01*
X199879814Y-103324334D01*
X199934999Y-103157797D01*
X199945500Y-103055009D01*
X199945499Y-102104992D01*
X199942486Y-102075500D01*
X199934999Y-102002203D01*
X199934998Y-102002200D01*
X199927082Y-101978311D01*
X199879814Y-101835666D01*
X199787712Y-101686344D01*
X199663656Y-101562288D01*
X199560201Y-101498477D01*
X199514336Y-101470187D01*
X199514331Y-101470185D01*
X199512862Y-101469698D01*
X199347797Y-101415001D01*
X199347795Y-101415000D01*
X199245010Y-101404500D01*
X196994998Y-101404500D01*
X196994981Y-101404501D01*
X196892203Y-101415000D01*
X196892200Y-101415001D01*
X196725668Y-101470185D01*
X196725663Y-101470187D01*
X196576342Y-101562289D01*
X196452289Y-101686342D01*
X196360187Y-101835663D01*
X196360185Y-101835668D01*
X196352641Y-101858436D01*
X196305001Y-102002203D01*
X196305001Y-102002204D01*
X196305000Y-102002204D01*
X196294500Y-102104983D01*
X193640500Y-102104983D01*
X193640500Y-93010097D01*
X193660185Y-92943058D01*
X193676819Y-92922416D01*
X195792416Y-90806819D01*
X195853739Y-90773334D01*
X195880097Y-90770500D01*
X196222983Y-90770500D01*
X196290022Y-90790185D01*
X196335777Y-90842989D01*
X196340686Y-90855489D01*
X196360186Y-90914334D01*
X196452288Y-91063656D01*
X196576344Y-91187712D01*
X196725666Y-91279814D01*
X196892203Y-91334999D01*
X196994991Y-91345500D01*
X199245008Y-91345499D01*
X199347797Y-91334999D01*
X199514334Y-91279814D01*
X199663656Y-91187712D01*
X199787712Y-91063656D01*
X199879814Y-90914334D01*
X199934999Y-90747797D01*
X199945500Y-90645009D01*
X199945499Y-89694992D01*
X199944935Y-89689475D01*
X199934999Y-89592203D01*
X199934998Y-89592200D01*
X199899311Y-89484505D01*
X199879814Y-89425666D01*
X199787712Y-89276344D01*
X199663656Y-89152288D01*
X199514334Y-89060186D01*
X199347797Y-89005001D01*
X199347795Y-89005000D01*
X199245010Y-88994500D01*
X196994998Y-88994500D01*
X196994981Y-88994501D01*
X196892203Y-89005000D01*
X196892200Y-89005001D01*
X196725668Y-89060185D01*
X196725663Y-89060187D01*
X196576342Y-89152289D01*
X196452289Y-89276342D01*
X196360187Y-89425663D01*
X196360186Y-89425666D01*
X196340689Y-89484505D01*
X196300916Y-89541949D01*
X196236400Y-89568772D01*
X196222983Y-89569500D01*
X195500940Y-89569500D01*
X195460019Y-89580464D01*
X195460019Y-89580465D01*
X195422751Y-89590451D01*
X195348214Y-89610423D01*
X195348209Y-89610426D01*
X195211290Y-89689475D01*
X195211282Y-89689481D01*
X192559481Y-92341282D01*
X192559479Y-92341285D01*
X192509361Y-92428094D01*
X192509359Y-92428096D01*
X192480425Y-92478209D01*
X192480424Y-92478210D01*
X192480423Y-92478215D01*
X192439499Y-92630943D01*
X192439499Y-92789057D01*
X192439499Y-92789059D01*
X192439500Y-92799053D01*
X192439500Y-103668330D01*
X192439499Y-103668348D01*
X192439499Y-103834054D01*
X192439498Y-103834054D01*
X188503289Y-103834054D01*
X185907590Y-101238355D01*
X185907588Y-101238352D01*
X185788717Y-101119481D01*
X185788716Y-101119480D01*
X185707146Y-101072386D01*
X185658931Y-101021820D01*
X185645707Y-100953213D01*
X185671675Y-100888348D01*
X185707146Y-100857612D01*
X185788716Y-100810520D01*
X185900520Y-100698716D01*
X185900520Y-100698714D01*
X185910728Y-100688507D01*
X185910730Y-100688504D01*
X187048506Y-99550728D01*
X187048511Y-99550724D01*
X187058714Y-99540520D01*
X187058716Y-99540520D01*
X187170520Y-99428716D01*
X187225629Y-99333263D01*
X187240625Y-99307290D01*
X187240626Y-99307289D01*
X187245122Y-99299501D01*
X187249577Y-99291785D01*
X187290500Y-99139058D01*
X187290500Y-98980943D01*
X187290500Y-98980942D01*
X187290500Y-88354500D01*
X187310185Y-88287461D01*
X187362989Y-88241706D01*
X187414500Y-88230500D01*
X199089903Y-88230500D01*
X199156942Y-88250185D01*
G37*
%TD.AperFunction*%
%TA.AperFunction,NonConductor*%
G36*
X177910015Y-102206738D02*
G01*
X177932104Y-102208318D01*
X177942887Y-102216390D01*
X177955809Y-102220185D01*
X177970308Y-102236918D01*
X177988037Y-102250190D01*
X177992744Y-102262810D01*
X178001564Y-102272989D01*
X178004715Y-102294906D01*
X178012454Y-102315654D01*
X178009591Y-102328814D01*
X178011508Y-102342147D01*
X178002308Y-102362290D01*
X177997602Y-102383927D01*
X177984333Y-102401652D01*
X177982483Y-102405703D01*
X177976451Y-102412181D01*
X177957289Y-102431342D01*
X177865187Y-102580663D01*
X177865185Y-102580668D01*
X177851733Y-102621265D01*
X177810001Y-102747203D01*
X177810001Y-102747204D01*
X177810000Y-102747204D01*
X177799500Y-102849983D01*
X177799500Y-104250001D01*
X177799501Y-104250018D01*
X177810000Y-104352796D01*
X177810001Y-104352799D01*
X177865185Y-104519331D01*
X177865187Y-104519336D01*
X177900069Y-104575888D01*
X177957288Y-104668656D01*
X178081344Y-104792712D01*
X178230666Y-104884814D01*
X178397203Y-104939999D01*
X178499991Y-104950500D01*
X180275500Y-104950499D01*
X180342539Y-104970184D01*
X180388294Y-105022987D01*
X180399500Y-105074499D01*
X180399500Y-113339903D01*
X180379815Y-113406942D01*
X180363181Y-113427584D01*
X180127584Y-113663181D01*
X180066261Y-113696666D01*
X180039903Y-113699500D01*
X166849097Y-113699500D01*
X166782058Y-113679815D01*
X166736303Y-113627011D01*
X166726359Y-113557853D01*
X166755384Y-113494297D01*
X166761416Y-113487819D01*
X169390519Y-110858716D01*
X172480520Y-107768716D01*
X172559577Y-107631784D01*
X172600501Y-107479057D01*
X172600501Y-107320942D01*
X172600501Y-107313347D01*
X172600500Y-107313329D01*
X172600500Y-105074499D01*
X172620185Y-105007460D01*
X172672989Y-104961705D01*
X172724500Y-104950499D01*
X174500002Y-104950499D01*
X174500008Y-104950499D01*
X174602797Y-104939999D01*
X174769334Y-104884814D01*
X174918656Y-104792712D01*
X175042712Y-104668656D01*
X175134814Y-104519334D01*
X175189999Y-104352797D01*
X175200500Y-104250009D01*
X175200499Y-102849992D01*
X175189999Y-102747203D01*
X175134814Y-102580666D01*
X175042712Y-102431344D01*
X175023549Y-102412181D01*
X174990064Y-102350858D01*
X174995048Y-102281166D01*
X175036920Y-102225233D01*
X175102384Y-102200816D01*
X175111230Y-102200500D01*
X177888770Y-102200500D01*
X177910015Y-102206738D01*
G37*
%TD.AperFunction*%
%TA.AperFunction,NonConductor*%
G36*
X159652437Y-93230185D02*
G01*
X159695883Y-93278205D01*
X159702715Y-93291614D01*
X159823028Y-93457213D01*
X159967786Y-93601971D01*
X160122749Y-93714556D01*
X160133390Y-93722287D01*
X160224840Y-93768883D01*
X160226080Y-93769515D01*
X160276876Y-93817490D01*
X160293671Y-93885311D01*
X160271134Y-93951446D01*
X160226080Y-93990485D01*
X160133386Y-94037715D01*
X159967786Y-94158028D01*
X159823028Y-94302786D01*
X159702715Y-94468386D01*
X159609781Y-94650776D01*
X159546522Y-94845465D01*
X159514500Y-95047648D01*
X159514500Y-95252351D01*
X159546522Y-95454534D01*
X159609781Y-95649223D01*
X159702715Y-95831613D01*
X159823028Y-95997213D01*
X159967786Y-96141971D01*
X160089666Y-96230520D01*
X160133390Y-96262287D01*
X160224840Y-96308883D01*
X160226080Y-96309515D01*
X160276876Y-96357490D01*
X160293671Y-96425311D01*
X160271134Y-96491446D01*
X160226080Y-96530485D01*
X160133386Y-96577715D01*
X159967786Y-96698028D01*
X159823028Y-96842786D01*
X159702715Y-97008386D01*
X159609781Y-97190776D01*
X159546522Y-97385465D01*
X159514500Y-97587647D01*
X159514500Y-97792351D01*
X159546522Y-97994534D01*
X159609781Y-98189223D01*
X159671415Y-98310185D01*
X159702712Y-98371609D01*
X159702715Y-98371613D01*
X159823028Y-98537213D01*
X159967786Y-98681971D01*
X160111332Y-98786261D01*
X160133390Y-98802287D01*
X160222288Y-98847583D01*
X160226080Y-98849515D01*
X160276876Y-98897490D01*
X160293671Y-98965311D01*
X160271134Y-99031446D01*
X160226080Y-99070485D01*
X160133386Y-99117715D01*
X159967786Y-99238028D01*
X159823028Y-99382786D01*
X159702715Y-99548386D01*
X159609781Y-99730776D01*
X159546522Y-99925465D01*
X159514500Y-100127648D01*
X159514500Y-100332352D01*
X159519383Y-100363181D01*
X159546521Y-100534525D01*
X159546522Y-100534534D01*
X159609781Y-100729223D01*
X159651204Y-100810519D01*
X159696801Y-100900008D01*
X159702715Y-100911613D01*
X159823028Y-101077213D01*
X159967786Y-101221971D01*
X160100864Y-101318656D01*
X160133390Y-101342287D01*
X160225519Y-101389229D01*
X160315776Y-101435218D01*
X160315778Y-101435218D01*
X160315781Y-101435220D01*
X160390818Y-101459601D01*
X160510465Y-101498477D01*
X160611557Y-101514488D01*
X160712648Y-101530500D01*
X160712649Y-101530500D01*
X160917351Y-101530500D01*
X160917352Y-101530500D01*
X161119534Y-101498477D01*
X161314219Y-101435220D01*
X161496610Y-101342287D01*
X161607521Y-101261706D01*
X161662213Y-101221971D01*
X161662215Y-101221968D01*
X161662219Y-101221966D01*
X161806966Y-101077219D01*
X161806968Y-101077215D01*
X161806971Y-101077213D01*
X161861038Y-101002795D01*
X161927287Y-100911610D01*
X162020220Y-100729219D01*
X162083477Y-100534534D01*
X162083479Y-100534525D01*
X162110617Y-100363181D01*
X162115500Y-100332352D01*
X162115500Y-100127648D01*
X162095279Y-99999980D01*
X162083477Y-99925465D01*
X162020218Y-99730776D01*
X161982632Y-99657011D01*
X161927287Y-99548390D01*
X161896115Y-99505485D01*
X161806971Y-99382786D01*
X161662213Y-99238028D01*
X161496614Y-99117715D01*
X161457352Y-99097710D01*
X161403917Y-99070483D01*
X161353123Y-99022511D01*
X161336328Y-98954690D01*
X161358865Y-98888555D01*
X161403917Y-98849516D01*
X161496610Y-98802287D01*
X161554947Y-98759903D01*
X161662213Y-98681971D01*
X161662215Y-98681968D01*
X161662219Y-98681966D01*
X161806966Y-98537219D01*
X161806968Y-98537215D01*
X161806971Y-98537213D01*
X161859732Y-98464590D01*
X161927287Y-98371610D01*
X162020220Y-98189219D01*
X162083477Y-97994534D01*
X162115500Y-97792352D01*
X162115500Y-97587648D01*
X162109436Y-97549358D01*
X162083477Y-97385465D01*
X162039050Y-97248735D01*
X162020220Y-97190781D01*
X162020218Y-97190778D01*
X162020218Y-97190776D01*
X161982782Y-97117305D01*
X161927287Y-97008390D01*
X161899531Y-96970187D01*
X161806971Y-96842786D01*
X161662213Y-96698028D01*
X161496614Y-96577715D01*
X161478837Y-96568657D01*
X161403917Y-96530483D01*
X161353123Y-96482511D01*
X161336328Y-96414690D01*
X161358865Y-96348555D01*
X161403917Y-96309516D01*
X161496610Y-96262287D01*
X161565252Y-96212416D01*
X161662213Y-96141971D01*
X161662215Y-96141968D01*
X161662219Y-96141966D01*
X161806966Y-95997219D01*
X161806968Y-95997215D01*
X161806971Y-95997213D01*
X161904401Y-95863110D01*
X161927287Y-95831610D01*
X162020220Y-95649219D01*
X162083477Y-95454534D01*
X162115500Y-95252352D01*
X162115500Y-95047648D01*
X162083477Y-94845466D01*
X162020220Y-94650781D01*
X162020218Y-94650778D01*
X162020218Y-94650776D01*
X161986503Y-94584607D01*
X161927287Y-94468390D01*
X161919556Y-94457749D01*
X161806971Y-94302786D01*
X161662213Y-94158028D01*
X161496614Y-94037715D01*
X161487715Y-94033181D01*
X161403917Y-93990483D01*
X161353123Y-93942511D01*
X161336328Y-93874690D01*
X161358865Y-93808555D01*
X161403917Y-93769516D01*
X161496610Y-93722287D01*
X161592955Y-93652289D01*
X161662213Y-93601971D01*
X161662215Y-93601968D01*
X161662219Y-93601966D01*
X161806966Y-93457219D01*
X161806968Y-93457215D01*
X161806971Y-93457213D01*
X161927284Y-93291614D01*
X161927283Y-93291614D01*
X161927287Y-93291610D01*
X161934117Y-93278204D01*
X161944566Y-93267140D01*
X161950889Y-93253297D01*
X161968068Y-93242256D01*
X161982091Y-93227409D01*
X161997772Y-93223167D01*
X162009667Y-93215523D01*
X162044602Y-93210500D01*
X162159903Y-93210500D01*
X162226942Y-93230185D01*
X162247584Y-93246819D01*
X163193181Y-94192416D01*
X163226666Y-94253739D01*
X163229500Y-94280097D01*
X163229500Y-98973330D01*
X163229499Y-98973348D01*
X163229499Y-99139054D01*
X163229498Y-99139054D01*
X163232436Y-99150018D01*
X163270423Y-99291785D01*
X163270424Y-99291787D01*
X163270423Y-99291787D01*
X163279374Y-99307289D01*
X163279375Y-99307290D01*
X163349477Y-99428712D01*
X163349481Y-99428717D01*
X163468349Y-99547585D01*
X163468355Y-99547590D01*
X165885139Y-101964374D01*
X165885149Y-101964385D01*
X165889479Y-101968715D01*
X165889480Y-101968716D01*
X166001284Y-102080520D01*
X166001286Y-102080521D01*
X166001290Y-102080524D01*
X166122492Y-102150499D01*
X166138216Y-102159577D01*
X166250019Y-102189534D01*
X166290942Y-102200500D01*
X166290943Y-102200500D01*
X168888770Y-102200500D01*
X168955809Y-102220185D01*
X169001564Y-102272989D01*
X169011508Y-102342147D01*
X168982483Y-102405703D01*
X168976451Y-102412181D01*
X168957289Y-102431342D01*
X168865187Y-102580663D01*
X168865185Y-102580668D01*
X168851733Y-102621265D01*
X168810001Y-102747203D01*
X168810001Y-102747204D01*
X168810000Y-102747204D01*
X168799500Y-102849983D01*
X168799500Y-104250001D01*
X168799501Y-104250018D01*
X168810000Y-104352796D01*
X168810001Y-104352799D01*
X168865185Y-104519331D01*
X168865187Y-104519336D01*
X168900069Y-104575888D01*
X168957288Y-104668656D01*
X169081344Y-104792712D01*
X169230666Y-104884814D01*
X169397203Y-104939999D01*
X169499991Y-104950500D01*
X171275500Y-104950499D01*
X171342539Y-104970184D01*
X171388294Y-105022987D01*
X171399500Y-105074499D01*
X171399500Y-107099902D01*
X171379815Y-107166941D01*
X171363181Y-107187583D01*
X164887584Y-113663181D01*
X164826261Y-113696666D01*
X164799903Y-113699500D01*
X157405097Y-113699500D01*
X157338058Y-113679815D01*
X157317416Y-113663181D01*
X153831819Y-110177584D01*
X153798334Y-110116261D01*
X153795500Y-110089903D01*
X153795500Y-101459601D01*
X153815185Y-101392562D01*
X153863206Y-101349116D01*
X153876610Y-101342287D01*
X154042219Y-101221966D01*
X154186966Y-101077219D01*
X154186968Y-101077215D01*
X154186971Y-101077213D01*
X154241038Y-101002795D01*
X154307287Y-100911610D01*
X154400220Y-100729219D01*
X154463477Y-100534534D01*
X154463479Y-100534525D01*
X154490617Y-100363181D01*
X154495500Y-100332352D01*
X154495500Y-100127648D01*
X154475279Y-99999980D01*
X154463477Y-99925465D01*
X154400218Y-99730776D01*
X154362632Y-99657011D01*
X154307287Y-99548390D01*
X154276115Y-99505485D01*
X154186971Y-99382786D01*
X154042213Y-99238028D01*
X153876614Y-99117715D01*
X153837352Y-99097710D01*
X153783917Y-99070483D01*
X153733123Y-99022511D01*
X153716328Y-98954690D01*
X153738865Y-98888555D01*
X153783917Y-98849516D01*
X153876610Y-98802287D01*
X153934947Y-98759903D01*
X154042213Y-98681971D01*
X154042215Y-98681968D01*
X154042219Y-98681966D01*
X154186966Y-98537219D01*
X154186968Y-98537215D01*
X154186971Y-98537213D01*
X154239732Y-98464590D01*
X154307287Y-98371610D01*
X154400220Y-98189219D01*
X154463477Y-97994534D01*
X154485172Y-97857551D01*
X154515101Y-97794418D01*
X154519946Y-97789287D01*
X159062416Y-93246819D01*
X159123739Y-93213334D01*
X159150097Y-93210500D01*
X159585398Y-93210500D01*
X159652437Y-93230185D01*
G37*
%TD.AperFunction*%
%TA.AperFunction,NonConductor*%
G36*
X232353039Y-83839685D02*
G01*
X232398794Y-83892489D01*
X232410000Y-83944000D01*
X232410000Y-115447340D01*
X232390315Y-115514379D01*
X232337511Y-115560134D01*
X232287348Y-115571333D01*
X115695348Y-116838637D01*
X115628098Y-116819682D01*
X115581772Y-116767378D01*
X115570000Y-116714644D01*
X115570000Y-104255366D01*
X115576650Y-104232717D01*
X115578907Y-104209219D01*
X115586312Y-104199812D01*
X115589685Y-104188327D01*
X115607522Y-104172870D01*
X115622126Y-104154321D01*
X115633442Y-104150410D01*
X115642489Y-104142572D01*
X115665851Y-104139212D01*
X115688165Y-104131503D01*
X115703169Y-104133846D01*
X115711647Y-104132628D01*
X115723298Y-104134877D01*
X115730441Y-104136614D01*
X115817517Y-104169091D01*
X115877127Y-104175500D01*
X115890362Y-104175499D01*
X115904798Y-104179010D01*
X115922667Y-104189339D01*
X115942478Y-104195144D01*
X115952305Y-104206472D01*
X115965288Y-104213977D01*
X115974736Y-104232328D01*
X115988264Y-104247921D01*
X115992296Y-104266433D01*
X115997272Y-104276096D01*
X115996393Y-104285240D01*
X115999500Y-104299499D01*
X115999500Y-105083330D01*
X115999499Y-105083348D01*
X115999499Y-105249054D01*
X115999498Y-105249054D01*
X116040423Y-105401787D01*
X116040424Y-105401788D01*
X116051482Y-105420940D01*
X116051484Y-105420943D01*
X116119477Y-105538712D01*
X116119481Y-105538717D01*
X116238349Y-105657585D01*
X116238355Y-105657590D01*
X121439481Y-110858716D01*
X121551284Y-110970519D01*
X121688215Y-111049577D01*
X121840943Y-111090501D01*
X121840946Y-111090501D01*
X121999054Y-111090501D01*
X121999057Y-111090501D01*
X122151785Y-111049577D01*
X122172597Y-111037560D01*
X122225335Y-111007113D01*
X122287335Y-110990500D01*
X152894903Y-110990500D01*
X152961942Y-111010185D01*
X152982584Y-111026819D01*
X156620139Y-114664374D01*
X156620149Y-114664385D01*
X156624479Y-114668715D01*
X156624480Y-114668716D01*
X156736284Y-114780520D01*
X156823095Y-114830639D01*
X156823097Y-114830641D01*
X156861151Y-114852611D01*
X156873215Y-114859577D01*
X157025943Y-114900501D01*
X157025946Y-114900501D01*
X157191653Y-114900501D01*
X157191669Y-114900500D01*
X165020939Y-114900500D01*
X165020943Y-114900501D01*
X165179057Y-114900501D01*
X165179061Y-114900500D01*
X180253331Y-114900500D01*
X180253347Y-114900501D01*
X180260943Y-114900501D01*
X180426653Y-114900501D01*
X180426669Y-114900500D01*
X223433331Y-114900500D01*
X223433347Y-114900501D01*
X223440943Y-114900501D01*
X223599054Y-114900501D01*
X223599057Y-114900501D01*
X223751785Y-114859577D01*
X223801904Y-114830639D01*
X223888716Y-114780520D01*
X224000520Y-114668716D01*
X224000520Y-114668714D01*
X224010728Y-114658507D01*
X224010730Y-114658504D01*
X231498506Y-107170728D01*
X231498511Y-107170724D01*
X231508714Y-107160520D01*
X231508716Y-107160520D01*
X231620520Y-107048716D01*
X231699577Y-106911784D01*
X231740500Y-106759057D01*
X231740500Y-101520943D01*
X231740500Y-101520942D01*
X231740500Y-96440943D01*
X231735297Y-96421523D01*
X231699577Y-96288215D01*
X231666266Y-96230519D01*
X231620520Y-96151284D01*
X231508716Y-96039480D01*
X231508715Y-96039479D01*
X231504385Y-96035149D01*
X231504374Y-96035139D01*
X227107590Y-91638355D01*
X227107588Y-91638352D01*
X226988717Y-91519481D01*
X226988716Y-91519480D01*
X226898316Y-91467288D01*
X226851785Y-91440423D01*
X226699057Y-91399499D01*
X226540943Y-91399499D01*
X226533347Y-91399499D01*
X226533331Y-91399500D01*
X219432845Y-91399500D01*
X219365806Y-91379815D01*
X219322360Y-91331795D01*
X219292494Y-91273181D01*
X219264790Y-91218808D01*
X219213866Y-91148717D01*
X219126895Y-91029010D01*
X219126891Y-91029005D01*
X218960994Y-90863108D01*
X218960989Y-90863104D01*
X218771195Y-90725212D01*
X218771194Y-90725211D01*
X218771192Y-90725210D01*
X218613803Y-90645016D01*
X218562150Y-90618697D01*
X218339027Y-90546201D01*
X218223165Y-90527850D01*
X218107305Y-90509500D01*
X215892695Y-90509500D01*
X215815454Y-90521733D01*
X215660972Y-90546201D01*
X215437849Y-90618697D01*
X215228804Y-90725212D01*
X215039010Y-90863104D01*
X215039005Y-90863108D01*
X214873108Y-91029005D01*
X214873104Y-91029010D01*
X214735212Y-91218804D01*
X214628697Y-91427849D01*
X214556201Y-91650972D01*
X214538492Y-91762786D01*
X214519500Y-91882695D01*
X214519500Y-92117305D01*
X214523579Y-92143057D01*
X214556201Y-92349027D01*
X214628697Y-92572150D01*
X214735212Y-92781195D01*
X214873104Y-92970989D01*
X214873108Y-92970994D01*
X215039005Y-93136891D01*
X215039010Y-93136895D01*
X215190309Y-93246819D01*
X215228808Y-93274790D01*
X215437847Y-93381301D01*
X215437849Y-93381302D01*
X215549410Y-93417550D01*
X215660974Y-93453799D01*
X215892695Y-93490500D01*
X215892696Y-93490500D01*
X218107304Y-93490500D01*
X218107305Y-93490500D01*
X218339026Y-93453799D01*
X218562153Y-93381301D01*
X218771192Y-93274790D01*
X218960996Y-93136890D01*
X219126890Y-92970996D01*
X219264790Y-92781192D01*
X219322360Y-92668205D01*
X219370335Y-92617409D01*
X219432845Y-92600500D01*
X226319903Y-92600500D01*
X226386942Y-92620185D01*
X226407584Y-92636819D01*
X230503181Y-96732416D01*
X230536666Y-96793739D01*
X230539500Y-96820097D01*
X230539500Y-101299903D01*
X230519815Y-101366942D01*
X230503181Y-101387584D01*
X228387584Y-103503181D01*
X228326261Y-103536666D01*
X228299903Y-103539500D01*
X218768167Y-103539500D01*
X218701128Y-103519815D01*
X218655373Y-103467011D01*
X218645429Y-103397853D01*
X218674454Y-103334297D01*
X218711872Y-103305015D01*
X218771192Y-103274790D01*
X218960996Y-103136890D01*
X219126890Y-102970996D01*
X219264790Y-102781192D01*
X219371301Y-102572153D01*
X219443799Y-102349026D01*
X219480500Y-102117305D01*
X219480500Y-101882695D01*
X219443799Y-101650974D01*
X219388416Y-101480522D01*
X219371302Y-101427849D01*
X219364755Y-101415000D01*
X219264790Y-101218808D01*
X219228843Y-101169331D01*
X219126895Y-101029010D01*
X219126891Y-101029005D01*
X218960994Y-100863108D01*
X218960989Y-100863104D01*
X218771195Y-100725212D01*
X218771194Y-100725211D01*
X218771192Y-100725210D01*
X218666672Y-100671954D01*
X218562150Y-100618697D01*
X218339027Y-100546201D01*
X218223165Y-100527850D01*
X218107305Y-100509500D01*
X215892695Y-100509500D01*
X215815454Y-100521733D01*
X215660972Y-100546201D01*
X215437849Y-100618697D01*
X215228804Y-100725212D01*
X215039010Y-100863104D01*
X215039005Y-100863108D01*
X214873108Y-101029005D01*
X214873104Y-101029010D01*
X214735212Y-101218804D01*
X214677640Y-101331795D01*
X214629665Y-101382591D01*
X214567155Y-101399500D01*
X214060097Y-101399500D01*
X213993058Y-101379815D01*
X213972416Y-101363181D01*
X204950521Y-92341286D01*
X204950520Y-92341284D01*
X204838716Y-92229480D01*
X204838713Y-92229478D01*
X199921416Y-87312181D01*
X199887931Y-87250858D01*
X199892915Y-87181166D01*
X199934787Y-87125233D01*
X200000251Y-87100816D01*
X200009097Y-87100500D01*
X200036311Y-87100500D01*
X200103350Y-87120185D01*
X200123992Y-87136819D01*
X210351547Y-97364374D01*
X210351557Y-97364385D01*
X210355887Y-97368715D01*
X210355888Y-97368716D01*
X210467692Y-97480520D01*
X210467694Y-97480521D01*
X210467698Y-97480524D01*
X210572906Y-97541265D01*
X210604624Y-97559577D01*
X210709387Y-97587648D01*
X210757350Y-97600500D01*
X210757351Y-97600500D01*
X214567155Y-97600500D01*
X214634194Y-97620185D01*
X214677640Y-97668205D01*
X214699414Y-97710939D01*
X214719312Y-97749991D01*
X214735212Y-97781195D01*
X214873104Y-97970989D01*
X214873108Y-97970994D01*
X215039005Y-98136891D01*
X215039010Y-98136895D01*
X215204558Y-98257171D01*
X215228808Y-98274790D01*
X215418833Y-98371613D01*
X215437849Y-98381302D01*
X215549410Y-98417550D01*
X215660974Y-98453799D01*
X215892695Y-98490500D01*
X215892696Y-98490500D01*
X218107304Y-98490500D01*
X218107305Y-98490500D01*
X218339026Y-98453799D01*
X218562153Y-98381301D01*
X218771192Y-98274790D01*
X218960996Y-98136890D01*
X219126890Y-97970996D01*
X219264790Y-97781192D01*
X219371301Y-97572153D01*
X219443799Y-97349026D01*
X219480500Y-97117305D01*
X219480500Y-96882695D01*
X219443799Y-96650974D01*
X219396607Y-96505732D01*
X219371302Y-96427849D01*
X219364002Y-96413522D01*
X219264790Y-96218808D01*
X219208961Y-96141966D01*
X219126895Y-96029010D01*
X219126891Y-96029005D01*
X218960994Y-95863108D01*
X218960989Y-95863104D01*
X218771195Y-95725212D01*
X218771194Y-95725211D01*
X218771192Y-95725210D01*
X218622052Y-95649219D01*
X218562150Y-95618697D01*
X218339027Y-95546201D01*
X218170316Y-95519480D01*
X218107305Y-95509500D01*
X215892695Y-95509500D01*
X215829684Y-95519480D01*
X215660972Y-95546201D01*
X215437849Y-95618697D01*
X215228804Y-95725212D01*
X215039010Y-95863104D01*
X215039005Y-95863108D01*
X214873108Y-96029005D01*
X214873104Y-96029010D01*
X214735212Y-96218804D01*
X214677640Y-96331795D01*
X214629665Y-96382591D01*
X214567155Y-96399500D01*
X211136505Y-96399500D01*
X211069466Y-96379815D01*
X211048824Y-96363181D01*
X200823998Y-86138355D01*
X200823996Y-86138352D01*
X200705125Y-86019481D01*
X200705124Y-86019480D01*
X200618312Y-85969360D01*
X200618312Y-85969359D01*
X200618308Y-85969358D01*
X200568193Y-85940423D01*
X200415465Y-85899499D01*
X200257351Y-85899499D01*
X200249755Y-85899499D01*
X200249739Y-85899500D01*
X182079057Y-85899500D01*
X181579061Y-85899500D01*
X181579057Y-85899499D01*
X181420943Y-85899499D01*
X181420939Y-85899500D01*
X132920940Y-85899500D01*
X132880019Y-85910464D01*
X132880019Y-85910465D01*
X132842751Y-85920451D01*
X132768214Y-85940423D01*
X132768209Y-85940426D01*
X132631290Y-86019475D01*
X132631282Y-86019481D01*
X132519480Y-86131284D01*
X132519478Y-86131286D01*
X123381284Y-95269481D01*
X122131286Y-96519478D01*
X122131284Y-96519480D01*
X122019480Y-96631284D01*
X122019478Y-96631286D01*
X120140358Y-98510407D01*
X118287584Y-100363181D01*
X118226261Y-100396666D01*
X118199903Y-100399500D01*
X117679890Y-100399500D01*
X117612851Y-100379815D01*
X117579572Y-100348385D01*
X117496623Y-100234216D01*
X117496618Y-100234210D01*
X117365789Y-100103381D01*
X117365787Y-100103379D01*
X117216096Y-99994622D01*
X117181533Y-99977011D01*
X117051235Y-99910620D01*
X117051232Y-99910619D01*
X116875265Y-99853445D01*
X116783889Y-99838972D01*
X116692514Y-99824500D01*
X116507486Y-99824500D01*
X116446569Y-99834148D01*
X116324734Y-99853445D01*
X116148767Y-99910619D01*
X116148764Y-99910620D01*
X115983903Y-99994622D01*
X115908371Y-100049500D01*
X115834213Y-100103379D01*
X115834211Y-100103381D01*
X115834210Y-100103381D01*
X115781681Y-100155911D01*
X115720358Y-100189396D01*
X115650666Y-100184412D01*
X115594733Y-100142540D01*
X115570316Y-100077076D01*
X115570000Y-100068230D01*
X115570000Y-83944000D01*
X115589685Y-83876961D01*
X115642489Y-83831206D01*
X115694000Y-83820000D01*
X232286000Y-83820000D01*
X232353039Y-83839685D01*
G37*
%TD.AperFunction*%
M02*
