%TF.GenerationSoftware,KiCad,Pcbnew,9.0.2*%
%TF.CreationDate,2026-08-02T14:52:52+07:00*%
%TF.ProjectId,rangakainkelembapan,72616e67-616b-4616-996e-6b656c656d62,rev?*%
%TF.SameCoordinates,Original*%
%TF.FileFunction,Copper,L1,Top*%
%TF.FilePolarity,Positive*%
%FSLAX46Y46*%
G04 Gerber Fmt 4.6, Leading zero omitted, Abs format (unit mm)*
G04 Created by KiCad (PCBNEW 9.0.2) date 2026-08-02 14:52:52*
%MOMM*%
%LPD*%
G01*
G04 APERTURE LIST*
G04 Aperture macros list*
%AMRoundRect*
0 Rectangle with rounded corners*
0 $1 Rounding radius*
0 $2 $3 $4 $5 $6 $7 $8 $9 X,Y pos of 4 corners*
0 Add a 4 corners polygon primitive as box body*
4,1,4,$2,$3,$4,$5,$6,$7,$8,$9,$2,$3,0*
0 Add four circle primitives for the rounded corners*
1,1,$1+$1,$2,$3*
1,1,$1+$1,$4,$5*
1,1,$1+$1,$6,$7*
1,1,$1+$1,$8,$9*
0 Add four rect primitives between the rounded corners*
20,1,$1+$1,$2,$3,$4,$5,0*
20,1,$1+$1,$4,$5,$6,$7,0*
20,1,$1+$1,$6,$7,$8,$9,0*
20,1,$1+$1,$8,$9,$2,$3,0*%
G04 Aperture macros list end*
%TA.AperFunction,SMDPad,CuDef*%
%ADD10RoundRect,0.250000X1.075000X-0.425000X1.075000X0.425000X-1.075000X0.425000X-1.075000X-0.425000X0*%
%TD*%
%TA.AperFunction,SMDPad,CuDef*%
%ADD11RoundRect,0.250000X-2.450000X0.650000X-2.450000X-0.650000X2.450000X-0.650000X2.450000X0.650000X0*%
%TD*%
%TA.AperFunction,SMDPad,CuDef*%
%ADD12RoundRect,0.250000X-1.075000X0.425000X-1.075000X-0.425000X1.075000X-0.425000X1.075000X0.425000X0*%
%TD*%
%TA.AperFunction,ComponentPad*%
%ADD13RoundRect,0.250000X-0.550000X-0.550000X0.550000X-0.550000X0.550000X0.550000X-0.550000X0.550000X0*%
%TD*%
%TA.AperFunction,ComponentPad*%
%ADD14C,1.600000*%
%TD*%
%TA.AperFunction,SMDPad,CuDef*%
%ADD15RoundRect,0.250000X0.625000X-0.312500X0.625000X0.312500X-0.625000X0.312500X-0.625000X-0.312500X0*%
%TD*%
%TA.AperFunction,SMDPad,CuDef*%
%ADD16RoundRect,0.250000X-1.000000X-0.750000X1.000000X-0.750000X1.000000X0.750000X-1.000000X0.750000X0*%
%TD*%
%TA.AperFunction,ComponentPad*%
%ADD17R,1.350000X1.350000*%
%TD*%
%TA.AperFunction,ComponentPad*%
%ADD18C,1.350000*%
%TD*%
%TA.AperFunction,SMDPad,CuDef*%
%ADD19RoundRect,0.250000X0.625000X-0.400000X0.625000X0.400000X-0.625000X0.400000X-0.625000X-0.400000X0*%
%TD*%
%TA.AperFunction,ComponentPad*%
%ADD20R,3.960000X1.980000*%
%TD*%
%TA.AperFunction,ComponentPad*%
%ADD21O,3.960000X1.980000*%
%TD*%
%TA.AperFunction,Conductor*%
%ADD22C,0.200000*%
%TD*%
G04 APERTURE END LIST*
D10*
%TO.P,Trigger1,1,K*%
%TO.N,/D_OUT*%
X198120000Y-94670000D03*
%TO.P,Trigger1,2,A*%
%TO.N,Net-(Trigger1-A)*%
X198120000Y-90170000D03*
%TD*%
D11*
%TO.P,C2,1*%
%TO.N,/D_OUT*%
X181000000Y-98450000D03*
%TO.P,C2,2*%
%TO.N,GND*%
X181000000Y-103550000D03*
%TD*%
D12*
%TO.P,Power1,1,K*%
%TO.N,GND*%
X198120000Y-98080000D03*
%TO.P,Power1,2,A*%
%TO.N,Net-(Power1-A)*%
X198120000Y-102580000D03*
%TD*%
D13*
%TO.P,U1,1*%
%TO.N,/D_OUT*%
X153195000Y-92610000D03*
D14*
%TO.P,U1,2,-*%
%TO.N,Net-(U1B--)*%
X153195000Y-95150000D03*
%TO.P,U1,3,+*%
%TO.N,/A_OUT*%
X153195000Y-97690000D03*
%TO.P,U1,4,V-*%
%TO.N,GND*%
X153195000Y-100230000D03*
%TO.P,U1,5*%
%TO.N,N/C*%
X160815000Y-100230000D03*
%TO.P,U1,6*%
X160815000Y-97690000D03*
%TO.P,U1,7*%
X160815000Y-95150000D03*
%TO.P,U1,8,V+*%
%TO.N,VCC (3.3V{slash}5V)*%
X160815000Y-92610000D03*
%TD*%
D15*
%TO.P,R2,1*%
%TO.N,VCC (3.3V{slash}5V)*%
X195580000Y-109220000D03*
%TO.P,R2,2*%
%TO.N,Net-(Trigger1-A)*%
X195580000Y-106295000D03*
%TD*%
D11*
%TO.P,C1,1*%
%TO.N,/A_OUT*%
X172000000Y-98450000D03*
%TO.P,C1,2*%
%TO.N,GND*%
X172000000Y-103550000D03*
%TD*%
D16*
%TO.P,RV1,1,1*%
%TO.N,VCC (3.3V{slash}5V)*%
X130900000Y-102800000D03*
%TO.P,RV1,2,2*%
%TO.N,Net-(U1B--)*%
X139550000Y-100650000D03*
%TO.P,RV1,3,3*%
%TO.N,GND*%
X130900000Y-98500000D03*
%TD*%
D17*
%TO.P,J1,1,Pin_1*%
%TO.N,GND*%
X116600000Y-103000000D03*
D18*
%TO.P,J1,2,Pin_2*%
%TO.N,/A_OUT*%
X116600000Y-101000000D03*
%TD*%
D15*
%TO.P,R3,1*%
%TO.N,VCC (3.3V{slash}5V)*%
X199390000Y-109220000D03*
%TO.P,R3,2*%
%TO.N,Net-(Power1-A)*%
X199390000Y-106295000D03*
%TD*%
D19*
%TO.P,Pull_Up_Resistor1,1*%
%TO.N,VCC (3.3V{slash}5V)*%
X122500000Y-103550000D03*
%TO.P,Pull_Up_Resistor1,2*%
%TO.N,/A_OUT*%
X122500000Y-100450000D03*
%TD*%
D20*
%TO.P,J2,1,Pin_1*%
%TO.N,VCC (3.3V{slash}5V)*%
X217000000Y-107000000D03*
D21*
%TO.P,J2,2,Pin_2*%
%TO.N,/D_OUT*%
X217000000Y-102000000D03*
%TO.P,J2,3,Pin_3*%
%TO.N,/A_OUT*%
X217000000Y-97000000D03*
%TO.P,J2,4,Pin_4*%
%TO.N,GND*%
X217000000Y-92000000D03*
%TD*%
D22*
%TO.N,Net-(U1B--)*%
X143510000Y-97790000D02*
X146150000Y-95150000D01*
X143510000Y-99060000D02*
X143510000Y-97790000D01*
X146150000Y-95150000D02*
X153195000Y-95150000D01*
X141920000Y-100650000D02*
X143510000Y-99060000D01*
X139550000Y-100650000D02*
X141920000Y-100650000D01*
%TO.N,/A_OUT*%
X122500000Y-97000000D02*
X123750000Y-95750000D01*
X118500000Y-101000000D02*
X123750000Y-95750000D01*
X123750000Y-95750000D02*
X133000000Y-86500000D01*
X122500000Y-100450000D02*
X122500000Y-97000000D01*
X116600000Y-101000000D02*
X118500000Y-101000000D01*
X133000000Y-86500000D02*
X137160000Y-86500000D01*
X137160000Y-102870000D02*
X137160000Y-86500000D01*
X137160000Y-86500000D02*
X182000000Y-86500000D01*
X139700000Y-105410000D02*
X137160000Y-102870000D01*
X182000000Y-86500000D02*
X200336408Y-86500000D01*
X172000000Y-96000000D02*
X181500000Y-86500000D01*
X181500000Y-86500000D02*
X182000000Y-86500000D01*
X143510000Y-105410000D02*
X139700000Y-105410000D01*
X200336408Y-86500000D02*
X210836408Y-97000000D01*
X172000000Y-98450000D02*
X172000000Y-96000000D01*
X151230000Y-97690000D02*
X143510000Y-105410000D01*
X210836408Y-97000000D02*
X217000000Y-97000000D01*
X153195000Y-97690000D02*
X151230000Y-97690000D01*
%TO.N,Net-(Trigger1-A)*%
X195580000Y-90170000D02*
X193040000Y-92710000D01*
X193040000Y-92710000D02*
X193040000Y-103755000D01*
X198120000Y-90170000D02*
X195580000Y-90170000D01*
X193040000Y-103755000D02*
X195580000Y-106295000D01*
%TO.N,VCC (3.3V{slash}5V)*%
X207960000Y-107000000D02*
X205740000Y-109220000D01*
X195580000Y-109220000D02*
X193040000Y-109220000D01*
X166370000Y-101600000D02*
X163830000Y-99060000D01*
X193040000Y-109220000D02*
X185420000Y-101600000D01*
X158850000Y-92610000D02*
X160815000Y-92610000D01*
X130900000Y-105500000D02*
X132080000Y-106680000D01*
X163830000Y-99060000D02*
X163830000Y-93980000D01*
X132080000Y-106680000D02*
X144780000Y-106680000D01*
X162460000Y-92610000D02*
X160815000Y-92610000D01*
X217000000Y-107000000D02*
X207960000Y-107000000D01*
X130900000Y-102800000D02*
X130900000Y-105500000D01*
X163830000Y-93980000D02*
X162460000Y-92610000D01*
X144780000Y-106680000D02*
X158850000Y-92610000D01*
X195580000Y-109220000D02*
X199390000Y-109220000D01*
X185420000Y-101600000D02*
X166370000Y-101600000D01*
%TO.N,/D_OUT*%
X199390000Y-87630000D02*
X204470000Y-92710000D01*
X153195000Y-92610000D02*
X155635000Y-90170000D01*
X181000000Y-98450000D02*
X181000000Y-90780000D01*
X185420000Y-100330000D02*
X186690000Y-99060000D01*
X202510000Y-94670000D02*
X204470000Y-92710000D01*
X165100000Y-90170000D02*
X166370000Y-91440000D01*
X204470000Y-92710000D02*
X213760000Y-102000000D01*
X166370000Y-91440000D02*
X166370000Y-97790000D01*
%TO.N,VCC (3.3V{slash}5V)*%
X205740000Y-109220000D02*
X199390000Y-109220000D01*
%TO.N,/D_OUT*%
X186690000Y-99060000D02*
X186690000Y-87630000D01*
X198120000Y-94670000D02*
X202510000Y-94670000D01*
%TO.N,GND*%
X116600000Y-105170000D02*
X121920000Y-110490000D01*
X181000000Y-113640000D02*
X180340000Y-114300000D01*
%TO.N,/D_OUT*%
X181000000Y-90780000D02*
X184150000Y-87630000D01*
X186690000Y-87630000D02*
X199390000Y-87630000D01*
X155635000Y-90170000D02*
X165100000Y-90170000D01*
%TO.N,GND*%
X153195000Y-110390000D02*
X157105000Y-114300000D01*
%TO.N,/D_OUT*%
X184150000Y-87630000D02*
X186690000Y-87630000D01*
%TO.N,GND*%
X119500000Y-103000000D02*
X120500000Y-102000000D01*
%TO.N,/D_OUT*%
X166370000Y-97790000D02*
X168910000Y-100330000D01*
X168910000Y-100330000D02*
X185420000Y-100330000D01*
X213760000Y-102000000D02*
X217000000Y-102000000D01*
%TO.N,GND*%
X228600000Y-104140000D02*
X231140000Y-101600000D01*
X231140000Y-96520000D02*
X226620000Y-92000000D01*
X122020000Y-110390000D02*
X153195000Y-110390000D01*
X180340000Y-114300000D02*
X223520000Y-114300000D01*
X181000000Y-103550000D02*
X181000000Y-113640000D01*
X226620000Y-92000000D02*
X217000000Y-92000000D01*
X153195000Y-100230000D02*
X153195000Y-110390000D01*
X121550000Y-107950000D02*
X121920000Y-107950000D01*
X116600000Y-103000000D02*
X119500000Y-103000000D01*
X223520000Y-114300000D02*
X231140000Y-106680000D01*
X121920000Y-110490000D02*
X122020000Y-110390000D01*
X165100000Y-114300000D02*
X180340000Y-114300000D01*
X206030000Y-98080000D02*
X212090000Y-104140000D01*
X165100000Y-114300000D02*
X172000000Y-107400000D01*
X172000000Y-107400000D02*
X172000000Y-103550000D01*
%TO.N,/A_OUT*%
X117110000Y-101990000D02*
X117110000Y-101240000D01*
%TO.N,GND*%
X212090000Y-104140000D02*
X228600000Y-104140000D01*
X127400000Y-102000000D02*
X130900000Y-98500000D01*
X116600000Y-103000000D02*
X116600000Y-105170000D01*
X198120000Y-98080000D02*
X206030000Y-98080000D01*
X231140000Y-106680000D02*
X231140000Y-101600000D01*
X157105000Y-114300000D02*
X165100000Y-114300000D01*
X231140000Y-101600000D02*
X231140000Y-96520000D01*
X120500000Y-102000000D02*
X127400000Y-102000000D01*
%TO.N,VCC (3.3V{slash}5V)*%
X123780000Y-103550000D02*
X122500000Y-103550000D01*
X124530000Y-102800000D02*
X123780000Y-103550000D01*
X130900000Y-102800000D02*
X124530000Y-102800000D01*
%TD*%
M02*
