%TF.GenerationSoftware,KiCad,Pcbnew,9.0.2*%
%TF.CreationDate,2026-08-03T02:28:01+07:00*%
%TF.ProjectId,latihankicad,6c617469-6861-46e6-9b69-6361642e6b69,rev?*%
%TF.SameCoordinates,Original*%
%TF.FileFunction,Copper,L2,Bot*%
%TF.FilePolarity,Positive*%
%FSLAX46Y46*%
G04 Gerber Fmt 4.6, Leading zero omitted, Abs format (unit mm)*
G04 Created by KiCad (PCBNEW 9.0.2) date 2026-08-03 02:28:01*
%MOMM*%
%LPD*%
G01*
G04 APERTURE LIST*
G04 Aperture macros list*
%AMRoundRect*
0 Rectangle with rounded corners*
0 $1 Rounding radius*
0 $2 $3 $4 $5 $6 $7 $8 $9 X,Y pos of 4 corners*
0 Add a 4 corners polygon primitive as box body*
4,1,4,$2,$3,$4,$5,$6,$7,$8,$9,$2,$3,0*
0 Add four circle primitives for the rounded corners*
1,1,$1+$1,$2,$3*
1,1,$1+$1,$4,$5*
1,1,$1+$1,$6,$7*
1,1,$1+$1,$8,$9*
0 Add four rect primitives between the rounded corners*
20,1,$1+$1,$2,$3,$4,$5,0*
20,1,$1+$1,$4,$5,$6,$7,0*
20,1,$1+$1,$6,$7,$8,$9,0*
20,1,$1+$1,$8,$9,$2,$3,0*%
G04 Aperture macros list end*
%ADD10C,0.100000*%
%ADD11C,0.150000*%
%ADD12C,0.300000*%
%ADD13C,0.400000*%
%TA.AperFunction,NonConductor*%
%ADD14C,0.200000*%
%TD*%
%TA.AperFunction,ComponentPad*%
%ADD15RoundRect,0.250000X-0.550000X-0.550000X0.550000X-0.550000X0.550000X0.550000X-0.550000X0.550000X0*%
%TD*%
%TA.AperFunction,ComponentPad*%
%ADD16C,1.600000*%
%TD*%
%TA.AperFunction,ComponentPad*%
%ADD17C,1.750000*%
%TD*%
%TA.AperFunction,ComponentPad*%
%ADD18R,1.800000X1.800000*%
%TD*%
%TA.AperFunction,ComponentPad*%
%ADD19C,1.800000*%
%TD*%
%TA.AperFunction,ComponentPad*%
%ADD20R,1.350000X1.350000*%
%TD*%
%TA.AperFunction,ComponentPad*%
%ADD21C,1.350000*%
%TD*%
%TA.AperFunction,ComponentPad*%
%ADD22RoundRect,0.249999X-0.850001X0.850001X-0.850001X-0.850001X0.850001X-0.850001X0.850001X0.850001X0*%
%TD*%
%TA.AperFunction,ComponentPad*%
%ADD23C,2.200000*%
%TD*%
%TA.AperFunction,ComponentPad*%
%ADD24C,2.400000*%
%TD*%
%TA.AperFunction,Conductor*%
%ADD25C,0.200000*%
%TD*%
G04 APERTURE END LIST*
D10*
D11*
X177002200Y-166007200D02*
X285002200Y-166007200D01*
X285002200Y-198007200D01*
X177002200Y-198007200D01*
X177002200Y-166007200D01*
D10*
D11*
X10000000Y-10000000D02*
X287002200Y-10000000D01*
X287002200Y-200007200D01*
X10000000Y-200007200D01*
X10000000Y-10000000D01*
D10*
D11*
X12000000Y-12000000D02*
X285002200Y-12000000D01*
X285002200Y-198007200D01*
X12000000Y-198007200D01*
X12000000Y-12000000D01*
D10*
D11*
X60000000Y-12000000D02*
X60000000Y-10000000D01*
D10*
D11*
X110000000Y-12000000D02*
X110000000Y-10000000D01*
D10*
D11*
X160000000Y-12000000D02*
X160000000Y-10000000D01*
D10*
D11*
X210000000Y-12000000D02*
X210000000Y-10000000D01*
D10*
D11*
X260000000Y-12000000D02*
X260000000Y-10000000D01*
D10*
D11*
X36089160Y-11593604D02*
X35346303Y-11593604D01*
X35717731Y-11593604D02*
X35717731Y-10293604D01*
X35717731Y-10293604D02*
X35593922Y-10479319D01*
X35593922Y-10479319D02*
X35470112Y-10603128D01*
X35470112Y-10603128D02*
X35346303Y-10665033D01*
D10*
D11*
X85346303Y-10417414D02*
X85408207Y-10355509D01*
X85408207Y-10355509D02*
X85532017Y-10293604D01*
X85532017Y-10293604D02*
X85841541Y-10293604D01*
X85841541Y-10293604D02*
X85965350Y-10355509D01*
X85965350Y-10355509D02*
X86027255Y-10417414D01*
X86027255Y-10417414D02*
X86089160Y-10541223D01*
X86089160Y-10541223D02*
X86089160Y-10665033D01*
X86089160Y-10665033D02*
X86027255Y-10850747D01*
X86027255Y-10850747D02*
X85284398Y-11593604D01*
X85284398Y-11593604D02*
X86089160Y-11593604D01*
D10*
D11*
X135284398Y-10293604D02*
X136089160Y-10293604D01*
X136089160Y-10293604D02*
X135655826Y-10788842D01*
X135655826Y-10788842D02*
X135841541Y-10788842D01*
X135841541Y-10788842D02*
X135965350Y-10850747D01*
X135965350Y-10850747D02*
X136027255Y-10912652D01*
X136027255Y-10912652D02*
X136089160Y-11036461D01*
X136089160Y-11036461D02*
X136089160Y-11345985D01*
X136089160Y-11345985D02*
X136027255Y-11469795D01*
X136027255Y-11469795D02*
X135965350Y-11531700D01*
X135965350Y-11531700D02*
X135841541Y-11593604D01*
X135841541Y-11593604D02*
X135470112Y-11593604D01*
X135470112Y-11593604D02*
X135346303Y-11531700D01*
X135346303Y-11531700D02*
X135284398Y-11469795D01*
D10*
D11*
X185965350Y-10726938D02*
X185965350Y-11593604D01*
X185655826Y-10231700D02*
X185346303Y-11160271D01*
X185346303Y-11160271D02*
X186151064Y-11160271D01*
D10*
D11*
X236027255Y-10293604D02*
X235408207Y-10293604D01*
X235408207Y-10293604D02*
X235346303Y-10912652D01*
X235346303Y-10912652D02*
X235408207Y-10850747D01*
X235408207Y-10850747D02*
X235532017Y-10788842D01*
X235532017Y-10788842D02*
X235841541Y-10788842D01*
X235841541Y-10788842D02*
X235965350Y-10850747D01*
X235965350Y-10850747D02*
X236027255Y-10912652D01*
X236027255Y-10912652D02*
X236089160Y-11036461D01*
X236089160Y-11036461D02*
X236089160Y-11345985D01*
X236089160Y-11345985D02*
X236027255Y-11469795D01*
X236027255Y-11469795D02*
X235965350Y-11531700D01*
X235965350Y-11531700D02*
X235841541Y-11593604D01*
X235841541Y-11593604D02*
X235532017Y-11593604D01*
X235532017Y-11593604D02*
X235408207Y-11531700D01*
X235408207Y-11531700D02*
X235346303Y-11469795D01*
D10*
D11*
X285965350Y-10293604D02*
X285717731Y-10293604D01*
X285717731Y-10293604D02*
X285593922Y-10355509D01*
X285593922Y-10355509D02*
X285532017Y-10417414D01*
X285532017Y-10417414D02*
X285408207Y-10603128D01*
X285408207Y-10603128D02*
X285346303Y-10850747D01*
X285346303Y-10850747D02*
X285346303Y-11345985D01*
X285346303Y-11345985D02*
X285408207Y-11469795D01*
X285408207Y-11469795D02*
X285470112Y-11531700D01*
X285470112Y-11531700D02*
X285593922Y-11593604D01*
X285593922Y-11593604D02*
X285841541Y-11593604D01*
X285841541Y-11593604D02*
X285965350Y-11531700D01*
X285965350Y-11531700D02*
X286027255Y-11469795D01*
X286027255Y-11469795D02*
X286089160Y-11345985D01*
X286089160Y-11345985D02*
X286089160Y-11036461D01*
X286089160Y-11036461D02*
X286027255Y-10912652D01*
X286027255Y-10912652D02*
X285965350Y-10850747D01*
X285965350Y-10850747D02*
X285841541Y-10788842D01*
X285841541Y-10788842D02*
X285593922Y-10788842D01*
X285593922Y-10788842D02*
X285470112Y-10850747D01*
X285470112Y-10850747D02*
X285408207Y-10912652D01*
X285408207Y-10912652D02*
X285346303Y-11036461D01*
D10*
D11*
X60000000Y-198007200D02*
X60000000Y-200007200D01*
D10*
D11*
X110000000Y-198007200D02*
X110000000Y-200007200D01*
D10*
D11*
X160000000Y-198007200D02*
X160000000Y-200007200D01*
D10*
D11*
X210000000Y-198007200D02*
X210000000Y-200007200D01*
D10*
D11*
X260000000Y-198007200D02*
X260000000Y-200007200D01*
D10*
D11*
X36089160Y-199600804D02*
X35346303Y-199600804D01*
X35717731Y-199600804D02*
X35717731Y-198300804D01*
X35717731Y-198300804D02*
X35593922Y-198486519D01*
X35593922Y-198486519D02*
X35470112Y-198610328D01*
X35470112Y-198610328D02*
X35346303Y-198672233D01*
D10*
D11*
X85346303Y-198424614D02*
X85408207Y-198362709D01*
X85408207Y-198362709D02*
X85532017Y-198300804D01*
X85532017Y-198300804D02*
X85841541Y-198300804D01*
X85841541Y-198300804D02*
X85965350Y-198362709D01*
X85965350Y-198362709D02*
X86027255Y-198424614D01*
X86027255Y-198424614D02*
X86089160Y-198548423D01*
X86089160Y-198548423D02*
X86089160Y-198672233D01*
X86089160Y-198672233D02*
X86027255Y-198857947D01*
X86027255Y-198857947D02*
X85284398Y-199600804D01*
X85284398Y-199600804D02*
X86089160Y-199600804D01*
D10*
D11*
X135284398Y-198300804D02*
X136089160Y-198300804D01*
X136089160Y-198300804D02*
X135655826Y-198796042D01*
X135655826Y-198796042D02*
X135841541Y-198796042D01*
X135841541Y-198796042D02*
X135965350Y-198857947D01*
X135965350Y-198857947D02*
X136027255Y-198919852D01*
X136027255Y-198919852D02*
X136089160Y-199043661D01*
X136089160Y-199043661D02*
X136089160Y-199353185D01*
X136089160Y-199353185D02*
X136027255Y-199476995D01*
X136027255Y-199476995D02*
X135965350Y-199538900D01*
X135965350Y-199538900D02*
X135841541Y-199600804D01*
X135841541Y-199600804D02*
X135470112Y-199600804D01*
X135470112Y-199600804D02*
X135346303Y-199538900D01*
X135346303Y-199538900D02*
X135284398Y-199476995D01*
D10*
D11*
X185965350Y-198734138D02*
X185965350Y-199600804D01*
X185655826Y-198238900D02*
X185346303Y-199167471D01*
X185346303Y-199167471D02*
X186151064Y-199167471D01*
D10*
D11*
X236027255Y-198300804D02*
X235408207Y-198300804D01*
X235408207Y-198300804D02*
X235346303Y-198919852D01*
X235346303Y-198919852D02*
X235408207Y-198857947D01*
X235408207Y-198857947D02*
X235532017Y-198796042D01*
X235532017Y-198796042D02*
X235841541Y-198796042D01*
X235841541Y-198796042D02*
X235965350Y-198857947D01*
X235965350Y-198857947D02*
X236027255Y-198919852D01*
X236027255Y-198919852D02*
X236089160Y-199043661D01*
X236089160Y-199043661D02*
X236089160Y-199353185D01*
X236089160Y-199353185D02*
X236027255Y-199476995D01*
X236027255Y-199476995D02*
X235965350Y-199538900D01*
X235965350Y-199538900D02*
X235841541Y-199600804D01*
X235841541Y-199600804D02*
X235532017Y-199600804D01*
X235532017Y-199600804D02*
X235408207Y-199538900D01*
X235408207Y-199538900D02*
X235346303Y-199476995D01*
D10*
D11*
X285965350Y-198300804D02*
X285717731Y-198300804D01*
X285717731Y-198300804D02*
X285593922Y-198362709D01*
X285593922Y-198362709D02*
X285532017Y-198424614D01*
X285532017Y-198424614D02*
X285408207Y-198610328D01*
X285408207Y-198610328D02*
X285346303Y-198857947D01*
X285346303Y-198857947D02*
X285346303Y-199353185D01*
X285346303Y-199353185D02*
X285408207Y-199476995D01*
X285408207Y-199476995D02*
X285470112Y-199538900D01*
X285470112Y-199538900D02*
X285593922Y-199600804D01*
X285593922Y-199600804D02*
X285841541Y-199600804D01*
X285841541Y-199600804D02*
X285965350Y-199538900D01*
X285965350Y-199538900D02*
X286027255Y-199476995D01*
X286027255Y-199476995D02*
X286089160Y-199353185D01*
X286089160Y-199353185D02*
X286089160Y-199043661D01*
X286089160Y-199043661D02*
X286027255Y-198919852D01*
X286027255Y-198919852D02*
X285965350Y-198857947D01*
X285965350Y-198857947D02*
X285841541Y-198796042D01*
X285841541Y-198796042D02*
X285593922Y-198796042D01*
X285593922Y-198796042D02*
X285470112Y-198857947D01*
X285470112Y-198857947D02*
X285408207Y-198919852D01*
X285408207Y-198919852D02*
X285346303Y-199043661D01*
D10*
D11*
X10000000Y-60000000D02*
X12000000Y-60000000D01*
D10*
D11*
X10000000Y-110000000D02*
X12000000Y-110000000D01*
D10*
D11*
X10000000Y-160000000D02*
X12000000Y-160000000D01*
D10*
D11*
X10690476Y-35222176D02*
X11309523Y-35222176D01*
X10566666Y-35593604D02*
X10999999Y-34293604D01*
X10999999Y-34293604D02*
X11433333Y-35593604D01*
D10*
D11*
X11092857Y-84912652D02*
X11278571Y-84974557D01*
X11278571Y-84974557D02*
X11340476Y-85036461D01*
X11340476Y-85036461D02*
X11402380Y-85160271D01*
X11402380Y-85160271D02*
X11402380Y-85345985D01*
X11402380Y-85345985D02*
X11340476Y-85469795D01*
X11340476Y-85469795D02*
X11278571Y-85531700D01*
X11278571Y-85531700D02*
X11154761Y-85593604D01*
X11154761Y-85593604D02*
X10659523Y-85593604D01*
X10659523Y-85593604D02*
X10659523Y-84293604D01*
X10659523Y-84293604D02*
X11092857Y-84293604D01*
X11092857Y-84293604D02*
X11216666Y-84355509D01*
X11216666Y-84355509D02*
X11278571Y-84417414D01*
X11278571Y-84417414D02*
X11340476Y-84541223D01*
X11340476Y-84541223D02*
X11340476Y-84665033D01*
X11340476Y-84665033D02*
X11278571Y-84788842D01*
X11278571Y-84788842D02*
X11216666Y-84850747D01*
X11216666Y-84850747D02*
X11092857Y-84912652D01*
X11092857Y-84912652D02*
X10659523Y-84912652D01*
D10*
D11*
X11402380Y-135469795D02*
X11340476Y-135531700D01*
X11340476Y-135531700D02*
X11154761Y-135593604D01*
X11154761Y-135593604D02*
X11030952Y-135593604D01*
X11030952Y-135593604D02*
X10845238Y-135531700D01*
X10845238Y-135531700D02*
X10721428Y-135407890D01*
X10721428Y-135407890D02*
X10659523Y-135284080D01*
X10659523Y-135284080D02*
X10597619Y-135036461D01*
X10597619Y-135036461D02*
X10597619Y-134850747D01*
X10597619Y-134850747D02*
X10659523Y-134603128D01*
X10659523Y-134603128D02*
X10721428Y-134479319D01*
X10721428Y-134479319D02*
X10845238Y-134355509D01*
X10845238Y-134355509D02*
X11030952Y-134293604D01*
X11030952Y-134293604D02*
X11154761Y-134293604D01*
X11154761Y-134293604D02*
X11340476Y-134355509D01*
X11340476Y-134355509D02*
X11402380Y-134417414D01*
D10*
D11*
X10659523Y-185593604D02*
X10659523Y-184293604D01*
X10659523Y-184293604D02*
X10969047Y-184293604D01*
X10969047Y-184293604D02*
X11154761Y-184355509D01*
X11154761Y-184355509D02*
X11278571Y-184479319D01*
X11278571Y-184479319D02*
X11340476Y-184603128D01*
X11340476Y-184603128D02*
X11402380Y-184850747D01*
X11402380Y-184850747D02*
X11402380Y-185036461D01*
X11402380Y-185036461D02*
X11340476Y-185284080D01*
X11340476Y-185284080D02*
X11278571Y-185407890D01*
X11278571Y-185407890D02*
X11154761Y-185531700D01*
X11154761Y-185531700D02*
X10969047Y-185593604D01*
X10969047Y-185593604D02*
X10659523Y-185593604D01*
D10*
D11*
X287002200Y-60000000D02*
X285002200Y-60000000D01*
D10*
D11*
X287002200Y-110000000D02*
X285002200Y-110000000D01*
D10*
D11*
X287002200Y-160000000D02*
X285002200Y-160000000D01*
D10*
D11*
X285692676Y-35222176D02*
X286311723Y-35222176D01*
X285568866Y-35593604D02*
X286002199Y-34293604D01*
X286002199Y-34293604D02*
X286435533Y-35593604D01*
D10*
D11*
X286095057Y-84912652D02*
X286280771Y-84974557D01*
X286280771Y-84974557D02*
X286342676Y-85036461D01*
X286342676Y-85036461D02*
X286404580Y-85160271D01*
X286404580Y-85160271D02*
X286404580Y-85345985D01*
X286404580Y-85345985D02*
X286342676Y-85469795D01*
X286342676Y-85469795D02*
X286280771Y-85531700D01*
X286280771Y-85531700D02*
X286156961Y-85593604D01*
X286156961Y-85593604D02*
X285661723Y-85593604D01*
X285661723Y-85593604D02*
X285661723Y-84293604D01*
X285661723Y-84293604D02*
X286095057Y-84293604D01*
X286095057Y-84293604D02*
X286218866Y-84355509D01*
X286218866Y-84355509D02*
X286280771Y-84417414D01*
X286280771Y-84417414D02*
X286342676Y-84541223D01*
X286342676Y-84541223D02*
X286342676Y-84665033D01*
X286342676Y-84665033D02*
X286280771Y-84788842D01*
X286280771Y-84788842D02*
X286218866Y-84850747D01*
X286218866Y-84850747D02*
X286095057Y-84912652D01*
X286095057Y-84912652D02*
X285661723Y-84912652D01*
D10*
D11*
X286404580Y-135469795D02*
X286342676Y-135531700D01*
X286342676Y-135531700D02*
X286156961Y-135593604D01*
X286156961Y-135593604D02*
X286033152Y-135593604D01*
X286033152Y-135593604D02*
X285847438Y-135531700D01*
X285847438Y-135531700D02*
X285723628Y-135407890D01*
X285723628Y-135407890D02*
X285661723Y-135284080D01*
X285661723Y-135284080D02*
X285599819Y-135036461D01*
X285599819Y-135036461D02*
X285599819Y-134850747D01*
X285599819Y-134850747D02*
X285661723Y-134603128D01*
X285661723Y-134603128D02*
X285723628Y-134479319D01*
X285723628Y-134479319D02*
X285847438Y-134355509D01*
X285847438Y-134355509D02*
X286033152Y-134293604D01*
X286033152Y-134293604D02*
X286156961Y-134293604D01*
X286156961Y-134293604D02*
X286342676Y-134355509D01*
X286342676Y-134355509D02*
X286404580Y-134417414D01*
D10*
D11*
X285661723Y-185593604D02*
X285661723Y-184293604D01*
X285661723Y-184293604D02*
X285971247Y-184293604D01*
X285971247Y-184293604D02*
X286156961Y-184355509D01*
X286156961Y-184355509D02*
X286280771Y-184479319D01*
X286280771Y-184479319D02*
X286342676Y-184603128D01*
X286342676Y-184603128D02*
X286404580Y-184850747D01*
X286404580Y-184850747D02*
X286404580Y-185036461D01*
X286404580Y-185036461D02*
X286342676Y-185284080D01*
X286342676Y-185284080D02*
X286280771Y-185407890D01*
X286280771Y-185407890D02*
X286156961Y-185531700D01*
X286156961Y-185531700D02*
X285971247Y-185593604D01*
X285971247Y-185593604D02*
X285661723Y-185593604D01*
D10*
D11*
X200458026Y-193793328D02*
X200458026Y-192293328D01*
X200458026Y-192293328D02*
X200815169Y-192293328D01*
X200815169Y-192293328D02*
X201029455Y-192364757D01*
X201029455Y-192364757D02*
X201172312Y-192507614D01*
X201172312Y-192507614D02*
X201243741Y-192650471D01*
X201243741Y-192650471D02*
X201315169Y-192936185D01*
X201315169Y-192936185D02*
X201315169Y-193150471D01*
X201315169Y-193150471D02*
X201243741Y-193436185D01*
X201243741Y-193436185D02*
X201172312Y-193579042D01*
X201172312Y-193579042D02*
X201029455Y-193721900D01*
X201029455Y-193721900D02*
X200815169Y-193793328D01*
X200815169Y-193793328D02*
X200458026Y-193793328D01*
X202600884Y-193793328D02*
X202600884Y-193007614D01*
X202600884Y-193007614D02*
X202529455Y-192864757D01*
X202529455Y-192864757D02*
X202386598Y-192793328D01*
X202386598Y-192793328D02*
X202100884Y-192793328D01*
X202100884Y-192793328D02*
X201958026Y-192864757D01*
X202600884Y-193721900D02*
X202458026Y-193793328D01*
X202458026Y-193793328D02*
X202100884Y-193793328D01*
X202100884Y-193793328D02*
X201958026Y-193721900D01*
X201958026Y-193721900D02*
X201886598Y-193579042D01*
X201886598Y-193579042D02*
X201886598Y-193436185D01*
X201886598Y-193436185D02*
X201958026Y-193293328D01*
X201958026Y-193293328D02*
X202100884Y-193221900D01*
X202100884Y-193221900D02*
X202458026Y-193221900D01*
X202458026Y-193221900D02*
X202600884Y-193150471D01*
X203100884Y-192793328D02*
X203672312Y-192793328D01*
X203315169Y-192293328D02*
X203315169Y-193579042D01*
X203315169Y-193579042D02*
X203386598Y-193721900D01*
X203386598Y-193721900D02*
X203529455Y-193793328D01*
X203529455Y-193793328D02*
X203672312Y-193793328D01*
X204743741Y-193721900D02*
X204600884Y-193793328D01*
X204600884Y-193793328D02*
X204315170Y-193793328D01*
X204315170Y-193793328D02*
X204172312Y-193721900D01*
X204172312Y-193721900D02*
X204100884Y-193579042D01*
X204100884Y-193579042D02*
X204100884Y-193007614D01*
X204100884Y-193007614D02*
X204172312Y-192864757D01*
X204172312Y-192864757D02*
X204315170Y-192793328D01*
X204315170Y-192793328D02*
X204600884Y-192793328D01*
X204600884Y-192793328D02*
X204743741Y-192864757D01*
X204743741Y-192864757D02*
X204815170Y-193007614D01*
X204815170Y-193007614D02*
X204815170Y-193150471D01*
X204815170Y-193150471D02*
X204100884Y-193293328D01*
X205458026Y-193650471D02*
X205529455Y-193721900D01*
X205529455Y-193721900D02*
X205458026Y-193793328D01*
X205458026Y-193793328D02*
X205386598Y-193721900D01*
X205386598Y-193721900D02*
X205458026Y-193650471D01*
X205458026Y-193650471D02*
X205458026Y-193793328D01*
X205458026Y-192864757D02*
X205529455Y-192936185D01*
X205529455Y-192936185D02*
X205458026Y-193007614D01*
X205458026Y-193007614D02*
X205386598Y-192936185D01*
X205386598Y-192936185D02*
X205458026Y-192864757D01*
X205458026Y-192864757D02*
X205458026Y-193007614D01*
D10*
D11*
X177002200Y-194507200D02*
X285002200Y-194507200D01*
D10*
D11*
X178458026Y-196593328D02*
X178458026Y-195093328D01*
X179315169Y-196593328D02*
X178672312Y-195736185D01*
X179315169Y-195093328D02*
X178458026Y-195950471D01*
X179958026Y-196593328D02*
X179958026Y-195593328D01*
X179958026Y-195093328D02*
X179886598Y-195164757D01*
X179886598Y-195164757D02*
X179958026Y-195236185D01*
X179958026Y-195236185D02*
X180029455Y-195164757D01*
X180029455Y-195164757D02*
X179958026Y-195093328D01*
X179958026Y-195093328D02*
X179958026Y-195236185D01*
X181529455Y-196450471D02*
X181458027Y-196521900D01*
X181458027Y-196521900D02*
X181243741Y-196593328D01*
X181243741Y-196593328D02*
X181100884Y-196593328D01*
X181100884Y-196593328D02*
X180886598Y-196521900D01*
X180886598Y-196521900D02*
X180743741Y-196379042D01*
X180743741Y-196379042D02*
X180672312Y-196236185D01*
X180672312Y-196236185D02*
X180600884Y-195950471D01*
X180600884Y-195950471D02*
X180600884Y-195736185D01*
X180600884Y-195736185D02*
X180672312Y-195450471D01*
X180672312Y-195450471D02*
X180743741Y-195307614D01*
X180743741Y-195307614D02*
X180886598Y-195164757D01*
X180886598Y-195164757D02*
X181100884Y-195093328D01*
X181100884Y-195093328D02*
X181243741Y-195093328D01*
X181243741Y-195093328D02*
X181458027Y-195164757D01*
X181458027Y-195164757D02*
X181529455Y-195236185D01*
X182815170Y-196593328D02*
X182815170Y-195807614D01*
X182815170Y-195807614D02*
X182743741Y-195664757D01*
X182743741Y-195664757D02*
X182600884Y-195593328D01*
X182600884Y-195593328D02*
X182315170Y-195593328D01*
X182315170Y-195593328D02*
X182172312Y-195664757D01*
X182815170Y-196521900D02*
X182672312Y-196593328D01*
X182672312Y-196593328D02*
X182315170Y-196593328D01*
X182315170Y-196593328D02*
X182172312Y-196521900D01*
X182172312Y-196521900D02*
X182100884Y-196379042D01*
X182100884Y-196379042D02*
X182100884Y-196236185D01*
X182100884Y-196236185D02*
X182172312Y-196093328D01*
X182172312Y-196093328D02*
X182315170Y-196021900D01*
X182315170Y-196021900D02*
X182672312Y-196021900D01*
X182672312Y-196021900D02*
X182815170Y-195950471D01*
X184172313Y-196593328D02*
X184172313Y-195093328D01*
X184172313Y-196521900D02*
X184029455Y-196593328D01*
X184029455Y-196593328D02*
X183743741Y-196593328D01*
X183743741Y-196593328D02*
X183600884Y-196521900D01*
X183600884Y-196521900D02*
X183529455Y-196450471D01*
X183529455Y-196450471D02*
X183458027Y-196307614D01*
X183458027Y-196307614D02*
X183458027Y-195879042D01*
X183458027Y-195879042D02*
X183529455Y-195736185D01*
X183529455Y-195736185D02*
X183600884Y-195664757D01*
X183600884Y-195664757D02*
X183743741Y-195593328D01*
X183743741Y-195593328D02*
X184029455Y-195593328D01*
X184029455Y-195593328D02*
X184172313Y-195664757D01*
X186029455Y-195807614D02*
X186529455Y-195807614D01*
X186743741Y-196593328D02*
X186029455Y-196593328D01*
X186029455Y-196593328D02*
X186029455Y-195093328D01*
X186029455Y-195093328D02*
X186743741Y-195093328D01*
X187386598Y-196450471D02*
X187458027Y-196521900D01*
X187458027Y-196521900D02*
X187386598Y-196593328D01*
X187386598Y-196593328D02*
X187315170Y-196521900D01*
X187315170Y-196521900D02*
X187386598Y-196450471D01*
X187386598Y-196450471D02*
X187386598Y-196593328D01*
X188100884Y-196593328D02*
X188100884Y-195093328D01*
X188100884Y-195093328D02*
X188458027Y-195093328D01*
X188458027Y-195093328D02*
X188672313Y-195164757D01*
X188672313Y-195164757D02*
X188815170Y-195307614D01*
X188815170Y-195307614D02*
X188886599Y-195450471D01*
X188886599Y-195450471D02*
X188958027Y-195736185D01*
X188958027Y-195736185D02*
X188958027Y-195950471D01*
X188958027Y-195950471D02*
X188886599Y-196236185D01*
X188886599Y-196236185D02*
X188815170Y-196379042D01*
X188815170Y-196379042D02*
X188672313Y-196521900D01*
X188672313Y-196521900D02*
X188458027Y-196593328D01*
X188458027Y-196593328D02*
X188100884Y-196593328D01*
X189600884Y-196450471D02*
X189672313Y-196521900D01*
X189672313Y-196521900D02*
X189600884Y-196593328D01*
X189600884Y-196593328D02*
X189529456Y-196521900D01*
X189529456Y-196521900D02*
X189600884Y-196450471D01*
X189600884Y-196450471D02*
X189600884Y-196593328D01*
X190243742Y-196164757D02*
X190958028Y-196164757D01*
X190100885Y-196593328D02*
X190600885Y-195093328D01*
X190600885Y-195093328D02*
X191100885Y-196593328D01*
X191600884Y-196450471D02*
X191672313Y-196521900D01*
X191672313Y-196521900D02*
X191600884Y-196593328D01*
X191600884Y-196593328D02*
X191529456Y-196521900D01*
X191529456Y-196521900D02*
X191600884Y-196450471D01*
X191600884Y-196450471D02*
X191600884Y-196593328D01*
X193529456Y-196593328D02*
X193815170Y-196593328D01*
X193815170Y-196593328D02*
X193958027Y-196521900D01*
X193958027Y-196521900D02*
X194029456Y-196450471D01*
X194029456Y-196450471D02*
X194172313Y-196236185D01*
X194172313Y-196236185D02*
X194243742Y-195950471D01*
X194243742Y-195950471D02*
X194243742Y-195379042D01*
X194243742Y-195379042D02*
X194172313Y-195236185D01*
X194172313Y-195236185D02*
X194100885Y-195164757D01*
X194100885Y-195164757D02*
X193958027Y-195093328D01*
X193958027Y-195093328D02*
X193672313Y-195093328D01*
X193672313Y-195093328D02*
X193529456Y-195164757D01*
X193529456Y-195164757D02*
X193458027Y-195236185D01*
X193458027Y-195236185D02*
X193386599Y-195379042D01*
X193386599Y-195379042D02*
X193386599Y-195736185D01*
X193386599Y-195736185D02*
X193458027Y-195879042D01*
X193458027Y-195879042D02*
X193529456Y-195950471D01*
X193529456Y-195950471D02*
X193672313Y-196021900D01*
X193672313Y-196021900D02*
X193958027Y-196021900D01*
X193958027Y-196021900D02*
X194100885Y-195950471D01*
X194100885Y-195950471D02*
X194172313Y-195879042D01*
X194172313Y-195879042D02*
X194243742Y-195736185D01*
X194886598Y-196450471D02*
X194958027Y-196521900D01*
X194958027Y-196521900D02*
X194886598Y-196593328D01*
X194886598Y-196593328D02*
X194815170Y-196521900D01*
X194815170Y-196521900D02*
X194886598Y-196450471D01*
X194886598Y-196450471D02*
X194886598Y-196593328D01*
X195886599Y-195093328D02*
X196029456Y-195093328D01*
X196029456Y-195093328D02*
X196172313Y-195164757D01*
X196172313Y-195164757D02*
X196243742Y-195236185D01*
X196243742Y-195236185D02*
X196315170Y-195379042D01*
X196315170Y-195379042D02*
X196386599Y-195664757D01*
X196386599Y-195664757D02*
X196386599Y-196021900D01*
X196386599Y-196021900D02*
X196315170Y-196307614D01*
X196315170Y-196307614D02*
X196243742Y-196450471D01*
X196243742Y-196450471D02*
X196172313Y-196521900D01*
X196172313Y-196521900D02*
X196029456Y-196593328D01*
X196029456Y-196593328D02*
X195886599Y-196593328D01*
X195886599Y-196593328D02*
X195743742Y-196521900D01*
X195743742Y-196521900D02*
X195672313Y-196450471D01*
X195672313Y-196450471D02*
X195600884Y-196307614D01*
X195600884Y-196307614D02*
X195529456Y-196021900D01*
X195529456Y-196021900D02*
X195529456Y-195664757D01*
X195529456Y-195664757D02*
X195600884Y-195379042D01*
X195600884Y-195379042D02*
X195672313Y-195236185D01*
X195672313Y-195236185D02*
X195743742Y-195164757D01*
X195743742Y-195164757D02*
X195886599Y-195093328D01*
X197029455Y-196450471D02*
X197100884Y-196521900D01*
X197100884Y-196521900D02*
X197029455Y-196593328D01*
X197029455Y-196593328D02*
X196958027Y-196521900D01*
X196958027Y-196521900D02*
X197029455Y-196450471D01*
X197029455Y-196450471D02*
X197029455Y-196593328D01*
X197672313Y-195236185D02*
X197743741Y-195164757D01*
X197743741Y-195164757D02*
X197886599Y-195093328D01*
X197886599Y-195093328D02*
X198243741Y-195093328D01*
X198243741Y-195093328D02*
X198386599Y-195164757D01*
X198386599Y-195164757D02*
X198458027Y-195236185D01*
X198458027Y-195236185D02*
X198529456Y-195379042D01*
X198529456Y-195379042D02*
X198529456Y-195521900D01*
X198529456Y-195521900D02*
X198458027Y-195736185D01*
X198458027Y-195736185D02*
X197600884Y-196593328D01*
X197600884Y-196593328D02*
X198529456Y-196593328D01*
D10*
D11*
X177002200Y-191507200D02*
X285002200Y-191507200D01*
D10*
D12*
X264413853Y-193785528D02*
X263913853Y-193071242D01*
X263556710Y-193785528D02*
X263556710Y-192285528D01*
X263556710Y-192285528D02*
X264128139Y-192285528D01*
X264128139Y-192285528D02*
X264270996Y-192356957D01*
X264270996Y-192356957D02*
X264342425Y-192428385D01*
X264342425Y-192428385D02*
X264413853Y-192571242D01*
X264413853Y-192571242D02*
X264413853Y-192785528D01*
X264413853Y-192785528D02*
X264342425Y-192928385D01*
X264342425Y-192928385D02*
X264270996Y-192999814D01*
X264270996Y-192999814D02*
X264128139Y-193071242D01*
X264128139Y-193071242D02*
X263556710Y-193071242D01*
X265628139Y-193714100D02*
X265485282Y-193785528D01*
X265485282Y-193785528D02*
X265199568Y-193785528D01*
X265199568Y-193785528D02*
X265056710Y-193714100D01*
X265056710Y-193714100D02*
X264985282Y-193571242D01*
X264985282Y-193571242D02*
X264985282Y-192999814D01*
X264985282Y-192999814D02*
X265056710Y-192856957D01*
X265056710Y-192856957D02*
X265199568Y-192785528D01*
X265199568Y-192785528D02*
X265485282Y-192785528D01*
X265485282Y-192785528D02*
X265628139Y-192856957D01*
X265628139Y-192856957D02*
X265699568Y-192999814D01*
X265699568Y-192999814D02*
X265699568Y-193142671D01*
X265699568Y-193142671D02*
X264985282Y-193285528D01*
X266199567Y-192785528D02*
X266556710Y-193785528D01*
X266556710Y-193785528D02*
X266913853Y-192785528D01*
X267485281Y-193642671D02*
X267556710Y-193714100D01*
X267556710Y-193714100D02*
X267485281Y-193785528D01*
X267485281Y-193785528D02*
X267413853Y-193714100D01*
X267413853Y-193714100D02*
X267485281Y-193642671D01*
X267485281Y-193642671D02*
X267485281Y-193785528D01*
X267485281Y-192856957D02*
X267556710Y-192928385D01*
X267556710Y-192928385D02*
X267485281Y-192999814D01*
X267485281Y-192999814D02*
X267413853Y-192928385D01*
X267413853Y-192928385D02*
X267485281Y-192856957D01*
X267485281Y-192856957D02*
X267485281Y-192999814D01*
D10*
D11*
X178386598Y-193721900D02*
X178600884Y-193793328D01*
X178600884Y-193793328D02*
X178958026Y-193793328D01*
X178958026Y-193793328D02*
X179100884Y-193721900D01*
X179100884Y-193721900D02*
X179172312Y-193650471D01*
X179172312Y-193650471D02*
X179243741Y-193507614D01*
X179243741Y-193507614D02*
X179243741Y-193364757D01*
X179243741Y-193364757D02*
X179172312Y-193221900D01*
X179172312Y-193221900D02*
X179100884Y-193150471D01*
X179100884Y-193150471D02*
X178958026Y-193079042D01*
X178958026Y-193079042D02*
X178672312Y-193007614D01*
X178672312Y-193007614D02*
X178529455Y-192936185D01*
X178529455Y-192936185D02*
X178458026Y-192864757D01*
X178458026Y-192864757D02*
X178386598Y-192721900D01*
X178386598Y-192721900D02*
X178386598Y-192579042D01*
X178386598Y-192579042D02*
X178458026Y-192436185D01*
X178458026Y-192436185D02*
X178529455Y-192364757D01*
X178529455Y-192364757D02*
X178672312Y-192293328D01*
X178672312Y-192293328D02*
X179029455Y-192293328D01*
X179029455Y-192293328D02*
X179243741Y-192364757D01*
X179886597Y-193793328D02*
X179886597Y-192793328D01*
X179886597Y-192293328D02*
X179815169Y-192364757D01*
X179815169Y-192364757D02*
X179886597Y-192436185D01*
X179886597Y-192436185D02*
X179958026Y-192364757D01*
X179958026Y-192364757D02*
X179886597Y-192293328D01*
X179886597Y-192293328D02*
X179886597Y-192436185D01*
X180458026Y-192793328D02*
X181243741Y-192793328D01*
X181243741Y-192793328D02*
X180458026Y-193793328D01*
X180458026Y-193793328D02*
X181243741Y-193793328D01*
X182386598Y-193721900D02*
X182243741Y-193793328D01*
X182243741Y-193793328D02*
X181958027Y-193793328D01*
X181958027Y-193793328D02*
X181815169Y-193721900D01*
X181815169Y-193721900D02*
X181743741Y-193579042D01*
X181743741Y-193579042D02*
X181743741Y-193007614D01*
X181743741Y-193007614D02*
X181815169Y-192864757D01*
X181815169Y-192864757D02*
X181958027Y-192793328D01*
X181958027Y-192793328D02*
X182243741Y-192793328D01*
X182243741Y-192793328D02*
X182386598Y-192864757D01*
X182386598Y-192864757D02*
X182458027Y-193007614D01*
X182458027Y-193007614D02*
X182458027Y-193150471D01*
X182458027Y-193150471D02*
X181743741Y-193293328D01*
X183100883Y-193650471D02*
X183172312Y-193721900D01*
X183172312Y-193721900D02*
X183100883Y-193793328D01*
X183100883Y-193793328D02*
X183029455Y-193721900D01*
X183029455Y-193721900D02*
X183100883Y-193650471D01*
X183100883Y-193650471D02*
X183100883Y-193793328D01*
X183100883Y-192864757D02*
X183172312Y-192936185D01*
X183172312Y-192936185D02*
X183100883Y-193007614D01*
X183100883Y-193007614D02*
X183029455Y-192936185D01*
X183029455Y-192936185D02*
X183100883Y-192864757D01*
X183100883Y-192864757D02*
X183100883Y-193007614D01*
X184886598Y-193364757D02*
X185600884Y-193364757D01*
X184743741Y-193793328D02*
X185243741Y-192293328D01*
X185243741Y-192293328D02*
X185743741Y-193793328D01*
X186886598Y-192793328D02*
X186886598Y-193793328D01*
X186529455Y-192221900D02*
X186172312Y-193293328D01*
X186172312Y-193293328D02*
X187100883Y-193293328D01*
D10*
D11*
X263458026Y-196593328D02*
X263458026Y-195093328D01*
X264815170Y-196593328D02*
X264815170Y-195093328D01*
X264815170Y-196521900D02*
X264672312Y-196593328D01*
X264672312Y-196593328D02*
X264386598Y-196593328D01*
X264386598Y-196593328D02*
X264243741Y-196521900D01*
X264243741Y-196521900D02*
X264172312Y-196450471D01*
X264172312Y-196450471D02*
X264100884Y-196307614D01*
X264100884Y-196307614D02*
X264100884Y-195879042D01*
X264100884Y-195879042D02*
X264172312Y-195736185D01*
X264172312Y-195736185D02*
X264243741Y-195664757D01*
X264243741Y-195664757D02*
X264386598Y-195593328D01*
X264386598Y-195593328D02*
X264672312Y-195593328D01*
X264672312Y-195593328D02*
X264815170Y-195664757D01*
X265529455Y-196450471D02*
X265600884Y-196521900D01*
X265600884Y-196521900D02*
X265529455Y-196593328D01*
X265529455Y-196593328D02*
X265458027Y-196521900D01*
X265458027Y-196521900D02*
X265529455Y-196450471D01*
X265529455Y-196450471D02*
X265529455Y-196593328D01*
X265529455Y-195664757D02*
X265600884Y-195736185D01*
X265600884Y-195736185D02*
X265529455Y-195807614D01*
X265529455Y-195807614D02*
X265458027Y-195736185D01*
X265458027Y-195736185D02*
X265529455Y-195664757D01*
X265529455Y-195664757D02*
X265529455Y-195807614D01*
X267315170Y-195236185D02*
X267386598Y-195164757D01*
X267386598Y-195164757D02*
X267529456Y-195093328D01*
X267529456Y-195093328D02*
X267886598Y-195093328D01*
X267886598Y-195093328D02*
X268029456Y-195164757D01*
X268029456Y-195164757D02*
X268100884Y-195236185D01*
X268100884Y-195236185D02*
X268172313Y-195379042D01*
X268172313Y-195379042D02*
X268172313Y-195521900D01*
X268172313Y-195521900D02*
X268100884Y-195736185D01*
X268100884Y-195736185D02*
X267243741Y-196593328D01*
X267243741Y-196593328D02*
X268172313Y-196593328D01*
X269886598Y-195021900D02*
X268600884Y-196950471D01*
X271100884Y-195093328D02*
X270386598Y-195093328D01*
X270386598Y-195093328D02*
X270315170Y-195807614D01*
X270315170Y-195807614D02*
X270386598Y-195736185D01*
X270386598Y-195736185D02*
X270529456Y-195664757D01*
X270529456Y-195664757D02*
X270886598Y-195664757D01*
X270886598Y-195664757D02*
X271029456Y-195736185D01*
X271029456Y-195736185D02*
X271100884Y-195807614D01*
X271100884Y-195807614D02*
X271172313Y-195950471D01*
X271172313Y-195950471D02*
X271172313Y-196307614D01*
X271172313Y-196307614D02*
X271100884Y-196450471D01*
X271100884Y-196450471D02*
X271029456Y-196521900D01*
X271029456Y-196521900D02*
X270886598Y-196593328D01*
X270886598Y-196593328D02*
X270529456Y-196593328D01*
X270529456Y-196593328D02*
X270386598Y-196521900D01*
X270386598Y-196521900D02*
X270315170Y-196450471D01*
D10*
D11*
X177002200Y-187507200D02*
X285002200Y-187507200D01*
D10*
D13*
X178693928Y-188211638D02*
X179836785Y-188211638D01*
X179015357Y-190211638D02*
X179265357Y-188211638D01*
X180253452Y-190211638D02*
X180420119Y-188878304D01*
X180503452Y-188211638D02*
X180396309Y-188306876D01*
X180396309Y-188306876D02*
X180479643Y-188402114D01*
X180479643Y-188402114D02*
X180586786Y-188306876D01*
X180586786Y-188306876D02*
X180503452Y-188211638D01*
X180503452Y-188211638D02*
X180479643Y-188402114D01*
X181086786Y-188878304D02*
X181848690Y-188878304D01*
X181455833Y-188211638D02*
X181241548Y-189925923D01*
X181241548Y-189925923D02*
X181312976Y-190116400D01*
X181312976Y-190116400D02*
X181491548Y-190211638D01*
X181491548Y-190211638D02*
X181682024Y-190211638D01*
X182634405Y-190211638D02*
X182455833Y-190116400D01*
X182455833Y-190116400D02*
X182384405Y-189925923D01*
X182384405Y-189925923D02*
X182598690Y-188211638D01*
X184170119Y-190116400D02*
X183967738Y-190211638D01*
X183967738Y-190211638D02*
X183586785Y-190211638D01*
X183586785Y-190211638D02*
X183408214Y-190116400D01*
X183408214Y-190116400D02*
X183336785Y-189925923D01*
X183336785Y-189925923D02*
X183432024Y-189164019D01*
X183432024Y-189164019D02*
X183551071Y-188973542D01*
X183551071Y-188973542D02*
X183753452Y-188878304D01*
X183753452Y-188878304D02*
X184134404Y-188878304D01*
X184134404Y-188878304D02*
X184312976Y-188973542D01*
X184312976Y-188973542D02*
X184384404Y-189164019D01*
X184384404Y-189164019D02*
X184360595Y-189354495D01*
X184360595Y-189354495D02*
X183384404Y-189544971D01*
X185134405Y-190021161D02*
X185217738Y-190116400D01*
X185217738Y-190116400D02*
X185110595Y-190211638D01*
X185110595Y-190211638D02*
X185027262Y-190116400D01*
X185027262Y-190116400D02*
X185134405Y-190021161D01*
X185134405Y-190021161D02*
X185110595Y-190211638D01*
X185265357Y-188973542D02*
X185348690Y-189068780D01*
X185348690Y-189068780D02*
X185241548Y-189164019D01*
X185241548Y-189164019D02*
X185158214Y-189068780D01*
X185158214Y-189068780D02*
X185265357Y-188973542D01*
X185265357Y-188973542D02*
X185241548Y-189164019D01*
D10*
D11*
X178958026Y-185607614D02*
X178458026Y-185607614D01*
X178458026Y-186393328D02*
X178458026Y-184893328D01*
X178458026Y-184893328D02*
X179172312Y-184893328D01*
X179743740Y-186393328D02*
X179743740Y-185393328D01*
X179743740Y-184893328D02*
X179672312Y-184964757D01*
X179672312Y-184964757D02*
X179743740Y-185036185D01*
X179743740Y-185036185D02*
X179815169Y-184964757D01*
X179815169Y-184964757D02*
X179743740Y-184893328D01*
X179743740Y-184893328D02*
X179743740Y-185036185D01*
X180672312Y-186393328D02*
X180529455Y-186321900D01*
X180529455Y-186321900D02*
X180458026Y-186179042D01*
X180458026Y-186179042D02*
X180458026Y-184893328D01*
X181815169Y-186321900D02*
X181672312Y-186393328D01*
X181672312Y-186393328D02*
X181386598Y-186393328D01*
X181386598Y-186393328D02*
X181243740Y-186321900D01*
X181243740Y-186321900D02*
X181172312Y-186179042D01*
X181172312Y-186179042D02*
X181172312Y-185607614D01*
X181172312Y-185607614D02*
X181243740Y-185464757D01*
X181243740Y-185464757D02*
X181386598Y-185393328D01*
X181386598Y-185393328D02*
X181672312Y-185393328D01*
X181672312Y-185393328D02*
X181815169Y-185464757D01*
X181815169Y-185464757D02*
X181886598Y-185607614D01*
X181886598Y-185607614D02*
X181886598Y-185750471D01*
X181886598Y-185750471D02*
X181172312Y-185893328D01*
X182529454Y-186250471D02*
X182600883Y-186321900D01*
X182600883Y-186321900D02*
X182529454Y-186393328D01*
X182529454Y-186393328D02*
X182458026Y-186321900D01*
X182458026Y-186321900D02*
X182529454Y-186250471D01*
X182529454Y-186250471D02*
X182529454Y-186393328D01*
X182529454Y-185464757D02*
X182600883Y-185536185D01*
X182600883Y-185536185D02*
X182529454Y-185607614D01*
X182529454Y-185607614D02*
X182458026Y-185536185D01*
X182458026Y-185536185D02*
X182529454Y-185464757D01*
X182529454Y-185464757D02*
X182529454Y-185607614D01*
X184600883Y-186393328D02*
X184458026Y-186321900D01*
X184458026Y-186321900D02*
X184386597Y-186179042D01*
X184386597Y-186179042D02*
X184386597Y-184893328D01*
X185815169Y-186393328D02*
X185815169Y-185607614D01*
X185815169Y-185607614D02*
X185743740Y-185464757D01*
X185743740Y-185464757D02*
X185600883Y-185393328D01*
X185600883Y-185393328D02*
X185315169Y-185393328D01*
X185315169Y-185393328D02*
X185172311Y-185464757D01*
X185815169Y-186321900D02*
X185672311Y-186393328D01*
X185672311Y-186393328D02*
X185315169Y-186393328D01*
X185315169Y-186393328D02*
X185172311Y-186321900D01*
X185172311Y-186321900D02*
X185100883Y-186179042D01*
X185100883Y-186179042D02*
X185100883Y-186036185D01*
X185100883Y-186036185D02*
X185172311Y-185893328D01*
X185172311Y-185893328D02*
X185315169Y-185821900D01*
X185315169Y-185821900D02*
X185672311Y-185821900D01*
X185672311Y-185821900D02*
X185815169Y-185750471D01*
X186315169Y-185393328D02*
X186886597Y-185393328D01*
X186529454Y-184893328D02*
X186529454Y-186179042D01*
X186529454Y-186179042D02*
X186600883Y-186321900D01*
X186600883Y-186321900D02*
X186743740Y-186393328D01*
X186743740Y-186393328D02*
X186886597Y-186393328D01*
X187386597Y-186393328D02*
X187386597Y-185393328D01*
X187386597Y-184893328D02*
X187315169Y-184964757D01*
X187315169Y-184964757D02*
X187386597Y-185036185D01*
X187386597Y-185036185D02*
X187458026Y-184964757D01*
X187458026Y-184964757D02*
X187386597Y-184893328D01*
X187386597Y-184893328D02*
X187386597Y-185036185D01*
X188100883Y-186393328D02*
X188100883Y-184893328D01*
X188743741Y-186393328D02*
X188743741Y-185607614D01*
X188743741Y-185607614D02*
X188672312Y-185464757D01*
X188672312Y-185464757D02*
X188529455Y-185393328D01*
X188529455Y-185393328D02*
X188315169Y-185393328D01*
X188315169Y-185393328D02*
X188172312Y-185464757D01*
X188172312Y-185464757D02*
X188100883Y-185536185D01*
X190100884Y-186393328D02*
X190100884Y-185607614D01*
X190100884Y-185607614D02*
X190029455Y-185464757D01*
X190029455Y-185464757D02*
X189886598Y-185393328D01*
X189886598Y-185393328D02*
X189600884Y-185393328D01*
X189600884Y-185393328D02*
X189458026Y-185464757D01*
X190100884Y-186321900D02*
X189958026Y-186393328D01*
X189958026Y-186393328D02*
X189600884Y-186393328D01*
X189600884Y-186393328D02*
X189458026Y-186321900D01*
X189458026Y-186321900D02*
X189386598Y-186179042D01*
X189386598Y-186179042D02*
X189386598Y-186036185D01*
X189386598Y-186036185D02*
X189458026Y-185893328D01*
X189458026Y-185893328D02*
X189600884Y-185821900D01*
X189600884Y-185821900D02*
X189958026Y-185821900D01*
X189958026Y-185821900D02*
X190100884Y-185750471D01*
X190815169Y-185393328D02*
X190815169Y-186393328D01*
X190815169Y-185536185D02*
X190886598Y-185464757D01*
X190886598Y-185464757D02*
X191029455Y-185393328D01*
X191029455Y-185393328D02*
X191243741Y-185393328D01*
X191243741Y-185393328D02*
X191386598Y-185464757D01*
X191386598Y-185464757D02*
X191458027Y-185607614D01*
X191458027Y-185607614D02*
X191458027Y-186393328D01*
X192172312Y-186393328D02*
X192172312Y-184893328D01*
X192315170Y-185821900D02*
X192743741Y-186393328D01*
X192743741Y-185393328D02*
X192172312Y-185964757D01*
X193386598Y-186393328D02*
X193386598Y-185393328D01*
X193386598Y-184893328D02*
X193315170Y-184964757D01*
X193315170Y-184964757D02*
X193386598Y-185036185D01*
X193386598Y-185036185D02*
X193458027Y-184964757D01*
X193458027Y-184964757D02*
X193386598Y-184893328D01*
X193386598Y-184893328D02*
X193386598Y-185036185D01*
X194743742Y-186321900D02*
X194600884Y-186393328D01*
X194600884Y-186393328D02*
X194315170Y-186393328D01*
X194315170Y-186393328D02*
X194172313Y-186321900D01*
X194172313Y-186321900D02*
X194100884Y-186250471D01*
X194100884Y-186250471D02*
X194029456Y-186107614D01*
X194029456Y-186107614D02*
X194029456Y-185679042D01*
X194029456Y-185679042D02*
X194100884Y-185536185D01*
X194100884Y-185536185D02*
X194172313Y-185464757D01*
X194172313Y-185464757D02*
X194315170Y-185393328D01*
X194315170Y-185393328D02*
X194600884Y-185393328D01*
X194600884Y-185393328D02*
X194743742Y-185464757D01*
X196029456Y-186393328D02*
X196029456Y-185607614D01*
X196029456Y-185607614D02*
X195958027Y-185464757D01*
X195958027Y-185464757D02*
X195815170Y-185393328D01*
X195815170Y-185393328D02*
X195529456Y-185393328D01*
X195529456Y-185393328D02*
X195386598Y-185464757D01*
X196029456Y-186321900D02*
X195886598Y-186393328D01*
X195886598Y-186393328D02*
X195529456Y-186393328D01*
X195529456Y-186393328D02*
X195386598Y-186321900D01*
X195386598Y-186321900D02*
X195315170Y-186179042D01*
X195315170Y-186179042D02*
X195315170Y-186036185D01*
X195315170Y-186036185D02*
X195386598Y-185893328D01*
X195386598Y-185893328D02*
X195529456Y-185821900D01*
X195529456Y-185821900D02*
X195886598Y-185821900D01*
X195886598Y-185821900D02*
X196029456Y-185750471D01*
X197386599Y-186393328D02*
X197386599Y-184893328D01*
X197386599Y-186321900D02*
X197243741Y-186393328D01*
X197243741Y-186393328D02*
X196958027Y-186393328D01*
X196958027Y-186393328D02*
X196815170Y-186321900D01*
X196815170Y-186321900D02*
X196743741Y-186250471D01*
X196743741Y-186250471D02*
X196672313Y-186107614D01*
X196672313Y-186107614D02*
X196672313Y-185679042D01*
X196672313Y-185679042D02*
X196743741Y-185536185D01*
X196743741Y-185536185D02*
X196815170Y-185464757D01*
X196815170Y-185464757D02*
X196958027Y-185393328D01*
X196958027Y-185393328D02*
X197243741Y-185393328D01*
X197243741Y-185393328D02*
X197386599Y-185464757D01*
X198100884Y-186250471D02*
X198172313Y-186321900D01*
X198172313Y-186321900D02*
X198100884Y-186393328D01*
X198100884Y-186393328D02*
X198029456Y-186321900D01*
X198029456Y-186321900D02*
X198100884Y-186250471D01*
X198100884Y-186250471D02*
X198100884Y-186393328D01*
X198815170Y-186393328D02*
X198815170Y-184893328D01*
X198958028Y-185821900D02*
X199386599Y-186393328D01*
X199386599Y-185393328D02*
X198815170Y-185964757D01*
X200029456Y-186393328D02*
X200029456Y-185393328D01*
X200029456Y-184893328D02*
X199958028Y-184964757D01*
X199958028Y-184964757D02*
X200029456Y-185036185D01*
X200029456Y-185036185D02*
X200100885Y-184964757D01*
X200100885Y-184964757D02*
X200029456Y-184893328D01*
X200029456Y-184893328D02*
X200029456Y-185036185D01*
X201386600Y-186321900D02*
X201243742Y-186393328D01*
X201243742Y-186393328D02*
X200958028Y-186393328D01*
X200958028Y-186393328D02*
X200815171Y-186321900D01*
X200815171Y-186321900D02*
X200743742Y-186250471D01*
X200743742Y-186250471D02*
X200672314Y-186107614D01*
X200672314Y-186107614D02*
X200672314Y-185679042D01*
X200672314Y-185679042D02*
X200743742Y-185536185D01*
X200743742Y-185536185D02*
X200815171Y-185464757D01*
X200815171Y-185464757D02*
X200958028Y-185393328D01*
X200958028Y-185393328D02*
X201243742Y-185393328D01*
X201243742Y-185393328D02*
X201386600Y-185464757D01*
X202672314Y-186393328D02*
X202672314Y-185607614D01*
X202672314Y-185607614D02*
X202600885Y-185464757D01*
X202600885Y-185464757D02*
X202458028Y-185393328D01*
X202458028Y-185393328D02*
X202172314Y-185393328D01*
X202172314Y-185393328D02*
X202029456Y-185464757D01*
X202672314Y-186321900D02*
X202529456Y-186393328D01*
X202529456Y-186393328D02*
X202172314Y-186393328D01*
X202172314Y-186393328D02*
X202029456Y-186321900D01*
X202029456Y-186321900D02*
X201958028Y-186179042D01*
X201958028Y-186179042D02*
X201958028Y-186036185D01*
X201958028Y-186036185D02*
X202029456Y-185893328D01*
X202029456Y-185893328D02*
X202172314Y-185821900D01*
X202172314Y-185821900D02*
X202529456Y-185821900D01*
X202529456Y-185821900D02*
X202672314Y-185750471D01*
X204029457Y-186393328D02*
X204029457Y-184893328D01*
X204029457Y-186321900D02*
X203886599Y-186393328D01*
X203886599Y-186393328D02*
X203600885Y-186393328D01*
X203600885Y-186393328D02*
X203458028Y-186321900D01*
X203458028Y-186321900D02*
X203386599Y-186250471D01*
X203386599Y-186250471D02*
X203315171Y-186107614D01*
X203315171Y-186107614D02*
X203315171Y-185679042D01*
X203315171Y-185679042D02*
X203386599Y-185536185D01*
X203386599Y-185536185D02*
X203458028Y-185464757D01*
X203458028Y-185464757D02*
X203600885Y-185393328D01*
X203600885Y-185393328D02*
X203886599Y-185393328D01*
X203886599Y-185393328D02*
X204029457Y-185464757D01*
X204386600Y-186536185D02*
X205529457Y-186536185D01*
X205886599Y-185393328D02*
X205886599Y-186893328D01*
X205886599Y-185464757D02*
X206029457Y-185393328D01*
X206029457Y-185393328D02*
X206315171Y-185393328D01*
X206315171Y-185393328D02*
X206458028Y-185464757D01*
X206458028Y-185464757D02*
X206529457Y-185536185D01*
X206529457Y-185536185D02*
X206600885Y-185679042D01*
X206600885Y-185679042D02*
X206600885Y-186107614D01*
X206600885Y-186107614D02*
X206529457Y-186250471D01*
X206529457Y-186250471D02*
X206458028Y-186321900D01*
X206458028Y-186321900D02*
X206315171Y-186393328D01*
X206315171Y-186393328D02*
X206029457Y-186393328D01*
X206029457Y-186393328D02*
X205886599Y-186321900D01*
X207886600Y-186321900D02*
X207743742Y-186393328D01*
X207743742Y-186393328D02*
X207458028Y-186393328D01*
X207458028Y-186393328D02*
X207315171Y-186321900D01*
X207315171Y-186321900D02*
X207243742Y-186250471D01*
X207243742Y-186250471D02*
X207172314Y-186107614D01*
X207172314Y-186107614D02*
X207172314Y-185679042D01*
X207172314Y-185679042D02*
X207243742Y-185536185D01*
X207243742Y-185536185D02*
X207315171Y-185464757D01*
X207315171Y-185464757D02*
X207458028Y-185393328D01*
X207458028Y-185393328D02*
X207743742Y-185393328D01*
X207743742Y-185393328D02*
X207886600Y-185464757D01*
X208529456Y-186393328D02*
X208529456Y-184893328D01*
X208529456Y-185464757D02*
X208672314Y-185393328D01*
X208672314Y-185393328D02*
X208958028Y-185393328D01*
X208958028Y-185393328D02*
X209100885Y-185464757D01*
X209100885Y-185464757D02*
X209172314Y-185536185D01*
X209172314Y-185536185D02*
X209243742Y-185679042D01*
X209243742Y-185679042D02*
X209243742Y-186107614D01*
X209243742Y-186107614D02*
X209172314Y-186250471D01*
X209172314Y-186250471D02*
X209100885Y-186321900D01*
X209100885Y-186321900D02*
X208958028Y-186393328D01*
X208958028Y-186393328D02*
X208672314Y-186393328D01*
X208672314Y-186393328D02*
X208529456Y-186321900D01*
D10*
D11*
X177002200Y-181507200D02*
X285002200Y-181507200D01*
D10*
D11*
X178386598Y-183621900D02*
X178600884Y-183693328D01*
X178600884Y-183693328D02*
X178958026Y-183693328D01*
X178958026Y-183693328D02*
X179100884Y-183621900D01*
X179100884Y-183621900D02*
X179172312Y-183550471D01*
X179172312Y-183550471D02*
X179243741Y-183407614D01*
X179243741Y-183407614D02*
X179243741Y-183264757D01*
X179243741Y-183264757D02*
X179172312Y-183121900D01*
X179172312Y-183121900D02*
X179100884Y-183050471D01*
X179100884Y-183050471D02*
X178958026Y-182979042D01*
X178958026Y-182979042D02*
X178672312Y-182907614D01*
X178672312Y-182907614D02*
X178529455Y-182836185D01*
X178529455Y-182836185D02*
X178458026Y-182764757D01*
X178458026Y-182764757D02*
X178386598Y-182621900D01*
X178386598Y-182621900D02*
X178386598Y-182479042D01*
X178386598Y-182479042D02*
X178458026Y-182336185D01*
X178458026Y-182336185D02*
X178529455Y-182264757D01*
X178529455Y-182264757D02*
X178672312Y-182193328D01*
X178672312Y-182193328D02*
X179029455Y-182193328D01*
X179029455Y-182193328D02*
X179243741Y-182264757D01*
X179886597Y-183693328D02*
X179886597Y-182193328D01*
X180529455Y-183693328D02*
X180529455Y-182907614D01*
X180529455Y-182907614D02*
X180458026Y-182764757D01*
X180458026Y-182764757D02*
X180315169Y-182693328D01*
X180315169Y-182693328D02*
X180100883Y-182693328D01*
X180100883Y-182693328D02*
X179958026Y-182764757D01*
X179958026Y-182764757D02*
X179886597Y-182836185D01*
X181815169Y-183621900D02*
X181672312Y-183693328D01*
X181672312Y-183693328D02*
X181386598Y-183693328D01*
X181386598Y-183693328D02*
X181243740Y-183621900D01*
X181243740Y-183621900D02*
X181172312Y-183479042D01*
X181172312Y-183479042D02*
X181172312Y-182907614D01*
X181172312Y-182907614D02*
X181243740Y-182764757D01*
X181243740Y-182764757D02*
X181386598Y-182693328D01*
X181386598Y-182693328D02*
X181672312Y-182693328D01*
X181672312Y-182693328D02*
X181815169Y-182764757D01*
X181815169Y-182764757D02*
X181886598Y-182907614D01*
X181886598Y-182907614D02*
X181886598Y-183050471D01*
X181886598Y-183050471D02*
X181172312Y-183193328D01*
X183100883Y-183621900D02*
X182958026Y-183693328D01*
X182958026Y-183693328D02*
X182672312Y-183693328D01*
X182672312Y-183693328D02*
X182529454Y-183621900D01*
X182529454Y-183621900D02*
X182458026Y-183479042D01*
X182458026Y-183479042D02*
X182458026Y-182907614D01*
X182458026Y-182907614D02*
X182529454Y-182764757D01*
X182529454Y-182764757D02*
X182672312Y-182693328D01*
X182672312Y-182693328D02*
X182958026Y-182693328D01*
X182958026Y-182693328D02*
X183100883Y-182764757D01*
X183100883Y-182764757D02*
X183172312Y-182907614D01*
X183172312Y-182907614D02*
X183172312Y-183050471D01*
X183172312Y-183050471D02*
X182458026Y-183193328D01*
X183600883Y-182693328D02*
X184172311Y-182693328D01*
X183815168Y-182193328D02*
X183815168Y-183479042D01*
X183815168Y-183479042D02*
X183886597Y-183621900D01*
X183886597Y-183621900D02*
X184029454Y-183693328D01*
X184029454Y-183693328D02*
X184172311Y-183693328D01*
X184672311Y-183550471D02*
X184743740Y-183621900D01*
X184743740Y-183621900D02*
X184672311Y-183693328D01*
X184672311Y-183693328D02*
X184600883Y-183621900D01*
X184600883Y-183621900D02*
X184672311Y-183550471D01*
X184672311Y-183550471D02*
X184672311Y-183693328D01*
X184672311Y-182764757D02*
X184743740Y-182836185D01*
X184743740Y-182836185D02*
X184672311Y-182907614D01*
X184672311Y-182907614D02*
X184600883Y-182836185D01*
X184600883Y-182836185D02*
X184672311Y-182764757D01*
X184672311Y-182764757D02*
X184672311Y-182907614D01*
D10*
D11*
X197002200Y-191507200D02*
X197002200Y-194507200D01*
D10*
D11*
X261002200Y-191507200D02*
X261002200Y-198007200D01*
D14*
X63500000Y-132080000D02*
X63500000Y-33020000D01*
X254000000Y-33020000D02*
X254000000Y-132080000D01*
X63500000Y-33020000D02*
X254000000Y-33020000D01*
X254000000Y-132080000D02*
X63500000Y-132080000D01*
D15*
%TO.P,U1,1*%
%TO.N,Net-(J1-Pin_2)*%
X144780000Y-91440000D03*
D16*
%TO.P,U1,2,-*%
%TO.N,Net-(U1B--)*%
X144780000Y-93980000D03*
%TO.P,U1,3,+*%
%TO.N,Net-(J1-Pin_3)*%
X144780000Y-96520000D03*
%TO.P,U1,4,V-*%
%TO.N,GND*%
X144780000Y-99060000D03*
%TO.P,U1,5*%
%TO.N,N/C*%
X152400000Y-99060000D03*
%TO.P,U1,6*%
X152400000Y-96520000D03*
%TO.P,U1,7*%
X152400000Y-93980000D03*
%TO.P,U1,8,V+*%
%TO.N,VCC*%
X152400000Y-91440000D03*
%TD*%
D17*
%TO.P,RV1,1,1*%
%TO.N,GND*%
X127000000Y-96520000D03*
%TO.P,RV1,2,2*%
%TO.N,Net-(U1B--)*%
X124460000Y-93980000D03*
%TO.P,RV1,3,3*%
%TO.N,VCC*%
X127000000Y-91440000D03*
%TD*%
D18*
%TO.P,D1,1,K*%
%TO.N,GND*%
X213360000Y-93980000D03*
D19*
%TO.P,D1,2,A*%
%TO.N,Net-(D1-A)*%
X213360000Y-91440000D03*
%TD*%
D20*
%TO.P,J2,1,Pin_1*%
%TO.N,GND*%
X67870000Y-105140000D03*
D21*
%TO.P,J2,2,Pin_2*%
%TO.N,Net-(J1-Pin_3)*%
X67870000Y-103140000D03*
%TD*%
D16*
%TO.P,C2,1*%
%TO.N,Net-(D2-K)*%
X170180000Y-98010000D03*
%TO.P,C2,2*%
%TO.N,GND*%
X170180000Y-125510000D03*
%TD*%
D22*
%TO.P,J1,1,Pin_1*%
%TO.N,VCC*%
X235082500Y-91435000D03*
D23*
%TO.P,J1,2,Pin_2*%
%TO.N,Net-(J1-Pin_2)*%
X235082500Y-93975000D03*
%TO.P,J1,3,Pin_3*%
%TO.N,Net-(J1-Pin_3)*%
X235082500Y-96515000D03*
%TO.P,J1,4,Pin_4*%
%TO.N,GND*%
X235082500Y-99055000D03*
%TD*%
D24*
%TO.P,R1,1*%
%TO.N,VCC*%
X96520000Y-48260000D03*
%TO.P,R1,2*%
%TO.N,Net-(J1-Pin_3)*%
X96520000Y-73660000D03*
%TD*%
%TO.P,R2,1*%
%TO.N,VCC*%
X191770000Y-57150000D03*
%TO.P,R2,2*%
%TO.N,Net-(D2-A)*%
X191770000Y-82550000D03*
%TD*%
%TO.P,R3,1*%
%TO.N,VCC*%
X212090000Y-57150000D03*
%TO.P,R3,2*%
%TO.N,Net-(D1-A)*%
X212090000Y-82550000D03*
%TD*%
D18*
%TO.P,D2,1,K*%
%TO.N,Net-(D2-K)*%
X191701700Y-93980000D03*
D19*
%TO.P,D2,2,A*%
%TO.N,Net-(D2-A)*%
X191701700Y-91440000D03*
%TD*%
D16*
%TO.P,C1,1*%
%TO.N,Net-(J1-Pin_3)*%
X96520000Y-85310000D03*
%TO.P,C1,2*%
%TO.N,GND*%
X96520000Y-112810000D03*
%TD*%
D25*
%TO.N,GND*%
X144780000Y-99060000D02*
X129540000Y-99060000D01*
X193040000Y-125510000D02*
X170180000Y-125510000D01*
X129540000Y-99060000D02*
X127000000Y-96520000D01*
X144780000Y-99060000D02*
X144780000Y-120430000D01*
X213360000Y-122970000D02*
X210820000Y-125510000D01*
X235170000Y-125510000D02*
X210820000Y-125510000D01*
X235082500Y-99055000D02*
X241300000Y-105272500D01*
X93980000Y-125510000D02*
X88240000Y-125510000D01*
X170180000Y-125510000D02*
X139700000Y-125510000D01*
X241300000Y-105272500D02*
X241300000Y-119380000D01*
X144780000Y-120430000D02*
X139700000Y-125510000D01*
X139700000Y-125510000D02*
X93980000Y-125510000D01*
X88240000Y-125510000D02*
X67870000Y-105140000D01*
X210820000Y-125510000D02*
X193040000Y-125510000D01*
X241300000Y-119380000D02*
X235170000Y-125510000D01*
X213360000Y-93980000D02*
X213360000Y-122970000D01*
X96520000Y-122970000D02*
X93980000Y-125510000D01*
X96520000Y-112810000D02*
X96520000Y-122970000D01*
%TO.N,Net-(D1-A)*%
X213360000Y-83820000D02*
X213360000Y-91440000D01*
X212090000Y-82550000D02*
X213360000Y-83820000D01*
%TO.N,Net-(D2-A)*%
X191701700Y-83888300D02*
X191701700Y-91440000D01*
X191770000Y-83820000D02*
X191701700Y-83888300D01*
X191770000Y-82550000D02*
X191770000Y-83820000D01*
%TO.N,Net-(D2-K)*%
X189010000Y-98010000D02*
X170180000Y-98010000D01*
X191701700Y-93980000D02*
X190500000Y-93980000D01*
X191701700Y-95318300D02*
X189010000Y-98010000D01*
X191701700Y-93980000D02*
X191701700Y-95318300D01*
%TO.N,Net-(U1B--)*%
X124460000Y-93980000D02*
X144780000Y-93980000D01*
%TO.N,VCC*%
X235082500Y-49662500D02*
X228600000Y-43180000D01*
X127000000Y-50800000D02*
X134620000Y-43180000D01*
X228600000Y-43180000D02*
X218440000Y-43180000D01*
X165100000Y-43180000D02*
X101600000Y-43180000D01*
X193040000Y-43180000D02*
X165100000Y-43180000D01*
X127000000Y-91440000D02*
X127000000Y-50800000D01*
X152400000Y-91440000D02*
X152400000Y-55880000D01*
X152400000Y-55880000D02*
X165100000Y-43180000D01*
X235082500Y-91435000D02*
X235082500Y-49662500D01*
X101600000Y-43180000D02*
X96520000Y-48260000D01*
X212090000Y-57150000D02*
X218440000Y-50800000D01*
X218440000Y-50800000D02*
X218440000Y-43180000D01*
X193040000Y-55880000D02*
X193040000Y-43180000D01*
X191770000Y-57150000D02*
X193040000Y-55880000D01*
X218440000Y-43180000D02*
X193040000Y-43180000D01*
%TO.N,Net-(J1-Pin_3)*%
X105630000Y-85310000D02*
X116840000Y-96520000D01*
X78740000Y-86360000D02*
X96520000Y-86360000D01*
X124861000Y-96520000D02*
X127000000Y-94381000D01*
X127000000Y-94381000D02*
X132080000Y-94381000D01*
X67870000Y-103140000D02*
X67580000Y-102850000D01*
X134219000Y-96520000D02*
X144780000Y-96520000D01*
X66893300Y-104116700D02*
X67870000Y-103140000D01*
X116840000Y-96520000D02*
X124861000Y-96520000D01*
X67580000Y-97520000D02*
X78740000Y-86360000D01*
X152400000Y-104140000D02*
X160020000Y-104140000D01*
X160020000Y-104140000D02*
X180340000Y-83820000D01*
X220980000Y-81280000D02*
X220980000Y-88900000D01*
X144780000Y-96520000D02*
X152400000Y-104140000D01*
X96520000Y-73660000D02*
X96520000Y-85310000D01*
X96520000Y-85310000D02*
X105630000Y-85310000D01*
X205740000Y-66040000D02*
X220980000Y-81280000D01*
X187960000Y-66040000D02*
X205740000Y-66040000D01*
X220980000Y-88900000D02*
X228595000Y-96515000D01*
X132080000Y-94381000D02*
X134219000Y-96520000D01*
X180340000Y-73660000D02*
X187960000Y-66040000D01*
X66893300Y-105952600D02*
X66893300Y-104116700D01*
X96520000Y-86360000D02*
X96520000Y-85310000D01*
X228595000Y-96515000D02*
X235082500Y-96515000D01*
X67580000Y-102850000D02*
X67580000Y-97520000D01*
X180340000Y-83820000D02*
X180340000Y-73660000D01*
%TO.N,Net-(J1-Pin_2)*%
X160020000Y-101600000D02*
X177800000Y-83820000D01*
X144780000Y-91440000D02*
X149860000Y-96520000D01*
X204607500Y-63500000D02*
X235082500Y-93975000D01*
X185420000Y-63500000D02*
X204607500Y-63500000D01*
X177800000Y-71120000D02*
X185420000Y-63500000D01*
X149860000Y-96520000D02*
X149860000Y-99060000D01*
X152400000Y-101600000D02*
X160020000Y-101600000D01*
X177800000Y-83820000D02*
X177800000Y-71120000D01*
X149860000Y-99060000D02*
X152400000Y-101600000D01*
%TD*%
%TA.AperFunction,NonConductor*%
G36*
X246323039Y-35579685D02*
G01*
X246368794Y-35632489D01*
X246380000Y-35684000D01*
X246380000Y-129416000D01*
X246360315Y-129483039D01*
X246307511Y-129528794D01*
X246256000Y-129540000D01*
X66164000Y-129540000D01*
X66096961Y-129520315D01*
X66051206Y-129467511D01*
X66040000Y-129416000D01*
X66040000Y-104037643D01*
X66292799Y-104037643D01*
X66292799Y-104037645D01*
X66292799Y-104205746D01*
X66292800Y-104205759D01*
X66292800Y-106031656D01*
X66333723Y-106184383D01*
X66333726Y-106184390D01*
X66412775Y-106321309D01*
X66412779Y-106321314D01*
X66412780Y-106321316D01*
X66524584Y-106433120D01*
X66524586Y-106433121D01*
X66524590Y-106433124D01*
X66661509Y-106512173D01*
X66661516Y-106512177D01*
X66814243Y-106553100D01*
X66814245Y-106553100D01*
X66972355Y-106553100D01*
X66972357Y-106553100D01*
X67125084Y-106512177D01*
X67262016Y-106433120D01*
X67343318Y-106351818D01*
X67404641Y-106318333D01*
X67430999Y-106315499D01*
X68144902Y-106315499D01*
X68211941Y-106335184D01*
X68232583Y-106351818D01*
X87755139Y-125874374D01*
X87755149Y-125874385D01*
X87759479Y-125878715D01*
X87759480Y-125878716D01*
X87871284Y-125990520D01*
X87958095Y-126040639D01*
X87958097Y-126040641D01*
X88008213Y-126069576D01*
X88008215Y-126069577D01*
X88160942Y-126110500D01*
X88160943Y-126110500D01*
X88160944Y-126110500D01*
X93900939Y-126110500D01*
X93900943Y-126110501D01*
X94059057Y-126110501D01*
X94059061Y-126110500D01*
X139613331Y-126110500D01*
X139613347Y-126110501D01*
X139620943Y-126110501D01*
X139786653Y-126110501D01*
X139786669Y-126110500D01*
X168950398Y-126110500D01*
X169017437Y-126130185D01*
X169060883Y-126178205D01*
X169067715Y-126191614D01*
X169188028Y-126357213D01*
X169332786Y-126501971D01*
X169487749Y-126614556D01*
X169498390Y-126622287D01*
X169614607Y-126681503D01*
X169680776Y-126715218D01*
X169680778Y-126715218D01*
X169680781Y-126715220D01*
X169785137Y-126749127D01*
X169875465Y-126778477D01*
X169976557Y-126794488D01*
X170077648Y-126810500D01*
X170077649Y-126810500D01*
X170282351Y-126810500D01*
X170282352Y-126810500D01*
X170484534Y-126778477D01*
X170679219Y-126715220D01*
X170861610Y-126622287D01*
X170954590Y-126554732D01*
X171027213Y-126501971D01*
X171027215Y-126501968D01*
X171027219Y-126501966D01*
X171171966Y-126357219D01*
X171171968Y-126357215D01*
X171171971Y-126357213D01*
X171292284Y-126191614D01*
X171292283Y-126191614D01*
X171292287Y-126191610D01*
X171299117Y-126178204D01*
X171347091Y-126127409D01*
X171409602Y-126110500D01*
X192960943Y-126110500D01*
X210740939Y-126110500D01*
X210740943Y-126110501D01*
X210899057Y-126110501D01*
X210899061Y-126110500D01*
X235083331Y-126110500D01*
X235083347Y-126110501D01*
X235090943Y-126110501D01*
X235249054Y-126110501D01*
X235249057Y-126110501D01*
X235401785Y-126069577D01*
X235451904Y-126040639D01*
X235538716Y-125990520D01*
X235650520Y-125878716D01*
X235650520Y-125878714D01*
X235660728Y-125868507D01*
X235660730Y-125868504D01*
X241668713Y-119860521D01*
X241668716Y-119860520D01*
X241780520Y-119748716D01*
X241830639Y-119661904D01*
X241859577Y-119611785D01*
X241900500Y-119459057D01*
X241900500Y-119300943D01*
X241900500Y-105361559D01*
X241900501Y-105361546D01*
X241900501Y-105193445D01*
X241900501Y-105193443D01*
X241859577Y-105040715D01*
X241830639Y-104990595D01*
X241780520Y-104903784D01*
X241668716Y-104791980D01*
X241668715Y-104791979D01*
X241664385Y-104787649D01*
X241664374Y-104787639D01*
X236614658Y-99737923D01*
X236581173Y-99676600D01*
X236584407Y-99611928D01*
X236643590Y-99429785D01*
X236683000Y-99180962D01*
X236683000Y-98929038D01*
X236643590Y-98680215D01*
X236565741Y-98440621D01*
X236565739Y-98440618D01*
X236565739Y-98440616D01*
X236524247Y-98359184D01*
X236451370Y-98216155D01*
X236343750Y-98068028D01*
X236303298Y-98012350D01*
X236303294Y-98012345D01*
X236163630Y-97872681D01*
X236130145Y-97811358D01*
X236135129Y-97741666D01*
X236163630Y-97697319D01*
X236228665Y-97632284D01*
X236303293Y-97557656D01*
X236451370Y-97353845D01*
X236565741Y-97129379D01*
X236643590Y-96889785D01*
X236683000Y-96640962D01*
X236683000Y-96389038D01*
X236643590Y-96140215D01*
X236565741Y-95900621D01*
X236565739Y-95900618D01*
X236565739Y-95900616D01*
X236456904Y-95687017D01*
X236451370Y-95676155D01*
X236413419Y-95623920D01*
X236303298Y-95472350D01*
X236303294Y-95472345D01*
X236163630Y-95332681D01*
X236130145Y-95271358D01*
X236135129Y-95201666D01*
X236163630Y-95157319D01*
X236228665Y-95092284D01*
X236303293Y-95017656D01*
X236451370Y-94813845D01*
X236565741Y-94589379D01*
X236643590Y-94349785D01*
X236683000Y-94100962D01*
X236683000Y-93849038D01*
X236643590Y-93600215D01*
X236565741Y-93360621D01*
X236565739Y-93360618D01*
X236565739Y-93360616D01*
X236451369Y-93136154D01*
X236448922Y-93132786D01*
X236383733Y-93043060D01*
X236360254Y-92977257D01*
X236376079Y-92909203D01*
X236396371Y-92882495D01*
X236401150Y-92877715D01*
X236401156Y-92877712D01*
X236525212Y-92753656D01*
X236617314Y-92604335D01*
X236672499Y-92437798D01*
X236683000Y-92335010D01*
X236683000Y-90534990D01*
X236672499Y-90432202D01*
X236617314Y-90265665D01*
X236525212Y-90116344D01*
X236401156Y-89992288D01*
X236251835Y-89900186D01*
X236085298Y-89845001D01*
X236085296Y-89845000D01*
X235982517Y-89834500D01*
X235982510Y-89834500D01*
X235807000Y-89834500D01*
X235739961Y-89814815D01*
X235694206Y-89762011D01*
X235683000Y-89710500D01*
X235683000Y-49583445D01*
X235683000Y-49583443D01*
X235642077Y-49430716D01*
X235614888Y-49383622D01*
X235563024Y-49293790D01*
X235563021Y-49293786D01*
X235563020Y-49293784D01*
X235451216Y-49181980D01*
X235451215Y-49181979D01*
X235446885Y-49177649D01*
X235446874Y-49177639D01*
X229087590Y-42818355D01*
X229087588Y-42818352D01*
X228968717Y-42699481D01*
X228968716Y-42699480D01*
X228881904Y-42649360D01*
X228881904Y-42649359D01*
X228881900Y-42649358D01*
X228831785Y-42620423D01*
X228679057Y-42579499D01*
X228520943Y-42579499D01*
X228513347Y-42579499D01*
X228513331Y-42579500D01*
X101686669Y-42579500D01*
X101686653Y-42579499D01*
X101679057Y-42579499D01*
X101520943Y-42579499D01*
X101413587Y-42608265D01*
X101368210Y-42620424D01*
X101368209Y-42620425D01*
X101318096Y-42649359D01*
X101318095Y-42649360D01*
X101274689Y-42674420D01*
X101231285Y-42699479D01*
X101231282Y-42699481D01*
X101119478Y-42811286D01*
X97279592Y-46651171D01*
X97218269Y-46684656D01*
X97148577Y-46679672D01*
X97144459Y-46678051D01*
X97067781Y-46646290D01*
X96852463Y-46588596D01*
X96852457Y-46588595D01*
X96852452Y-46588594D01*
X96631466Y-46559501D01*
X96631463Y-46559500D01*
X96631457Y-46559500D01*
X96408543Y-46559500D01*
X96408537Y-46559500D01*
X96408533Y-46559501D01*
X96187547Y-46588594D01*
X96187540Y-46588595D01*
X96187537Y-46588596D01*
X95972219Y-46646290D01*
X95972209Y-46646293D01*
X95766277Y-46731593D01*
X95766273Y-46731595D01*
X95573226Y-46843052D01*
X95573217Y-46843058D01*
X95396377Y-46978751D01*
X95396370Y-46978757D01*
X95238757Y-47136370D01*
X95238751Y-47136377D01*
X95103058Y-47313217D01*
X95103052Y-47313226D01*
X94991595Y-47506273D01*
X94991593Y-47506277D01*
X94906293Y-47712209D01*
X94906290Y-47712219D01*
X94848597Y-47927534D01*
X94848594Y-47927547D01*
X94819501Y-48148533D01*
X94819500Y-48148549D01*
X94819500Y-48371450D01*
X94819501Y-48371466D01*
X94848594Y-48592452D01*
X94848595Y-48592457D01*
X94848596Y-48592463D01*
X94848597Y-48592465D01*
X94906290Y-48807780D01*
X94906293Y-48807790D01*
X94991593Y-49013722D01*
X94991595Y-49013726D01*
X95103052Y-49206774D01*
X95103057Y-49206780D01*
X95103058Y-49206782D01*
X95238751Y-49383622D01*
X95238757Y-49383629D01*
X95396370Y-49541242D01*
X95396376Y-49541247D01*
X95573226Y-49676948D01*
X95766274Y-49788405D01*
X95972219Y-49873710D01*
X96187537Y-49931404D01*
X96408543Y-49960500D01*
X96408550Y-49960500D01*
X96631450Y-49960500D01*
X96631457Y-49960500D01*
X96852463Y-49931404D01*
X97067781Y-49873710D01*
X97273726Y-49788405D01*
X97466774Y-49676948D01*
X97643624Y-49541247D01*
X97801247Y-49383624D01*
X97936948Y-49206774D01*
X98048405Y-49013726D01*
X98133710Y-48807781D01*
X98191404Y-48592463D01*
X98220500Y-48371457D01*
X98220500Y-48148543D01*
X98191404Y-47927537D01*
X98133710Y-47712219D01*
X98101947Y-47635539D01*
X98094479Y-47566071D01*
X98125754Y-47503591D01*
X98128828Y-47500406D01*
X101812416Y-43816819D01*
X101873739Y-43783334D01*
X101900097Y-43780500D01*
X132870903Y-43780500D01*
X132937942Y-43800185D01*
X132983697Y-43852989D01*
X132993641Y-43922147D01*
X132964616Y-43985703D01*
X132958584Y-43992180D01*
X129637547Y-47313217D01*
X126631286Y-50319478D01*
X126519481Y-50431282D01*
X126519479Y-50431285D01*
X126469361Y-50518094D01*
X126469359Y-50518096D01*
X126440425Y-50568209D01*
X126440424Y-50568210D01*
X126440423Y-50568215D01*
X126399499Y-50720943D01*
X126399499Y-50720945D01*
X126399499Y-50889046D01*
X126399500Y-50889059D01*
X126399500Y-90126222D01*
X126379815Y-90193261D01*
X126331796Y-90236706D01*
X126279083Y-90263565D01*
X126200198Y-90320879D01*
X126103922Y-90390828D01*
X126103920Y-90390830D01*
X126103919Y-90390830D01*
X125950830Y-90543919D01*
X125950830Y-90543920D01*
X125950828Y-90543922D01*
X125931396Y-90570668D01*
X125823567Y-90719080D01*
X125725273Y-90911990D01*
X125725272Y-90911993D01*
X125658370Y-91117901D01*
X125624500Y-91331746D01*
X125624500Y-91548253D01*
X125658370Y-91762098D01*
X125725272Y-91968006D01*
X125725273Y-91968009D01*
X125814333Y-92142796D01*
X125823567Y-92160919D01*
X125950828Y-92336078D01*
X126103922Y-92489172D01*
X126279081Y-92616433D01*
X126340034Y-92647490D01*
X126471990Y-92714726D01*
X126471993Y-92714727D01*
X126574947Y-92748178D01*
X126677903Y-92781630D01*
X126891746Y-92815500D01*
X126891747Y-92815500D01*
X127108253Y-92815500D01*
X127108254Y-92815500D01*
X127322097Y-92781630D01*
X127528009Y-92714726D01*
X127720919Y-92616433D01*
X127896078Y-92489172D01*
X128049172Y-92336078D01*
X128176433Y-92160919D01*
X128274726Y-91968009D01*
X128341630Y-91762097D01*
X128375500Y-91548254D01*
X128375500Y-91331746D01*
X128341630Y-91117903D01*
X128308178Y-91014947D01*
X128274727Y-90911993D01*
X128274726Y-90911990D01*
X128185667Y-90737204D01*
X128176433Y-90719081D01*
X128049172Y-90543922D01*
X127896078Y-90390828D01*
X127720919Y-90263567D01*
X127720918Y-90263566D01*
X127720916Y-90263565D01*
X127668204Y-90236706D01*
X127617408Y-90188731D01*
X127600500Y-90126222D01*
X127600500Y-51100097D01*
X127620185Y-51033058D01*
X127636819Y-51012416D01*
X134832416Y-43816819D01*
X134893739Y-43783334D01*
X134920097Y-43780500D01*
X163350903Y-43780500D01*
X163417942Y-43800185D01*
X163463697Y-43852989D01*
X163473641Y-43922147D01*
X163444616Y-43985703D01*
X163438584Y-43992180D01*
X157642360Y-49788404D01*
X152031286Y-55399478D01*
X151919481Y-55511282D01*
X151919480Y-55511284D01*
X151882893Y-55574656D01*
X151869361Y-55598094D01*
X151869359Y-55598096D01*
X151840425Y-55648209D01*
X151840424Y-55648210D01*
X151840423Y-55648215D01*
X151799499Y-55800943D01*
X151799499Y-55800945D01*
X151799499Y-55969046D01*
X151799500Y-55969059D01*
X151799500Y-90210397D01*
X151779815Y-90277436D01*
X151731800Y-90320879D01*
X151718389Y-90327712D01*
X151552786Y-90448028D01*
X151408028Y-90592786D01*
X151287715Y-90758386D01*
X151194781Y-90940776D01*
X151131522Y-91135465D01*
X151099500Y-91337648D01*
X151099500Y-91542351D01*
X151131522Y-91744534D01*
X151194781Y-91939223D01*
X151287715Y-92121613D01*
X151408028Y-92287213D01*
X151552786Y-92431971D01*
X151707749Y-92544556D01*
X151718390Y-92552287D01*
X151809840Y-92598883D01*
X151811080Y-92599515D01*
X151861876Y-92647490D01*
X151878671Y-92715311D01*
X151856134Y-92781446D01*
X151811080Y-92820485D01*
X151718386Y-92867715D01*
X151552786Y-92988028D01*
X151408028Y-93132786D01*
X151287715Y-93298386D01*
X151194781Y-93480776D01*
X151131522Y-93675465D01*
X151099500Y-93877648D01*
X151099500Y-94082351D01*
X151131522Y-94284534D01*
X151194781Y-94479223D01*
X151287715Y-94661613D01*
X151408028Y-94827213D01*
X151552786Y-94971971D01*
X151661272Y-95050789D01*
X151718390Y-95092287D01*
X151809840Y-95138883D01*
X151811080Y-95139515D01*
X151861876Y-95187490D01*
X151878671Y-95255311D01*
X151856134Y-95321446D01*
X151811080Y-95360485D01*
X151718386Y-95407715D01*
X151552786Y-95528028D01*
X151408028Y-95672786D01*
X151287715Y-95838386D01*
X151194781Y-96020776D01*
X151131522Y-96215465D01*
X151099500Y-96417648D01*
X151099500Y-96622351D01*
X151131522Y-96824534D01*
X151194781Y-97019223D01*
X151287715Y-97201613D01*
X151408028Y-97367213D01*
X151552786Y-97511971D01*
X151686401Y-97609046D01*
X151718390Y-97632287D01*
X151809840Y-97678883D01*
X151811080Y-97679515D01*
X151861876Y-97727490D01*
X151878671Y-97795311D01*
X151856134Y-97861446D01*
X151811080Y-97900485D01*
X151718386Y-97947715D01*
X151552786Y-98068028D01*
X151408028Y-98212786D01*
X151287715Y-98378386D01*
X151194781Y-98560776D01*
X151131522Y-98755465D01*
X151099500Y-98957648D01*
X151099500Y-99150903D01*
X151079815Y-99217942D01*
X151027011Y-99263697D01*
X150957853Y-99273641D01*
X150894297Y-99244616D01*
X150887819Y-99238584D01*
X150496819Y-98847584D01*
X150463334Y-98786261D01*
X150460500Y-98759903D01*
X150460500Y-96609059D01*
X150460501Y-96609046D01*
X150460501Y-96440945D01*
X150460501Y-96440943D01*
X150419577Y-96288215D01*
X150377575Y-96215466D01*
X150340520Y-96151284D01*
X150228716Y-96039480D01*
X150224385Y-96035149D01*
X150224374Y-96035139D01*
X146116818Y-91927583D01*
X146083333Y-91866260D01*
X146080499Y-91839902D01*
X146080499Y-90839998D01*
X146080498Y-90839981D01*
X146069999Y-90737203D01*
X146069998Y-90737200D01*
X146059651Y-90705974D01*
X146014814Y-90570666D01*
X145922712Y-90421344D01*
X145798656Y-90297288D01*
X145700436Y-90236706D01*
X145649336Y-90205187D01*
X145649331Y-90205185D01*
X145640353Y-90202210D01*
X145482797Y-90150001D01*
X145482795Y-90150000D01*
X145380010Y-90139500D01*
X144179998Y-90139500D01*
X144179981Y-90139501D01*
X144077203Y-90150000D01*
X144077200Y-90150001D01*
X143910668Y-90205185D01*
X143910663Y-90205187D01*
X143761342Y-90297289D01*
X143637289Y-90421342D01*
X143545187Y-90570663D01*
X143545186Y-90570666D01*
X143490001Y-90737203D01*
X143490001Y-90737204D01*
X143490000Y-90737204D01*
X143479500Y-90839983D01*
X143479500Y-92040001D01*
X143479501Y-92040018D01*
X143490000Y-92142796D01*
X143490001Y-92142799D01*
X143537856Y-92287213D01*
X143545186Y-92309334D01*
X143637288Y-92458656D01*
X143761344Y-92582712D01*
X143910666Y-92674814D01*
X143992570Y-92701954D01*
X144050015Y-92741727D01*
X144076838Y-92806243D01*
X144064523Y-92875018D01*
X144026451Y-92919978D01*
X143932787Y-92988028D01*
X143932782Y-92988032D01*
X143788028Y-93132786D01*
X143667715Y-93298385D01*
X143660883Y-93311795D01*
X143612909Y-93362591D01*
X143550398Y-93379500D01*
X125773777Y-93379500D01*
X125706738Y-93359815D01*
X125663292Y-93311795D01*
X125656460Y-93298386D01*
X125636433Y-93259081D01*
X125509172Y-93083922D01*
X125356078Y-92930828D01*
X125180919Y-92803567D01*
X124988009Y-92705273D01*
X124988006Y-92705272D01*
X124782098Y-92638370D01*
X124675175Y-92621435D01*
X124568254Y-92604500D01*
X124351746Y-92604500D01*
X124280465Y-92615790D01*
X124137901Y-92638370D01*
X123931993Y-92705272D01*
X123931990Y-92705273D01*
X123739080Y-92803567D01*
X123692141Y-92837671D01*
X123563922Y-92930828D01*
X123563920Y-92930830D01*
X123563919Y-92930830D01*
X123410830Y-93083919D01*
X123410830Y-93083920D01*
X123410828Y-93083922D01*
X123356174Y-93159145D01*
X123283567Y-93259080D01*
X123185273Y-93451990D01*
X123185272Y-93451993D01*
X123118370Y-93657901D01*
X123084500Y-93871746D01*
X123084500Y-94088253D01*
X123118370Y-94302098D01*
X123185272Y-94508006D01*
X123185273Y-94508009D01*
X123263540Y-94661614D01*
X123283567Y-94700919D01*
X123410828Y-94876078D01*
X123563922Y-95029172D01*
X123739081Y-95156433D01*
X123800034Y-95187490D01*
X123931990Y-95254726D01*
X123931993Y-95254727D01*
X124034947Y-95288178D01*
X124137903Y-95321630D01*
X124351746Y-95355500D01*
X124351747Y-95355500D01*
X124568253Y-95355500D01*
X124568254Y-95355500D01*
X124782097Y-95321630D01*
X124924934Y-95275219D01*
X124994774Y-95273225D01*
X125054607Y-95309305D01*
X125085435Y-95372006D01*
X125077470Y-95441420D01*
X125050932Y-95480832D01*
X124648584Y-95883181D01*
X124587261Y-95916666D01*
X124560903Y-95919500D01*
X117140097Y-95919500D01*
X117073058Y-95899815D01*
X117052416Y-95883181D01*
X106117590Y-84948355D01*
X106117588Y-84948352D01*
X105998717Y-84829481D01*
X105998716Y-84829480D01*
X105911904Y-84779360D01*
X105911904Y-84779359D01*
X105911900Y-84779358D01*
X105861785Y-84750423D01*
X105709057Y-84709499D01*
X105550943Y-84709499D01*
X105543347Y-84709499D01*
X105543331Y-84709500D01*
X97749602Y-84709500D01*
X97682563Y-84689815D01*
X97639117Y-84641795D01*
X97632284Y-84628385D01*
X97511971Y-84462786D01*
X97367213Y-84318028D01*
X97201610Y-84197712D01*
X97188200Y-84190879D01*
X97137406Y-84142903D01*
X97120500Y-84080397D01*
X97120500Y-75334727D01*
X97140185Y-75267688D01*
X97192989Y-75221933D01*
X97197048Y-75220166D01*
X97273717Y-75188409D01*
X97273718Y-75188407D01*
X97273726Y-75188405D01*
X97466774Y-75076948D01*
X97643624Y-74941247D01*
X97801247Y-74783624D01*
X97936948Y-74606774D01*
X98048405Y-74413726D01*
X98133710Y-74207781D01*
X98191404Y-73992463D01*
X98220500Y-73771457D01*
X98220500Y-73548543D01*
X98191404Y-73327537D01*
X98133710Y-73112219D01*
X98048405Y-72906274D01*
X97936948Y-72713226D01*
X97801247Y-72536376D01*
X97801242Y-72536370D01*
X97643629Y-72378757D01*
X97643622Y-72378751D01*
X97466782Y-72243058D01*
X97466780Y-72243057D01*
X97466774Y-72243052D01*
X97273726Y-72131595D01*
X97273722Y-72131593D01*
X97067790Y-72046293D01*
X97067783Y-72046291D01*
X97067781Y-72046290D01*
X96852463Y-71988596D01*
X96852457Y-71988595D01*
X96852452Y-71988594D01*
X96631466Y-71959501D01*
X96631463Y-71959500D01*
X96631457Y-71959500D01*
X96408543Y-71959500D01*
X96408537Y-71959500D01*
X96408533Y-71959501D01*
X96187547Y-71988594D01*
X96187540Y-71988595D01*
X96187537Y-71988596D01*
X95972219Y-72046290D01*
X95972209Y-72046293D01*
X95766277Y-72131593D01*
X95766273Y-72131595D01*
X95573226Y-72243052D01*
X95573217Y-72243058D01*
X95396377Y-72378751D01*
X95396370Y-72378757D01*
X95238757Y-72536370D01*
X95238751Y-72536377D01*
X95103058Y-72713217D01*
X95103052Y-72713226D01*
X94991595Y-72906273D01*
X94991593Y-72906277D01*
X94906293Y-73112209D01*
X94906290Y-73112219D01*
X94848597Y-73327536D01*
X94848594Y-73327547D01*
X94819501Y-73548533D01*
X94819500Y-73548549D01*
X94819500Y-73771450D01*
X94819501Y-73771466D01*
X94848594Y-73992452D01*
X94848595Y-73992457D01*
X94848596Y-73992463D01*
X94848597Y-73992465D01*
X94906290Y-74207780D01*
X94906293Y-74207790D01*
X94991593Y-74413722D01*
X94991595Y-74413726D01*
X95103052Y-74606774D01*
X95103057Y-74606780D01*
X95103058Y-74606782D01*
X95238751Y-74783622D01*
X95238757Y-74783629D01*
X95396370Y-74941242D01*
X95396376Y-74941247D01*
X95573226Y-75076948D01*
X95766274Y-75188405D01*
X95766277Y-75188406D01*
X95766282Y-75188409D01*
X95842952Y-75220166D01*
X95897356Y-75264006D01*
X95919421Y-75330300D01*
X95919500Y-75334727D01*
X95919500Y-84080397D01*
X95899815Y-84147436D01*
X95851800Y-84190879D01*
X95838389Y-84197712D01*
X95672786Y-84318028D01*
X95528028Y-84462786D01*
X95407715Y-84628386D01*
X95314781Y-84810776D01*
X95251522Y-85005465D01*
X95219500Y-85207648D01*
X95219500Y-85412351D01*
X95251771Y-85616102D01*
X95242816Y-85685396D01*
X95197820Y-85738848D01*
X95131069Y-85759487D01*
X95129298Y-85759500D01*
X78660940Y-85759500D01*
X78620019Y-85770464D01*
X78620019Y-85770465D01*
X78582751Y-85780451D01*
X78508214Y-85800423D01*
X78508209Y-85800426D01*
X78371290Y-85879475D01*
X78371282Y-85879481D01*
X67099481Y-97151282D01*
X67099475Y-97151290D01*
X67060117Y-97219462D01*
X67060117Y-97219464D01*
X67020423Y-97288214D01*
X67020423Y-97288215D01*
X66979499Y-97440943D01*
X66979499Y-97440945D01*
X66979499Y-97609046D01*
X66979500Y-97609059D01*
X66979500Y-102325498D01*
X66959815Y-102392537D01*
X66955818Y-102398384D01*
X66864622Y-102523903D01*
X66780620Y-102688764D01*
X66780619Y-102688767D01*
X66723445Y-102864734D01*
X66694500Y-103047486D01*
X66694500Y-103232514D01*
X66694499Y-103232514D01*
X66716576Y-103371901D01*
X66715874Y-103377325D01*
X66717787Y-103382452D01*
X66711444Y-103411607D01*
X66707621Y-103441194D01*
X66703789Y-103446797D01*
X66702935Y-103450725D01*
X66681785Y-103478979D01*
X66524586Y-103636178D01*
X66524585Y-103636178D01*
X66524584Y-103636179D01*
X66412781Y-103747982D01*
X66412779Y-103747985D01*
X66362661Y-103834794D01*
X66362659Y-103834796D01*
X66333725Y-103884909D01*
X66333724Y-103884910D01*
X66333723Y-103884915D01*
X66292799Y-104037643D01*
X66040000Y-104037643D01*
X66040000Y-35684000D01*
X66059685Y-35616961D01*
X66112489Y-35571206D01*
X66164000Y-35560000D01*
X246256000Y-35560000D01*
X246323039Y-35579685D01*
G37*
%TD.AperFunction*%
%TA.AperFunction,NonConductor*%
G36*
X221785703Y-81527884D02*
G01*
X221792181Y-81533916D01*
X233550341Y-93292076D01*
X233583826Y-93353399D01*
X233580591Y-93418074D01*
X233521410Y-93600215D01*
X233482000Y-93849038D01*
X233482000Y-94100962D01*
X233499553Y-94211784D01*
X233521410Y-94349785D01*
X233599260Y-94589383D01*
X233713632Y-94813848D01*
X233861701Y-95017649D01*
X233861705Y-95017654D01*
X234001370Y-95157319D01*
X234034855Y-95218642D01*
X234029871Y-95288334D01*
X234001370Y-95332681D01*
X233861705Y-95472345D01*
X233861701Y-95472350D01*
X233713632Y-95676151D01*
X233713630Y-95676155D01*
X233630968Y-95838390D01*
X233626685Y-95846795D01*
X233578711Y-95897591D01*
X233516200Y-95914500D01*
X228895097Y-95914500D01*
X228828058Y-95894815D01*
X228807416Y-95878181D01*
X221616819Y-88687584D01*
X221583334Y-88626261D01*
X221580500Y-88599903D01*
X221580500Y-81621597D01*
X221600185Y-81554558D01*
X221652989Y-81508803D01*
X221722147Y-81498859D01*
X221785703Y-81527884D01*
G37*
%TD.AperFunction*%
%TA.AperFunction,NonConductor*%
G36*
X143565000Y-94584787D02*
G01*
X143580206Y-94584136D01*
X143597843Y-94594431D01*
X143617437Y-94600185D01*
X143628335Y-94612230D01*
X143640547Y-94619359D01*
X143660883Y-94648205D01*
X143667715Y-94661614D01*
X143788028Y-94827213D01*
X143932786Y-94971971D01*
X144041272Y-95050789D01*
X144098390Y-95092287D01*
X144189840Y-95138883D01*
X144191080Y-95139515D01*
X144241876Y-95187490D01*
X144258671Y-95255311D01*
X144236134Y-95321446D01*
X144191080Y-95360485D01*
X144098386Y-95407715D01*
X143932786Y-95528028D01*
X143788028Y-95672786D01*
X143667715Y-95838385D01*
X143660883Y-95851795D01*
X143612909Y-95902591D01*
X143550398Y-95919500D01*
X134519097Y-95919500D01*
X134452058Y-95899815D01*
X134431416Y-95883181D01*
X133340416Y-94792181D01*
X133306931Y-94730858D01*
X133311915Y-94661166D01*
X133353787Y-94605233D01*
X133419251Y-94580816D01*
X133428097Y-94580500D01*
X143550398Y-94580500D01*
X143565000Y-94584787D01*
G37*
%TD.AperFunction*%
%TA.AperFunction,NonConductor*%
G36*
X131846942Y-95001185D02*
G01*
X131867584Y-95017819D01*
X133734139Y-96884374D01*
X133734149Y-96884385D01*
X133738479Y-96888715D01*
X133738480Y-96888716D01*
X133850284Y-97000520D01*
X133932538Y-97048009D01*
X133987215Y-97079577D01*
X134139943Y-97120501D01*
X134139946Y-97120501D01*
X134305654Y-97120501D01*
X134305670Y-97120500D01*
X143550398Y-97120500D01*
X143617437Y-97140185D01*
X143660883Y-97188205D01*
X143667715Y-97201614D01*
X143788028Y-97367213D01*
X143932786Y-97511971D01*
X144066401Y-97609046D01*
X144098390Y-97632287D01*
X144189840Y-97678883D01*
X144191080Y-97679515D01*
X144241876Y-97727490D01*
X144258671Y-97795311D01*
X144236134Y-97861446D01*
X144191080Y-97900485D01*
X144098386Y-97947715D01*
X143932786Y-98068028D01*
X143788028Y-98212786D01*
X143667715Y-98378385D01*
X143660883Y-98391795D01*
X143612909Y-98442591D01*
X143550398Y-98459500D01*
X129840097Y-98459500D01*
X129773058Y-98439815D01*
X129752416Y-98423181D01*
X128353597Y-97024362D01*
X128320112Y-96963039D01*
X128323346Y-96898365D01*
X128341630Y-96842097D01*
X128375500Y-96628254D01*
X128375500Y-96411746D01*
X128341630Y-96197903D01*
X128288749Y-96035149D01*
X128274727Y-95991993D01*
X128274726Y-95991990D01*
X128203292Y-95851795D01*
X128176433Y-95799081D01*
X128049172Y-95623922D01*
X127896078Y-95470828D01*
X127720919Y-95343567D01*
X127699554Y-95332681D01*
X127528009Y-95245273D01*
X127528006Y-95245272D01*
X127460783Y-95223431D01*
X127403108Y-95183994D01*
X127375909Y-95119636D01*
X127387823Y-95050789D01*
X127435067Y-94999313D01*
X127499101Y-94981500D01*
X131779903Y-94981500D01*
X131846942Y-95001185D01*
G37*
%TD.AperFunction*%
%TA.AperFunction,NonConductor*%
G36*
X192382539Y-43800185D02*
G01*
X192428294Y-43852989D01*
X192439500Y-43904500D01*
X192439500Y-55407304D01*
X192419815Y-55474343D01*
X192367011Y-55520098D01*
X192297853Y-55530042D01*
X192283407Y-55527079D01*
X192184477Y-55500571D01*
X192102463Y-55478596D01*
X192102457Y-55478595D01*
X192102452Y-55478594D01*
X191881466Y-55449501D01*
X191881463Y-55449500D01*
X191881457Y-55449500D01*
X191658543Y-55449500D01*
X191658537Y-55449500D01*
X191658533Y-55449501D01*
X191437547Y-55478594D01*
X191437540Y-55478595D01*
X191437537Y-55478596D01*
X191282649Y-55520098D01*
X191222219Y-55536290D01*
X191222209Y-55536293D01*
X191016277Y-55621593D01*
X191016273Y-55621595D01*
X190823226Y-55733052D01*
X190823217Y-55733058D01*
X190646377Y-55868751D01*
X190646370Y-55868757D01*
X190488757Y-56026370D01*
X190488751Y-56026377D01*
X190353058Y-56203217D01*
X190353052Y-56203226D01*
X190241595Y-56396273D01*
X190241593Y-56396277D01*
X190156293Y-56602209D01*
X190156290Y-56602219D01*
X190098597Y-56817534D01*
X190098594Y-56817547D01*
X190069501Y-57038533D01*
X190069500Y-57038549D01*
X190069500Y-57261450D01*
X190069501Y-57261466D01*
X190098594Y-57482452D01*
X190098595Y-57482457D01*
X190098596Y-57482463D01*
X190098597Y-57482465D01*
X190156290Y-57697780D01*
X190156293Y-57697790D01*
X190241593Y-57903722D01*
X190241595Y-57903726D01*
X190353052Y-58096774D01*
X190353057Y-58096780D01*
X190353058Y-58096782D01*
X190488751Y-58273622D01*
X190488757Y-58273629D01*
X190646370Y-58431242D01*
X190646376Y-58431247D01*
X190823226Y-58566948D01*
X191016274Y-58678405D01*
X191222219Y-58763710D01*
X191437537Y-58821404D01*
X191658543Y-58850500D01*
X191658550Y-58850500D01*
X191881450Y-58850500D01*
X191881457Y-58850500D01*
X192102463Y-58821404D01*
X192317781Y-58763710D01*
X192523726Y-58678405D01*
X192716774Y-58566948D01*
X192893624Y-58431247D01*
X193051247Y-58273624D01*
X193186948Y-58096774D01*
X193298405Y-57903726D01*
X193383710Y-57697781D01*
X193441404Y-57482463D01*
X193470500Y-57261457D01*
X193470500Y-57038543D01*
X193441404Y-56817537D01*
X193383710Y-56602219D01*
X193351948Y-56525539D01*
X193349810Y-56505661D01*
X193342825Y-56486932D01*
X193346152Y-56471635D01*
X193344479Y-56456069D01*
X193353427Y-56438191D01*
X193357677Y-56418659D01*
X193374362Y-56396370D01*
X193375754Y-56393590D01*
X193378800Y-56390433D01*
X193398506Y-56370728D01*
X193398511Y-56370724D01*
X193408714Y-56360520D01*
X193408716Y-56360520D01*
X193520520Y-56248716D01*
X193588987Y-56130127D01*
X193599577Y-56111785D01*
X193640500Y-55959058D01*
X193640500Y-55800943D01*
X193640500Y-43904500D01*
X193660185Y-43837461D01*
X193712989Y-43791706D01*
X193764500Y-43780500D01*
X217715500Y-43780500D01*
X217782539Y-43800185D01*
X217828294Y-43852989D01*
X217839500Y-43904500D01*
X217839500Y-50499902D01*
X217819815Y-50566941D01*
X217803181Y-50587583D01*
X212849592Y-55541171D01*
X212788269Y-55574656D01*
X212718577Y-55569672D01*
X212714459Y-55568051D01*
X212637781Y-55536290D01*
X212577351Y-55520098D01*
X212422463Y-55478596D01*
X212422457Y-55478595D01*
X212422452Y-55478594D01*
X212201466Y-55449501D01*
X212201463Y-55449500D01*
X212201457Y-55449500D01*
X211978543Y-55449500D01*
X211978537Y-55449500D01*
X211978533Y-55449501D01*
X211757547Y-55478594D01*
X211757540Y-55478595D01*
X211757537Y-55478596D01*
X211602649Y-55520098D01*
X211542219Y-55536290D01*
X211542209Y-55536293D01*
X211336277Y-55621593D01*
X211336273Y-55621595D01*
X211143226Y-55733052D01*
X211143217Y-55733058D01*
X210966377Y-55868751D01*
X210966370Y-55868757D01*
X210808757Y-56026370D01*
X210808751Y-56026377D01*
X210673058Y-56203217D01*
X210673052Y-56203226D01*
X210561595Y-56396273D01*
X210561593Y-56396277D01*
X210476293Y-56602209D01*
X210476290Y-56602219D01*
X210418597Y-56817534D01*
X210418594Y-56817547D01*
X210389501Y-57038533D01*
X210389500Y-57038549D01*
X210389500Y-57261450D01*
X210389501Y-57261466D01*
X210418594Y-57482452D01*
X210418595Y-57482457D01*
X210418596Y-57482463D01*
X210418597Y-57482465D01*
X210476290Y-57697780D01*
X210476293Y-57697790D01*
X210561593Y-57903722D01*
X210561595Y-57903726D01*
X210673052Y-58096774D01*
X210673057Y-58096780D01*
X210673058Y-58096782D01*
X210808751Y-58273622D01*
X210808757Y-58273629D01*
X210966370Y-58431242D01*
X210966376Y-58431247D01*
X211143226Y-58566948D01*
X211336274Y-58678405D01*
X211542219Y-58763710D01*
X211757537Y-58821404D01*
X211978543Y-58850500D01*
X211978550Y-58850500D01*
X212201450Y-58850500D01*
X212201457Y-58850500D01*
X212422463Y-58821404D01*
X212637781Y-58763710D01*
X212843726Y-58678405D01*
X213036774Y-58566948D01*
X213213624Y-58431247D01*
X213371247Y-58273624D01*
X213506948Y-58096774D01*
X213618405Y-57903726D01*
X213703710Y-57697781D01*
X213761404Y-57482463D01*
X213790500Y-57261457D01*
X213790500Y-57038543D01*
X213761404Y-56817537D01*
X213703710Y-56602219D01*
X213671948Y-56525539D01*
X213664479Y-56456069D01*
X213695754Y-56393590D01*
X213698800Y-56390433D01*
X218808713Y-51280521D01*
X218808716Y-51280520D01*
X218920520Y-51168716D01*
X218970639Y-51081904D01*
X218999577Y-51031785D01*
X219040500Y-50879057D01*
X219040500Y-50720943D01*
X219040500Y-43904500D01*
X219060185Y-43837461D01*
X219112989Y-43791706D01*
X219164500Y-43780500D01*
X228299903Y-43780500D01*
X228366942Y-43800185D01*
X228387584Y-43816819D01*
X234445681Y-49874916D01*
X234479166Y-49936239D01*
X234482000Y-49962597D01*
X234482000Y-89710500D01*
X234462315Y-89777539D01*
X234409511Y-89823294D01*
X234358000Y-89834500D01*
X234182482Y-89834500D01*
X234079703Y-89845000D01*
X234079702Y-89845001D01*
X233997169Y-89872349D01*
X233913167Y-89900185D01*
X233913162Y-89900187D01*
X233763842Y-89992289D01*
X233639789Y-90116342D01*
X233547687Y-90265662D01*
X233547685Y-90265667D01*
X233543785Y-90277436D01*
X233492501Y-90432202D01*
X233492501Y-90432203D01*
X233492500Y-90432203D01*
X233482000Y-90534982D01*
X233482000Y-91225903D01*
X233462315Y-91292942D01*
X233409511Y-91338697D01*
X233340353Y-91348641D01*
X233276797Y-91319616D01*
X233270319Y-91313584D01*
X205095090Y-63138355D01*
X205095088Y-63138352D01*
X204976217Y-63019481D01*
X204976216Y-63019480D01*
X204889404Y-62969360D01*
X204889404Y-62969359D01*
X204889400Y-62969358D01*
X204839285Y-62940423D01*
X204686557Y-62899499D01*
X204528443Y-62899499D01*
X204520847Y-62899499D01*
X204520831Y-62899500D01*
X185340940Y-62899500D01*
X185300019Y-62910464D01*
X185300019Y-62910465D01*
X185262751Y-62920451D01*
X185188214Y-62940423D01*
X185188209Y-62940426D01*
X185051290Y-63019475D01*
X185051282Y-63019481D01*
X177319481Y-70751282D01*
X177319479Y-70751285D01*
X177269361Y-70838094D01*
X177269359Y-70838096D01*
X177240425Y-70888209D01*
X177240424Y-70888210D01*
X177240423Y-70888215D01*
X177199499Y-71040943D01*
X177199499Y-71040945D01*
X177199499Y-71209046D01*
X177199500Y-71209059D01*
X177199500Y-83519903D01*
X177179815Y-83586942D01*
X177163181Y-83607584D01*
X159807584Y-100963181D01*
X159746261Y-100996666D01*
X159719903Y-100999500D01*
X152700097Y-100999500D01*
X152633058Y-100979815D01*
X152612416Y-100963181D01*
X152221416Y-100572181D01*
X152187931Y-100510858D01*
X152192915Y-100441166D01*
X152234787Y-100385233D01*
X152300251Y-100360816D01*
X152309097Y-100360500D01*
X152502351Y-100360500D01*
X152502352Y-100360500D01*
X152704534Y-100328477D01*
X152899219Y-100265220D01*
X153081610Y-100172287D01*
X153184341Y-100097649D01*
X153247213Y-100051971D01*
X153247215Y-100051968D01*
X153247219Y-100051966D01*
X153391966Y-99907219D01*
X153391968Y-99907215D01*
X153391971Y-99907213D01*
X153444732Y-99834590D01*
X153512287Y-99741610D01*
X153605220Y-99559219D01*
X153668477Y-99364534D01*
X153700500Y-99162352D01*
X153700500Y-98957648D01*
X153688426Y-98881416D01*
X153668477Y-98755465D01*
X153621375Y-98610501D01*
X153605220Y-98560781D01*
X153605218Y-98560778D01*
X153605218Y-98560776D01*
X153569420Y-98490519D01*
X153512287Y-98378390D01*
X153504556Y-98367749D01*
X153391971Y-98212786D01*
X153247213Y-98068028D01*
X153081614Y-97947715D01*
X153075006Y-97944348D01*
X152988917Y-97900483D01*
X152938123Y-97852511D01*
X152921328Y-97784690D01*
X152943865Y-97718555D01*
X152988917Y-97679516D01*
X153081610Y-97632287D01*
X153113599Y-97609046D01*
X153247213Y-97511971D01*
X153247215Y-97511968D01*
X153247219Y-97511966D01*
X153391966Y-97367219D01*
X153391968Y-97367215D01*
X153391971Y-97367213D01*
X153449366Y-97288214D01*
X153512287Y-97201610D01*
X153605220Y-97019219D01*
X153668477Y-96824534D01*
X153700500Y-96622352D01*
X153700500Y-96417648D01*
X153695969Y-96389038D01*
X153668477Y-96215465D01*
X153639127Y-96125137D01*
X153605220Y-96020781D01*
X153605218Y-96020778D01*
X153605218Y-96020776D01*
X153571503Y-95954607D01*
X153512287Y-95838390D01*
X153483727Y-95799080D01*
X153391971Y-95672786D01*
X153247213Y-95528028D01*
X153081614Y-95407715D01*
X153075006Y-95404348D01*
X152988917Y-95360483D01*
X152938123Y-95312511D01*
X152921328Y-95244690D01*
X152943865Y-95178555D01*
X152988917Y-95139516D01*
X153081610Y-95092287D01*
X153168481Y-95029172D01*
X153247213Y-94971971D01*
X153247215Y-94971968D01*
X153247219Y-94971966D01*
X153391966Y-94827219D01*
X153391968Y-94827215D01*
X153391971Y-94827213D01*
X153461976Y-94730858D01*
X153512287Y-94661610D01*
X153605220Y-94479219D01*
X153668477Y-94284534D01*
X153700500Y-94082352D01*
X153700500Y-93877648D01*
X153688426Y-93801416D01*
X153668477Y-93675465D01*
X153611296Y-93499481D01*
X153605220Y-93480781D01*
X153605218Y-93480778D01*
X153605218Y-93480776D01*
X153562443Y-93396826D01*
X153512287Y-93298390D01*
X153483727Y-93259080D01*
X153391971Y-93132786D01*
X153247213Y-92988028D01*
X153081614Y-92867715D01*
X153022645Y-92837669D01*
X152988917Y-92820483D01*
X152938123Y-92772511D01*
X152921328Y-92704690D01*
X152943865Y-92638555D01*
X152988917Y-92599516D01*
X153081610Y-92552287D01*
X153102770Y-92536913D01*
X153247213Y-92431971D01*
X153247215Y-92431968D01*
X153247219Y-92431966D01*
X153391966Y-92287219D01*
X153391968Y-92287215D01*
X153391971Y-92287213D01*
X153444732Y-92214590D01*
X153512287Y-92121610D01*
X153605220Y-91939219D01*
X153668477Y-91744534D01*
X153700500Y-91542352D01*
X153700500Y-91337648D01*
X153699565Y-91331746D01*
X153668477Y-91135465D01*
X153605218Y-90940776D01*
X153553865Y-90839991D01*
X153512287Y-90758390D01*
X153474205Y-90705974D01*
X153391971Y-90592786D01*
X153247213Y-90448028D01*
X153081610Y-90327712D01*
X153068200Y-90320879D01*
X153017406Y-90272903D01*
X153000500Y-90210397D01*
X153000500Y-56180097D01*
X153020185Y-56113058D01*
X153036819Y-56092416D01*
X165312416Y-43816819D01*
X165373739Y-43783334D01*
X165400097Y-43780500D01*
X192315500Y-43780500D01*
X192382539Y-43800185D01*
G37*
%TD.AperFunction*%
%TA.AperFunction,NonConductor*%
G36*
X204374442Y-64120185D02*
G01*
X204395084Y-64136819D01*
X205486084Y-65227819D01*
X205519569Y-65289142D01*
X205514585Y-65358834D01*
X205472713Y-65414767D01*
X205407249Y-65439184D01*
X205398403Y-65439500D01*
X187880940Y-65439500D01*
X187840019Y-65450464D01*
X187840019Y-65450465D01*
X187802751Y-65460451D01*
X187728214Y-65480423D01*
X187728209Y-65480426D01*
X187591290Y-65559475D01*
X187591282Y-65559481D01*
X179859480Y-73291283D01*
X179847397Y-73312213D01*
X179838550Y-73327537D01*
X179780423Y-73428215D01*
X179739499Y-73580943D01*
X179739499Y-73580945D01*
X179739499Y-73749046D01*
X179739500Y-73749059D01*
X179739500Y-83519902D01*
X179719815Y-83586941D01*
X179703181Y-83607583D01*
X159807584Y-103503181D01*
X159746261Y-103536666D01*
X159719903Y-103539500D01*
X152700097Y-103539500D01*
X152633058Y-103519815D01*
X152612416Y-103503181D01*
X146074077Y-96964842D01*
X146040592Y-96903519D01*
X146043828Y-96838841D01*
X146044276Y-96837463D01*
X146048477Y-96824534D01*
X146080500Y-96622352D01*
X146080500Y-96417648D01*
X146075969Y-96389038D01*
X146048477Y-96215465D01*
X146019127Y-96125137D01*
X145985220Y-96020781D01*
X145985218Y-96020778D01*
X145985218Y-96020776D01*
X145951503Y-95954607D01*
X145892287Y-95838390D01*
X145863727Y-95799080D01*
X145771971Y-95672786D01*
X145627213Y-95528028D01*
X145461614Y-95407715D01*
X145455006Y-95404348D01*
X145368917Y-95360483D01*
X145318123Y-95312511D01*
X145301328Y-95244690D01*
X145323865Y-95178555D01*
X145368917Y-95139516D01*
X145461610Y-95092287D01*
X145548481Y-95029172D01*
X145627213Y-94971971D01*
X145627215Y-94971968D01*
X145627219Y-94971966D01*
X145771966Y-94827219D01*
X145771968Y-94827215D01*
X145771971Y-94827213D01*
X145841976Y-94730858D01*
X145892287Y-94661610D01*
X145985220Y-94479219D01*
X146048477Y-94284534D01*
X146080500Y-94082352D01*
X146080500Y-93889097D01*
X146100185Y-93822058D01*
X146152989Y-93776303D01*
X146222147Y-93766359D01*
X146285703Y-93795384D01*
X146292181Y-93801416D01*
X149223181Y-96732416D01*
X149256666Y-96793739D01*
X149259500Y-96820097D01*
X149259500Y-98973330D01*
X149259499Y-98973348D01*
X149259499Y-99139054D01*
X149259498Y-99139054D01*
X149286168Y-99238584D01*
X149300423Y-99291785D01*
X149311228Y-99310500D01*
X149329358Y-99341900D01*
X149329359Y-99341904D01*
X149329360Y-99341904D01*
X149379479Y-99428714D01*
X149379481Y-99428717D01*
X149498349Y-99547585D01*
X149498355Y-99547590D01*
X151915139Y-101964374D01*
X151915149Y-101964385D01*
X151919479Y-101968715D01*
X151919480Y-101968716D01*
X152031284Y-102080520D01*
X152031286Y-102080521D01*
X152031290Y-102080524D01*
X152124992Y-102134622D01*
X152168216Y-102159577D01*
X152280019Y-102189534D01*
X152320942Y-102200500D01*
X152320943Y-102200500D01*
X159933331Y-102200500D01*
X159933347Y-102200501D01*
X159940943Y-102200501D01*
X160099054Y-102200501D01*
X160099057Y-102200501D01*
X160251785Y-102159577D01*
X160301904Y-102130639D01*
X160388716Y-102080520D01*
X160500520Y-101968716D01*
X160500520Y-101968714D01*
X160510728Y-101958507D01*
X160510730Y-101958504D01*
X178168713Y-84300521D01*
X178168716Y-84300520D01*
X178280520Y-84188716D01*
X178330639Y-84101904D01*
X178359577Y-84051785D01*
X178400500Y-83899057D01*
X178400500Y-83740943D01*
X178400500Y-83740942D01*
X178400500Y-71420097D01*
X178420185Y-71353058D01*
X178436819Y-71332416D01*
X185632416Y-64136819D01*
X185693739Y-64103334D01*
X185720097Y-64100500D01*
X204307403Y-64100500D01*
X204374442Y-64120185D01*
G37*
%TD.AperFunction*%
%TA.AperFunction,NonConductor*%
G36*
X205506942Y-66660185D02*
G01*
X205527584Y-66676819D01*
X220343181Y-81492416D01*
X220376666Y-81553739D01*
X220379500Y-81580097D01*
X220379500Y-88813330D01*
X220379499Y-88813348D01*
X220379499Y-88979054D01*
X220379498Y-88979054D01*
X220420423Y-89131785D01*
X220449358Y-89181900D01*
X220449359Y-89181904D01*
X220449360Y-89181904D01*
X220499479Y-89268714D01*
X220499481Y-89268717D01*
X220618349Y-89387585D01*
X220618355Y-89387590D01*
X228110139Y-96879374D01*
X228110149Y-96879385D01*
X228114479Y-96883715D01*
X228114480Y-96883716D01*
X228226284Y-96995520D01*
X228302426Y-97039480D01*
X228363215Y-97074577D01*
X228515942Y-97115500D01*
X228515943Y-97115500D01*
X233516200Y-97115500D01*
X233583239Y-97135185D01*
X233626684Y-97183204D01*
X233707490Y-97341795D01*
X233713632Y-97353848D01*
X233861701Y-97557649D01*
X233861705Y-97557654D01*
X234001370Y-97697319D01*
X234034855Y-97758642D01*
X234029871Y-97828334D01*
X234001370Y-97872681D01*
X233861705Y-98012345D01*
X233861701Y-98012350D01*
X233713632Y-98216151D01*
X233599260Y-98440616D01*
X233521410Y-98680214D01*
X233495095Y-98846359D01*
X233482000Y-98929038D01*
X233482000Y-99180962D01*
X233492082Y-99244616D01*
X233521410Y-99429785D01*
X233599260Y-99669383D01*
X233713632Y-99893848D01*
X233861701Y-100097649D01*
X233861705Y-100097654D01*
X234039845Y-100275794D01*
X234039850Y-100275798D01*
X234217617Y-100404952D01*
X234243655Y-100423870D01*
X234386684Y-100496747D01*
X234468116Y-100538239D01*
X234468118Y-100538239D01*
X234468121Y-100538241D01*
X234707715Y-100616090D01*
X234956538Y-100655500D01*
X234956539Y-100655500D01*
X235208461Y-100655500D01*
X235208462Y-100655500D01*
X235457285Y-100616090D01*
X235639428Y-100556907D01*
X235709264Y-100554912D01*
X235765423Y-100587158D01*
X240663181Y-105484916D01*
X240696666Y-105546239D01*
X240699500Y-105572597D01*
X240699500Y-119079903D01*
X240679815Y-119146942D01*
X240663181Y-119167584D01*
X234957584Y-124873181D01*
X234896261Y-124906666D01*
X234869903Y-124909500D01*
X212569097Y-124909500D01*
X212502058Y-124889815D01*
X212456303Y-124837011D01*
X212446359Y-124767853D01*
X212475384Y-124704297D01*
X212481416Y-124697819D01*
X212781522Y-124397713D01*
X213718506Y-123460727D01*
X213718511Y-123460724D01*
X213728714Y-123450520D01*
X213728716Y-123450520D01*
X213840520Y-123338716D01*
X213919577Y-123201784D01*
X213960500Y-123049057D01*
X213960500Y-95504499D01*
X213980185Y-95437460D01*
X214032989Y-95391705D01*
X214084500Y-95380499D01*
X214307871Y-95380499D01*
X214307872Y-95380499D01*
X214367483Y-95374091D01*
X214502331Y-95323796D01*
X214617546Y-95237546D01*
X214703796Y-95122331D01*
X214754091Y-94987483D01*
X214760500Y-94927873D01*
X214760499Y-93032128D01*
X214754091Y-92972517D01*
X214740583Y-92936301D01*
X214703797Y-92837671D01*
X214703793Y-92837664D01*
X214617547Y-92722455D01*
X214617544Y-92722452D01*
X214502335Y-92636206D01*
X214502328Y-92636202D01*
X214422419Y-92606398D01*
X214366485Y-92564527D01*
X214342068Y-92499062D01*
X214356920Y-92430789D01*
X214378069Y-92402537D01*
X214428242Y-92352365D01*
X214557815Y-92174022D01*
X214657895Y-91977606D01*
X214726015Y-91767951D01*
X214760500Y-91550222D01*
X214760500Y-91329778D01*
X214726015Y-91112049D01*
X214661014Y-90911993D01*
X214657896Y-90902396D01*
X214657895Y-90902393D01*
X214623237Y-90834375D01*
X214557815Y-90705978D01*
X214475573Y-90592781D01*
X214428247Y-90527641D01*
X214428243Y-90527636D01*
X214272363Y-90371756D01*
X214272358Y-90371752D01*
X214094023Y-90242185D01*
X214028204Y-90208648D01*
X213977409Y-90160674D01*
X213960500Y-90098164D01*
X213960500Y-83740945D01*
X213960500Y-83740943D01*
X213919577Y-83588216D01*
X213919577Y-83588215D01*
X213890639Y-83538095D01*
X213840520Y-83451284D01*
X213728716Y-83339480D01*
X213728715Y-83339479D01*
X213724385Y-83335149D01*
X213724374Y-83335139D01*
X213698828Y-83309593D01*
X213665343Y-83248270D01*
X213670327Y-83178578D01*
X213671933Y-83174495D01*
X213703710Y-83097781D01*
X213761404Y-82882463D01*
X213790500Y-82661457D01*
X213790500Y-82438543D01*
X213761404Y-82217537D01*
X213703710Y-82002219D01*
X213618405Y-81796274D01*
X213506948Y-81603226D01*
X213371247Y-81426376D01*
X213371242Y-81426370D01*
X213213629Y-81268757D01*
X213213622Y-81268751D01*
X213036782Y-81133058D01*
X213036780Y-81133057D01*
X213036774Y-81133052D01*
X212843726Y-81021595D01*
X212843722Y-81021593D01*
X212637790Y-80936293D01*
X212637783Y-80936291D01*
X212637781Y-80936290D01*
X212422463Y-80878596D01*
X212422457Y-80878595D01*
X212422452Y-80878594D01*
X212201466Y-80849501D01*
X212201463Y-80849500D01*
X212201457Y-80849500D01*
X211978543Y-80849500D01*
X211978537Y-80849500D01*
X211978533Y-80849501D01*
X211757547Y-80878594D01*
X211757540Y-80878595D01*
X211757537Y-80878596D01*
X211542219Y-80936290D01*
X211542209Y-80936293D01*
X211336277Y-81021593D01*
X211336273Y-81021595D01*
X211143226Y-81133052D01*
X211143217Y-81133058D01*
X210966377Y-81268751D01*
X210966370Y-81268757D01*
X210808757Y-81426370D01*
X210808751Y-81426377D01*
X210673058Y-81603217D01*
X210673052Y-81603226D01*
X210561595Y-81796273D01*
X210561593Y-81796277D01*
X210476293Y-82002209D01*
X210476290Y-82002219D01*
X210418597Y-82217534D01*
X210418594Y-82217547D01*
X210389501Y-82438533D01*
X210389500Y-82438549D01*
X210389500Y-82661450D01*
X210389501Y-82661466D01*
X210418594Y-82882452D01*
X210418595Y-82882457D01*
X210418596Y-82882463D01*
X210418597Y-82882465D01*
X210476290Y-83097780D01*
X210476293Y-83097790D01*
X210561593Y-83303722D01*
X210561595Y-83303726D01*
X210673052Y-83496774D01*
X210673057Y-83496780D01*
X210673058Y-83496782D01*
X210808751Y-83673622D01*
X210808757Y-83673629D01*
X210966370Y-83831242D01*
X210966376Y-83831247D01*
X211143226Y-83966948D01*
X211336274Y-84078405D01*
X211542219Y-84163710D01*
X211757537Y-84221404D01*
X211978543Y-84250500D01*
X211978550Y-84250500D01*
X212201450Y-84250500D01*
X212201457Y-84250500D01*
X212422463Y-84221404D01*
X212603408Y-84172920D01*
X212673257Y-84174583D01*
X212731119Y-84213746D01*
X212758623Y-84277974D01*
X212759500Y-84292695D01*
X212759500Y-90098164D01*
X212739815Y-90165203D01*
X212691796Y-90208648D01*
X212625976Y-90242185D01*
X212447641Y-90371752D01*
X212447636Y-90371756D01*
X212291756Y-90527636D01*
X212291752Y-90527641D01*
X212162187Y-90705974D01*
X212062104Y-90902393D01*
X212062103Y-90902396D01*
X211993985Y-91112047D01*
X211959500Y-91329778D01*
X211959500Y-91550221D01*
X211993985Y-91767952D01*
X212062103Y-91977603D01*
X212062104Y-91977606D01*
X212130122Y-92111096D01*
X212146274Y-92142796D01*
X212162187Y-92174025D01*
X212291752Y-92352358D01*
X212291756Y-92352363D01*
X212341928Y-92402535D01*
X212375413Y-92463858D01*
X212370429Y-92533550D01*
X212328557Y-92589483D01*
X212297581Y-92606398D01*
X212217669Y-92636203D01*
X212217664Y-92636206D01*
X212102455Y-92722452D01*
X212102452Y-92722455D01*
X212016206Y-92837664D01*
X212016202Y-92837671D01*
X211965908Y-92972517D01*
X211959501Y-93032116D01*
X211959501Y-93032123D01*
X211959500Y-93032135D01*
X211959500Y-94927870D01*
X211959501Y-94927876D01*
X211965908Y-94987483D01*
X212016202Y-95122328D01*
X212016206Y-95122335D01*
X212102452Y-95237544D01*
X212102455Y-95237547D01*
X212217664Y-95323793D01*
X212217671Y-95323797D01*
X212241491Y-95332681D01*
X212352517Y-95374091D01*
X212412127Y-95380500D01*
X212635500Y-95380499D01*
X212702539Y-95400183D01*
X212748294Y-95452987D01*
X212759500Y-95504499D01*
X212759500Y-122669903D01*
X212739815Y-122736942D01*
X212723181Y-122757584D01*
X210607584Y-124873181D01*
X210546261Y-124906666D01*
X210519903Y-124909500D01*
X171409602Y-124909500D01*
X171342563Y-124889815D01*
X171299117Y-124841795D01*
X171292287Y-124828390D01*
X171292285Y-124828387D01*
X171292284Y-124828385D01*
X171171971Y-124662786D01*
X171027213Y-124518028D01*
X170861613Y-124397715D01*
X170861612Y-124397714D01*
X170861610Y-124397713D01*
X170804653Y-124368691D01*
X170679223Y-124304781D01*
X170484534Y-124241522D01*
X170309995Y-124213878D01*
X170282352Y-124209500D01*
X170077648Y-124209500D01*
X170053329Y-124213351D01*
X169875465Y-124241522D01*
X169680776Y-124304781D01*
X169498386Y-124397715D01*
X169332786Y-124518028D01*
X169188028Y-124662786D01*
X169067715Y-124828385D01*
X169060883Y-124841795D01*
X169012909Y-124892591D01*
X168950398Y-124909500D01*
X141449097Y-124909500D01*
X141382058Y-124889815D01*
X141336303Y-124837011D01*
X141326359Y-124767853D01*
X141355384Y-124704297D01*
X141361416Y-124697819D01*
X141849735Y-124209500D01*
X145148713Y-120910521D01*
X145148716Y-120910520D01*
X145260520Y-120798716D01*
X145310639Y-120711904D01*
X145339577Y-120661785D01*
X145380501Y-120509057D01*
X145380501Y-120350943D01*
X145380501Y-120343348D01*
X145380500Y-120343330D01*
X145380500Y-100289601D01*
X145400185Y-100222562D01*
X145448206Y-100179116D01*
X145461610Y-100172287D01*
X145627219Y-100051966D01*
X145771966Y-99907219D01*
X145771968Y-99907215D01*
X145771971Y-99907213D01*
X145824732Y-99834590D01*
X145892287Y-99741610D01*
X145985220Y-99559219D01*
X146048477Y-99364534D01*
X146080500Y-99162352D01*
X146080500Y-98969097D01*
X146100185Y-98902058D01*
X146152989Y-98856303D01*
X146222147Y-98846359D01*
X146285703Y-98875384D01*
X146292181Y-98881416D01*
X151915139Y-104504374D01*
X151915149Y-104504385D01*
X151919479Y-104508715D01*
X151919480Y-104508716D01*
X152031284Y-104620520D01*
X152031286Y-104620521D01*
X152031290Y-104620524D01*
X152098765Y-104659480D01*
X152168216Y-104699577D01*
X152280019Y-104729534D01*
X152320942Y-104740500D01*
X152320943Y-104740500D01*
X159933331Y-104740500D01*
X159933347Y-104740501D01*
X159940943Y-104740501D01*
X160099054Y-104740501D01*
X160099057Y-104740501D01*
X160251785Y-104699577D01*
X160321233Y-104659481D01*
X160388716Y-104620520D01*
X160500520Y-104508716D01*
X160500520Y-104508714D01*
X160510724Y-104498511D01*
X160510727Y-104498506D01*
X167101586Y-97907648D01*
X168879500Y-97907648D01*
X168879500Y-98112351D01*
X168911522Y-98314534D01*
X168974781Y-98509223D01*
X169026385Y-98610500D01*
X169061906Y-98680214D01*
X169067715Y-98691613D01*
X169188028Y-98857213D01*
X169332786Y-99001971D01*
X169487749Y-99114556D01*
X169498390Y-99122287D01*
X169577022Y-99162352D01*
X169680776Y-99215218D01*
X169680778Y-99215218D01*
X169680781Y-99215220D01*
X169752688Y-99238584D01*
X169875465Y-99278477D01*
X169959488Y-99291785D01*
X170077648Y-99310500D01*
X170077649Y-99310500D01*
X170282351Y-99310500D01*
X170282352Y-99310500D01*
X170484534Y-99278477D01*
X170679219Y-99215220D01*
X170861610Y-99122287D01*
X170954590Y-99054732D01*
X171027213Y-99001971D01*
X171027215Y-99001968D01*
X171027219Y-99001966D01*
X171171966Y-98857219D01*
X171171968Y-98857215D01*
X171171971Y-98857213D01*
X171292284Y-98691614D01*
X171292285Y-98691613D01*
X171292287Y-98691610D01*
X171299117Y-98678204D01*
X171347091Y-98627409D01*
X171409602Y-98610500D01*
X188923331Y-98610500D01*
X188923347Y-98610501D01*
X188930943Y-98610501D01*
X189089054Y-98610501D01*
X189089057Y-98610501D01*
X189241785Y-98569577D01*
X189291904Y-98540639D01*
X189378716Y-98490520D01*
X189490520Y-98378716D01*
X189490520Y-98378714D01*
X189500728Y-98368507D01*
X189500729Y-98368504D01*
X192182220Y-95687016D01*
X192261277Y-95550084D01*
X192282091Y-95472403D01*
X192318457Y-95412745D01*
X192381304Y-95382216D01*
X192401866Y-95380499D01*
X192649571Y-95380499D01*
X192649572Y-95380499D01*
X192709183Y-95374091D01*
X192844031Y-95323796D01*
X192959246Y-95237546D01*
X193045496Y-95122331D01*
X193095791Y-94987483D01*
X193102200Y-94927873D01*
X193102199Y-93032128D01*
X193095791Y-92972517D01*
X193082283Y-92936301D01*
X193045497Y-92837671D01*
X193045493Y-92837664D01*
X192959247Y-92722455D01*
X192959244Y-92722452D01*
X192844035Y-92636206D01*
X192844028Y-92636202D01*
X192764119Y-92606398D01*
X192708185Y-92564527D01*
X192683768Y-92499062D01*
X192698620Y-92430789D01*
X192719769Y-92402537D01*
X192769942Y-92352365D01*
X192899515Y-92174022D01*
X192999595Y-91977606D01*
X193067715Y-91767951D01*
X193102200Y-91550222D01*
X193102200Y-91329778D01*
X193067715Y-91112049D01*
X193002714Y-90911993D01*
X192999596Y-90902396D01*
X192999595Y-90902393D01*
X192964937Y-90834375D01*
X192899515Y-90705978D01*
X192817273Y-90592781D01*
X192769947Y-90527641D01*
X192769943Y-90527636D01*
X192614063Y-90371756D01*
X192614058Y-90371752D01*
X192435723Y-90242185D01*
X192369904Y-90208648D01*
X192319109Y-90160674D01*
X192302200Y-90098164D01*
X192302200Y-84253018D01*
X192321885Y-84185979D01*
X192374689Y-84140224D01*
X192378748Y-84138457D01*
X192523717Y-84078409D01*
X192523718Y-84078407D01*
X192523726Y-84078405D01*
X192716774Y-83966948D01*
X192893624Y-83831247D01*
X193051247Y-83673624D01*
X193186948Y-83496774D01*
X193298405Y-83303726D01*
X193383710Y-83097781D01*
X193441404Y-82882463D01*
X193470500Y-82661457D01*
X193470500Y-82438543D01*
X193441404Y-82217537D01*
X193383710Y-82002219D01*
X193298405Y-81796274D01*
X193186948Y-81603226D01*
X193051247Y-81426376D01*
X193051242Y-81426370D01*
X192893629Y-81268757D01*
X192893622Y-81268751D01*
X192716782Y-81133058D01*
X192716780Y-81133057D01*
X192716774Y-81133052D01*
X192523726Y-81021595D01*
X192523722Y-81021593D01*
X192317790Y-80936293D01*
X192317783Y-80936291D01*
X192317781Y-80936290D01*
X192102463Y-80878596D01*
X192102457Y-80878595D01*
X192102452Y-80878594D01*
X191881466Y-80849501D01*
X191881463Y-80849500D01*
X191881457Y-80849500D01*
X191658543Y-80849500D01*
X191658537Y-80849500D01*
X191658533Y-80849501D01*
X191437547Y-80878594D01*
X191437540Y-80878595D01*
X191437537Y-80878596D01*
X191222219Y-80936290D01*
X191222209Y-80936293D01*
X191016277Y-81021593D01*
X191016273Y-81021595D01*
X190823226Y-81133052D01*
X190823217Y-81133058D01*
X190646377Y-81268751D01*
X190646370Y-81268757D01*
X190488757Y-81426370D01*
X190488751Y-81426377D01*
X190353058Y-81603217D01*
X190353052Y-81603226D01*
X190241595Y-81796273D01*
X190241593Y-81796277D01*
X190156293Y-82002209D01*
X190156290Y-82002219D01*
X190098597Y-82217534D01*
X190098594Y-82217547D01*
X190069501Y-82438533D01*
X190069500Y-82438549D01*
X190069500Y-82661450D01*
X190069501Y-82661466D01*
X190098594Y-82882452D01*
X190098595Y-82882457D01*
X190098596Y-82882463D01*
X190098597Y-82882465D01*
X190156290Y-83097780D01*
X190156293Y-83097790D01*
X190241593Y-83303722D01*
X190241595Y-83303726D01*
X190353052Y-83496774D01*
X190353057Y-83496780D01*
X190353058Y-83496782D01*
X190488751Y-83673622D01*
X190488757Y-83673629D01*
X190646370Y-83831242D01*
X190646376Y-83831247D01*
X190823226Y-83966948D01*
X191016274Y-84078405D01*
X191024645Y-84081872D01*
X191079051Y-84125709D01*
X191101121Y-84192001D01*
X191101200Y-84196436D01*
X191101200Y-90098164D01*
X191081515Y-90165203D01*
X191033496Y-90208648D01*
X190967676Y-90242185D01*
X190789341Y-90371752D01*
X190789336Y-90371756D01*
X190633456Y-90527636D01*
X190633452Y-90527641D01*
X190503887Y-90705974D01*
X190403804Y-90902393D01*
X190403803Y-90902396D01*
X190335685Y-91112047D01*
X190301200Y-91329778D01*
X190301200Y-91550221D01*
X190335685Y-91767952D01*
X190403803Y-91977603D01*
X190403804Y-91977606D01*
X190471822Y-92111096D01*
X190487974Y-92142796D01*
X190503887Y-92174025D01*
X190633452Y-92352358D01*
X190633456Y-92352363D01*
X190683628Y-92402535D01*
X190717113Y-92463858D01*
X190712129Y-92533550D01*
X190670257Y-92589483D01*
X190639281Y-92606398D01*
X190559369Y-92636203D01*
X190559364Y-92636206D01*
X190444155Y-92722452D01*
X190444152Y-92722455D01*
X190357906Y-92837664D01*
X190357902Y-92837671D01*
X190307608Y-92972517D01*
X190301201Y-93032116D01*
X190301201Y-93032123D01*
X190301200Y-93032135D01*
X190301200Y-93329787D01*
X190281515Y-93396826D01*
X190239200Y-93437174D01*
X190131287Y-93499477D01*
X190131282Y-93499481D01*
X190019481Y-93611282D01*
X190019475Y-93611290D01*
X189940426Y-93748209D01*
X189940423Y-93748216D01*
X189899500Y-93900943D01*
X189899500Y-94059057D01*
X189910729Y-94100962D01*
X189940423Y-94211783D01*
X189940426Y-94211790D01*
X190019475Y-94348709D01*
X190019479Y-94348714D01*
X190019480Y-94348716D01*
X190131284Y-94460520D01*
X190131286Y-94460521D01*
X190131290Y-94460524D01*
X190239199Y-94522825D01*
X190287415Y-94573391D01*
X190301200Y-94630212D01*
X190301200Y-94927869D01*
X190301201Y-94927876D01*
X190307608Y-94987483D01*
X190357902Y-95122328D01*
X190357906Y-95122335D01*
X190444152Y-95237544D01*
X190444155Y-95237547D01*
X190559364Y-95323793D01*
X190559371Y-95323797D01*
X190570035Y-95327774D01*
X190588054Y-95334494D01*
X190643988Y-95376364D01*
X190668407Y-95441828D01*
X190653557Y-95510101D01*
X190632404Y-95538358D01*
X188797584Y-97373181D01*
X188736261Y-97406666D01*
X188709903Y-97409500D01*
X171409602Y-97409500D01*
X171342563Y-97389815D01*
X171299117Y-97341795D01*
X171292284Y-97328385D01*
X171171971Y-97162786D01*
X171027213Y-97018028D01*
X170861613Y-96897715D01*
X170861612Y-96897714D01*
X170861610Y-96897713D01*
X170752458Y-96842097D01*
X170679223Y-96804781D01*
X170484534Y-96741522D01*
X170309995Y-96713878D01*
X170282352Y-96709500D01*
X170077648Y-96709500D01*
X170053329Y-96713351D01*
X169875465Y-96741522D01*
X169680776Y-96804781D01*
X169498386Y-96897715D01*
X169332786Y-97018028D01*
X169188028Y-97162786D01*
X169067715Y-97328386D01*
X168974781Y-97510776D01*
X168911522Y-97705465D01*
X168879500Y-97907648D01*
X167101586Y-97907648D01*
X180820520Y-84188716D01*
X180899577Y-84051784D01*
X180940501Y-83899057D01*
X180940501Y-83740942D01*
X180940501Y-83733347D01*
X180940500Y-83733329D01*
X180940500Y-73960097D01*
X180960185Y-73893058D01*
X180976819Y-73872416D01*
X188172416Y-66676819D01*
X188233739Y-66643334D01*
X188260097Y-66640500D01*
X205439903Y-66640500D01*
X205506942Y-66660185D01*
G37*
%TD.AperFunction*%
%TA.AperFunction,NonConductor*%
G36*
X105396942Y-85930185D02*
G01*
X105417584Y-85946819D01*
X116355139Y-96884374D01*
X116355149Y-96884385D01*
X116359479Y-96888715D01*
X116359480Y-96888716D01*
X116471284Y-97000520D01*
X116553538Y-97048009D01*
X116608215Y-97079577D01*
X116760943Y-97120501D01*
X116760946Y-97120501D01*
X116926653Y-97120501D01*
X116926669Y-97120500D01*
X124774331Y-97120500D01*
X124774347Y-97120501D01*
X124781943Y-97120501D01*
X124940054Y-97120501D01*
X124940057Y-97120501D01*
X125092785Y-97079577D01*
X125147462Y-97048009D01*
X125229716Y-97000520D01*
X125341520Y-96888716D01*
X125341520Y-96888714D01*
X125351720Y-96878515D01*
X125351723Y-96878510D01*
X125449490Y-96780744D01*
X125510811Y-96747262D01*
X125580502Y-96752246D01*
X125636435Y-96794118D01*
X125656802Y-96837482D01*
X125656864Y-96837463D01*
X125657022Y-96837951D01*
X125657743Y-96839485D01*
X125658370Y-96842100D01*
X125725272Y-97048006D01*
X125725273Y-97048008D01*
X125803540Y-97201614D01*
X125823567Y-97240919D01*
X125950828Y-97416078D01*
X126103922Y-97569172D01*
X126279081Y-97696433D01*
X126356329Y-97735793D01*
X126471990Y-97794726D01*
X126471993Y-97794727D01*
X126534681Y-97815095D01*
X126677903Y-97861630D01*
X126891746Y-97895500D01*
X126891747Y-97895500D01*
X127108253Y-97895500D01*
X127108254Y-97895500D01*
X127322097Y-97861630D01*
X127378365Y-97843346D01*
X127448203Y-97841351D01*
X127504362Y-97873597D01*
X129055139Y-99424374D01*
X129055149Y-99424385D01*
X129059479Y-99428715D01*
X129059480Y-99428716D01*
X129171284Y-99540520D01*
X129171286Y-99540521D01*
X129171290Y-99540524D01*
X129294959Y-99611923D01*
X129308216Y-99619577D01*
X129420019Y-99649534D01*
X129460942Y-99660500D01*
X129460943Y-99660500D01*
X143550398Y-99660500D01*
X143617437Y-99680185D01*
X143660883Y-99728205D01*
X143667715Y-99741614D01*
X143788028Y-99907213D01*
X143788034Y-99907219D01*
X143932781Y-100051966D01*
X144098390Y-100172287D01*
X144111793Y-100179116D01*
X144162589Y-100227088D01*
X144179500Y-100289601D01*
X144179500Y-120129903D01*
X144159815Y-120196942D01*
X144143181Y-120217584D01*
X139487584Y-124873181D01*
X139426261Y-124906666D01*
X139399903Y-124909500D01*
X95729097Y-124909500D01*
X95662058Y-124889815D01*
X95616303Y-124837011D01*
X95606359Y-124767853D01*
X95635384Y-124704297D01*
X95641416Y-124697819D01*
X95941522Y-124397713D01*
X96878506Y-123460727D01*
X96878511Y-123460724D01*
X96888714Y-123450520D01*
X96888716Y-123450520D01*
X97000520Y-123338716D01*
X97079577Y-123201784D01*
X97120500Y-123049057D01*
X97120500Y-114039601D01*
X97140185Y-113972562D01*
X97188206Y-113929116D01*
X97201610Y-113922287D01*
X97367219Y-113801966D01*
X97511966Y-113657219D01*
X97511968Y-113657215D01*
X97511971Y-113657213D01*
X97564732Y-113584590D01*
X97632287Y-113491610D01*
X97725220Y-113309219D01*
X97788477Y-113114534D01*
X97820500Y-112912352D01*
X97820500Y-112707648D01*
X97788477Y-112505466D01*
X97725220Y-112310781D01*
X97725218Y-112310778D01*
X97725218Y-112310776D01*
X97691503Y-112244607D01*
X97632287Y-112128390D01*
X97624556Y-112117749D01*
X97511971Y-111962786D01*
X97367213Y-111818028D01*
X97201613Y-111697715D01*
X97201612Y-111697714D01*
X97201610Y-111697713D01*
X97144653Y-111668691D01*
X97019223Y-111604781D01*
X96824534Y-111541522D01*
X96649995Y-111513878D01*
X96622352Y-111509500D01*
X96417648Y-111509500D01*
X96393329Y-111513351D01*
X96215465Y-111541522D01*
X96020776Y-111604781D01*
X95838386Y-111697715D01*
X95672786Y-111818028D01*
X95528028Y-111962786D01*
X95407715Y-112128386D01*
X95314781Y-112310776D01*
X95251522Y-112505465D01*
X95219500Y-112707648D01*
X95219500Y-112912351D01*
X95251522Y-113114534D01*
X95314781Y-113309223D01*
X95407715Y-113491613D01*
X95528028Y-113657213D01*
X95528034Y-113657219D01*
X95672781Y-113801966D01*
X95838390Y-113922287D01*
X95851793Y-113929116D01*
X95902589Y-113977088D01*
X95919500Y-114039601D01*
X95919500Y-122669903D01*
X95899815Y-122736942D01*
X95883181Y-122757584D01*
X93767584Y-124873181D01*
X93706261Y-124906666D01*
X93679903Y-124909500D01*
X88540097Y-124909500D01*
X88473058Y-124889815D01*
X88452416Y-124873181D01*
X69081818Y-105502583D01*
X69048333Y-105441260D01*
X69045499Y-105414902D01*
X69045499Y-104417129D01*
X69045498Y-104417123D01*
X69039091Y-104357516D01*
X68988797Y-104222671D01*
X68988793Y-104222664D01*
X68902547Y-104107455D01*
X68817460Y-104043758D01*
X68775590Y-103987824D01*
X68770606Y-103918132D01*
X68791452Y-103871609D01*
X68875378Y-103756096D01*
X68959379Y-103591235D01*
X69016555Y-103415264D01*
X69045500Y-103232514D01*
X69045500Y-103047486D01*
X69016555Y-102864736D01*
X68959379Y-102688765D01*
X68959379Y-102688764D01*
X68875377Y-102523903D01*
X68766621Y-102374213D01*
X68635787Y-102243379D01*
X68486096Y-102134622D01*
X68478279Y-102130639D01*
X68321239Y-102050622D01*
X68293530Y-102041619D01*
X68266180Y-102032732D01*
X68208506Y-101993295D01*
X68181308Y-101928936D01*
X68180500Y-101914802D01*
X68180500Y-97820097D01*
X68200185Y-97753058D01*
X68216819Y-97732416D01*
X78952416Y-86996819D01*
X79013739Y-86963334D01*
X79040097Y-86960500D01*
X96599055Y-86960500D01*
X96599057Y-86960500D01*
X96751784Y-86919577D01*
X96888716Y-86840520D01*
X97000520Y-86728716D01*
X97079577Y-86591784D01*
X97098590Y-86520821D01*
X97134953Y-86461164D01*
X97162064Y-86442435D01*
X97201610Y-86422287D01*
X97367219Y-86301966D01*
X97511966Y-86157219D01*
X97511968Y-86157215D01*
X97511971Y-86157213D01*
X97632284Y-85991614D01*
X97632283Y-85991614D01*
X97632287Y-85991610D01*
X97639117Y-85978204D01*
X97687091Y-85927409D01*
X97749602Y-85910500D01*
X105329903Y-85910500D01*
X105396942Y-85930185D01*
G37*
%TD.AperFunction*%
M02*
