M48
; DRILL file {KiCad 9.0.2} date 2026-07-28T07:46:23+0700
; FORMAT={-:-/ absolute / metric / decimal}
; #@! TF.CreationDate,2026-07-28T07:46:23+07:00
; #@! TF.GenerationSoftware,Kicad,Pcbnew,9.0.2
; #@! TF.FileFunction,Plated,1,2,PTH
FMAT,2
METRIC
; #@! TA.AperFunction,Plated,PTH,ComponentDrill
T1C0.700
; #@! TA.AperFunction,Plated,PTH,ComponentDrill
T2C0.800
; #@! TA.AperFunction,Plated,PTH,ComponentDrill
T3C0.900
; #@! TA.AperFunction,Plated,PTH,ComponentDrill
T4C1.000
; #@! TA.AperFunction,Plated,PTH,ComponentDrill
T5C1.100
; #@! TA.AperFunction,Plated,PTH,ComponentDrill
T6C1.200
%
G90
G05
T1
X96.308Y-106.532
X98.848Y-103.992
X101.388Y-106.532
T2
X49.795Y-63.687
X77.295Y-63.687
X94.458Y-71.682
X94.458Y-74.222
X94.458Y-76.762
X94.458Y-79.302
X102.078Y-71.682
X102.078Y-74.222
X102.078Y-76.762
X102.078Y-79.302
X111.518Y-116.492
X139.018Y-116.492
T3
X143.545Y-100.677
X143.545Y-103.217
X158.545Y-99.947
X158.545Y-102.487
T4
X33.768Y-78.492
X33.768Y-80.992
T5
X184.953Y-68.372
X184.953Y-70.912
X184.953Y-73.452
X184.953Y-75.992
T6
X123.795Y-57.737
X123.795Y-83.137
X143.545Y-57.487
X143.545Y-82.887
X158.545Y-57.987
X158.545Y-83.387
M30
