%TF.GenerationSoftware,KiCad,Pcbnew,9.0.2*%
%TF.CreationDate,2026-07-28T07:45:47+07:00*%
%TF.ProjectId,latihankicad,6c617469-6861-46e6-9b69-6361642e6b69,rev?*%
%TF.SameCoordinates,Original*%
%TF.FileFunction,Legend,Top*%
%TF.FilePolarity,Positive*%
%FSLAX46Y46*%
G04 Gerber Fmt 4.6, Leading zero omitted, Abs format (unit mm)*
G04 Created by KiCad (PCBNEW 9.0.2) date 2026-07-28 07:45:47*
%MOMM*%
%LPD*%
G01*
G04 APERTURE LIST*
%ADD10C,0.100000*%
%ADD11C,0.150000*%
%ADD12C,0.300000*%
%ADD13C,0.400000*%
%ADD14C,0.120000*%
G04 APERTURE END LIST*
D10*
D11*
X177002200Y-166007200D02*
X285002200Y-166007200D01*
X285002200Y-198007200D01*
X177002200Y-198007200D01*
X177002200Y-166007200D01*
D10*
D11*
X10000000Y-10000000D02*
X287002200Y-10000000D01*
X287002200Y-200007200D01*
X10000000Y-200007200D01*
X10000000Y-10000000D01*
D10*
D11*
X12000000Y-12000000D02*
X285002200Y-12000000D01*
X285002200Y-198007200D01*
X12000000Y-198007200D01*
X12000000Y-12000000D01*
D10*
D11*
X60000000Y-12000000D02*
X60000000Y-10000000D01*
D10*
D11*
X110000000Y-12000000D02*
X110000000Y-10000000D01*
D10*
D11*
X160000000Y-12000000D02*
X160000000Y-10000000D01*
D10*
D11*
X210000000Y-12000000D02*
X210000000Y-10000000D01*
D10*
D11*
X260000000Y-12000000D02*
X260000000Y-10000000D01*
D10*
D11*
X36089160Y-11593604D02*
X35346303Y-11593604D01*
X35717731Y-11593604D02*
X35717731Y-10293604D01*
X35717731Y-10293604D02*
X35593922Y-10479319D01*
X35593922Y-10479319D02*
X35470112Y-10603128D01*
X35470112Y-10603128D02*
X35346303Y-10665033D01*
D10*
D11*
X85346303Y-10417414D02*
X85408207Y-10355509D01*
X85408207Y-10355509D02*
X85532017Y-10293604D01*
X85532017Y-10293604D02*
X85841541Y-10293604D01*
X85841541Y-10293604D02*
X85965350Y-10355509D01*
X85965350Y-10355509D02*
X86027255Y-10417414D01*
X86027255Y-10417414D02*
X86089160Y-10541223D01*
X86089160Y-10541223D02*
X86089160Y-10665033D01*
X86089160Y-10665033D02*
X86027255Y-10850747D01*
X86027255Y-10850747D02*
X85284398Y-11593604D01*
X85284398Y-11593604D02*
X86089160Y-11593604D01*
D10*
D11*
X135284398Y-10293604D02*
X136089160Y-10293604D01*
X136089160Y-10293604D02*
X135655826Y-10788842D01*
X135655826Y-10788842D02*
X135841541Y-10788842D01*
X135841541Y-10788842D02*
X135965350Y-10850747D01*
X135965350Y-10850747D02*
X136027255Y-10912652D01*
X136027255Y-10912652D02*
X136089160Y-11036461D01*
X136089160Y-11036461D02*
X136089160Y-11345985D01*
X136089160Y-11345985D02*
X136027255Y-11469795D01*
X136027255Y-11469795D02*
X135965350Y-11531700D01*
X135965350Y-11531700D02*
X135841541Y-11593604D01*
X135841541Y-11593604D02*
X135470112Y-11593604D01*
X135470112Y-11593604D02*
X135346303Y-11531700D01*
X135346303Y-11531700D02*
X135284398Y-11469795D01*
D10*
D11*
X185965350Y-10726938D02*
X185965350Y-11593604D01*
X185655826Y-10231700D02*
X185346303Y-11160271D01*
X185346303Y-11160271D02*
X186151064Y-11160271D01*
D10*
D11*
X236027255Y-10293604D02*
X235408207Y-10293604D01*
X235408207Y-10293604D02*
X235346303Y-10912652D01*
X235346303Y-10912652D02*
X235408207Y-10850747D01*
X235408207Y-10850747D02*
X235532017Y-10788842D01*
X235532017Y-10788842D02*
X235841541Y-10788842D01*
X235841541Y-10788842D02*
X235965350Y-10850747D01*
X235965350Y-10850747D02*
X236027255Y-10912652D01*
X236027255Y-10912652D02*
X236089160Y-11036461D01*
X236089160Y-11036461D02*
X236089160Y-11345985D01*
X236089160Y-11345985D02*
X236027255Y-11469795D01*
X236027255Y-11469795D02*
X235965350Y-11531700D01*
X235965350Y-11531700D02*
X235841541Y-11593604D01*
X235841541Y-11593604D02*
X235532017Y-11593604D01*
X235532017Y-11593604D02*
X235408207Y-11531700D01*
X235408207Y-11531700D02*
X235346303Y-11469795D01*
D10*
D11*
X285965350Y-10293604D02*
X285717731Y-10293604D01*
X285717731Y-10293604D02*
X285593922Y-10355509D01*
X285593922Y-10355509D02*
X285532017Y-10417414D01*
X285532017Y-10417414D02*
X285408207Y-10603128D01*
X285408207Y-10603128D02*
X285346303Y-10850747D01*
X285346303Y-10850747D02*
X285346303Y-11345985D01*
X285346303Y-11345985D02*
X285408207Y-11469795D01*
X285408207Y-11469795D02*
X285470112Y-11531700D01*
X285470112Y-11531700D02*
X285593922Y-11593604D01*
X285593922Y-11593604D02*
X285841541Y-11593604D01*
X285841541Y-11593604D02*
X285965350Y-11531700D01*
X285965350Y-11531700D02*
X286027255Y-11469795D01*
X286027255Y-11469795D02*
X286089160Y-11345985D01*
X286089160Y-11345985D02*
X286089160Y-11036461D01*
X286089160Y-11036461D02*
X286027255Y-10912652D01*
X286027255Y-10912652D02*
X285965350Y-10850747D01*
X285965350Y-10850747D02*
X285841541Y-10788842D01*
X285841541Y-10788842D02*
X285593922Y-10788842D01*
X285593922Y-10788842D02*
X285470112Y-10850747D01*
X285470112Y-10850747D02*
X285408207Y-10912652D01*
X285408207Y-10912652D02*
X285346303Y-11036461D01*
D10*
D11*
X60000000Y-198007200D02*
X60000000Y-200007200D01*
D10*
D11*
X110000000Y-198007200D02*
X110000000Y-200007200D01*
D10*
D11*
X160000000Y-198007200D02*
X160000000Y-200007200D01*
D10*
D11*
X210000000Y-198007200D02*
X210000000Y-200007200D01*
D10*
D11*
X260000000Y-198007200D02*
X260000000Y-200007200D01*
D10*
D11*
X36089160Y-199600804D02*
X35346303Y-199600804D01*
X35717731Y-199600804D02*
X35717731Y-198300804D01*
X35717731Y-198300804D02*
X35593922Y-198486519D01*
X35593922Y-198486519D02*
X35470112Y-198610328D01*
X35470112Y-198610328D02*
X35346303Y-198672233D01*
D10*
D11*
X85346303Y-198424614D02*
X85408207Y-198362709D01*
X85408207Y-198362709D02*
X85532017Y-198300804D01*
X85532017Y-198300804D02*
X85841541Y-198300804D01*
X85841541Y-198300804D02*
X85965350Y-198362709D01*
X85965350Y-198362709D02*
X86027255Y-198424614D01*
X86027255Y-198424614D02*
X86089160Y-198548423D01*
X86089160Y-198548423D02*
X86089160Y-198672233D01*
X86089160Y-198672233D02*
X86027255Y-198857947D01*
X86027255Y-198857947D02*
X85284398Y-199600804D01*
X85284398Y-199600804D02*
X86089160Y-199600804D01*
D10*
D11*
X135284398Y-198300804D02*
X136089160Y-198300804D01*
X136089160Y-198300804D02*
X135655826Y-198796042D01*
X135655826Y-198796042D02*
X135841541Y-198796042D01*
X135841541Y-198796042D02*
X135965350Y-198857947D01*
X135965350Y-198857947D02*
X136027255Y-198919852D01*
X136027255Y-198919852D02*
X136089160Y-199043661D01*
X136089160Y-199043661D02*
X136089160Y-199353185D01*
X136089160Y-199353185D02*
X136027255Y-199476995D01*
X136027255Y-199476995D02*
X135965350Y-199538900D01*
X135965350Y-199538900D02*
X135841541Y-199600804D01*
X135841541Y-199600804D02*
X135470112Y-199600804D01*
X135470112Y-199600804D02*
X135346303Y-199538900D01*
X135346303Y-199538900D02*
X135284398Y-199476995D01*
D10*
D11*
X185965350Y-198734138D02*
X185965350Y-199600804D01*
X185655826Y-198238900D02*
X185346303Y-199167471D01*
X185346303Y-199167471D02*
X186151064Y-199167471D01*
D10*
D11*
X236027255Y-198300804D02*
X235408207Y-198300804D01*
X235408207Y-198300804D02*
X235346303Y-198919852D01*
X235346303Y-198919852D02*
X235408207Y-198857947D01*
X235408207Y-198857947D02*
X235532017Y-198796042D01*
X235532017Y-198796042D02*
X235841541Y-198796042D01*
X235841541Y-198796042D02*
X235965350Y-198857947D01*
X235965350Y-198857947D02*
X236027255Y-198919852D01*
X236027255Y-198919852D02*
X236089160Y-199043661D01*
X236089160Y-199043661D02*
X236089160Y-199353185D01*
X236089160Y-199353185D02*
X236027255Y-199476995D01*
X236027255Y-199476995D02*
X235965350Y-199538900D01*
X235965350Y-199538900D02*
X235841541Y-199600804D01*
X235841541Y-199600804D02*
X235532017Y-199600804D01*
X235532017Y-199600804D02*
X235408207Y-199538900D01*
X235408207Y-199538900D02*
X235346303Y-199476995D01*
D10*
D11*
X285965350Y-198300804D02*
X285717731Y-198300804D01*
X285717731Y-198300804D02*
X285593922Y-198362709D01*
X285593922Y-198362709D02*
X285532017Y-198424614D01*
X285532017Y-198424614D02*
X285408207Y-198610328D01*
X285408207Y-198610328D02*
X285346303Y-198857947D01*
X285346303Y-198857947D02*
X285346303Y-199353185D01*
X285346303Y-199353185D02*
X285408207Y-199476995D01*
X285408207Y-199476995D02*
X285470112Y-199538900D01*
X285470112Y-199538900D02*
X285593922Y-199600804D01*
X285593922Y-199600804D02*
X285841541Y-199600804D01*
X285841541Y-199600804D02*
X285965350Y-199538900D01*
X285965350Y-199538900D02*
X286027255Y-199476995D01*
X286027255Y-199476995D02*
X286089160Y-199353185D01*
X286089160Y-199353185D02*
X286089160Y-199043661D01*
X286089160Y-199043661D02*
X286027255Y-198919852D01*
X286027255Y-198919852D02*
X285965350Y-198857947D01*
X285965350Y-198857947D02*
X285841541Y-198796042D01*
X285841541Y-198796042D02*
X285593922Y-198796042D01*
X285593922Y-198796042D02*
X285470112Y-198857947D01*
X285470112Y-198857947D02*
X285408207Y-198919852D01*
X285408207Y-198919852D02*
X285346303Y-199043661D01*
D10*
D11*
X10000000Y-60000000D02*
X12000000Y-60000000D01*
D10*
D11*
X10000000Y-110000000D02*
X12000000Y-110000000D01*
D10*
D11*
X10000000Y-160000000D02*
X12000000Y-160000000D01*
D10*
D11*
X10690476Y-35222176D02*
X11309523Y-35222176D01*
X10566666Y-35593604D02*
X10999999Y-34293604D01*
X10999999Y-34293604D02*
X11433333Y-35593604D01*
D10*
D11*
X11092857Y-84912652D02*
X11278571Y-84974557D01*
X11278571Y-84974557D02*
X11340476Y-85036461D01*
X11340476Y-85036461D02*
X11402380Y-85160271D01*
X11402380Y-85160271D02*
X11402380Y-85345985D01*
X11402380Y-85345985D02*
X11340476Y-85469795D01*
X11340476Y-85469795D02*
X11278571Y-85531700D01*
X11278571Y-85531700D02*
X11154761Y-85593604D01*
X11154761Y-85593604D02*
X10659523Y-85593604D01*
X10659523Y-85593604D02*
X10659523Y-84293604D01*
X10659523Y-84293604D02*
X11092857Y-84293604D01*
X11092857Y-84293604D02*
X11216666Y-84355509D01*
X11216666Y-84355509D02*
X11278571Y-84417414D01*
X11278571Y-84417414D02*
X11340476Y-84541223D01*
X11340476Y-84541223D02*
X11340476Y-84665033D01*
X11340476Y-84665033D02*
X11278571Y-84788842D01*
X11278571Y-84788842D02*
X11216666Y-84850747D01*
X11216666Y-84850747D02*
X11092857Y-84912652D01*
X11092857Y-84912652D02*
X10659523Y-84912652D01*
D10*
D11*
X11402380Y-135469795D02*
X11340476Y-135531700D01*
X11340476Y-135531700D02*
X11154761Y-135593604D01*
X11154761Y-135593604D02*
X11030952Y-135593604D01*
X11030952Y-135593604D02*
X10845238Y-135531700D01*
X10845238Y-135531700D02*
X10721428Y-135407890D01*
X10721428Y-135407890D02*
X10659523Y-135284080D01*
X10659523Y-135284080D02*
X10597619Y-135036461D01*
X10597619Y-135036461D02*
X10597619Y-134850747D01*
X10597619Y-134850747D02*
X10659523Y-134603128D01*
X10659523Y-134603128D02*
X10721428Y-134479319D01*
X10721428Y-134479319D02*
X10845238Y-134355509D01*
X10845238Y-134355509D02*
X11030952Y-134293604D01*
X11030952Y-134293604D02*
X11154761Y-134293604D01*
X11154761Y-134293604D02*
X11340476Y-134355509D01*
X11340476Y-134355509D02*
X11402380Y-134417414D01*
D10*
D11*
X10659523Y-185593604D02*
X10659523Y-184293604D01*
X10659523Y-184293604D02*
X10969047Y-184293604D01*
X10969047Y-184293604D02*
X11154761Y-184355509D01*
X11154761Y-184355509D02*
X11278571Y-184479319D01*
X11278571Y-184479319D02*
X11340476Y-184603128D01*
X11340476Y-184603128D02*
X11402380Y-184850747D01*
X11402380Y-184850747D02*
X11402380Y-185036461D01*
X11402380Y-185036461D02*
X11340476Y-185284080D01*
X11340476Y-185284080D02*
X11278571Y-185407890D01*
X11278571Y-185407890D02*
X11154761Y-185531700D01*
X11154761Y-185531700D02*
X10969047Y-185593604D01*
X10969047Y-185593604D02*
X10659523Y-185593604D01*
D10*
D11*
X287002200Y-60000000D02*
X285002200Y-60000000D01*
D10*
D11*
X287002200Y-110000000D02*
X285002200Y-110000000D01*
D10*
D11*
X287002200Y-160000000D02*
X285002200Y-160000000D01*
D10*
D11*
X285692676Y-35222176D02*
X286311723Y-35222176D01*
X285568866Y-35593604D02*
X286002199Y-34293604D01*
X286002199Y-34293604D02*
X286435533Y-35593604D01*
D10*
D11*
X286095057Y-84912652D02*
X286280771Y-84974557D01*
X286280771Y-84974557D02*
X286342676Y-85036461D01*
X286342676Y-85036461D02*
X286404580Y-85160271D01*
X286404580Y-85160271D02*
X286404580Y-85345985D01*
X286404580Y-85345985D02*
X286342676Y-85469795D01*
X286342676Y-85469795D02*
X286280771Y-85531700D01*
X286280771Y-85531700D02*
X286156961Y-85593604D01*
X286156961Y-85593604D02*
X285661723Y-85593604D01*
X285661723Y-85593604D02*
X285661723Y-84293604D01*
X285661723Y-84293604D02*
X286095057Y-84293604D01*
X286095057Y-84293604D02*
X286218866Y-84355509D01*
X286218866Y-84355509D02*
X286280771Y-84417414D01*
X286280771Y-84417414D02*
X286342676Y-84541223D01*
X286342676Y-84541223D02*
X286342676Y-84665033D01*
X286342676Y-84665033D02*
X286280771Y-84788842D01*
X286280771Y-84788842D02*
X286218866Y-84850747D01*
X286218866Y-84850747D02*
X286095057Y-84912652D01*
X286095057Y-84912652D02*
X285661723Y-84912652D01*
D10*
D11*
X286404580Y-135469795D02*
X286342676Y-135531700D01*
X286342676Y-135531700D02*
X286156961Y-135593604D01*
X286156961Y-135593604D02*
X286033152Y-135593604D01*
X286033152Y-135593604D02*
X285847438Y-135531700D01*
X285847438Y-135531700D02*
X285723628Y-135407890D01*
X285723628Y-135407890D02*
X285661723Y-135284080D01*
X285661723Y-135284080D02*
X285599819Y-135036461D01*
X285599819Y-135036461D02*
X285599819Y-134850747D01*
X285599819Y-134850747D02*
X285661723Y-134603128D01*
X285661723Y-134603128D02*
X285723628Y-134479319D01*
X285723628Y-134479319D02*
X285847438Y-134355509D01*
X285847438Y-134355509D02*
X286033152Y-134293604D01*
X286033152Y-134293604D02*
X286156961Y-134293604D01*
X286156961Y-134293604D02*
X286342676Y-134355509D01*
X286342676Y-134355509D02*
X286404580Y-134417414D01*
D10*
D11*
X285661723Y-185593604D02*
X285661723Y-184293604D01*
X285661723Y-184293604D02*
X285971247Y-184293604D01*
X285971247Y-184293604D02*
X286156961Y-184355509D01*
X286156961Y-184355509D02*
X286280771Y-184479319D01*
X286280771Y-184479319D02*
X286342676Y-184603128D01*
X286342676Y-184603128D02*
X286404580Y-184850747D01*
X286404580Y-184850747D02*
X286404580Y-185036461D01*
X286404580Y-185036461D02*
X286342676Y-185284080D01*
X286342676Y-185284080D02*
X286280771Y-185407890D01*
X286280771Y-185407890D02*
X286156961Y-185531700D01*
X286156961Y-185531700D02*
X285971247Y-185593604D01*
X285971247Y-185593604D02*
X285661723Y-185593604D01*
D10*
D11*
X200458026Y-193793328D02*
X200458026Y-192293328D01*
X200458026Y-192293328D02*
X200815169Y-192293328D01*
X200815169Y-192293328D02*
X201029455Y-192364757D01*
X201029455Y-192364757D02*
X201172312Y-192507614D01*
X201172312Y-192507614D02*
X201243741Y-192650471D01*
X201243741Y-192650471D02*
X201315169Y-192936185D01*
X201315169Y-192936185D02*
X201315169Y-193150471D01*
X201315169Y-193150471D02*
X201243741Y-193436185D01*
X201243741Y-193436185D02*
X201172312Y-193579042D01*
X201172312Y-193579042D02*
X201029455Y-193721900D01*
X201029455Y-193721900D02*
X200815169Y-193793328D01*
X200815169Y-193793328D02*
X200458026Y-193793328D01*
X202600884Y-193793328D02*
X202600884Y-193007614D01*
X202600884Y-193007614D02*
X202529455Y-192864757D01*
X202529455Y-192864757D02*
X202386598Y-192793328D01*
X202386598Y-192793328D02*
X202100884Y-192793328D01*
X202100884Y-192793328D02*
X201958026Y-192864757D01*
X202600884Y-193721900D02*
X202458026Y-193793328D01*
X202458026Y-193793328D02*
X202100884Y-193793328D01*
X202100884Y-193793328D02*
X201958026Y-193721900D01*
X201958026Y-193721900D02*
X201886598Y-193579042D01*
X201886598Y-193579042D02*
X201886598Y-193436185D01*
X201886598Y-193436185D02*
X201958026Y-193293328D01*
X201958026Y-193293328D02*
X202100884Y-193221900D01*
X202100884Y-193221900D02*
X202458026Y-193221900D01*
X202458026Y-193221900D02*
X202600884Y-193150471D01*
X203100884Y-192793328D02*
X203672312Y-192793328D01*
X203315169Y-192293328D02*
X203315169Y-193579042D01*
X203315169Y-193579042D02*
X203386598Y-193721900D01*
X203386598Y-193721900D02*
X203529455Y-193793328D01*
X203529455Y-193793328D02*
X203672312Y-193793328D01*
X204743741Y-193721900D02*
X204600884Y-193793328D01*
X204600884Y-193793328D02*
X204315170Y-193793328D01*
X204315170Y-193793328D02*
X204172312Y-193721900D01*
X204172312Y-193721900D02*
X204100884Y-193579042D01*
X204100884Y-193579042D02*
X204100884Y-193007614D01*
X204100884Y-193007614D02*
X204172312Y-192864757D01*
X204172312Y-192864757D02*
X204315170Y-192793328D01*
X204315170Y-192793328D02*
X204600884Y-192793328D01*
X204600884Y-192793328D02*
X204743741Y-192864757D01*
X204743741Y-192864757D02*
X204815170Y-193007614D01*
X204815170Y-193007614D02*
X204815170Y-193150471D01*
X204815170Y-193150471D02*
X204100884Y-193293328D01*
X205458026Y-193650471D02*
X205529455Y-193721900D01*
X205529455Y-193721900D02*
X205458026Y-193793328D01*
X205458026Y-193793328D02*
X205386598Y-193721900D01*
X205386598Y-193721900D02*
X205458026Y-193650471D01*
X205458026Y-193650471D02*
X205458026Y-193793328D01*
X205458026Y-192864757D02*
X205529455Y-192936185D01*
X205529455Y-192936185D02*
X205458026Y-193007614D01*
X205458026Y-193007614D02*
X205386598Y-192936185D01*
X205386598Y-192936185D02*
X205458026Y-192864757D01*
X205458026Y-192864757D02*
X205458026Y-193007614D01*
D10*
D11*
X177002200Y-194507200D02*
X285002200Y-194507200D01*
D10*
D11*
X178458026Y-196593328D02*
X178458026Y-195093328D01*
X179315169Y-196593328D02*
X178672312Y-195736185D01*
X179315169Y-195093328D02*
X178458026Y-195950471D01*
X179958026Y-196593328D02*
X179958026Y-195593328D01*
X179958026Y-195093328D02*
X179886598Y-195164757D01*
X179886598Y-195164757D02*
X179958026Y-195236185D01*
X179958026Y-195236185D02*
X180029455Y-195164757D01*
X180029455Y-195164757D02*
X179958026Y-195093328D01*
X179958026Y-195093328D02*
X179958026Y-195236185D01*
X181529455Y-196450471D02*
X181458027Y-196521900D01*
X181458027Y-196521900D02*
X181243741Y-196593328D01*
X181243741Y-196593328D02*
X181100884Y-196593328D01*
X181100884Y-196593328D02*
X180886598Y-196521900D01*
X180886598Y-196521900D02*
X180743741Y-196379042D01*
X180743741Y-196379042D02*
X180672312Y-196236185D01*
X180672312Y-196236185D02*
X180600884Y-195950471D01*
X180600884Y-195950471D02*
X180600884Y-195736185D01*
X180600884Y-195736185D02*
X180672312Y-195450471D01*
X180672312Y-195450471D02*
X180743741Y-195307614D01*
X180743741Y-195307614D02*
X180886598Y-195164757D01*
X180886598Y-195164757D02*
X181100884Y-195093328D01*
X181100884Y-195093328D02*
X181243741Y-195093328D01*
X181243741Y-195093328D02*
X181458027Y-195164757D01*
X181458027Y-195164757D02*
X181529455Y-195236185D01*
X182815170Y-196593328D02*
X182815170Y-195807614D01*
X182815170Y-195807614D02*
X182743741Y-195664757D01*
X182743741Y-195664757D02*
X182600884Y-195593328D01*
X182600884Y-195593328D02*
X182315170Y-195593328D01*
X182315170Y-195593328D02*
X182172312Y-195664757D01*
X182815170Y-196521900D02*
X182672312Y-196593328D01*
X182672312Y-196593328D02*
X182315170Y-196593328D01*
X182315170Y-196593328D02*
X182172312Y-196521900D01*
X182172312Y-196521900D02*
X182100884Y-196379042D01*
X182100884Y-196379042D02*
X182100884Y-196236185D01*
X182100884Y-196236185D02*
X182172312Y-196093328D01*
X182172312Y-196093328D02*
X182315170Y-196021900D01*
X182315170Y-196021900D02*
X182672312Y-196021900D01*
X182672312Y-196021900D02*
X182815170Y-195950471D01*
X184172313Y-196593328D02*
X184172313Y-195093328D01*
X184172313Y-196521900D02*
X184029455Y-196593328D01*
X184029455Y-196593328D02*
X183743741Y-196593328D01*
X183743741Y-196593328D02*
X183600884Y-196521900D01*
X183600884Y-196521900D02*
X183529455Y-196450471D01*
X183529455Y-196450471D02*
X183458027Y-196307614D01*
X183458027Y-196307614D02*
X183458027Y-195879042D01*
X183458027Y-195879042D02*
X183529455Y-195736185D01*
X183529455Y-195736185D02*
X183600884Y-195664757D01*
X183600884Y-195664757D02*
X183743741Y-195593328D01*
X183743741Y-195593328D02*
X184029455Y-195593328D01*
X184029455Y-195593328D02*
X184172313Y-195664757D01*
X186029455Y-195807614D02*
X186529455Y-195807614D01*
X186743741Y-196593328D02*
X186029455Y-196593328D01*
X186029455Y-196593328D02*
X186029455Y-195093328D01*
X186029455Y-195093328D02*
X186743741Y-195093328D01*
X187386598Y-196450471D02*
X187458027Y-196521900D01*
X187458027Y-196521900D02*
X187386598Y-196593328D01*
X187386598Y-196593328D02*
X187315170Y-196521900D01*
X187315170Y-196521900D02*
X187386598Y-196450471D01*
X187386598Y-196450471D02*
X187386598Y-196593328D01*
X188100884Y-196593328D02*
X188100884Y-195093328D01*
X188100884Y-195093328D02*
X188458027Y-195093328D01*
X188458027Y-195093328D02*
X188672313Y-195164757D01*
X188672313Y-195164757D02*
X188815170Y-195307614D01*
X188815170Y-195307614D02*
X188886599Y-195450471D01*
X188886599Y-195450471D02*
X188958027Y-195736185D01*
X188958027Y-195736185D02*
X188958027Y-195950471D01*
X188958027Y-195950471D02*
X188886599Y-196236185D01*
X188886599Y-196236185D02*
X188815170Y-196379042D01*
X188815170Y-196379042D02*
X188672313Y-196521900D01*
X188672313Y-196521900D02*
X188458027Y-196593328D01*
X188458027Y-196593328D02*
X188100884Y-196593328D01*
X189600884Y-196450471D02*
X189672313Y-196521900D01*
X189672313Y-196521900D02*
X189600884Y-196593328D01*
X189600884Y-196593328D02*
X189529456Y-196521900D01*
X189529456Y-196521900D02*
X189600884Y-196450471D01*
X189600884Y-196450471D02*
X189600884Y-196593328D01*
X190243742Y-196164757D02*
X190958028Y-196164757D01*
X190100885Y-196593328D02*
X190600885Y-195093328D01*
X190600885Y-195093328D02*
X191100885Y-196593328D01*
X191600884Y-196450471D02*
X191672313Y-196521900D01*
X191672313Y-196521900D02*
X191600884Y-196593328D01*
X191600884Y-196593328D02*
X191529456Y-196521900D01*
X191529456Y-196521900D02*
X191600884Y-196450471D01*
X191600884Y-196450471D02*
X191600884Y-196593328D01*
X193529456Y-196593328D02*
X193815170Y-196593328D01*
X193815170Y-196593328D02*
X193958027Y-196521900D01*
X193958027Y-196521900D02*
X194029456Y-196450471D01*
X194029456Y-196450471D02*
X194172313Y-196236185D01*
X194172313Y-196236185D02*
X194243742Y-195950471D01*
X194243742Y-195950471D02*
X194243742Y-195379042D01*
X194243742Y-195379042D02*
X194172313Y-195236185D01*
X194172313Y-195236185D02*
X194100885Y-195164757D01*
X194100885Y-195164757D02*
X193958027Y-195093328D01*
X193958027Y-195093328D02*
X193672313Y-195093328D01*
X193672313Y-195093328D02*
X193529456Y-195164757D01*
X193529456Y-195164757D02*
X193458027Y-195236185D01*
X193458027Y-195236185D02*
X193386599Y-195379042D01*
X193386599Y-195379042D02*
X193386599Y-195736185D01*
X193386599Y-195736185D02*
X193458027Y-195879042D01*
X193458027Y-195879042D02*
X193529456Y-195950471D01*
X193529456Y-195950471D02*
X193672313Y-196021900D01*
X193672313Y-196021900D02*
X193958027Y-196021900D01*
X193958027Y-196021900D02*
X194100885Y-195950471D01*
X194100885Y-195950471D02*
X194172313Y-195879042D01*
X194172313Y-195879042D02*
X194243742Y-195736185D01*
X194886598Y-196450471D02*
X194958027Y-196521900D01*
X194958027Y-196521900D02*
X194886598Y-196593328D01*
X194886598Y-196593328D02*
X194815170Y-196521900D01*
X194815170Y-196521900D02*
X194886598Y-196450471D01*
X194886598Y-196450471D02*
X194886598Y-196593328D01*
X195886599Y-195093328D02*
X196029456Y-195093328D01*
X196029456Y-195093328D02*
X196172313Y-195164757D01*
X196172313Y-195164757D02*
X196243742Y-195236185D01*
X196243742Y-195236185D02*
X196315170Y-195379042D01*
X196315170Y-195379042D02*
X196386599Y-195664757D01*
X196386599Y-195664757D02*
X196386599Y-196021900D01*
X196386599Y-196021900D02*
X196315170Y-196307614D01*
X196315170Y-196307614D02*
X196243742Y-196450471D01*
X196243742Y-196450471D02*
X196172313Y-196521900D01*
X196172313Y-196521900D02*
X196029456Y-196593328D01*
X196029456Y-196593328D02*
X195886599Y-196593328D01*
X195886599Y-196593328D02*
X195743742Y-196521900D01*
X195743742Y-196521900D02*
X195672313Y-196450471D01*
X195672313Y-196450471D02*
X195600884Y-196307614D01*
X195600884Y-196307614D02*
X195529456Y-196021900D01*
X195529456Y-196021900D02*
X195529456Y-195664757D01*
X195529456Y-195664757D02*
X195600884Y-195379042D01*
X195600884Y-195379042D02*
X195672313Y-195236185D01*
X195672313Y-195236185D02*
X195743742Y-195164757D01*
X195743742Y-195164757D02*
X195886599Y-195093328D01*
X197029455Y-196450471D02*
X197100884Y-196521900D01*
X197100884Y-196521900D02*
X197029455Y-196593328D01*
X197029455Y-196593328D02*
X196958027Y-196521900D01*
X196958027Y-196521900D02*
X197029455Y-196450471D01*
X197029455Y-196450471D02*
X197029455Y-196593328D01*
X197672313Y-195236185D02*
X197743741Y-195164757D01*
X197743741Y-195164757D02*
X197886599Y-195093328D01*
X197886599Y-195093328D02*
X198243741Y-195093328D01*
X198243741Y-195093328D02*
X198386599Y-195164757D01*
X198386599Y-195164757D02*
X198458027Y-195236185D01*
X198458027Y-195236185D02*
X198529456Y-195379042D01*
X198529456Y-195379042D02*
X198529456Y-195521900D01*
X198529456Y-195521900D02*
X198458027Y-195736185D01*
X198458027Y-195736185D02*
X197600884Y-196593328D01*
X197600884Y-196593328D02*
X198529456Y-196593328D01*
D10*
D11*
X177002200Y-191507200D02*
X285002200Y-191507200D01*
D10*
D12*
X264413853Y-193785528D02*
X263913853Y-193071242D01*
X263556710Y-193785528D02*
X263556710Y-192285528D01*
X263556710Y-192285528D02*
X264128139Y-192285528D01*
X264128139Y-192285528D02*
X264270996Y-192356957D01*
X264270996Y-192356957D02*
X264342425Y-192428385D01*
X264342425Y-192428385D02*
X264413853Y-192571242D01*
X264413853Y-192571242D02*
X264413853Y-192785528D01*
X264413853Y-192785528D02*
X264342425Y-192928385D01*
X264342425Y-192928385D02*
X264270996Y-192999814D01*
X264270996Y-192999814D02*
X264128139Y-193071242D01*
X264128139Y-193071242D02*
X263556710Y-193071242D01*
X265628139Y-193714100D02*
X265485282Y-193785528D01*
X265485282Y-193785528D02*
X265199568Y-193785528D01*
X265199568Y-193785528D02*
X265056710Y-193714100D01*
X265056710Y-193714100D02*
X264985282Y-193571242D01*
X264985282Y-193571242D02*
X264985282Y-192999814D01*
X264985282Y-192999814D02*
X265056710Y-192856957D01*
X265056710Y-192856957D02*
X265199568Y-192785528D01*
X265199568Y-192785528D02*
X265485282Y-192785528D01*
X265485282Y-192785528D02*
X265628139Y-192856957D01*
X265628139Y-192856957D02*
X265699568Y-192999814D01*
X265699568Y-192999814D02*
X265699568Y-193142671D01*
X265699568Y-193142671D02*
X264985282Y-193285528D01*
X266199567Y-192785528D02*
X266556710Y-193785528D01*
X266556710Y-193785528D02*
X266913853Y-192785528D01*
X267485281Y-193642671D02*
X267556710Y-193714100D01*
X267556710Y-193714100D02*
X267485281Y-193785528D01*
X267485281Y-193785528D02*
X267413853Y-193714100D01*
X267413853Y-193714100D02*
X267485281Y-193642671D01*
X267485281Y-193642671D02*
X267485281Y-193785528D01*
X267485281Y-192856957D02*
X267556710Y-192928385D01*
X267556710Y-192928385D02*
X267485281Y-192999814D01*
X267485281Y-192999814D02*
X267413853Y-192928385D01*
X267413853Y-192928385D02*
X267485281Y-192856957D01*
X267485281Y-192856957D02*
X267485281Y-192999814D01*
D10*
D11*
X178386598Y-193721900D02*
X178600884Y-193793328D01*
X178600884Y-193793328D02*
X178958026Y-193793328D01*
X178958026Y-193793328D02*
X179100884Y-193721900D01*
X179100884Y-193721900D02*
X179172312Y-193650471D01*
X179172312Y-193650471D02*
X179243741Y-193507614D01*
X179243741Y-193507614D02*
X179243741Y-193364757D01*
X179243741Y-193364757D02*
X179172312Y-193221900D01*
X179172312Y-193221900D02*
X179100884Y-193150471D01*
X179100884Y-193150471D02*
X178958026Y-193079042D01*
X178958026Y-193079042D02*
X178672312Y-193007614D01*
X178672312Y-193007614D02*
X178529455Y-192936185D01*
X178529455Y-192936185D02*
X178458026Y-192864757D01*
X178458026Y-192864757D02*
X178386598Y-192721900D01*
X178386598Y-192721900D02*
X178386598Y-192579042D01*
X178386598Y-192579042D02*
X178458026Y-192436185D01*
X178458026Y-192436185D02*
X178529455Y-192364757D01*
X178529455Y-192364757D02*
X178672312Y-192293328D01*
X178672312Y-192293328D02*
X179029455Y-192293328D01*
X179029455Y-192293328D02*
X179243741Y-192364757D01*
X179886597Y-193793328D02*
X179886597Y-192793328D01*
X179886597Y-192293328D02*
X179815169Y-192364757D01*
X179815169Y-192364757D02*
X179886597Y-192436185D01*
X179886597Y-192436185D02*
X179958026Y-192364757D01*
X179958026Y-192364757D02*
X179886597Y-192293328D01*
X179886597Y-192293328D02*
X179886597Y-192436185D01*
X180458026Y-192793328D02*
X181243741Y-192793328D01*
X181243741Y-192793328D02*
X180458026Y-193793328D01*
X180458026Y-193793328D02*
X181243741Y-193793328D01*
X182386598Y-193721900D02*
X182243741Y-193793328D01*
X182243741Y-193793328D02*
X181958027Y-193793328D01*
X181958027Y-193793328D02*
X181815169Y-193721900D01*
X181815169Y-193721900D02*
X181743741Y-193579042D01*
X181743741Y-193579042D02*
X181743741Y-193007614D01*
X181743741Y-193007614D02*
X181815169Y-192864757D01*
X181815169Y-192864757D02*
X181958027Y-192793328D01*
X181958027Y-192793328D02*
X182243741Y-192793328D01*
X182243741Y-192793328D02*
X182386598Y-192864757D01*
X182386598Y-192864757D02*
X182458027Y-193007614D01*
X182458027Y-193007614D02*
X182458027Y-193150471D01*
X182458027Y-193150471D02*
X181743741Y-193293328D01*
X183100883Y-193650471D02*
X183172312Y-193721900D01*
X183172312Y-193721900D02*
X183100883Y-193793328D01*
X183100883Y-193793328D02*
X183029455Y-193721900D01*
X183029455Y-193721900D02*
X183100883Y-193650471D01*
X183100883Y-193650471D02*
X183100883Y-193793328D01*
X183100883Y-192864757D02*
X183172312Y-192936185D01*
X183172312Y-192936185D02*
X183100883Y-193007614D01*
X183100883Y-193007614D02*
X183029455Y-192936185D01*
X183029455Y-192936185D02*
X183100883Y-192864757D01*
X183100883Y-192864757D02*
X183100883Y-193007614D01*
X184886598Y-193364757D02*
X185600884Y-193364757D01*
X184743741Y-193793328D02*
X185243741Y-192293328D01*
X185243741Y-192293328D02*
X185743741Y-193793328D01*
X186886598Y-192793328D02*
X186886598Y-193793328D01*
X186529455Y-192221900D02*
X186172312Y-193293328D01*
X186172312Y-193293328D02*
X187100883Y-193293328D01*
D10*
D11*
X263458026Y-196593328D02*
X263458026Y-195093328D01*
X264815170Y-196593328D02*
X264815170Y-195093328D01*
X264815170Y-196521900D02*
X264672312Y-196593328D01*
X264672312Y-196593328D02*
X264386598Y-196593328D01*
X264386598Y-196593328D02*
X264243741Y-196521900D01*
X264243741Y-196521900D02*
X264172312Y-196450471D01*
X264172312Y-196450471D02*
X264100884Y-196307614D01*
X264100884Y-196307614D02*
X264100884Y-195879042D01*
X264100884Y-195879042D02*
X264172312Y-195736185D01*
X264172312Y-195736185D02*
X264243741Y-195664757D01*
X264243741Y-195664757D02*
X264386598Y-195593328D01*
X264386598Y-195593328D02*
X264672312Y-195593328D01*
X264672312Y-195593328D02*
X264815170Y-195664757D01*
X265529455Y-196450471D02*
X265600884Y-196521900D01*
X265600884Y-196521900D02*
X265529455Y-196593328D01*
X265529455Y-196593328D02*
X265458027Y-196521900D01*
X265458027Y-196521900D02*
X265529455Y-196450471D01*
X265529455Y-196450471D02*
X265529455Y-196593328D01*
X265529455Y-195664757D02*
X265600884Y-195736185D01*
X265600884Y-195736185D02*
X265529455Y-195807614D01*
X265529455Y-195807614D02*
X265458027Y-195736185D01*
X265458027Y-195736185D02*
X265529455Y-195664757D01*
X265529455Y-195664757D02*
X265529455Y-195807614D01*
X267243741Y-195093328D02*
X268172313Y-195093328D01*
X268172313Y-195093328D02*
X267672313Y-195664757D01*
X267672313Y-195664757D02*
X267886598Y-195664757D01*
X267886598Y-195664757D02*
X268029456Y-195736185D01*
X268029456Y-195736185D02*
X268100884Y-195807614D01*
X268100884Y-195807614D02*
X268172313Y-195950471D01*
X268172313Y-195950471D02*
X268172313Y-196307614D01*
X268172313Y-196307614D02*
X268100884Y-196450471D01*
X268100884Y-196450471D02*
X268029456Y-196521900D01*
X268029456Y-196521900D02*
X267886598Y-196593328D01*
X267886598Y-196593328D02*
X267458027Y-196593328D01*
X267458027Y-196593328D02*
X267315170Y-196521900D01*
X267315170Y-196521900D02*
X267243741Y-196450471D01*
X269886598Y-195021900D02*
X268600884Y-196950471D01*
X271100884Y-195093328D02*
X270386598Y-195093328D01*
X270386598Y-195093328D02*
X270315170Y-195807614D01*
X270315170Y-195807614D02*
X270386598Y-195736185D01*
X270386598Y-195736185D02*
X270529456Y-195664757D01*
X270529456Y-195664757D02*
X270886598Y-195664757D01*
X270886598Y-195664757D02*
X271029456Y-195736185D01*
X271029456Y-195736185D02*
X271100884Y-195807614D01*
X271100884Y-195807614D02*
X271172313Y-195950471D01*
X271172313Y-195950471D02*
X271172313Y-196307614D01*
X271172313Y-196307614D02*
X271100884Y-196450471D01*
X271100884Y-196450471D02*
X271029456Y-196521900D01*
X271029456Y-196521900D02*
X270886598Y-196593328D01*
X270886598Y-196593328D02*
X270529456Y-196593328D01*
X270529456Y-196593328D02*
X270386598Y-196521900D01*
X270386598Y-196521900D02*
X270315170Y-196450471D01*
D10*
D11*
X177002200Y-187507200D02*
X285002200Y-187507200D01*
D10*
D13*
X178693928Y-188211638D02*
X179836785Y-188211638D01*
X179015357Y-190211638D02*
X179265357Y-188211638D01*
X180253452Y-190211638D02*
X180420119Y-188878304D01*
X180503452Y-188211638D02*
X180396309Y-188306876D01*
X180396309Y-188306876D02*
X180479643Y-188402114D01*
X180479643Y-188402114D02*
X180586786Y-188306876D01*
X180586786Y-188306876D02*
X180503452Y-188211638D01*
X180503452Y-188211638D02*
X180479643Y-188402114D01*
X181086786Y-188878304D02*
X181848690Y-188878304D01*
X181455833Y-188211638D02*
X181241548Y-189925923D01*
X181241548Y-189925923D02*
X181312976Y-190116400D01*
X181312976Y-190116400D02*
X181491548Y-190211638D01*
X181491548Y-190211638D02*
X181682024Y-190211638D01*
X182634405Y-190211638D02*
X182455833Y-190116400D01*
X182455833Y-190116400D02*
X182384405Y-189925923D01*
X182384405Y-189925923D02*
X182598690Y-188211638D01*
X184170119Y-190116400D02*
X183967738Y-190211638D01*
X183967738Y-190211638D02*
X183586785Y-190211638D01*
X183586785Y-190211638D02*
X183408214Y-190116400D01*
X183408214Y-190116400D02*
X183336785Y-189925923D01*
X183336785Y-189925923D02*
X183432024Y-189164019D01*
X183432024Y-189164019D02*
X183551071Y-188973542D01*
X183551071Y-188973542D02*
X183753452Y-188878304D01*
X183753452Y-188878304D02*
X184134404Y-188878304D01*
X184134404Y-188878304D02*
X184312976Y-188973542D01*
X184312976Y-188973542D02*
X184384404Y-189164019D01*
X184384404Y-189164019D02*
X184360595Y-189354495D01*
X184360595Y-189354495D02*
X183384404Y-189544971D01*
X185134405Y-190021161D02*
X185217738Y-190116400D01*
X185217738Y-190116400D02*
X185110595Y-190211638D01*
X185110595Y-190211638D02*
X185027262Y-190116400D01*
X185027262Y-190116400D02*
X185134405Y-190021161D01*
X185134405Y-190021161D02*
X185110595Y-190211638D01*
X185265357Y-188973542D02*
X185348690Y-189068780D01*
X185348690Y-189068780D02*
X185241548Y-189164019D01*
X185241548Y-189164019D02*
X185158214Y-189068780D01*
X185158214Y-189068780D02*
X185265357Y-188973542D01*
X185265357Y-188973542D02*
X185241548Y-189164019D01*
D10*
D11*
X178958026Y-185607614D02*
X178458026Y-185607614D01*
X178458026Y-186393328D02*
X178458026Y-184893328D01*
X178458026Y-184893328D02*
X179172312Y-184893328D01*
X179743740Y-186393328D02*
X179743740Y-185393328D01*
X179743740Y-184893328D02*
X179672312Y-184964757D01*
X179672312Y-184964757D02*
X179743740Y-185036185D01*
X179743740Y-185036185D02*
X179815169Y-184964757D01*
X179815169Y-184964757D02*
X179743740Y-184893328D01*
X179743740Y-184893328D02*
X179743740Y-185036185D01*
X180672312Y-186393328D02*
X180529455Y-186321900D01*
X180529455Y-186321900D02*
X180458026Y-186179042D01*
X180458026Y-186179042D02*
X180458026Y-184893328D01*
X181815169Y-186321900D02*
X181672312Y-186393328D01*
X181672312Y-186393328D02*
X181386598Y-186393328D01*
X181386598Y-186393328D02*
X181243740Y-186321900D01*
X181243740Y-186321900D02*
X181172312Y-186179042D01*
X181172312Y-186179042D02*
X181172312Y-185607614D01*
X181172312Y-185607614D02*
X181243740Y-185464757D01*
X181243740Y-185464757D02*
X181386598Y-185393328D01*
X181386598Y-185393328D02*
X181672312Y-185393328D01*
X181672312Y-185393328D02*
X181815169Y-185464757D01*
X181815169Y-185464757D02*
X181886598Y-185607614D01*
X181886598Y-185607614D02*
X181886598Y-185750471D01*
X181886598Y-185750471D02*
X181172312Y-185893328D01*
X182529454Y-186250471D02*
X182600883Y-186321900D01*
X182600883Y-186321900D02*
X182529454Y-186393328D01*
X182529454Y-186393328D02*
X182458026Y-186321900D01*
X182458026Y-186321900D02*
X182529454Y-186250471D01*
X182529454Y-186250471D02*
X182529454Y-186393328D01*
X182529454Y-185464757D02*
X182600883Y-185536185D01*
X182600883Y-185536185D02*
X182529454Y-185607614D01*
X182529454Y-185607614D02*
X182458026Y-185536185D01*
X182458026Y-185536185D02*
X182529454Y-185464757D01*
X182529454Y-185464757D02*
X182529454Y-185607614D01*
X184600883Y-186393328D02*
X184458026Y-186321900D01*
X184458026Y-186321900D02*
X184386597Y-186179042D01*
X184386597Y-186179042D02*
X184386597Y-184893328D01*
X185815169Y-186393328D02*
X185815169Y-185607614D01*
X185815169Y-185607614D02*
X185743740Y-185464757D01*
X185743740Y-185464757D02*
X185600883Y-185393328D01*
X185600883Y-185393328D02*
X185315169Y-185393328D01*
X185315169Y-185393328D02*
X185172311Y-185464757D01*
X185815169Y-186321900D02*
X185672311Y-186393328D01*
X185672311Y-186393328D02*
X185315169Y-186393328D01*
X185315169Y-186393328D02*
X185172311Y-186321900D01*
X185172311Y-186321900D02*
X185100883Y-186179042D01*
X185100883Y-186179042D02*
X185100883Y-186036185D01*
X185100883Y-186036185D02*
X185172311Y-185893328D01*
X185172311Y-185893328D02*
X185315169Y-185821900D01*
X185315169Y-185821900D02*
X185672311Y-185821900D01*
X185672311Y-185821900D02*
X185815169Y-185750471D01*
X186315169Y-185393328D02*
X186886597Y-185393328D01*
X186529454Y-184893328D02*
X186529454Y-186179042D01*
X186529454Y-186179042D02*
X186600883Y-186321900D01*
X186600883Y-186321900D02*
X186743740Y-186393328D01*
X186743740Y-186393328D02*
X186886597Y-186393328D01*
X187386597Y-186393328D02*
X187386597Y-185393328D01*
X187386597Y-184893328D02*
X187315169Y-184964757D01*
X187315169Y-184964757D02*
X187386597Y-185036185D01*
X187386597Y-185036185D02*
X187458026Y-184964757D01*
X187458026Y-184964757D02*
X187386597Y-184893328D01*
X187386597Y-184893328D02*
X187386597Y-185036185D01*
X188100883Y-186393328D02*
X188100883Y-184893328D01*
X188743741Y-186393328D02*
X188743741Y-185607614D01*
X188743741Y-185607614D02*
X188672312Y-185464757D01*
X188672312Y-185464757D02*
X188529455Y-185393328D01*
X188529455Y-185393328D02*
X188315169Y-185393328D01*
X188315169Y-185393328D02*
X188172312Y-185464757D01*
X188172312Y-185464757D02*
X188100883Y-185536185D01*
X190100884Y-186393328D02*
X190100884Y-185607614D01*
X190100884Y-185607614D02*
X190029455Y-185464757D01*
X190029455Y-185464757D02*
X189886598Y-185393328D01*
X189886598Y-185393328D02*
X189600884Y-185393328D01*
X189600884Y-185393328D02*
X189458026Y-185464757D01*
X190100884Y-186321900D02*
X189958026Y-186393328D01*
X189958026Y-186393328D02*
X189600884Y-186393328D01*
X189600884Y-186393328D02*
X189458026Y-186321900D01*
X189458026Y-186321900D02*
X189386598Y-186179042D01*
X189386598Y-186179042D02*
X189386598Y-186036185D01*
X189386598Y-186036185D02*
X189458026Y-185893328D01*
X189458026Y-185893328D02*
X189600884Y-185821900D01*
X189600884Y-185821900D02*
X189958026Y-185821900D01*
X189958026Y-185821900D02*
X190100884Y-185750471D01*
X190815169Y-185393328D02*
X190815169Y-186393328D01*
X190815169Y-185536185D02*
X190886598Y-185464757D01*
X190886598Y-185464757D02*
X191029455Y-185393328D01*
X191029455Y-185393328D02*
X191243741Y-185393328D01*
X191243741Y-185393328D02*
X191386598Y-185464757D01*
X191386598Y-185464757D02*
X191458027Y-185607614D01*
X191458027Y-185607614D02*
X191458027Y-186393328D01*
X192172312Y-186393328D02*
X192172312Y-184893328D01*
X192315170Y-185821900D02*
X192743741Y-186393328D01*
X192743741Y-185393328D02*
X192172312Y-185964757D01*
X193386598Y-186393328D02*
X193386598Y-185393328D01*
X193386598Y-184893328D02*
X193315170Y-184964757D01*
X193315170Y-184964757D02*
X193386598Y-185036185D01*
X193386598Y-185036185D02*
X193458027Y-184964757D01*
X193458027Y-184964757D02*
X193386598Y-184893328D01*
X193386598Y-184893328D02*
X193386598Y-185036185D01*
X194743742Y-186321900D02*
X194600884Y-186393328D01*
X194600884Y-186393328D02*
X194315170Y-186393328D01*
X194315170Y-186393328D02*
X194172313Y-186321900D01*
X194172313Y-186321900D02*
X194100884Y-186250471D01*
X194100884Y-186250471D02*
X194029456Y-186107614D01*
X194029456Y-186107614D02*
X194029456Y-185679042D01*
X194029456Y-185679042D02*
X194100884Y-185536185D01*
X194100884Y-185536185D02*
X194172313Y-185464757D01*
X194172313Y-185464757D02*
X194315170Y-185393328D01*
X194315170Y-185393328D02*
X194600884Y-185393328D01*
X194600884Y-185393328D02*
X194743742Y-185464757D01*
X196029456Y-186393328D02*
X196029456Y-185607614D01*
X196029456Y-185607614D02*
X195958027Y-185464757D01*
X195958027Y-185464757D02*
X195815170Y-185393328D01*
X195815170Y-185393328D02*
X195529456Y-185393328D01*
X195529456Y-185393328D02*
X195386598Y-185464757D01*
X196029456Y-186321900D02*
X195886598Y-186393328D01*
X195886598Y-186393328D02*
X195529456Y-186393328D01*
X195529456Y-186393328D02*
X195386598Y-186321900D01*
X195386598Y-186321900D02*
X195315170Y-186179042D01*
X195315170Y-186179042D02*
X195315170Y-186036185D01*
X195315170Y-186036185D02*
X195386598Y-185893328D01*
X195386598Y-185893328D02*
X195529456Y-185821900D01*
X195529456Y-185821900D02*
X195886598Y-185821900D01*
X195886598Y-185821900D02*
X196029456Y-185750471D01*
X197386599Y-186393328D02*
X197386599Y-184893328D01*
X197386599Y-186321900D02*
X197243741Y-186393328D01*
X197243741Y-186393328D02*
X196958027Y-186393328D01*
X196958027Y-186393328D02*
X196815170Y-186321900D01*
X196815170Y-186321900D02*
X196743741Y-186250471D01*
X196743741Y-186250471D02*
X196672313Y-186107614D01*
X196672313Y-186107614D02*
X196672313Y-185679042D01*
X196672313Y-185679042D02*
X196743741Y-185536185D01*
X196743741Y-185536185D02*
X196815170Y-185464757D01*
X196815170Y-185464757D02*
X196958027Y-185393328D01*
X196958027Y-185393328D02*
X197243741Y-185393328D01*
X197243741Y-185393328D02*
X197386599Y-185464757D01*
X198100884Y-186250471D02*
X198172313Y-186321900D01*
X198172313Y-186321900D02*
X198100884Y-186393328D01*
X198100884Y-186393328D02*
X198029456Y-186321900D01*
X198029456Y-186321900D02*
X198100884Y-186250471D01*
X198100884Y-186250471D02*
X198100884Y-186393328D01*
X198815170Y-186393328D02*
X198815170Y-184893328D01*
X198958028Y-185821900D02*
X199386599Y-186393328D01*
X199386599Y-185393328D02*
X198815170Y-185964757D01*
X200029456Y-186393328D02*
X200029456Y-185393328D01*
X200029456Y-184893328D02*
X199958028Y-184964757D01*
X199958028Y-184964757D02*
X200029456Y-185036185D01*
X200029456Y-185036185D02*
X200100885Y-184964757D01*
X200100885Y-184964757D02*
X200029456Y-184893328D01*
X200029456Y-184893328D02*
X200029456Y-185036185D01*
X201386600Y-186321900D02*
X201243742Y-186393328D01*
X201243742Y-186393328D02*
X200958028Y-186393328D01*
X200958028Y-186393328D02*
X200815171Y-186321900D01*
X200815171Y-186321900D02*
X200743742Y-186250471D01*
X200743742Y-186250471D02*
X200672314Y-186107614D01*
X200672314Y-186107614D02*
X200672314Y-185679042D01*
X200672314Y-185679042D02*
X200743742Y-185536185D01*
X200743742Y-185536185D02*
X200815171Y-185464757D01*
X200815171Y-185464757D02*
X200958028Y-185393328D01*
X200958028Y-185393328D02*
X201243742Y-185393328D01*
X201243742Y-185393328D02*
X201386600Y-185464757D01*
X202672314Y-186393328D02*
X202672314Y-185607614D01*
X202672314Y-185607614D02*
X202600885Y-185464757D01*
X202600885Y-185464757D02*
X202458028Y-185393328D01*
X202458028Y-185393328D02*
X202172314Y-185393328D01*
X202172314Y-185393328D02*
X202029456Y-185464757D01*
X202672314Y-186321900D02*
X202529456Y-186393328D01*
X202529456Y-186393328D02*
X202172314Y-186393328D01*
X202172314Y-186393328D02*
X202029456Y-186321900D01*
X202029456Y-186321900D02*
X201958028Y-186179042D01*
X201958028Y-186179042D02*
X201958028Y-186036185D01*
X201958028Y-186036185D02*
X202029456Y-185893328D01*
X202029456Y-185893328D02*
X202172314Y-185821900D01*
X202172314Y-185821900D02*
X202529456Y-185821900D01*
X202529456Y-185821900D02*
X202672314Y-185750471D01*
X204029457Y-186393328D02*
X204029457Y-184893328D01*
X204029457Y-186321900D02*
X203886599Y-186393328D01*
X203886599Y-186393328D02*
X203600885Y-186393328D01*
X203600885Y-186393328D02*
X203458028Y-186321900D01*
X203458028Y-186321900D02*
X203386599Y-186250471D01*
X203386599Y-186250471D02*
X203315171Y-186107614D01*
X203315171Y-186107614D02*
X203315171Y-185679042D01*
X203315171Y-185679042D02*
X203386599Y-185536185D01*
X203386599Y-185536185D02*
X203458028Y-185464757D01*
X203458028Y-185464757D02*
X203600885Y-185393328D01*
X203600885Y-185393328D02*
X203886599Y-185393328D01*
X203886599Y-185393328D02*
X204029457Y-185464757D01*
X204386600Y-186536185D02*
X205529457Y-186536185D01*
X205886599Y-185393328D02*
X205886599Y-186893328D01*
X205886599Y-185464757D02*
X206029457Y-185393328D01*
X206029457Y-185393328D02*
X206315171Y-185393328D01*
X206315171Y-185393328D02*
X206458028Y-185464757D01*
X206458028Y-185464757D02*
X206529457Y-185536185D01*
X206529457Y-185536185D02*
X206600885Y-185679042D01*
X206600885Y-185679042D02*
X206600885Y-186107614D01*
X206600885Y-186107614D02*
X206529457Y-186250471D01*
X206529457Y-186250471D02*
X206458028Y-186321900D01*
X206458028Y-186321900D02*
X206315171Y-186393328D01*
X206315171Y-186393328D02*
X206029457Y-186393328D01*
X206029457Y-186393328D02*
X205886599Y-186321900D01*
X207886600Y-186321900D02*
X207743742Y-186393328D01*
X207743742Y-186393328D02*
X207458028Y-186393328D01*
X207458028Y-186393328D02*
X207315171Y-186321900D01*
X207315171Y-186321900D02*
X207243742Y-186250471D01*
X207243742Y-186250471D02*
X207172314Y-186107614D01*
X207172314Y-186107614D02*
X207172314Y-185679042D01*
X207172314Y-185679042D02*
X207243742Y-185536185D01*
X207243742Y-185536185D02*
X207315171Y-185464757D01*
X207315171Y-185464757D02*
X207458028Y-185393328D01*
X207458028Y-185393328D02*
X207743742Y-185393328D01*
X207743742Y-185393328D02*
X207886600Y-185464757D01*
X208529456Y-186393328D02*
X208529456Y-184893328D01*
X208529456Y-185464757D02*
X208672314Y-185393328D01*
X208672314Y-185393328D02*
X208958028Y-185393328D01*
X208958028Y-185393328D02*
X209100885Y-185464757D01*
X209100885Y-185464757D02*
X209172314Y-185536185D01*
X209172314Y-185536185D02*
X209243742Y-185679042D01*
X209243742Y-185679042D02*
X209243742Y-186107614D01*
X209243742Y-186107614D02*
X209172314Y-186250471D01*
X209172314Y-186250471D02*
X209100885Y-186321900D01*
X209100885Y-186321900D02*
X208958028Y-186393328D01*
X208958028Y-186393328D02*
X208672314Y-186393328D01*
X208672314Y-186393328D02*
X208529456Y-186321900D01*
D10*
D11*
X177002200Y-181507200D02*
X285002200Y-181507200D01*
D10*
D11*
X178386598Y-183621900D02*
X178600884Y-183693328D01*
X178600884Y-183693328D02*
X178958026Y-183693328D01*
X178958026Y-183693328D02*
X179100884Y-183621900D01*
X179100884Y-183621900D02*
X179172312Y-183550471D01*
X179172312Y-183550471D02*
X179243741Y-183407614D01*
X179243741Y-183407614D02*
X179243741Y-183264757D01*
X179243741Y-183264757D02*
X179172312Y-183121900D01*
X179172312Y-183121900D02*
X179100884Y-183050471D01*
X179100884Y-183050471D02*
X178958026Y-182979042D01*
X178958026Y-182979042D02*
X178672312Y-182907614D01*
X178672312Y-182907614D02*
X178529455Y-182836185D01*
X178529455Y-182836185D02*
X178458026Y-182764757D01*
X178458026Y-182764757D02*
X178386598Y-182621900D01*
X178386598Y-182621900D02*
X178386598Y-182479042D01*
X178386598Y-182479042D02*
X178458026Y-182336185D01*
X178458026Y-182336185D02*
X178529455Y-182264757D01*
X178529455Y-182264757D02*
X178672312Y-182193328D01*
X178672312Y-182193328D02*
X179029455Y-182193328D01*
X179029455Y-182193328D02*
X179243741Y-182264757D01*
X179886597Y-183693328D02*
X179886597Y-182193328D01*
X180529455Y-183693328D02*
X180529455Y-182907614D01*
X180529455Y-182907614D02*
X180458026Y-182764757D01*
X180458026Y-182764757D02*
X180315169Y-182693328D01*
X180315169Y-182693328D02*
X180100883Y-182693328D01*
X180100883Y-182693328D02*
X179958026Y-182764757D01*
X179958026Y-182764757D02*
X179886597Y-182836185D01*
X181815169Y-183621900D02*
X181672312Y-183693328D01*
X181672312Y-183693328D02*
X181386598Y-183693328D01*
X181386598Y-183693328D02*
X181243740Y-183621900D01*
X181243740Y-183621900D02*
X181172312Y-183479042D01*
X181172312Y-183479042D02*
X181172312Y-182907614D01*
X181172312Y-182907614D02*
X181243740Y-182764757D01*
X181243740Y-182764757D02*
X181386598Y-182693328D01*
X181386598Y-182693328D02*
X181672312Y-182693328D01*
X181672312Y-182693328D02*
X181815169Y-182764757D01*
X181815169Y-182764757D02*
X181886598Y-182907614D01*
X181886598Y-182907614D02*
X181886598Y-183050471D01*
X181886598Y-183050471D02*
X181172312Y-183193328D01*
X183100883Y-183621900D02*
X182958026Y-183693328D01*
X182958026Y-183693328D02*
X182672312Y-183693328D01*
X182672312Y-183693328D02*
X182529454Y-183621900D01*
X182529454Y-183621900D02*
X182458026Y-183479042D01*
X182458026Y-183479042D02*
X182458026Y-182907614D01*
X182458026Y-182907614D02*
X182529454Y-182764757D01*
X182529454Y-182764757D02*
X182672312Y-182693328D01*
X182672312Y-182693328D02*
X182958026Y-182693328D01*
X182958026Y-182693328D02*
X183100883Y-182764757D01*
X183100883Y-182764757D02*
X183172312Y-182907614D01*
X183172312Y-182907614D02*
X183172312Y-183050471D01*
X183172312Y-183050471D02*
X182458026Y-183193328D01*
X183600883Y-182693328D02*
X184172311Y-182693328D01*
X183815168Y-182193328D02*
X183815168Y-183479042D01*
X183815168Y-183479042D02*
X183886597Y-183621900D01*
X183886597Y-183621900D02*
X184029454Y-183693328D01*
X184029454Y-183693328D02*
X184172311Y-183693328D01*
X184672311Y-183550471D02*
X184743740Y-183621900D01*
X184743740Y-183621900D02*
X184672311Y-183693328D01*
X184672311Y-183693328D02*
X184600883Y-183621900D01*
X184600883Y-183621900D02*
X184672311Y-183550471D01*
X184672311Y-183550471D02*
X184672311Y-183693328D01*
X184672311Y-182764757D02*
X184743740Y-182836185D01*
X184743740Y-182836185D02*
X184672311Y-182907614D01*
X184672311Y-182907614D02*
X184600883Y-182836185D01*
X184600883Y-182836185D02*
X184672311Y-182764757D01*
X184672311Y-182764757D02*
X184672311Y-182907614D01*
D10*
D11*
X197002200Y-191507200D02*
X197002200Y-194507200D01*
D10*
D11*
X261002200Y-191507200D02*
X261002200Y-198007200D01*
X139222500Y-101230000D02*
X138222500Y-101230000D01*
X138222500Y-101230000D02*
X138222500Y-100991905D01*
X138222500Y-100991905D02*
X138270119Y-100849048D01*
X138270119Y-100849048D02*
X138365357Y-100753810D01*
X138365357Y-100753810D02*
X138460595Y-100706191D01*
X138460595Y-100706191D02*
X138651071Y-100658572D01*
X138651071Y-100658572D02*
X138793928Y-100658572D01*
X138793928Y-100658572D02*
X138984404Y-100706191D01*
X138984404Y-100706191D02*
X139079642Y-100753810D01*
X139079642Y-100753810D02*
X139174881Y-100849048D01*
X139174881Y-100849048D02*
X139222500Y-100991905D01*
X139222500Y-100991905D02*
X139222500Y-101230000D01*
X138317738Y-100277619D02*
X138270119Y-100230000D01*
X138270119Y-100230000D02*
X138222500Y-100134762D01*
X138222500Y-100134762D02*
X138222500Y-99896667D01*
X138222500Y-99896667D02*
X138270119Y-99801429D01*
X138270119Y-99801429D02*
X138317738Y-99753810D01*
X138317738Y-99753810D02*
X138412976Y-99706191D01*
X138412976Y-99706191D02*
X138508214Y-99706191D01*
X138508214Y-99706191D02*
X138651071Y-99753810D01*
X138651071Y-99753810D02*
X139222500Y-100325238D01*
X139222500Y-100325238D02*
X139222500Y-99706191D01*
X128570000Y-70603572D02*
X128093809Y-70936905D01*
X128570000Y-71175000D02*
X127570000Y-71175000D01*
X127570000Y-71175000D02*
X127570000Y-70794048D01*
X127570000Y-70794048D02*
X127617619Y-70698810D01*
X127617619Y-70698810D02*
X127665238Y-70651191D01*
X127665238Y-70651191D02*
X127760476Y-70603572D01*
X127760476Y-70603572D02*
X127903333Y-70603572D01*
X127903333Y-70603572D02*
X127998571Y-70651191D01*
X127998571Y-70651191D02*
X128046190Y-70698810D01*
X128046190Y-70698810D02*
X128093809Y-70794048D01*
X128093809Y-70794048D02*
X128093809Y-71175000D01*
X128570000Y-69651191D02*
X128570000Y-70222619D01*
X128570000Y-69936905D02*
X127570000Y-69936905D01*
X127570000Y-69936905D02*
X127712857Y-70032143D01*
X127712857Y-70032143D02*
X127808095Y-70127381D01*
X127808095Y-70127381D02*
X127855714Y-70222619D01*
X148320000Y-70353572D02*
X147843809Y-70686905D01*
X148320000Y-70925000D02*
X147320000Y-70925000D01*
X147320000Y-70925000D02*
X147320000Y-70544048D01*
X147320000Y-70544048D02*
X147367619Y-70448810D01*
X147367619Y-70448810D02*
X147415238Y-70401191D01*
X147415238Y-70401191D02*
X147510476Y-70353572D01*
X147510476Y-70353572D02*
X147653333Y-70353572D01*
X147653333Y-70353572D02*
X147748571Y-70401191D01*
X147748571Y-70401191D02*
X147796190Y-70448810D01*
X147796190Y-70448810D02*
X147843809Y-70544048D01*
X147843809Y-70544048D02*
X147843809Y-70925000D01*
X147415238Y-69972619D02*
X147367619Y-69925000D01*
X147367619Y-69925000D02*
X147320000Y-69829762D01*
X147320000Y-69829762D02*
X147320000Y-69591667D01*
X147320000Y-69591667D02*
X147367619Y-69496429D01*
X147367619Y-69496429D02*
X147415238Y-69448810D01*
X147415238Y-69448810D02*
X147510476Y-69401191D01*
X147510476Y-69401191D02*
X147605714Y-69401191D01*
X147605714Y-69401191D02*
X147748571Y-69448810D01*
X147748571Y-69448810D02*
X148320000Y-70020238D01*
X148320000Y-70020238D02*
X148320000Y-69401191D01*
X92842500Y-101127144D02*
X92366309Y-101460477D01*
X92842500Y-101698572D02*
X91842500Y-101698572D01*
X91842500Y-101698572D02*
X91842500Y-101317620D01*
X91842500Y-101317620D02*
X91890119Y-101222382D01*
X91890119Y-101222382D02*
X91937738Y-101174763D01*
X91937738Y-101174763D02*
X92032976Y-101127144D01*
X92032976Y-101127144D02*
X92175833Y-101127144D01*
X92175833Y-101127144D02*
X92271071Y-101174763D01*
X92271071Y-101174763D02*
X92318690Y-101222382D01*
X92318690Y-101222382D02*
X92366309Y-101317620D01*
X92366309Y-101317620D02*
X92366309Y-101698572D01*
X91842500Y-100841429D02*
X92842500Y-100508096D01*
X92842500Y-100508096D02*
X91842500Y-100174763D01*
X92842500Y-99317620D02*
X92842500Y-99889048D01*
X92842500Y-99603334D02*
X91842500Y-99603334D01*
X91842500Y-99603334D02*
X91985357Y-99698572D01*
X91985357Y-99698572D02*
X92080595Y-99793810D01*
X92080595Y-99793810D02*
X92128214Y-99889048D01*
X63378514Y-70416486D02*
X63330895Y-70464106D01*
X63330895Y-70464106D02*
X63188038Y-70511725D01*
X63188038Y-70511725D02*
X63092800Y-70511725D01*
X63092800Y-70511725D02*
X62949943Y-70464106D01*
X62949943Y-70464106D02*
X62854705Y-70368867D01*
X62854705Y-70368867D02*
X62807086Y-70273629D01*
X62807086Y-70273629D02*
X62759467Y-70083153D01*
X62759467Y-70083153D02*
X62759467Y-69940296D01*
X62759467Y-69940296D02*
X62807086Y-69749820D01*
X62807086Y-69749820D02*
X62854705Y-69654582D01*
X62854705Y-69654582D02*
X62949943Y-69559344D01*
X62949943Y-69559344D02*
X63092800Y-69511725D01*
X63092800Y-69511725D02*
X63188038Y-69511725D01*
X63188038Y-69511725D02*
X63330895Y-69559344D01*
X63330895Y-69559344D02*
X63378514Y-69606963D01*
X64330895Y-70511725D02*
X63759467Y-70511725D01*
X64045181Y-70511725D02*
X64045181Y-69511725D01*
X64045181Y-69511725D02*
X63949943Y-69654582D01*
X63949943Y-69654582D02*
X63854705Y-69749820D01*
X63854705Y-69749820D02*
X63759467Y-69797439D01*
X125101014Y-123221486D02*
X125053395Y-123269106D01*
X125053395Y-123269106D02*
X124910538Y-123316725D01*
X124910538Y-123316725D02*
X124815300Y-123316725D01*
X124815300Y-123316725D02*
X124672443Y-123269106D01*
X124672443Y-123269106D02*
X124577205Y-123173867D01*
X124577205Y-123173867D02*
X124529586Y-123078629D01*
X124529586Y-123078629D02*
X124481967Y-122888153D01*
X124481967Y-122888153D02*
X124481967Y-122745296D01*
X124481967Y-122745296D02*
X124529586Y-122554820D01*
X124529586Y-122554820D02*
X124577205Y-122459582D01*
X124577205Y-122459582D02*
X124672443Y-122364344D01*
X124672443Y-122364344D02*
X124815300Y-122316725D01*
X124815300Y-122316725D02*
X124910538Y-122316725D01*
X124910538Y-122316725D02*
X125053395Y-122364344D01*
X125053395Y-122364344D02*
X125101014Y-122411963D01*
X125481967Y-122411963D02*
X125529586Y-122364344D01*
X125529586Y-122364344D02*
X125624824Y-122316725D01*
X125624824Y-122316725D02*
X125862919Y-122316725D01*
X125862919Y-122316725D02*
X125958157Y-122364344D01*
X125958157Y-122364344D02*
X126005776Y-122411963D01*
X126005776Y-122411963D02*
X126053395Y-122507201D01*
X126053395Y-122507201D02*
X126053395Y-122602439D01*
X126053395Y-122602439D02*
X126005776Y-122745296D01*
X126005776Y-122745296D02*
X125434348Y-123316725D01*
X125434348Y-123316725D02*
X126053395Y-123316725D01*
X41122500Y-80075239D02*
X41836785Y-80075239D01*
X41836785Y-80075239D02*
X41979642Y-80122858D01*
X41979642Y-80122858D02*
X42074881Y-80218096D01*
X42074881Y-80218096D02*
X42122500Y-80360953D01*
X42122500Y-80360953D02*
X42122500Y-80456191D01*
X41217738Y-79646667D02*
X41170119Y-79599048D01*
X41170119Y-79599048D02*
X41122500Y-79503810D01*
X41122500Y-79503810D02*
X41122500Y-79265715D01*
X41122500Y-79265715D02*
X41170119Y-79170477D01*
X41170119Y-79170477D02*
X41217738Y-79122858D01*
X41217738Y-79122858D02*
X41312976Y-79075239D01*
X41312976Y-79075239D02*
X41408214Y-79075239D01*
X41408214Y-79075239D02*
X41551071Y-79122858D01*
X41551071Y-79122858D02*
X42122500Y-79694286D01*
X42122500Y-79694286D02*
X42122500Y-79075239D01*
X90445776Y-70446725D02*
X90445776Y-71256248D01*
X90445776Y-71256248D02*
X90493395Y-71351486D01*
X90493395Y-71351486D02*
X90541014Y-71399106D01*
X90541014Y-71399106D02*
X90636252Y-71446725D01*
X90636252Y-71446725D02*
X90826728Y-71446725D01*
X90826728Y-71446725D02*
X90921966Y-71399106D01*
X90921966Y-71399106D02*
X90969585Y-71351486D01*
X90969585Y-71351486D02*
X91017204Y-71256248D01*
X91017204Y-71256248D02*
X91017204Y-70446725D01*
X92017204Y-71446725D02*
X91445776Y-71446725D01*
X91731490Y-71446725D02*
X91731490Y-70446725D01*
X91731490Y-70446725D02*
X91636252Y-70589582D01*
X91636252Y-70589582D02*
X91541014Y-70684820D01*
X91541014Y-70684820D02*
X91445776Y-70732439D01*
X163320000Y-70853572D02*
X162843809Y-71186905D01*
X163320000Y-71425000D02*
X162320000Y-71425000D01*
X162320000Y-71425000D02*
X162320000Y-71044048D01*
X162320000Y-71044048D02*
X162367619Y-70948810D01*
X162367619Y-70948810D02*
X162415238Y-70901191D01*
X162415238Y-70901191D02*
X162510476Y-70853572D01*
X162510476Y-70853572D02*
X162653333Y-70853572D01*
X162653333Y-70853572D02*
X162748571Y-70901191D01*
X162748571Y-70901191D02*
X162796190Y-70948810D01*
X162796190Y-70948810D02*
X162843809Y-71044048D01*
X162843809Y-71044048D02*
X162843809Y-71425000D01*
X162320000Y-70520238D02*
X162320000Y-69901191D01*
X162320000Y-69901191D02*
X162700952Y-70234524D01*
X162700952Y-70234524D02*
X162700952Y-70091667D01*
X162700952Y-70091667D02*
X162748571Y-69996429D01*
X162748571Y-69996429D02*
X162796190Y-69948810D01*
X162796190Y-69948810D02*
X162891428Y-69901191D01*
X162891428Y-69901191D02*
X163129523Y-69901191D01*
X163129523Y-69901191D02*
X163224761Y-69948810D01*
X163224761Y-69948810D02*
X163272381Y-69996429D01*
X163272381Y-69996429D02*
X163320000Y-70091667D01*
X163320000Y-70091667D02*
X163320000Y-70377381D01*
X163320000Y-70377381D02*
X163272381Y-70472619D01*
X163272381Y-70472619D02*
X163224761Y-70520238D01*
X188627500Y-72515239D02*
X189341785Y-72515239D01*
X189341785Y-72515239D02*
X189484642Y-72562858D01*
X189484642Y-72562858D02*
X189579881Y-72658096D01*
X189579881Y-72658096D02*
X189627500Y-72800953D01*
X189627500Y-72800953D02*
X189627500Y-72896191D01*
X189627500Y-71515239D02*
X189627500Y-72086667D01*
X189627500Y-71800953D02*
X188627500Y-71800953D01*
X188627500Y-71800953D02*
X188770357Y-71896191D01*
X188770357Y-71896191D02*
X188865595Y-71991429D01*
X188865595Y-71991429D02*
X188913214Y-72086667D01*
D14*
%TO.C,D2*%
X142309181Y-103506906D02*
X142465181Y-103506906D01*
X144625181Y-103506906D02*
X144781181Y-103506906D01*
X142309665Y-103506906D02*
G75*
G02*
X142465181Y-100275469I1235516J1560000D01*
G01*
X142465181Y-102987867D02*
G75*
G02*
X142465181Y-100905945I1080000J1040961D01*
G01*
X144625181Y-100275469D02*
G75*
G02*
X144780697Y-103506906I-1080000J-1671437D01*
G01*
X144625181Y-100905945D02*
G75*
G02*
X144625181Y-102987867I-1080000J-1040961D01*
G01*
%TO.C,R1*%
X123795181Y-59176906D02*
X123795181Y-60316906D01*
X123795181Y-81696906D02*
X123795181Y-80556906D01*
X127115181Y-60316906D02*
X120475181Y-60316906D01*
X120475181Y-80556906D01*
X127115181Y-80556906D01*
X127115181Y-60316906D01*
%TO.C,R2*%
X143545181Y-58926906D02*
X143545181Y-60066906D01*
X143545181Y-81446906D02*
X143545181Y-80306906D01*
X146865181Y-60066906D02*
X140225181Y-60066906D01*
X140225181Y-80306906D01*
X146865181Y-80306906D01*
X146865181Y-60066906D01*
%TO.C,RV1*%
X102777681Y-106531906D02*
G75*
G02*
X94917681Y-106531906I-3930000J0D01*
G01*
X94917681Y-106531906D02*
G75*
G02*
X102777681Y-106531906I3930000J0D01*
G01*
%TO.C,D1*%
X157309181Y-102776906D02*
X157465181Y-102776906D01*
X159625181Y-102776906D02*
X159781181Y-102776906D01*
X157309665Y-102776906D02*
G75*
G02*
X157465181Y-99545469I1235516J1560000D01*
G01*
X157465181Y-102257867D02*
G75*
G02*
X157465181Y-100175945I1080000J1040961D01*
G01*
X159625181Y-99545469D02*
G75*
G02*
X159780697Y-102776906I-1080000J-1671437D01*
G01*
X159625181Y-100175945D02*
G75*
G02*
X159625181Y-102257867I-1080000J-1040961D01*
G01*
%TO.C,C1*%
X50835181Y-63686906D02*
X52425181Y-63686906D01*
X76255181Y-63686906D02*
X74665181Y-63686906D01*
X74665181Y-69056906D02*
X52425181Y-69056906D01*
X52425181Y-58316906D01*
X74665181Y-58316906D01*
X74665181Y-69056906D01*
%TO.C,C2*%
X112557681Y-116491906D02*
X114147681Y-116491906D01*
X137977681Y-116491906D02*
X136387681Y-116491906D01*
X136387681Y-121861906D02*
X114147681Y-121861906D01*
X114147681Y-111121906D01*
X136387681Y-111121906D01*
X136387681Y-121861906D01*
%TO.C,J2*%
X31667681Y-78191906D02*
X31667681Y-78791906D01*
X31667681Y-78791906D02*
X32267681Y-78491906D01*
X32157681Y-75881906D02*
X40577681Y-75881906D01*
X32157681Y-77101906D02*
X32157681Y-75881906D01*
X32157681Y-82381906D02*
X34357681Y-82381906D01*
X32157681Y-83601906D02*
X32157681Y-82381906D01*
X32267681Y-78491906D02*
X31667681Y-78191906D01*
X34357681Y-77101906D02*
X32157681Y-77101906D01*
X34357681Y-77101906D02*
X34357681Y-75881906D01*
X34357681Y-79661906D02*
X34357681Y-79821906D01*
X34357681Y-82381906D02*
X34357681Y-83601906D01*
X35357681Y-77101906D02*
X35357681Y-82381906D01*
X35357681Y-78171906D02*
X38777681Y-78171906D01*
X35357681Y-78491906D02*
X35357681Y-78171906D01*
X35357681Y-78811906D02*
X35357681Y-78491906D01*
X35357681Y-80671906D02*
X38777681Y-80671906D01*
X35357681Y-80991906D02*
X35357681Y-80671906D01*
X35357681Y-81311906D02*
X35357681Y-80991906D01*
X38777681Y-78171906D02*
X38857681Y-78491906D01*
X38777681Y-78811906D02*
X35357681Y-78811906D01*
X38777681Y-80671906D02*
X38857681Y-80991906D01*
X38777681Y-81311906D02*
X35357681Y-81311906D01*
X38857681Y-78491906D02*
X38777681Y-78811906D01*
X38857681Y-80991906D02*
X38777681Y-81311906D01*
X39357681Y-75881906D02*
X39357681Y-77101906D01*
X39357681Y-77101906D02*
X34357681Y-77101906D01*
X39357681Y-82381906D02*
X34357681Y-82381906D01*
X39357681Y-83601906D02*
X39357681Y-82381906D01*
X40577681Y-75881906D02*
X40577681Y-83601906D01*
X40577681Y-83601906D02*
X32157681Y-83601906D01*
%TO.C,U1*%
X95617681Y-70351906D02*
X95617681Y-80631906D01*
X95617681Y-80631906D02*
X100917681Y-80631906D01*
X97267681Y-70351906D02*
X95617681Y-70351906D01*
X100917681Y-70351906D02*
X99267681Y-70351906D01*
X100917681Y-80631906D02*
X100917681Y-70351906D01*
X93127681Y-70291906D02*
X103407681Y-70291906D01*
X103407681Y-80691906D01*
X93127681Y-80691906D01*
X93127681Y-70291906D01*
X99267681Y-70351906D02*
G75*
G02*
X97267681Y-70351906I-1000000J0D01*
G01*
%TO.C,R3*%
X158545181Y-59426906D02*
X158545181Y-60566906D01*
X158545181Y-81946906D02*
X158545181Y-80806906D01*
X161865181Y-60566906D02*
X155225181Y-60566906D01*
X155225181Y-80806906D01*
X161865181Y-80806906D01*
X161865181Y-60566906D01*
%TO.C,J1*%
X181732681Y-66751906D02*
X181732681Y-68071906D01*
X181732681Y-68671906D02*
X181732681Y-77611906D01*
X182352681Y-66751906D02*
X182352681Y-77611906D01*
X187652681Y-66751906D02*
X187652681Y-77611906D01*
X188172681Y-66751906D02*
X181732681Y-66751906D01*
X188172681Y-66751906D02*
X188172681Y-77611906D01*
X188172681Y-77611906D02*
X181732681Y-77611906D01*
X181732681Y-68371906D02*
X181122681Y-68811906D01*
X181122681Y-67931906D01*
X181732681Y-68371906D01*
G36*
X181732681Y-68371906D02*
G01*
X181122681Y-68811906D01*
X181122681Y-67931906D01*
X181732681Y-68371906D01*
G37*
%TD*%
M02*
