%TF.GenerationSoftware,KiCad,Pcbnew,9.0.2*%
%TF.CreationDate,2026-07-28T07:45:47+07:00*%
%TF.ProjectId,latihankicad,6c617469-6861-46e6-9b69-6361642e6b69,rev?*%
%TF.SameCoordinates,Original*%
%TF.FileFunction,Copper,L2,Bot*%
%TF.FilePolarity,Positive*%
%FSLAX46Y46*%
G04 Gerber Fmt 4.6, Leading zero omitted, Abs format (unit mm)*
G04 Created by KiCad (PCBNEW 9.0.2) date 2026-07-28 07:45:47*
%MOMM*%
%LPD*%
G01*
G04 APERTURE LIST*
G04 Aperture macros list*
%AMRoundRect*
0 Rectangle with rounded corners*
0 $1 Rounding radius*
0 $2 $3 $4 $5 $6 $7 $8 $9 X,Y pos of 4 corners*
0 Add a 4 corners polygon primitive as box body*
4,1,4,$2,$3,$4,$5,$6,$7,$8,$9,$2,$3,0*
0 Add four circle primitives for the rounded corners*
1,1,$1+$1,$2,$3*
1,1,$1+$1,$4,$5*
1,1,$1+$1,$6,$7*
1,1,$1+$1,$8,$9*
0 Add four rect primitives between the rounded corners*
20,1,$1+$1,$2,$3,$4,$5,0*
20,1,$1+$1,$4,$5,$6,$7,0*
20,1,$1+$1,$6,$7,$8,$9,0*
20,1,$1+$1,$8,$9,$2,$3,0*%
G04 Aperture macros list end*
%ADD10C,0.100000*%
%ADD11C,0.150000*%
%ADD12C,0.300000*%
%ADD13C,0.400000*%
%TA.AperFunction,ComponentPad*%
%ADD14R,1.800000X1.800000*%
%TD*%
%TA.AperFunction,ComponentPad*%
%ADD15C,1.800000*%
%TD*%
%TA.AperFunction,ComponentPad*%
%ADD16C,2.400000*%
%TD*%
%TA.AperFunction,ComponentPad*%
%ADD17C,1.750000*%
%TD*%
%TA.AperFunction,ComponentPad*%
%ADD18C,1.600000*%
%TD*%
%TA.AperFunction,ComponentPad*%
%ADD19RoundRect,0.250000X-0.750000X0.600000X-0.750000X-0.600000X0.750000X-0.600000X0.750000X0.600000X0*%
%TD*%
%TA.AperFunction,ComponentPad*%
%ADD20O,2.000000X1.700000*%
%TD*%
%TA.AperFunction,ComponentPad*%
%ADD21RoundRect,0.250000X-0.550000X-0.550000X0.550000X-0.550000X0.550000X0.550000X-0.550000X0.550000X0*%
%TD*%
%TA.AperFunction,ComponentPad*%
%ADD22RoundRect,0.249999X-0.850001X0.850001X-0.850001X-0.850001X0.850001X-0.850001X0.850001X0.850001X0*%
%TD*%
%TA.AperFunction,ComponentPad*%
%ADD23C,2.200000*%
%TD*%
%TA.AperFunction,Conductor*%
%ADD24C,0.700000*%
%TD*%
G04 APERTURE END LIST*
D10*
D11*
X177002200Y-166007200D02*
X285002200Y-166007200D01*
X285002200Y-198007200D01*
X177002200Y-198007200D01*
X177002200Y-166007200D01*
D10*
D11*
X10000000Y-10000000D02*
X287002200Y-10000000D01*
X287002200Y-200007200D01*
X10000000Y-200007200D01*
X10000000Y-10000000D01*
D10*
D11*
X12000000Y-12000000D02*
X285002200Y-12000000D01*
X285002200Y-198007200D01*
X12000000Y-198007200D01*
X12000000Y-12000000D01*
D10*
D11*
X60000000Y-12000000D02*
X60000000Y-10000000D01*
D10*
D11*
X110000000Y-12000000D02*
X110000000Y-10000000D01*
D10*
D11*
X160000000Y-12000000D02*
X160000000Y-10000000D01*
D10*
D11*
X210000000Y-12000000D02*
X210000000Y-10000000D01*
D10*
D11*
X260000000Y-12000000D02*
X260000000Y-10000000D01*
D10*
D11*
X36089160Y-11593604D02*
X35346303Y-11593604D01*
X35717731Y-11593604D02*
X35717731Y-10293604D01*
X35717731Y-10293604D02*
X35593922Y-10479319D01*
X35593922Y-10479319D02*
X35470112Y-10603128D01*
X35470112Y-10603128D02*
X35346303Y-10665033D01*
D10*
D11*
X85346303Y-10417414D02*
X85408207Y-10355509D01*
X85408207Y-10355509D02*
X85532017Y-10293604D01*
X85532017Y-10293604D02*
X85841541Y-10293604D01*
X85841541Y-10293604D02*
X85965350Y-10355509D01*
X85965350Y-10355509D02*
X86027255Y-10417414D01*
X86027255Y-10417414D02*
X86089160Y-10541223D01*
X86089160Y-10541223D02*
X86089160Y-10665033D01*
X86089160Y-10665033D02*
X86027255Y-10850747D01*
X86027255Y-10850747D02*
X85284398Y-11593604D01*
X85284398Y-11593604D02*
X86089160Y-11593604D01*
D10*
D11*
X135284398Y-10293604D02*
X136089160Y-10293604D01*
X136089160Y-10293604D02*
X135655826Y-10788842D01*
X135655826Y-10788842D02*
X135841541Y-10788842D01*
X135841541Y-10788842D02*
X135965350Y-10850747D01*
X135965350Y-10850747D02*
X136027255Y-10912652D01*
X136027255Y-10912652D02*
X136089160Y-11036461D01*
X136089160Y-11036461D02*
X136089160Y-11345985D01*
X136089160Y-11345985D02*
X136027255Y-11469795D01*
X136027255Y-11469795D02*
X135965350Y-11531700D01*
X135965350Y-11531700D02*
X135841541Y-11593604D01*
X135841541Y-11593604D02*
X135470112Y-11593604D01*
X135470112Y-11593604D02*
X135346303Y-11531700D01*
X135346303Y-11531700D02*
X135284398Y-11469795D01*
D10*
D11*
X185965350Y-10726938D02*
X185965350Y-11593604D01*
X185655826Y-10231700D02*
X185346303Y-11160271D01*
X185346303Y-11160271D02*
X186151064Y-11160271D01*
D10*
D11*
X236027255Y-10293604D02*
X235408207Y-10293604D01*
X235408207Y-10293604D02*
X235346303Y-10912652D01*
X235346303Y-10912652D02*
X235408207Y-10850747D01*
X235408207Y-10850747D02*
X235532017Y-10788842D01*
X235532017Y-10788842D02*
X235841541Y-10788842D01*
X235841541Y-10788842D02*
X235965350Y-10850747D01*
X235965350Y-10850747D02*
X236027255Y-10912652D01*
X236027255Y-10912652D02*
X236089160Y-11036461D01*
X236089160Y-11036461D02*
X236089160Y-11345985D01*
X236089160Y-11345985D02*
X236027255Y-11469795D01*
X236027255Y-11469795D02*
X235965350Y-11531700D01*
X235965350Y-11531700D02*
X235841541Y-11593604D01*
X235841541Y-11593604D02*
X235532017Y-11593604D01*
X235532017Y-11593604D02*
X235408207Y-11531700D01*
X235408207Y-11531700D02*
X235346303Y-11469795D01*
D10*
D11*
X285965350Y-10293604D02*
X285717731Y-10293604D01*
X285717731Y-10293604D02*
X285593922Y-10355509D01*
X285593922Y-10355509D02*
X285532017Y-10417414D01*
X285532017Y-10417414D02*
X285408207Y-10603128D01*
X285408207Y-10603128D02*
X285346303Y-10850747D01*
X285346303Y-10850747D02*
X285346303Y-11345985D01*
X285346303Y-11345985D02*
X285408207Y-11469795D01*
X285408207Y-11469795D02*
X285470112Y-11531700D01*
X285470112Y-11531700D02*
X285593922Y-11593604D01*
X285593922Y-11593604D02*
X285841541Y-11593604D01*
X285841541Y-11593604D02*
X285965350Y-11531700D01*
X285965350Y-11531700D02*
X286027255Y-11469795D01*
X286027255Y-11469795D02*
X286089160Y-11345985D01*
X286089160Y-11345985D02*
X286089160Y-11036461D01*
X286089160Y-11036461D02*
X286027255Y-10912652D01*
X286027255Y-10912652D02*
X285965350Y-10850747D01*
X285965350Y-10850747D02*
X285841541Y-10788842D01*
X285841541Y-10788842D02*
X285593922Y-10788842D01*
X285593922Y-10788842D02*
X285470112Y-10850747D01*
X285470112Y-10850747D02*
X285408207Y-10912652D01*
X285408207Y-10912652D02*
X285346303Y-11036461D01*
D10*
D11*
X60000000Y-198007200D02*
X60000000Y-200007200D01*
D10*
D11*
X110000000Y-198007200D02*
X110000000Y-200007200D01*
D10*
D11*
X160000000Y-198007200D02*
X160000000Y-200007200D01*
D10*
D11*
X210000000Y-198007200D02*
X210000000Y-200007200D01*
D10*
D11*
X260000000Y-198007200D02*
X260000000Y-200007200D01*
D10*
D11*
X36089160Y-199600804D02*
X35346303Y-199600804D01*
X35717731Y-199600804D02*
X35717731Y-198300804D01*
X35717731Y-198300804D02*
X35593922Y-198486519D01*
X35593922Y-198486519D02*
X35470112Y-198610328D01*
X35470112Y-198610328D02*
X35346303Y-198672233D01*
D10*
D11*
X85346303Y-198424614D02*
X85408207Y-198362709D01*
X85408207Y-198362709D02*
X85532017Y-198300804D01*
X85532017Y-198300804D02*
X85841541Y-198300804D01*
X85841541Y-198300804D02*
X85965350Y-198362709D01*
X85965350Y-198362709D02*
X86027255Y-198424614D01*
X86027255Y-198424614D02*
X86089160Y-198548423D01*
X86089160Y-198548423D02*
X86089160Y-198672233D01*
X86089160Y-198672233D02*
X86027255Y-198857947D01*
X86027255Y-198857947D02*
X85284398Y-199600804D01*
X85284398Y-199600804D02*
X86089160Y-199600804D01*
D10*
D11*
X135284398Y-198300804D02*
X136089160Y-198300804D01*
X136089160Y-198300804D02*
X135655826Y-198796042D01*
X135655826Y-198796042D02*
X135841541Y-198796042D01*
X135841541Y-198796042D02*
X135965350Y-198857947D01*
X135965350Y-198857947D02*
X136027255Y-198919852D01*
X136027255Y-198919852D02*
X136089160Y-199043661D01*
X136089160Y-199043661D02*
X136089160Y-199353185D01*
X136089160Y-199353185D02*
X136027255Y-199476995D01*
X136027255Y-199476995D02*
X135965350Y-199538900D01*
X135965350Y-199538900D02*
X135841541Y-199600804D01*
X135841541Y-199600804D02*
X135470112Y-199600804D01*
X135470112Y-199600804D02*
X135346303Y-199538900D01*
X135346303Y-199538900D02*
X135284398Y-199476995D01*
D10*
D11*
X185965350Y-198734138D02*
X185965350Y-199600804D01*
X185655826Y-198238900D02*
X185346303Y-199167471D01*
X185346303Y-199167471D02*
X186151064Y-199167471D01*
D10*
D11*
X236027255Y-198300804D02*
X235408207Y-198300804D01*
X235408207Y-198300804D02*
X235346303Y-198919852D01*
X235346303Y-198919852D02*
X235408207Y-198857947D01*
X235408207Y-198857947D02*
X235532017Y-198796042D01*
X235532017Y-198796042D02*
X235841541Y-198796042D01*
X235841541Y-198796042D02*
X235965350Y-198857947D01*
X235965350Y-198857947D02*
X236027255Y-198919852D01*
X236027255Y-198919852D02*
X236089160Y-199043661D01*
X236089160Y-199043661D02*
X236089160Y-199353185D01*
X236089160Y-199353185D02*
X236027255Y-199476995D01*
X236027255Y-199476995D02*
X235965350Y-199538900D01*
X235965350Y-199538900D02*
X235841541Y-199600804D01*
X235841541Y-199600804D02*
X235532017Y-199600804D01*
X235532017Y-199600804D02*
X235408207Y-199538900D01*
X235408207Y-199538900D02*
X235346303Y-199476995D01*
D10*
D11*
X285965350Y-198300804D02*
X285717731Y-198300804D01*
X285717731Y-198300804D02*
X285593922Y-198362709D01*
X285593922Y-198362709D02*
X285532017Y-198424614D01*
X285532017Y-198424614D02*
X285408207Y-198610328D01*
X285408207Y-198610328D02*
X285346303Y-198857947D01*
X285346303Y-198857947D02*
X285346303Y-199353185D01*
X285346303Y-199353185D02*
X285408207Y-199476995D01*
X285408207Y-199476995D02*
X285470112Y-199538900D01*
X285470112Y-199538900D02*
X285593922Y-199600804D01*
X285593922Y-199600804D02*
X285841541Y-199600804D01*
X285841541Y-199600804D02*
X285965350Y-199538900D01*
X285965350Y-199538900D02*
X286027255Y-199476995D01*
X286027255Y-199476995D02*
X286089160Y-199353185D01*
X286089160Y-199353185D02*
X286089160Y-199043661D01*
X286089160Y-199043661D02*
X286027255Y-198919852D01*
X286027255Y-198919852D02*
X285965350Y-198857947D01*
X285965350Y-198857947D02*
X285841541Y-198796042D01*
X285841541Y-198796042D02*
X285593922Y-198796042D01*
X285593922Y-198796042D02*
X285470112Y-198857947D01*
X285470112Y-198857947D02*
X285408207Y-198919852D01*
X285408207Y-198919852D02*
X285346303Y-199043661D01*
D10*
D11*
X10000000Y-60000000D02*
X12000000Y-60000000D01*
D10*
D11*
X10000000Y-110000000D02*
X12000000Y-110000000D01*
D10*
D11*
X10000000Y-160000000D02*
X12000000Y-160000000D01*
D10*
D11*
X10690476Y-35222176D02*
X11309523Y-35222176D01*
X10566666Y-35593604D02*
X10999999Y-34293604D01*
X10999999Y-34293604D02*
X11433333Y-35593604D01*
D10*
D11*
X11092857Y-84912652D02*
X11278571Y-84974557D01*
X11278571Y-84974557D02*
X11340476Y-85036461D01*
X11340476Y-85036461D02*
X11402380Y-85160271D01*
X11402380Y-85160271D02*
X11402380Y-85345985D01*
X11402380Y-85345985D02*
X11340476Y-85469795D01*
X11340476Y-85469795D02*
X11278571Y-85531700D01*
X11278571Y-85531700D02*
X11154761Y-85593604D01*
X11154761Y-85593604D02*
X10659523Y-85593604D01*
X10659523Y-85593604D02*
X10659523Y-84293604D01*
X10659523Y-84293604D02*
X11092857Y-84293604D01*
X11092857Y-84293604D02*
X11216666Y-84355509D01*
X11216666Y-84355509D02*
X11278571Y-84417414D01*
X11278571Y-84417414D02*
X11340476Y-84541223D01*
X11340476Y-84541223D02*
X11340476Y-84665033D01*
X11340476Y-84665033D02*
X11278571Y-84788842D01*
X11278571Y-84788842D02*
X11216666Y-84850747D01*
X11216666Y-84850747D02*
X11092857Y-84912652D01*
X11092857Y-84912652D02*
X10659523Y-84912652D01*
D10*
D11*
X11402380Y-135469795D02*
X11340476Y-135531700D01*
X11340476Y-135531700D02*
X11154761Y-135593604D01*
X11154761Y-135593604D02*
X11030952Y-135593604D01*
X11030952Y-135593604D02*
X10845238Y-135531700D01*
X10845238Y-135531700D02*
X10721428Y-135407890D01*
X10721428Y-135407890D02*
X10659523Y-135284080D01*
X10659523Y-135284080D02*
X10597619Y-135036461D01*
X10597619Y-135036461D02*
X10597619Y-134850747D01*
X10597619Y-134850747D02*
X10659523Y-134603128D01*
X10659523Y-134603128D02*
X10721428Y-134479319D01*
X10721428Y-134479319D02*
X10845238Y-134355509D01*
X10845238Y-134355509D02*
X11030952Y-134293604D01*
X11030952Y-134293604D02*
X11154761Y-134293604D01*
X11154761Y-134293604D02*
X11340476Y-134355509D01*
X11340476Y-134355509D02*
X11402380Y-134417414D01*
D10*
D11*
X10659523Y-185593604D02*
X10659523Y-184293604D01*
X10659523Y-184293604D02*
X10969047Y-184293604D01*
X10969047Y-184293604D02*
X11154761Y-184355509D01*
X11154761Y-184355509D02*
X11278571Y-184479319D01*
X11278571Y-184479319D02*
X11340476Y-184603128D01*
X11340476Y-184603128D02*
X11402380Y-184850747D01*
X11402380Y-184850747D02*
X11402380Y-185036461D01*
X11402380Y-185036461D02*
X11340476Y-185284080D01*
X11340476Y-185284080D02*
X11278571Y-185407890D01*
X11278571Y-185407890D02*
X11154761Y-185531700D01*
X11154761Y-185531700D02*
X10969047Y-185593604D01*
X10969047Y-185593604D02*
X10659523Y-185593604D01*
D10*
D11*
X287002200Y-60000000D02*
X285002200Y-60000000D01*
D10*
D11*
X287002200Y-110000000D02*
X285002200Y-110000000D01*
D10*
D11*
X287002200Y-160000000D02*
X285002200Y-160000000D01*
D10*
D11*
X285692676Y-35222176D02*
X286311723Y-35222176D01*
X285568866Y-35593604D02*
X286002199Y-34293604D01*
X286002199Y-34293604D02*
X286435533Y-35593604D01*
D10*
D11*
X286095057Y-84912652D02*
X286280771Y-84974557D01*
X286280771Y-84974557D02*
X286342676Y-85036461D01*
X286342676Y-85036461D02*
X286404580Y-85160271D01*
X286404580Y-85160271D02*
X286404580Y-85345985D01*
X286404580Y-85345985D02*
X286342676Y-85469795D01*
X286342676Y-85469795D02*
X286280771Y-85531700D01*
X286280771Y-85531700D02*
X286156961Y-85593604D01*
X286156961Y-85593604D02*
X285661723Y-85593604D01*
X285661723Y-85593604D02*
X285661723Y-84293604D01*
X285661723Y-84293604D02*
X286095057Y-84293604D01*
X286095057Y-84293604D02*
X286218866Y-84355509D01*
X286218866Y-84355509D02*
X286280771Y-84417414D01*
X286280771Y-84417414D02*
X286342676Y-84541223D01*
X286342676Y-84541223D02*
X286342676Y-84665033D01*
X286342676Y-84665033D02*
X286280771Y-84788842D01*
X286280771Y-84788842D02*
X286218866Y-84850747D01*
X286218866Y-84850747D02*
X286095057Y-84912652D01*
X286095057Y-84912652D02*
X285661723Y-84912652D01*
D10*
D11*
X286404580Y-135469795D02*
X286342676Y-135531700D01*
X286342676Y-135531700D02*
X286156961Y-135593604D01*
X286156961Y-135593604D02*
X286033152Y-135593604D01*
X286033152Y-135593604D02*
X285847438Y-135531700D01*
X285847438Y-135531700D02*
X285723628Y-135407890D01*
X285723628Y-135407890D02*
X285661723Y-135284080D01*
X285661723Y-135284080D02*
X285599819Y-135036461D01*
X285599819Y-135036461D02*
X285599819Y-134850747D01*
X285599819Y-134850747D02*
X285661723Y-134603128D01*
X285661723Y-134603128D02*
X285723628Y-134479319D01*
X285723628Y-134479319D02*
X285847438Y-134355509D01*
X285847438Y-134355509D02*
X286033152Y-134293604D01*
X286033152Y-134293604D02*
X286156961Y-134293604D01*
X286156961Y-134293604D02*
X286342676Y-134355509D01*
X286342676Y-134355509D02*
X286404580Y-134417414D01*
D10*
D11*
X285661723Y-185593604D02*
X285661723Y-184293604D01*
X285661723Y-184293604D02*
X285971247Y-184293604D01*
X285971247Y-184293604D02*
X286156961Y-184355509D01*
X286156961Y-184355509D02*
X286280771Y-184479319D01*
X286280771Y-184479319D02*
X286342676Y-184603128D01*
X286342676Y-184603128D02*
X286404580Y-184850747D01*
X286404580Y-184850747D02*
X286404580Y-185036461D01*
X286404580Y-185036461D02*
X286342676Y-185284080D01*
X286342676Y-185284080D02*
X286280771Y-185407890D01*
X286280771Y-185407890D02*
X286156961Y-185531700D01*
X286156961Y-185531700D02*
X285971247Y-185593604D01*
X285971247Y-185593604D02*
X285661723Y-185593604D01*
D10*
D11*
X200458026Y-193793328D02*
X200458026Y-192293328D01*
X200458026Y-192293328D02*
X200815169Y-192293328D01*
X200815169Y-192293328D02*
X201029455Y-192364757D01*
X201029455Y-192364757D02*
X201172312Y-192507614D01*
X201172312Y-192507614D02*
X201243741Y-192650471D01*
X201243741Y-192650471D02*
X201315169Y-192936185D01*
X201315169Y-192936185D02*
X201315169Y-193150471D01*
X201315169Y-193150471D02*
X201243741Y-193436185D01*
X201243741Y-193436185D02*
X201172312Y-193579042D01*
X201172312Y-193579042D02*
X201029455Y-193721900D01*
X201029455Y-193721900D02*
X200815169Y-193793328D01*
X200815169Y-193793328D02*
X200458026Y-193793328D01*
X202600884Y-193793328D02*
X202600884Y-193007614D01*
X202600884Y-193007614D02*
X202529455Y-192864757D01*
X202529455Y-192864757D02*
X202386598Y-192793328D01*
X202386598Y-192793328D02*
X202100884Y-192793328D01*
X202100884Y-192793328D02*
X201958026Y-192864757D01*
X202600884Y-193721900D02*
X202458026Y-193793328D01*
X202458026Y-193793328D02*
X202100884Y-193793328D01*
X202100884Y-193793328D02*
X201958026Y-193721900D01*
X201958026Y-193721900D02*
X201886598Y-193579042D01*
X201886598Y-193579042D02*
X201886598Y-193436185D01*
X201886598Y-193436185D02*
X201958026Y-193293328D01*
X201958026Y-193293328D02*
X202100884Y-193221900D01*
X202100884Y-193221900D02*
X202458026Y-193221900D01*
X202458026Y-193221900D02*
X202600884Y-193150471D01*
X203100884Y-192793328D02*
X203672312Y-192793328D01*
X203315169Y-192293328D02*
X203315169Y-193579042D01*
X203315169Y-193579042D02*
X203386598Y-193721900D01*
X203386598Y-193721900D02*
X203529455Y-193793328D01*
X203529455Y-193793328D02*
X203672312Y-193793328D01*
X204743741Y-193721900D02*
X204600884Y-193793328D01*
X204600884Y-193793328D02*
X204315170Y-193793328D01*
X204315170Y-193793328D02*
X204172312Y-193721900D01*
X204172312Y-193721900D02*
X204100884Y-193579042D01*
X204100884Y-193579042D02*
X204100884Y-193007614D01*
X204100884Y-193007614D02*
X204172312Y-192864757D01*
X204172312Y-192864757D02*
X204315170Y-192793328D01*
X204315170Y-192793328D02*
X204600884Y-192793328D01*
X204600884Y-192793328D02*
X204743741Y-192864757D01*
X204743741Y-192864757D02*
X204815170Y-193007614D01*
X204815170Y-193007614D02*
X204815170Y-193150471D01*
X204815170Y-193150471D02*
X204100884Y-193293328D01*
X205458026Y-193650471D02*
X205529455Y-193721900D01*
X205529455Y-193721900D02*
X205458026Y-193793328D01*
X205458026Y-193793328D02*
X205386598Y-193721900D01*
X205386598Y-193721900D02*
X205458026Y-193650471D01*
X205458026Y-193650471D02*
X205458026Y-193793328D01*
X205458026Y-192864757D02*
X205529455Y-192936185D01*
X205529455Y-192936185D02*
X205458026Y-193007614D01*
X205458026Y-193007614D02*
X205386598Y-192936185D01*
X205386598Y-192936185D02*
X205458026Y-192864757D01*
X205458026Y-192864757D02*
X205458026Y-193007614D01*
D10*
D11*
X177002200Y-194507200D02*
X285002200Y-194507200D01*
D10*
D11*
X178458026Y-196593328D02*
X178458026Y-195093328D01*
X179315169Y-196593328D02*
X178672312Y-195736185D01*
X179315169Y-195093328D02*
X178458026Y-195950471D01*
X179958026Y-196593328D02*
X179958026Y-195593328D01*
X179958026Y-195093328D02*
X179886598Y-195164757D01*
X179886598Y-195164757D02*
X179958026Y-195236185D01*
X179958026Y-195236185D02*
X180029455Y-195164757D01*
X180029455Y-195164757D02*
X179958026Y-195093328D01*
X179958026Y-195093328D02*
X179958026Y-195236185D01*
X181529455Y-196450471D02*
X181458027Y-196521900D01*
X181458027Y-196521900D02*
X181243741Y-196593328D01*
X181243741Y-196593328D02*
X181100884Y-196593328D01*
X181100884Y-196593328D02*
X180886598Y-196521900D01*
X180886598Y-196521900D02*
X180743741Y-196379042D01*
X180743741Y-196379042D02*
X180672312Y-196236185D01*
X180672312Y-196236185D02*
X180600884Y-195950471D01*
X180600884Y-195950471D02*
X180600884Y-195736185D01*
X180600884Y-195736185D02*
X180672312Y-195450471D01*
X180672312Y-195450471D02*
X180743741Y-195307614D01*
X180743741Y-195307614D02*
X180886598Y-195164757D01*
X180886598Y-195164757D02*
X181100884Y-195093328D01*
X181100884Y-195093328D02*
X181243741Y-195093328D01*
X181243741Y-195093328D02*
X181458027Y-195164757D01*
X181458027Y-195164757D02*
X181529455Y-195236185D01*
X182815170Y-196593328D02*
X182815170Y-195807614D01*
X182815170Y-195807614D02*
X182743741Y-195664757D01*
X182743741Y-195664757D02*
X182600884Y-195593328D01*
X182600884Y-195593328D02*
X182315170Y-195593328D01*
X182315170Y-195593328D02*
X182172312Y-195664757D01*
X182815170Y-196521900D02*
X182672312Y-196593328D01*
X182672312Y-196593328D02*
X182315170Y-196593328D01*
X182315170Y-196593328D02*
X182172312Y-196521900D01*
X182172312Y-196521900D02*
X182100884Y-196379042D01*
X182100884Y-196379042D02*
X182100884Y-196236185D01*
X182100884Y-196236185D02*
X182172312Y-196093328D01*
X182172312Y-196093328D02*
X182315170Y-196021900D01*
X182315170Y-196021900D02*
X182672312Y-196021900D01*
X182672312Y-196021900D02*
X182815170Y-195950471D01*
X184172313Y-196593328D02*
X184172313Y-195093328D01*
X184172313Y-196521900D02*
X184029455Y-196593328D01*
X184029455Y-196593328D02*
X183743741Y-196593328D01*
X183743741Y-196593328D02*
X183600884Y-196521900D01*
X183600884Y-196521900D02*
X183529455Y-196450471D01*
X183529455Y-196450471D02*
X183458027Y-196307614D01*
X183458027Y-196307614D02*
X183458027Y-195879042D01*
X183458027Y-195879042D02*
X183529455Y-195736185D01*
X183529455Y-195736185D02*
X183600884Y-195664757D01*
X183600884Y-195664757D02*
X183743741Y-195593328D01*
X183743741Y-195593328D02*
X184029455Y-195593328D01*
X184029455Y-195593328D02*
X184172313Y-195664757D01*
X186029455Y-195807614D02*
X186529455Y-195807614D01*
X186743741Y-196593328D02*
X186029455Y-196593328D01*
X186029455Y-196593328D02*
X186029455Y-195093328D01*
X186029455Y-195093328D02*
X186743741Y-195093328D01*
X187386598Y-196450471D02*
X187458027Y-196521900D01*
X187458027Y-196521900D02*
X187386598Y-196593328D01*
X187386598Y-196593328D02*
X187315170Y-196521900D01*
X187315170Y-196521900D02*
X187386598Y-196450471D01*
X187386598Y-196450471D02*
X187386598Y-196593328D01*
X188100884Y-196593328D02*
X188100884Y-195093328D01*
X188100884Y-195093328D02*
X188458027Y-195093328D01*
X188458027Y-195093328D02*
X188672313Y-195164757D01*
X188672313Y-195164757D02*
X188815170Y-195307614D01*
X188815170Y-195307614D02*
X188886599Y-195450471D01*
X188886599Y-195450471D02*
X188958027Y-195736185D01*
X188958027Y-195736185D02*
X188958027Y-195950471D01*
X188958027Y-195950471D02*
X188886599Y-196236185D01*
X188886599Y-196236185D02*
X188815170Y-196379042D01*
X188815170Y-196379042D02*
X188672313Y-196521900D01*
X188672313Y-196521900D02*
X188458027Y-196593328D01*
X188458027Y-196593328D02*
X188100884Y-196593328D01*
X189600884Y-196450471D02*
X189672313Y-196521900D01*
X189672313Y-196521900D02*
X189600884Y-196593328D01*
X189600884Y-196593328D02*
X189529456Y-196521900D01*
X189529456Y-196521900D02*
X189600884Y-196450471D01*
X189600884Y-196450471D02*
X189600884Y-196593328D01*
X190243742Y-196164757D02*
X190958028Y-196164757D01*
X190100885Y-196593328D02*
X190600885Y-195093328D01*
X190600885Y-195093328D02*
X191100885Y-196593328D01*
X191600884Y-196450471D02*
X191672313Y-196521900D01*
X191672313Y-196521900D02*
X191600884Y-196593328D01*
X191600884Y-196593328D02*
X191529456Y-196521900D01*
X191529456Y-196521900D02*
X191600884Y-196450471D01*
X191600884Y-196450471D02*
X191600884Y-196593328D01*
X193529456Y-196593328D02*
X193815170Y-196593328D01*
X193815170Y-196593328D02*
X193958027Y-196521900D01*
X193958027Y-196521900D02*
X194029456Y-196450471D01*
X194029456Y-196450471D02*
X194172313Y-196236185D01*
X194172313Y-196236185D02*
X194243742Y-195950471D01*
X194243742Y-195950471D02*
X194243742Y-195379042D01*
X194243742Y-195379042D02*
X194172313Y-195236185D01*
X194172313Y-195236185D02*
X194100885Y-195164757D01*
X194100885Y-195164757D02*
X193958027Y-195093328D01*
X193958027Y-195093328D02*
X193672313Y-195093328D01*
X193672313Y-195093328D02*
X193529456Y-195164757D01*
X193529456Y-195164757D02*
X193458027Y-195236185D01*
X193458027Y-195236185D02*
X193386599Y-195379042D01*
X193386599Y-195379042D02*
X193386599Y-195736185D01*
X193386599Y-195736185D02*
X193458027Y-195879042D01*
X193458027Y-195879042D02*
X193529456Y-195950471D01*
X193529456Y-195950471D02*
X193672313Y-196021900D01*
X193672313Y-196021900D02*
X193958027Y-196021900D01*
X193958027Y-196021900D02*
X194100885Y-195950471D01*
X194100885Y-195950471D02*
X194172313Y-195879042D01*
X194172313Y-195879042D02*
X194243742Y-195736185D01*
X194886598Y-196450471D02*
X194958027Y-196521900D01*
X194958027Y-196521900D02*
X194886598Y-196593328D01*
X194886598Y-196593328D02*
X194815170Y-196521900D01*
X194815170Y-196521900D02*
X194886598Y-196450471D01*
X194886598Y-196450471D02*
X194886598Y-196593328D01*
X195886599Y-195093328D02*
X196029456Y-195093328D01*
X196029456Y-195093328D02*
X196172313Y-195164757D01*
X196172313Y-195164757D02*
X196243742Y-195236185D01*
X196243742Y-195236185D02*
X196315170Y-195379042D01*
X196315170Y-195379042D02*
X196386599Y-195664757D01*
X196386599Y-195664757D02*
X196386599Y-196021900D01*
X196386599Y-196021900D02*
X196315170Y-196307614D01*
X196315170Y-196307614D02*
X196243742Y-196450471D01*
X196243742Y-196450471D02*
X196172313Y-196521900D01*
X196172313Y-196521900D02*
X196029456Y-196593328D01*
X196029456Y-196593328D02*
X195886599Y-196593328D01*
X195886599Y-196593328D02*
X195743742Y-196521900D01*
X195743742Y-196521900D02*
X195672313Y-196450471D01*
X195672313Y-196450471D02*
X195600884Y-196307614D01*
X195600884Y-196307614D02*
X195529456Y-196021900D01*
X195529456Y-196021900D02*
X195529456Y-195664757D01*
X195529456Y-195664757D02*
X195600884Y-195379042D01*
X195600884Y-195379042D02*
X195672313Y-195236185D01*
X195672313Y-195236185D02*
X195743742Y-195164757D01*
X195743742Y-195164757D02*
X195886599Y-195093328D01*
X197029455Y-196450471D02*
X197100884Y-196521900D01*
X197100884Y-196521900D02*
X197029455Y-196593328D01*
X197029455Y-196593328D02*
X196958027Y-196521900D01*
X196958027Y-196521900D02*
X197029455Y-196450471D01*
X197029455Y-196450471D02*
X197029455Y-196593328D01*
X197672313Y-195236185D02*
X197743741Y-195164757D01*
X197743741Y-195164757D02*
X197886599Y-195093328D01*
X197886599Y-195093328D02*
X198243741Y-195093328D01*
X198243741Y-195093328D02*
X198386599Y-195164757D01*
X198386599Y-195164757D02*
X198458027Y-195236185D01*
X198458027Y-195236185D02*
X198529456Y-195379042D01*
X198529456Y-195379042D02*
X198529456Y-195521900D01*
X198529456Y-195521900D02*
X198458027Y-195736185D01*
X198458027Y-195736185D02*
X197600884Y-196593328D01*
X197600884Y-196593328D02*
X198529456Y-196593328D01*
D10*
D11*
X177002200Y-191507200D02*
X285002200Y-191507200D01*
D10*
D12*
X264413853Y-193785528D02*
X263913853Y-193071242D01*
X263556710Y-193785528D02*
X263556710Y-192285528D01*
X263556710Y-192285528D02*
X264128139Y-192285528D01*
X264128139Y-192285528D02*
X264270996Y-192356957D01*
X264270996Y-192356957D02*
X264342425Y-192428385D01*
X264342425Y-192428385D02*
X264413853Y-192571242D01*
X264413853Y-192571242D02*
X264413853Y-192785528D01*
X264413853Y-192785528D02*
X264342425Y-192928385D01*
X264342425Y-192928385D02*
X264270996Y-192999814D01*
X264270996Y-192999814D02*
X264128139Y-193071242D01*
X264128139Y-193071242D02*
X263556710Y-193071242D01*
X265628139Y-193714100D02*
X265485282Y-193785528D01*
X265485282Y-193785528D02*
X265199568Y-193785528D01*
X265199568Y-193785528D02*
X265056710Y-193714100D01*
X265056710Y-193714100D02*
X264985282Y-193571242D01*
X264985282Y-193571242D02*
X264985282Y-192999814D01*
X264985282Y-192999814D02*
X265056710Y-192856957D01*
X265056710Y-192856957D02*
X265199568Y-192785528D01*
X265199568Y-192785528D02*
X265485282Y-192785528D01*
X265485282Y-192785528D02*
X265628139Y-192856957D01*
X265628139Y-192856957D02*
X265699568Y-192999814D01*
X265699568Y-192999814D02*
X265699568Y-193142671D01*
X265699568Y-193142671D02*
X264985282Y-193285528D01*
X266199567Y-192785528D02*
X266556710Y-193785528D01*
X266556710Y-193785528D02*
X266913853Y-192785528D01*
X267485281Y-193642671D02*
X267556710Y-193714100D01*
X267556710Y-193714100D02*
X267485281Y-193785528D01*
X267485281Y-193785528D02*
X267413853Y-193714100D01*
X267413853Y-193714100D02*
X267485281Y-193642671D01*
X267485281Y-193642671D02*
X267485281Y-193785528D01*
X267485281Y-192856957D02*
X267556710Y-192928385D01*
X267556710Y-192928385D02*
X267485281Y-192999814D01*
X267485281Y-192999814D02*
X267413853Y-192928385D01*
X267413853Y-192928385D02*
X267485281Y-192856957D01*
X267485281Y-192856957D02*
X267485281Y-192999814D01*
D10*
D11*
X178386598Y-193721900D02*
X178600884Y-193793328D01*
X178600884Y-193793328D02*
X178958026Y-193793328D01*
X178958026Y-193793328D02*
X179100884Y-193721900D01*
X179100884Y-193721900D02*
X179172312Y-193650471D01*
X179172312Y-193650471D02*
X179243741Y-193507614D01*
X179243741Y-193507614D02*
X179243741Y-193364757D01*
X179243741Y-193364757D02*
X179172312Y-193221900D01*
X179172312Y-193221900D02*
X179100884Y-193150471D01*
X179100884Y-193150471D02*
X178958026Y-193079042D01*
X178958026Y-193079042D02*
X178672312Y-193007614D01*
X178672312Y-193007614D02*
X178529455Y-192936185D01*
X178529455Y-192936185D02*
X178458026Y-192864757D01*
X178458026Y-192864757D02*
X178386598Y-192721900D01*
X178386598Y-192721900D02*
X178386598Y-192579042D01*
X178386598Y-192579042D02*
X178458026Y-192436185D01*
X178458026Y-192436185D02*
X178529455Y-192364757D01*
X178529455Y-192364757D02*
X178672312Y-192293328D01*
X178672312Y-192293328D02*
X179029455Y-192293328D01*
X179029455Y-192293328D02*
X179243741Y-192364757D01*
X179886597Y-193793328D02*
X179886597Y-192793328D01*
X179886597Y-192293328D02*
X179815169Y-192364757D01*
X179815169Y-192364757D02*
X179886597Y-192436185D01*
X179886597Y-192436185D02*
X179958026Y-192364757D01*
X179958026Y-192364757D02*
X179886597Y-192293328D01*
X179886597Y-192293328D02*
X179886597Y-192436185D01*
X180458026Y-192793328D02*
X181243741Y-192793328D01*
X181243741Y-192793328D02*
X180458026Y-193793328D01*
X180458026Y-193793328D02*
X181243741Y-193793328D01*
X182386598Y-193721900D02*
X182243741Y-193793328D01*
X182243741Y-193793328D02*
X181958027Y-193793328D01*
X181958027Y-193793328D02*
X181815169Y-193721900D01*
X181815169Y-193721900D02*
X181743741Y-193579042D01*
X181743741Y-193579042D02*
X181743741Y-193007614D01*
X181743741Y-193007614D02*
X181815169Y-192864757D01*
X181815169Y-192864757D02*
X181958027Y-192793328D01*
X181958027Y-192793328D02*
X182243741Y-192793328D01*
X182243741Y-192793328D02*
X182386598Y-192864757D01*
X182386598Y-192864757D02*
X182458027Y-193007614D01*
X182458027Y-193007614D02*
X182458027Y-193150471D01*
X182458027Y-193150471D02*
X181743741Y-193293328D01*
X183100883Y-193650471D02*
X183172312Y-193721900D01*
X183172312Y-193721900D02*
X183100883Y-193793328D01*
X183100883Y-193793328D02*
X183029455Y-193721900D01*
X183029455Y-193721900D02*
X183100883Y-193650471D01*
X183100883Y-193650471D02*
X183100883Y-193793328D01*
X183100883Y-192864757D02*
X183172312Y-192936185D01*
X183172312Y-192936185D02*
X183100883Y-193007614D01*
X183100883Y-193007614D02*
X183029455Y-192936185D01*
X183029455Y-192936185D02*
X183100883Y-192864757D01*
X183100883Y-192864757D02*
X183100883Y-193007614D01*
X184886598Y-193364757D02*
X185600884Y-193364757D01*
X184743741Y-193793328D02*
X185243741Y-192293328D01*
X185243741Y-192293328D02*
X185743741Y-193793328D01*
X186886598Y-192793328D02*
X186886598Y-193793328D01*
X186529455Y-192221900D02*
X186172312Y-193293328D01*
X186172312Y-193293328D02*
X187100883Y-193293328D01*
D10*
D11*
X263458026Y-196593328D02*
X263458026Y-195093328D01*
X264815170Y-196593328D02*
X264815170Y-195093328D01*
X264815170Y-196521900D02*
X264672312Y-196593328D01*
X264672312Y-196593328D02*
X264386598Y-196593328D01*
X264386598Y-196593328D02*
X264243741Y-196521900D01*
X264243741Y-196521900D02*
X264172312Y-196450471D01*
X264172312Y-196450471D02*
X264100884Y-196307614D01*
X264100884Y-196307614D02*
X264100884Y-195879042D01*
X264100884Y-195879042D02*
X264172312Y-195736185D01*
X264172312Y-195736185D02*
X264243741Y-195664757D01*
X264243741Y-195664757D02*
X264386598Y-195593328D01*
X264386598Y-195593328D02*
X264672312Y-195593328D01*
X264672312Y-195593328D02*
X264815170Y-195664757D01*
X265529455Y-196450471D02*
X265600884Y-196521900D01*
X265600884Y-196521900D02*
X265529455Y-196593328D01*
X265529455Y-196593328D02*
X265458027Y-196521900D01*
X265458027Y-196521900D02*
X265529455Y-196450471D01*
X265529455Y-196450471D02*
X265529455Y-196593328D01*
X265529455Y-195664757D02*
X265600884Y-195736185D01*
X265600884Y-195736185D02*
X265529455Y-195807614D01*
X265529455Y-195807614D02*
X265458027Y-195736185D01*
X265458027Y-195736185D02*
X265529455Y-195664757D01*
X265529455Y-195664757D02*
X265529455Y-195807614D01*
X267315170Y-195236185D02*
X267386598Y-195164757D01*
X267386598Y-195164757D02*
X267529456Y-195093328D01*
X267529456Y-195093328D02*
X267886598Y-195093328D01*
X267886598Y-195093328D02*
X268029456Y-195164757D01*
X268029456Y-195164757D02*
X268100884Y-195236185D01*
X268100884Y-195236185D02*
X268172313Y-195379042D01*
X268172313Y-195379042D02*
X268172313Y-195521900D01*
X268172313Y-195521900D02*
X268100884Y-195736185D01*
X268100884Y-195736185D02*
X267243741Y-196593328D01*
X267243741Y-196593328D02*
X268172313Y-196593328D01*
X269886598Y-195021900D02*
X268600884Y-196950471D01*
X271100884Y-195093328D02*
X270386598Y-195093328D01*
X270386598Y-195093328D02*
X270315170Y-195807614D01*
X270315170Y-195807614D02*
X270386598Y-195736185D01*
X270386598Y-195736185D02*
X270529456Y-195664757D01*
X270529456Y-195664757D02*
X270886598Y-195664757D01*
X270886598Y-195664757D02*
X271029456Y-195736185D01*
X271029456Y-195736185D02*
X271100884Y-195807614D01*
X271100884Y-195807614D02*
X271172313Y-195950471D01*
X271172313Y-195950471D02*
X271172313Y-196307614D01*
X271172313Y-196307614D02*
X271100884Y-196450471D01*
X271100884Y-196450471D02*
X271029456Y-196521900D01*
X271029456Y-196521900D02*
X270886598Y-196593328D01*
X270886598Y-196593328D02*
X270529456Y-196593328D01*
X270529456Y-196593328D02*
X270386598Y-196521900D01*
X270386598Y-196521900D02*
X270315170Y-196450471D01*
D10*
D11*
X177002200Y-187507200D02*
X285002200Y-187507200D01*
D10*
D13*
X178693928Y-188211638D02*
X179836785Y-188211638D01*
X179015357Y-190211638D02*
X179265357Y-188211638D01*
X180253452Y-190211638D02*
X180420119Y-188878304D01*
X180503452Y-188211638D02*
X180396309Y-188306876D01*
X180396309Y-188306876D02*
X180479643Y-188402114D01*
X180479643Y-188402114D02*
X180586786Y-188306876D01*
X180586786Y-188306876D02*
X180503452Y-188211638D01*
X180503452Y-188211638D02*
X180479643Y-188402114D01*
X181086786Y-188878304D02*
X181848690Y-188878304D01*
X181455833Y-188211638D02*
X181241548Y-189925923D01*
X181241548Y-189925923D02*
X181312976Y-190116400D01*
X181312976Y-190116400D02*
X181491548Y-190211638D01*
X181491548Y-190211638D02*
X181682024Y-190211638D01*
X182634405Y-190211638D02*
X182455833Y-190116400D01*
X182455833Y-190116400D02*
X182384405Y-189925923D01*
X182384405Y-189925923D02*
X182598690Y-188211638D01*
X184170119Y-190116400D02*
X183967738Y-190211638D01*
X183967738Y-190211638D02*
X183586785Y-190211638D01*
X183586785Y-190211638D02*
X183408214Y-190116400D01*
X183408214Y-190116400D02*
X183336785Y-189925923D01*
X183336785Y-189925923D02*
X183432024Y-189164019D01*
X183432024Y-189164019D02*
X183551071Y-188973542D01*
X183551071Y-188973542D02*
X183753452Y-188878304D01*
X183753452Y-188878304D02*
X184134404Y-188878304D01*
X184134404Y-188878304D02*
X184312976Y-188973542D01*
X184312976Y-188973542D02*
X184384404Y-189164019D01*
X184384404Y-189164019D02*
X184360595Y-189354495D01*
X184360595Y-189354495D02*
X183384404Y-189544971D01*
X185134405Y-190021161D02*
X185217738Y-190116400D01*
X185217738Y-190116400D02*
X185110595Y-190211638D01*
X185110595Y-190211638D02*
X185027262Y-190116400D01*
X185027262Y-190116400D02*
X185134405Y-190021161D01*
X185134405Y-190021161D02*
X185110595Y-190211638D01*
X185265357Y-188973542D02*
X185348690Y-189068780D01*
X185348690Y-189068780D02*
X185241548Y-189164019D01*
X185241548Y-189164019D02*
X185158214Y-189068780D01*
X185158214Y-189068780D02*
X185265357Y-188973542D01*
X185265357Y-188973542D02*
X185241548Y-189164019D01*
D10*
D11*
X178958026Y-185607614D02*
X178458026Y-185607614D01*
X178458026Y-186393328D02*
X178458026Y-184893328D01*
X178458026Y-184893328D02*
X179172312Y-184893328D01*
X179743740Y-186393328D02*
X179743740Y-185393328D01*
X179743740Y-184893328D02*
X179672312Y-184964757D01*
X179672312Y-184964757D02*
X179743740Y-185036185D01*
X179743740Y-185036185D02*
X179815169Y-184964757D01*
X179815169Y-184964757D02*
X179743740Y-184893328D01*
X179743740Y-184893328D02*
X179743740Y-185036185D01*
X180672312Y-186393328D02*
X180529455Y-186321900D01*
X180529455Y-186321900D02*
X180458026Y-186179042D01*
X180458026Y-186179042D02*
X180458026Y-184893328D01*
X181815169Y-186321900D02*
X181672312Y-186393328D01*
X181672312Y-186393328D02*
X181386598Y-186393328D01*
X181386598Y-186393328D02*
X181243740Y-186321900D01*
X181243740Y-186321900D02*
X181172312Y-186179042D01*
X181172312Y-186179042D02*
X181172312Y-185607614D01*
X181172312Y-185607614D02*
X181243740Y-185464757D01*
X181243740Y-185464757D02*
X181386598Y-185393328D01*
X181386598Y-185393328D02*
X181672312Y-185393328D01*
X181672312Y-185393328D02*
X181815169Y-185464757D01*
X181815169Y-185464757D02*
X181886598Y-185607614D01*
X181886598Y-185607614D02*
X181886598Y-185750471D01*
X181886598Y-185750471D02*
X181172312Y-185893328D01*
X182529454Y-186250471D02*
X182600883Y-186321900D01*
X182600883Y-186321900D02*
X182529454Y-186393328D01*
X182529454Y-186393328D02*
X182458026Y-186321900D01*
X182458026Y-186321900D02*
X182529454Y-186250471D01*
X182529454Y-186250471D02*
X182529454Y-186393328D01*
X182529454Y-185464757D02*
X182600883Y-185536185D01*
X182600883Y-185536185D02*
X182529454Y-185607614D01*
X182529454Y-185607614D02*
X182458026Y-185536185D01*
X182458026Y-185536185D02*
X182529454Y-185464757D01*
X182529454Y-185464757D02*
X182529454Y-185607614D01*
X184600883Y-186393328D02*
X184458026Y-186321900D01*
X184458026Y-186321900D02*
X184386597Y-186179042D01*
X184386597Y-186179042D02*
X184386597Y-184893328D01*
X185815169Y-186393328D02*
X185815169Y-185607614D01*
X185815169Y-185607614D02*
X185743740Y-185464757D01*
X185743740Y-185464757D02*
X185600883Y-185393328D01*
X185600883Y-185393328D02*
X185315169Y-185393328D01*
X185315169Y-185393328D02*
X185172311Y-185464757D01*
X185815169Y-186321900D02*
X185672311Y-186393328D01*
X185672311Y-186393328D02*
X185315169Y-186393328D01*
X185315169Y-186393328D02*
X185172311Y-186321900D01*
X185172311Y-186321900D02*
X185100883Y-186179042D01*
X185100883Y-186179042D02*
X185100883Y-186036185D01*
X185100883Y-186036185D02*
X185172311Y-185893328D01*
X185172311Y-185893328D02*
X185315169Y-185821900D01*
X185315169Y-185821900D02*
X185672311Y-185821900D01*
X185672311Y-185821900D02*
X185815169Y-185750471D01*
X186315169Y-185393328D02*
X186886597Y-185393328D01*
X186529454Y-184893328D02*
X186529454Y-186179042D01*
X186529454Y-186179042D02*
X186600883Y-186321900D01*
X186600883Y-186321900D02*
X186743740Y-186393328D01*
X186743740Y-186393328D02*
X186886597Y-186393328D01*
X187386597Y-186393328D02*
X187386597Y-185393328D01*
X187386597Y-184893328D02*
X187315169Y-184964757D01*
X187315169Y-184964757D02*
X187386597Y-185036185D01*
X187386597Y-185036185D02*
X187458026Y-184964757D01*
X187458026Y-184964757D02*
X187386597Y-184893328D01*
X187386597Y-184893328D02*
X187386597Y-185036185D01*
X188100883Y-186393328D02*
X188100883Y-184893328D01*
X188743741Y-186393328D02*
X188743741Y-185607614D01*
X188743741Y-185607614D02*
X188672312Y-185464757D01*
X188672312Y-185464757D02*
X188529455Y-185393328D01*
X188529455Y-185393328D02*
X188315169Y-185393328D01*
X188315169Y-185393328D02*
X188172312Y-185464757D01*
X188172312Y-185464757D02*
X188100883Y-185536185D01*
X190100884Y-186393328D02*
X190100884Y-185607614D01*
X190100884Y-185607614D02*
X190029455Y-185464757D01*
X190029455Y-185464757D02*
X189886598Y-185393328D01*
X189886598Y-185393328D02*
X189600884Y-185393328D01*
X189600884Y-185393328D02*
X189458026Y-185464757D01*
X190100884Y-186321900D02*
X189958026Y-186393328D01*
X189958026Y-186393328D02*
X189600884Y-186393328D01*
X189600884Y-186393328D02*
X189458026Y-186321900D01*
X189458026Y-186321900D02*
X189386598Y-186179042D01*
X189386598Y-186179042D02*
X189386598Y-186036185D01*
X189386598Y-186036185D02*
X189458026Y-185893328D01*
X189458026Y-185893328D02*
X189600884Y-185821900D01*
X189600884Y-185821900D02*
X189958026Y-185821900D01*
X189958026Y-185821900D02*
X190100884Y-185750471D01*
X190815169Y-185393328D02*
X190815169Y-186393328D01*
X190815169Y-185536185D02*
X190886598Y-185464757D01*
X190886598Y-185464757D02*
X191029455Y-185393328D01*
X191029455Y-185393328D02*
X191243741Y-185393328D01*
X191243741Y-185393328D02*
X191386598Y-185464757D01*
X191386598Y-185464757D02*
X191458027Y-185607614D01*
X191458027Y-185607614D02*
X191458027Y-186393328D01*
X192172312Y-186393328D02*
X192172312Y-184893328D01*
X192315170Y-185821900D02*
X192743741Y-186393328D01*
X192743741Y-185393328D02*
X192172312Y-185964757D01*
X193386598Y-186393328D02*
X193386598Y-185393328D01*
X193386598Y-184893328D02*
X193315170Y-184964757D01*
X193315170Y-184964757D02*
X193386598Y-185036185D01*
X193386598Y-185036185D02*
X193458027Y-184964757D01*
X193458027Y-184964757D02*
X193386598Y-184893328D01*
X193386598Y-184893328D02*
X193386598Y-185036185D01*
X194743742Y-186321900D02*
X194600884Y-186393328D01*
X194600884Y-186393328D02*
X194315170Y-186393328D01*
X194315170Y-186393328D02*
X194172313Y-186321900D01*
X194172313Y-186321900D02*
X194100884Y-186250471D01*
X194100884Y-186250471D02*
X194029456Y-186107614D01*
X194029456Y-186107614D02*
X194029456Y-185679042D01*
X194029456Y-185679042D02*
X194100884Y-185536185D01*
X194100884Y-185536185D02*
X194172313Y-185464757D01*
X194172313Y-185464757D02*
X194315170Y-185393328D01*
X194315170Y-185393328D02*
X194600884Y-185393328D01*
X194600884Y-185393328D02*
X194743742Y-185464757D01*
X196029456Y-186393328D02*
X196029456Y-185607614D01*
X196029456Y-185607614D02*
X195958027Y-185464757D01*
X195958027Y-185464757D02*
X195815170Y-185393328D01*
X195815170Y-185393328D02*
X195529456Y-185393328D01*
X195529456Y-185393328D02*
X195386598Y-185464757D01*
X196029456Y-186321900D02*
X195886598Y-186393328D01*
X195886598Y-186393328D02*
X195529456Y-186393328D01*
X195529456Y-186393328D02*
X195386598Y-186321900D01*
X195386598Y-186321900D02*
X195315170Y-186179042D01*
X195315170Y-186179042D02*
X195315170Y-186036185D01*
X195315170Y-186036185D02*
X195386598Y-185893328D01*
X195386598Y-185893328D02*
X195529456Y-185821900D01*
X195529456Y-185821900D02*
X195886598Y-185821900D01*
X195886598Y-185821900D02*
X196029456Y-185750471D01*
X197386599Y-186393328D02*
X197386599Y-184893328D01*
X197386599Y-186321900D02*
X197243741Y-186393328D01*
X197243741Y-186393328D02*
X196958027Y-186393328D01*
X196958027Y-186393328D02*
X196815170Y-186321900D01*
X196815170Y-186321900D02*
X196743741Y-186250471D01*
X196743741Y-186250471D02*
X196672313Y-186107614D01*
X196672313Y-186107614D02*
X196672313Y-185679042D01*
X196672313Y-185679042D02*
X196743741Y-185536185D01*
X196743741Y-185536185D02*
X196815170Y-185464757D01*
X196815170Y-185464757D02*
X196958027Y-185393328D01*
X196958027Y-185393328D02*
X197243741Y-185393328D01*
X197243741Y-185393328D02*
X197386599Y-185464757D01*
X198100884Y-186250471D02*
X198172313Y-186321900D01*
X198172313Y-186321900D02*
X198100884Y-186393328D01*
X198100884Y-186393328D02*
X198029456Y-186321900D01*
X198029456Y-186321900D02*
X198100884Y-186250471D01*
X198100884Y-186250471D02*
X198100884Y-186393328D01*
X198815170Y-186393328D02*
X198815170Y-184893328D01*
X198958028Y-185821900D02*
X199386599Y-186393328D01*
X199386599Y-185393328D02*
X198815170Y-185964757D01*
X200029456Y-186393328D02*
X200029456Y-185393328D01*
X200029456Y-184893328D02*
X199958028Y-184964757D01*
X199958028Y-184964757D02*
X200029456Y-185036185D01*
X200029456Y-185036185D02*
X200100885Y-184964757D01*
X200100885Y-184964757D02*
X200029456Y-184893328D01*
X200029456Y-184893328D02*
X200029456Y-185036185D01*
X201386600Y-186321900D02*
X201243742Y-186393328D01*
X201243742Y-186393328D02*
X200958028Y-186393328D01*
X200958028Y-186393328D02*
X200815171Y-186321900D01*
X200815171Y-186321900D02*
X200743742Y-186250471D01*
X200743742Y-186250471D02*
X200672314Y-186107614D01*
X200672314Y-186107614D02*
X200672314Y-185679042D01*
X200672314Y-185679042D02*
X200743742Y-185536185D01*
X200743742Y-185536185D02*
X200815171Y-185464757D01*
X200815171Y-185464757D02*
X200958028Y-185393328D01*
X200958028Y-185393328D02*
X201243742Y-185393328D01*
X201243742Y-185393328D02*
X201386600Y-185464757D01*
X202672314Y-186393328D02*
X202672314Y-185607614D01*
X202672314Y-185607614D02*
X202600885Y-185464757D01*
X202600885Y-185464757D02*
X202458028Y-185393328D01*
X202458028Y-185393328D02*
X202172314Y-185393328D01*
X202172314Y-185393328D02*
X202029456Y-185464757D01*
X202672314Y-186321900D02*
X202529456Y-186393328D01*
X202529456Y-186393328D02*
X202172314Y-186393328D01*
X202172314Y-186393328D02*
X202029456Y-186321900D01*
X202029456Y-186321900D02*
X201958028Y-186179042D01*
X201958028Y-186179042D02*
X201958028Y-186036185D01*
X201958028Y-186036185D02*
X202029456Y-185893328D01*
X202029456Y-185893328D02*
X202172314Y-185821900D01*
X202172314Y-185821900D02*
X202529456Y-185821900D01*
X202529456Y-185821900D02*
X202672314Y-185750471D01*
X204029457Y-186393328D02*
X204029457Y-184893328D01*
X204029457Y-186321900D02*
X203886599Y-186393328D01*
X203886599Y-186393328D02*
X203600885Y-186393328D01*
X203600885Y-186393328D02*
X203458028Y-186321900D01*
X203458028Y-186321900D02*
X203386599Y-186250471D01*
X203386599Y-186250471D02*
X203315171Y-186107614D01*
X203315171Y-186107614D02*
X203315171Y-185679042D01*
X203315171Y-185679042D02*
X203386599Y-185536185D01*
X203386599Y-185536185D02*
X203458028Y-185464757D01*
X203458028Y-185464757D02*
X203600885Y-185393328D01*
X203600885Y-185393328D02*
X203886599Y-185393328D01*
X203886599Y-185393328D02*
X204029457Y-185464757D01*
X204386600Y-186536185D02*
X205529457Y-186536185D01*
X205886599Y-185393328D02*
X205886599Y-186893328D01*
X205886599Y-185464757D02*
X206029457Y-185393328D01*
X206029457Y-185393328D02*
X206315171Y-185393328D01*
X206315171Y-185393328D02*
X206458028Y-185464757D01*
X206458028Y-185464757D02*
X206529457Y-185536185D01*
X206529457Y-185536185D02*
X206600885Y-185679042D01*
X206600885Y-185679042D02*
X206600885Y-186107614D01*
X206600885Y-186107614D02*
X206529457Y-186250471D01*
X206529457Y-186250471D02*
X206458028Y-186321900D01*
X206458028Y-186321900D02*
X206315171Y-186393328D01*
X206315171Y-186393328D02*
X206029457Y-186393328D01*
X206029457Y-186393328D02*
X205886599Y-186321900D01*
X207886600Y-186321900D02*
X207743742Y-186393328D01*
X207743742Y-186393328D02*
X207458028Y-186393328D01*
X207458028Y-186393328D02*
X207315171Y-186321900D01*
X207315171Y-186321900D02*
X207243742Y-186250471D01*
X207243742Y-186250471D02*
X207172314Y-186107614D01*
X207172314Y-186107614D02*
X207172314Y-185679042D01*
X207172314Y-185679042D02*
X207243742Y-185536185D01*
X207243742Y-185536185D02*
X207315171Y-185464757D01*
X207315171Y-185464757D02*
X207458028Y-185393328D01*
X207458028Y-185393328D02*
X207743742Y-185393328D01*
X207743742Y-185393328D02*
X207886600Y-185464757D01*
X208529456Y-186393328D02*
X208529456Y-184893328D01*
X208529456Y-185464757D02*
X208672314Y-185393328D01*
X208672314Y-185393328D02*
X208958028Y-185393328D01*
X208958028Y-185393328D02*
X209100885Y-185464757D01*
X209100885Y-185464757D02*
X209172314Y-185536185D01*
X209172314Y-185536185D02*
X209243742Y-185679042D01*
X209243742Y-185679042D02*
X209243742Y-186107614D01*
X209243742Y-186107614D02*
X209172314Y-186250471D01*
X209172314Y-186250471D02*
X209100885Y-186321900D01*
X209100885Y-186321900D02*
X208958028Y-186393328D01*
X208958028Y-186393328D02*
X208672314Y-186393328D01*
X208672314Y-186393328D02*
X208529456Y-186321900D01*
D10*
D11*
X177002200Y-181507200D02*
X285002200Y-181507200D01*
D10*
D11*
X178386598Y-183621900D02*
X178600884Y-183693328D01*
X178600884Y-183693328D02*
X178958026Y-183693328D01*
X178958026Y-183693328D02*
X179100884Y-183621900D01*
X179100884Y-183621900D02*
X179172312Y-183550471D01*
X179172312Y-183550471D02*
X179243741Y-183407614D01*
X179243741Y-183407614D02*
X179243741Y-183264757D01*
X179243741Y-183264757D02*
X179172312Y-183121900D01*
X179172312Y-183121900D02*
X179100884Y-183050471D01*
X179100884Y-183050471D02*
X178958026Y-182979042D01*
X178958026Y-182979042D02*
X178672312Y-182907614D01*
X178672312Y-182907614D02*
X178529455Y-182836185D01*
X178529455Y-182836185D02*
X178458026Y-182764757D01*
X178458026Y-182764757D02*
X178386598Y-182621900D01*
X178386598Y-182621900D02*
X178386598Y-182479042D01*
X178386598Y-182479042D02*
X178458026Y-182336185D01*
X178458026Y-182336185D02*
X178529455Y-182264757D01*
X178529455Y-182264757D02*
X178672312Y-182193328D01*
X178672312Y-182193328D02*
X179029455Y-182193328D01*
X179029455Y-182193328D02*
X179243741Y-182264757D01*
X179886597Y-183693328D02*
X179886597Y-182193328D01*
X180529455Y-183693328D02*
X180529455Y-182907614D01*
X180529455Y-182907614D02*
X180458026Y-182764757D01*
X180458026Y-182764757D02*
X180315169Y-182693328D01*
X180315169Y-182693328D02*
X180100883Y-182693328D01*
X180100883Y-182693328D02*
X179958026Y-182764757D01*
X179958026Y-182764757D02*
X179886597Y-182836185D01*
X181815169Y-183621900D02*
X181672312Y-183693328D01*
X181672312Y-183693328D02*
X181386598Y-183693328D01*
X181386598Y-183693328D02*
X181243740Y-183621900D01*
X181243740Y-183621900D02*
X181172312Y-183479042D01*
X181172312Y-183479042D02*
X181172312Y-182907614D01*
X181172312Y-182907614D02*
X181243740Y-182764757D01*
X181243740Y-182764757D02*
X181386598Y-182693328D01*
X181386598Y-182693328D02*
X181672312Y-182693328D01*
X181672312Y-182693328D02*
X181815169Y-182764757D01*
X181815169Y-182764757D02*
X181886598Y-182907614D01*
X181886598Y-182907614D02*
X181886598Y-183050471D01*
X181886598Y-183050471D02*
X181172312Y-183193328D01*
X183100883Y-183621900D02*
X182958026Y-183693328D01*
X182958026Y-183693328D02*
X182672312Y-183693328D01*
X182672312Y-183693328D02*
X182529454Y-183621900D01*
X182529454Y-183621900D02*
X182458026Y-183479042D01*
X182458026Y-183479042D02*
X182458026Y-182907614D01*
X182458026Y-182907614D02*
X182529454Y-182764757D01*
X182529454Y-182764757D02*
X182672312Y-182693328D01*
X182672312Y-182693328D02*
X182958026Y-182693328D01*
X182958026Y-182693328D02*
X183100883Y-182764757D01*
X183100883Y-182764757D02*
X183172312Y-182907614D01*
X183172312Y-182907614D02*
X183172312Y-183050471D01*
X183172312Y-183050471D02*
X182458026Y-183193328D01*
X183600883Y-182693328D02*
X184172311Y-182693328D01*
X183815168Y-182193328D02*
X183815168Y-183479042D01*
X183815168Y-183479042D02*
X183886597Y-183621900D01*
X183886597Y-183621900D02*
X184029454Y-183693328D01*
X184029454Y-183693328D02*
X184172311Y-183693328D01*
X184672311Y-183550471D02*
X184743740Y-183621900D01*
X184743740Y-183621900D02*
X184672311Y-183693328D01*
X184672311Y-183693328D02*
X184600883Y-183621900D01*
X184600883Y-183621900D02*
X184672311Y-183550471D01*
X184672311Y-183550471D02*
X184672311Y-183693328D01*
X184672311Y-182764757D02*
X184743740Y-182836185D01*
X184743740Y-182836185D02*
X184672311Y-182907614D01*
X184672311Y-182907614D02*
X184600883Y-182836185D01*
X184600883Y-182836185D02*
X184672311Y-182764757D01*
X184672311Y-182764757D02*
X184672311Y-182907614D01*
D10*
D11*
X197002200Y-191507200D02*
X197002200Y-194507200D01*
D10*
D11*
X261002200Y-191507200D02*
X261002200Y-198007200D01*
D14*
%TO.P,D2,1,K*%
%TO.N,Net-(D2-K)*%
X143545181Y-103216906D03*
D15*
%TO.P,D2,2,A*%
%TO.N,Net-(D2-A)*%
X143545181Y-100676906D03*
%TD*%
D16*
%TO.P,R1,1*%
%TO.N,VCC*%
X123795181Y-57736906D03*
%TO.P,R1,2*%
%TO.N,Net-(J1-Pin_3)*%
X123795181Y-83136906D03*
%TD*%
%TO.P,R2,1*%
%TO.N,VCC*%
X143545181Y-57486906D03*
%TO.P,R2,2*%
%TO.N,Net-(D2-A)*%
X143545181Y-82886906D03*
%TD*%
D17*
%TO.P,RV1,1,1*%
%TO.N,GND*%
X96307681Y-106531906D03*
%TO.P,RV1,2,2*%
%TO.N,Net-(U1B--)*%
X98847681Y-103991906D03*
%TO.P,RV1,3,3*%
%TO.N,VCC*%
X101387681Y-106531906D03*
%TD*%
D14*
%TO.P,D1,1,K*%
%TO.N,GND*%
X158545181Y-102486906D03*
D15*
%TO.P,D1,2,A*%
%TO.N,Net-(D1-A)*%
X158545181Y-99946906D03*
%TD*%
D18*
%TO.P,C1,1*%
%TO.N,Net-(J1-Pin_3)*%
X77295181Y-63686906D03*
%TO.P,C1,2*%
%TO.N,GND*%
X49795181Y-63686906D03*
%TD*%
%TO.P,C2,1*%
%TO.N,Net-(D2-K)*%
X139017681Y-116491906D03*
%TO.P,C2,2*%
%TO.N,GND*%
X111517681Y-116491906D03*
%TD*%
D19*
%TO.P,J2,1,Pin_1*%
%TO.N,GND*%
X33767681Y-78491906D03*
D20*
%TO.P,J2,2,Pin_2*%
%TO.N,Net-(J1-Pin_3)*%
X33767681Y-80991906D03*
%TD*%
D21*
%TO.P,U1,1*%
%TO.N,N/C*%
X94457681Y-71681906D03*
D18*
%TO.P,U1,2*%
X94457681Y-74221906D03*
%TO.P,U1,3*%
X94457681Y-76761906D03*
%TO.P,U1,4,V-*%
%TO.N,GND*%
X94457681Y-79301906D03*
%TO.P,U1,5,+*%
%TO.N,Net-(J1-Pin_3)*%
X102077681Y-79301906D03*
%TO.P,U1,6,-*%
%TO.N,Net-(U1B--)*%
X102077681Y-76761906D03*
%TO.P,U1,7*%
%TO.N,Net-(J1-Pin_2)*%
X102077681Y-74221906D03*
%TO.P,U1,8,V+*%
%TO.N,VCC*%
X102077681Y-71681906D03*
%TD*%
D16*
%TO.P,R3,1*%
%TO.N,VCC*%
X158545181Y-57986906D03*
%TO.P,R3,2*%
%TO.N,Net-(D1-A)*%
X158545181Y-83386906D03*
%TD*%
D22*
%TO.P,J1,1,Pin_1*%
%TO.N,VCC*%
X184952681Y-68371906D03*
D23*
%TO.P,J1,2,Pin_2*%
%TO.N,Net-(J1-Pin_2)*%
X184952681Y-70911906D03*
%TO.P,J1,3,Pin_3*%
%TO.N,Net-(J1-Pin_3)*%
X184952681Y-73451906D03*
%TO.P,J1,4,Pin_4*%
%TO.N,GND*%
X184952681Y-75991906D03*
%TD*%
D24*
%TO.N,GND*%
X78267681Y-53491906D02*
X59267681Y-53491906D01*
X184952681Y-75991906D02*
X196267681Y-75991906D01*
X111517681Y-116491906D02*
X111517681Y-121241906D01*
X99267681Y-116491906D02*
X111517681Y-116491906D01*
X96307681Y-106531906D02*
X96307681Y-113531906D01*
X159040181Y-101991906D02*
X158545181Y-102486906D01*
X197767681Y-88491906D02*
X183772681Y-102486906D01*
X83767681Y-58991906D02*
X78267681Y-53491906D01*
X33767681Y-68991906D02*
X38767681Y-63991906D01*
X197767681Y-77491906D02*
X197767681Y-88491906D01*
X83767681Y-73991906D02*
X83767681Y-58991906D01*
X157767681Y-103264406D02*
X158545181Y-102486906D01*
X183772681Y-102486906D02*
X158545181Y-102486906D01*
X49490181Y-63991906D02*
X49795181Y-63686906D01*
X94457681Y-79301906D02*
X94457681Y-104681906D01*
X94457681Y-104681906D02*
X96307681Y-106531906D01*
X59267681Y-53491906D02*
X49795181Y-62964406D01*
X157767681Y-114991906D02*
X157767681Y-103264406D01*
X111517681Y-121241906D02*
X116267681Y-125991906D01*
X116267681Y-125991906D02*
X146767681Y-125991906D01*
X88767681Y-78991906D02*
X83767681Y-73991906D01*
X146767681Y-125991906D02*
X157767681Y-114991906D01*
X38767681Y-63991906D02*
X49490181Y-63991906D01*
X196267681Y-75991906D02*
X197767681Y-77491906D01*
X49795181Y-62964406D02*
X49795181Y-63686906D01*
X94147681Y-78991906D02*
X88767681Y-78991906D01*
X94457681Y-79301906D02*
X94147681Y-78991906D01*
X33767681Y-78491906D02*
X33767681Y-68991906D01*
X96307681Y-113531906D02*
X99267681Y-116491906D01*
X49795181Y-63686906D02*
X49600181Y-63491906D01*
%TO.N,Net-(D1-A)*%
X158545181Y-83386906D02*
X158545181Y-99946906D01*
%TO.N,Net-(D2-A)*%
X143545181Y-82886906D02*
X143545181Y-100676906D01*
%TO.N,Net-(D2-K)*%
X143545181Y-111964406D02*
X143545181Y-103216906D01*
X139017681Y-116491906D02*
X143545181Y-111964406D01*
%TO.N,Net-(U1B--)*%
X106267681Y-92991906D02*
X99767681Y-86491906D01*
X98847681Y-111071906D02*
X98847681Y-103991906D01*
X100767681Y-112991906D02*
X98847681Y-111071906D01*
X99767681Y-79071906D02*
X102077681Y-76761906D01*
X99767681Y-86491906D02*
X99767681Y-79071906D01*
X102767681Y-112991906D02*
X100767681Y-112991906D01*
X106267681Y-109491906D02*
X102767681Y-112991906D01*
X106267681Y-109491906D02*
X106267681Y-92991906D01*
%TO.N,VCC*%
X123795181Y-57736906D02*
X143295181Y-57736906D01*
X97267681Y-89991906D02*
X97267681Y-76491906D01*
X158545181Y-57986906D02*
X170762681Y-57986906D01*
X112022681Y-57736906D02*
X123795181Y-57736906D01*
X100767681Y-93491906D02*
X97267681Y-89991906D01*
X158045181Y-57486906D02*
X158545181Y-57986906D01*
X102077681Y-71681906D02*
X102077681Y-67681906D01*
X143295181Y-57736906D02*
X143545181Y-57486906D01*
X101387681Y-106531906D02*
X100767681Y-105911906D01*
X170762681Y-57986906D02*
X174767681Y-61991906D01*
X143545181Y-57486906D02*
X158045181Y-57486906D01*
X178572681Y-61991906D02*
X174767681Y-61991906D01*
X184952681Y-68371906D02*
X178572681Y-61991906D01*
X102077681Y-67681906D02*
X112022681Y-57736906D01*
X97267681Y-76491906D02*
X102077681Y-71681906D01*
X100767681Y-105911906D02*
X100767681Y-93491906D01*
%TO.N,Net-(J1-Pin_3)*%
X201767681Y-113991906D02*
X201767681Y-75491906D01*
X199267681Y-72991906D02*
X185412681Y-72991906D01*
X89267681Y-121991906D02*
X100767681Y-133491906D01*
X185412681Y-72991906D02*
X184952681Y-73451906D01*
X38767681Y-88491906D02*
X73767681Y-88491906D01*
X123795181Y-83136906D02*
X129122681Y-83136906D01*
X77267681Y-84991906D02*
X89267681Y-96991906D01*
X77267681Y-84991906D02*
X77267681Y-63714406D01*
X183912681Y-74491906D02*
X184952681Y-73451906D01*
X73767681Y-88491906D02*
X77267681Y-84991906D01*
X105912681Y-83136906D02*
X123795181Y-83136906D01*
X33767681Y-83491906D02*
X38767681Y-88491906D01*
X201767681Y-75491906D02*
X199267681Y-72991906D01*
X129122681Y-83136906D02*
X137767681Y-74491906D01*
X33767681Y-80991906D02*
X33767681Y-83491906D01*
X77267681Y-63714406D02*
X77295181Y-63686906D01*
X89267681Y-96991906D02*
X89267681Y-121991906D01*
X100767681Y-133491906D02*
X182267681Y-133491906D01*
X102077681Y-79301906D02*
X105912681Y-83136906D01*
X182267681Y-133491906D02*
X201767681Y-113991906D01*
X137767681Y-74491906D02*
X183912681Y-74491906D01*
%TO.N,Net-(J1-Pin_2)*%
X178187681Y-70911906D02*
X184952681Y-70911906D01*
X174267681Y-66991906D02*
X178187681Y-70911906D01*
X102077681Y-74221906D02*
X108537681Y-74221906D01*
X115767681Y-66991906D02*
X174267681Y-66991906D01*
X108537681Y-74221906D02*
X115767681Y-66991906D01*
X185032681Y-70991906D02*
X184952681Y-70911906D01*
%TD*%
%TA.AperFunction,Conductor*%
%TO.N,GND*%
G36*
X207876679Y-38999324D02*
G01*
X207943610Y-39019375D01*
X207989075Y-39072429D01*
X208000000Y-39123322D01*
X208000000Y-137877359D01*
X207980315Y-137944398D01*
X207927511Y-137990153D01*
X207877366Y-138001351D01*
X26624142Y-139998632D01*
X26556890Y-139979688D01*
X26510556Y-139927391D01*
X26498782Y-139875860D01*
X25920447Y-80885619D01*
X32267181Y-80885619D01*
X32267181Y-81098193D01*
X32300435Y-81308149D01*
X32353010Y-81469958D01*
X32366125Y-81510320D01*
X32462632Y-81699726D01*
X32587571Y-81871692D01*
X32737892Y-82022013D01*
X32808881Y-82073588D01*
X32866066Y-82115135D01*
X32908732Y-82170464D01*
X32917181Y-82215453D01*
X32917181Y-83575677D01*
X32949862Y-83739979D01*
X32949865Y-83739988D01*
X33013977Y-83894769D01*
X33013978Y-83894772D01*
X33107053Y-84034067D01*
X33107056Y-84034071D01*
X38225515Y-89152530D01*
X38225519Y-89152533D01*
X38364818Y-89245610D01*
X38364820Y-89245611D01*
X38364824Y-89245613D01*
X38446903Y-89279609D01*
X38474265Y-89290943D01*
X38519599Y-89309722D01*
X38683909Y-89342405D01*
X38683913Y-89342406D01*
X38683914Y-89342406D01*
X73851449Y-89342406D01*
X73851450Y-89342405D01*
X73906219Y-89331511D01*
X74015755Y-89309724D01*
X74015759Y-89309722D01*
X74015763Y-89309722D01*
X74061096Y-89290943D01*
X74170544Y-89245610D01*
X74309843Y-89152533D01*
X77179999Y-86282374D01*
X77241322Y-86248890D01*
X77311013Y-86253874D01*
X77355361Y-86282375D01*
X88380862Y-97307876D01*
X88414347Y-97369199D01*
X88417181Y-97395557D01*
X88417181Y-122075677D01*
X88449862Y-122239979D01*
X88449865Y-122239988D01*
X88513977Y-122394769D01*
X88513978Y-122394772D01*
X88607053Y-122534067D01*
X88607056Y-122534071D01*
X100225515Y-134152530D01*
X100225519Y-134152533D01*
X100364818Y-134245610D01*
X100364820Y-134245611D01*
X100364824Y-134245613D01*
X100446903Y-134279609D01*
X100474265Y-134290943D01*
X100519599Y-134309722D01*
X100683909Y-134342405D01*
X100683913Y-134342406D01*
X100683914Y-134342406D01*
X182351449Y-134342406D01*
X182351450Y-134342405D01*
X182406219Y-134331511D01*
X182515755Y-134309724D01*
X182515759Y-134309722D01*
X182515763Y-134309722D01*
X182561096Y-134290943D01*
X182670544Y-134245610D01*
X182809843Y-134152533D01*
X202428307Y-114534068D01*
X202521384Y-114394769D01*
X202585497Y-114239988D01*
X202618181Y-114075673D01*
X202618181Y-75408139D01*
X202585497Y-75243824D01*
X202547683Y-75152533D01*
X202521385Y-75089043D01*
X202521383Y-75089041D01*
X202521383Y-75089039D01*
X202428308Y-74949744D01*
X202428305Y-74949740D01*
X199809846Y-72331281D01*
X199809842Y-72331278D01*
X199670547Y-72238203D01*
X199670544Y-72238202D01*
X199561097Y-72192868D01*
X199561095Y-72192867D01*
X199515767Y-72174091D01*
X199515755Y-72174088D01*
X199351452Y-72141406D01*
X199351448Y-72141406D01*
X186281088Y-72141406D01*
X186214049Y-72121721D01*
X186168294Y-72068917D01*
X186158350Y-71999759D01*
X186180770Y-71944521D01*
X186289189Y-71795293D01*
X186321551Y-71750751D01*
X186435922Y-71526285D01*
X186513771Y-71286691D01*
X186553181Y-71037868D01*
X186553181Y-70785944D01*
X186513771Y-70537121D01*
X186435922Y-70297527D01*
X186435920Y-70297524D01*
X186435920Y-70297522D01*
X186321550Y-70073060D01*
X186313083Y-70061406D01*
X186253914Y-69979966D01*
X186230435Y-69914163D01*
X186246260Y-69846109D01*
X186266552Y-69819401D01*
X186271331Y-69814621D01*
X186271337Y-69814618D01*
X186395393Y-69690562D01*
X186487495Y-69541241D01*
X186542680Y-69374704D01*
X186553181Y-69271916D01*
X186553181Y-67471896D01*
X186542680Y-67369108D01*
X186487495Y-67202571D01*
X186395393Y-67053250D01*
X186271337Y-66929194D01*
X186122016Y-66837092D01*
X185955479Y-66781907D01*
X185955477Y-66781906D01*
X185852698Y-66771406D01*
X185852691Y-66771406D01*
X184606332Y-66771406D01*
X184539293Y-66751721D01*
X184518651Y-66735087D01*
X179114846Y-61331281D01*
X179114842Y-61331278D01*
X178975547Y-61238203D01*
X178975544Y-61238202D01*
X178866097Y-61192868D01*
X178866095Y-61192867D01*
X178820767Y-61174091D01*
X178820755Y-61174088D01*
X178656452Y-61141406D01*
X178656448Y-61141406D01*
X175171331Y-61141406D01*
X175104292Y-61121721D01*
X175083650Y-61105087D01*
X171304846Y-57326281D01*
X171304842Y-57326278D01*
X171165547Y-57233203D01*
X171165544Y-57233202D01*
X171056097Y-57187868D01*
X171056095Y-57187867D01*
X171010767Y-57169091D01*
X171010755Y-57169088D01*
X170846452Y-57136406D01*
X170846448Y-57136406D01*
X160089304Y-57136406D01*
X160022265Y-57116721D01*
X159981917Y-57074406D01*
X159962132Y-57040138D01*
X159962129Y-57040132D01*
X159826428Y-56863282D01*
X159826423Y-56863276D01*
X159668810Y-56705663D01*
X159668803Y-56705657D01*
X159491963Y-56569964D01*
X159491961Y-56569963D01*
X159491955Y-56569958D01*
X159298907Y-56458501D01*
X159298903Y-56458499D01*
X159092971Y-56373199D01*
X159092964Y-56373197D01*
X159092962Y-56373196D01*
X158877644Y-56315502D01*
X158877638Y-56315501D01*
X158877633Y-56315500D01*
X158656647Y-56286407D01*
X158656644Y-56286406D01*
X158656638Y-56286406D01*
X158433724Y-56286406D01*
X158433718Y-56286406D01*
X158433714Y-56286407D01*
X158212728Y-56315500D01*
X158212721Y-56315501D01*
X158212718Y-56315502D01*
X158196066Y-56319964D01*
X157997400Y-56373196D01*
X157997390Y-56373199D01*
X157791458Y-56458499D01*
X157791454Y-56458501D01*
X157650082Y-56540123D01*
X157598407Y-56569958D01*
X157545202Y-56610782D01*
X157480035Y-56635976D01*
X157469718Y-56636406D01*
X145089304Y-56636406D01*
X145022265Y-56616721D01*
X144981917Y-56574406D01*
X144962129Y-56540132D01*
X144826428Y-56363282D01*
X144826423Y-56363276D01*
X144668810Y-56205663D01*
X144668803Y-56205657D01*
X144491963Y-56069964D01*
X144491961Y-56069963D01*
X144491955Y-56069958D01*
X144298907Y-55958501D01*
X144298903Y-55958499D01*
X144092971Y-55873199D01*
X144092964Y-55873197D01*
X144092962Y-55873196D01*
X143877644Y-55815502D01*
X143877638Y-55815501D01*
X143877633Y-55815500D01*
X143656647Y-55786407D01*
X143656644Y-55786406D01*
X143656638Y-55786406D01*
X143433724Y-55786406D01*
X143433718Y-55786406D01*
X143433714Y-55786407D01*
X143212728Y-55815500D01*
X143212721Y-55815501D01*
X143212718Y-55815502D01*
X142997400Y-55873196D01*
X142997390Y-55873199D01*
X142791458Y-55958499D01*
X142791454Y-55958501D01*
X142598407Y-56069958D01*
X142598398Y-56069964D01*
X142421558Y-56205657D01*
X142421551Y-56205663D01*
X142263938Y-56363276D01*
X142263932Y-56363283D01*
X142128239Y-56540123D01*
X142128233Y-56540132D01*
X142016776Y-56733179D01*
X142016771Y-56733188D01*
X141985015Y-56809858D01*
X141941175Y-56864262D01*
X141874881Y-56886327D01*
X141870454Y-56886406D01*
X125339304Y-56886406D01*
X125272265Y-56866721D01*
X125231917Y-56824406D01*
X125212132Y-56790138D01*
X125212129Y-56790132D01*
X125076428Y-56613282D01*
X125076423Y-56613276D01*
X124918810Y-56455663D01*
X124918803Y-56455657D01*
X124741963Y-56319964D01*
X124741961Y-56319963D01*
X124741955Y-56319958D01*
X124548907Y-56208501D01*
X124548903Y-56208499D01*
X124342971Y-56123199D01*
X124342964Y-56123197D01*
X124342962Y-56123196D01*
X124127644Y-56065502D01*
X124127638Y-56065501D01*
X124127633Y-56065500D01*
X123906647Y-56036407D01*
X123906644Y-56036406D01*
X123906638Y-56036406D01*
X123683724Y-56036406D01*
X123683718Y-56036406D01*
X123683714Y-56036407D01*
X123462728Y-56065500D01*
X123462721Y-56065501D01*
X123462718Y-56065502D01*
X123446066Y-56069964D01*
X123247400Y-56123196D01*
X123247390Y-56123199D01*
X123041458Y-56208499D01*
X123041454Y-56208501D01*
X122848407Y-56319958D01*
X122848398Y-56319964D01*
X122671558Y-56455657D01*
X122671551Y-56455663D01*
X122513938Y-56613276D01*
X122513932Y-56613283D01*
X122378239Y-56790123D01*
X122378229Y-56790138D01*
X122358445Y-56824406D01*
X122307878Y-56872622D01*
X122251058Y-56886406D01*
X111938909Y-56886406D01*
X111774606Y-56919088D01*
X111774594Y-56919091D01*
X111729264Y-56937868D01*
X111619824Y-56983198D01*
X111619811Y-56983205D01*
X111480519Y-57076278D01*
X111480515Y-57076281D01*
X101417056Y-67139740D01*
X101417053Y-67139744D01*
X101323980Y-67279036D01*
X101323973Y-67279049D01*
X101278643Y-67388489D01*
X101259866Y-67433819D01*
X101259863Y-67433831D01*
X101227181Y-67598134D01*
X101227181Y-70641859D01*
X101207496Y-70708898D01*
X101190862Y-70729540D01*
X101085713Y-70834688D01*
X101085709Y-70834692D01*
X100965396Y-71000292D01*
X100872462Y-71182682D01*
X100809203Y-71377371D01*
X100777181Y-71579554D01*
X100777181Y-71728254D01*
X100757496Y-71795293D01*
X100740862Y-71815935D01*
X96607056Y-75949740D01*
X96607053Y-75949744D01*
X96513978Y-76089039D01*
X96513977Y-76089042D01*
X96487679Y-76152532D01*
X96487679Y-76152533D01*
X96449865Y-76243823D01*
X96449863Y-76243831D01*
X96417181Y-76408134D01*
X96417181Y-90075677D01*
X96449862Y-90239979D01*
X96449865Y-90239988D01*
X96513977Y-90394769D01*
X96513978Y-90394772D01*
X96607053Y-90534067D01*
X96607056Y-90534071D01*
X99880862Y-93807875D01*
X99914347Y-93869198D01*
X99917181Y-93895556D01*
X99917181Y-102825368D01*
X99897496Y-102892407D01*
X99844692Y-102938162D01*
X99775534Y-102948106D01*
X99720296Y-102925686D01*
X99568603Y-102815475D01*
X99568602Y-102815474D01*
X99568600Y-102815473D01*
X99506796Y-102783982D01*
X99375690Y-102717179D01*
X99375687Y-102717178D01*
X99169779Y-102650276D01*
X99062856Y-102633341D01*
X98955935Y-102616406D01*
X98739427Y-102616406D01*
X98668146Y-102627696D01*
X98525582Y-102650276D01*
X98319674Y-102717178D01*
X98319671Y-102717179D01*
X98126761Y-102815473D01*
X98083374Y-102846996D01*
X97951603Y-102942734D01*
X97951601Y-102942736D01*
X97951600Y-102942736D01*
X97798511Y-103095825D01*
X97798511Y-103095826D01*
X97798509Y-103095828D01*
X97778182Y-103123806D01*
X97671248Y-103270986D01*
X97572954Y-103463896D01*
X97572953Y-103463899D01*
X97506051Y-103669807D01*
X97472181Y-103883652D01*
X97472181Y-104100159D01*
X97506051Y-104314004D01*
X97572953Y-104519912D01*
X97572954Y-104519915D01*
X97664764Y-104700100D01*
X97671248Y-104712825D01*
X97798509Y-104887984D01*
X97798511Y-104887986D01*
X97951604Y-105041079D01*
X97953716Y-105042883D01*
X97954294Y-105043769D01*
X97955048Y-105044523D01*
X97954889Y-105044681D01*
X97991907Y-105101391D01*
X97997181Y-105137170D01*
X97997181Y-111155677D01*
X98029862Y-111319979D01*
X98029865Y-111319988D01*
X98093977Y-111474769D01*
X98093978Y-111474772D01*
X98187053Y-111614067D01*
X98187056Y-111614071D01*
X100225515Y-113652530D01*
X100225519Y-113652533D01*
X100364818Y-113745610D01*
X100364820Y-113745611D01*
X100364824Y-113745613D01*
X100446903Y-113779609D01*
X100474265Y-113790943D01*
X100519599Y-113809722D01*
X100683909Y-113842405D01*
X100683913Y-113842406D01*
X100683914Y-113842406D01*
X102851449Y-113842406D01*
X102851450Y-113842405D01*
X102906219Y-113831511D01*
X103015755Y-113809724D01*
X103015759Y-113809722D01*
X103015763Y-113809722D01*
X103061096Y-113790943D01*
X103170544Y-113745610D01*
X103309843Y-113652533D01*
X106928307Y-110034068D01*
X107021384Y-109894769D01*
X107085497Y-109739988D01*
X107118181Y-109575673D01*
X107118181Y-92908139D01*
X107085497Y-92743824D01*
X107043074Y-92641406D01*
X107021385Y-92589043D01*
X106928307Y-92449744D01*
X106928303Y-92449740D01*
X106928301Y-92449737D01*
X100654500Y-86175936D01*
X100621015Y-86114613D01*
X100618181Y-86088255D01*
X100618181Y-79801436D01*
X100637866Y-79734397D01*
X100690670Y-79688642D01*
X100759828Y-79678698D01*
X100823384Y-79707723D01*
X100860111Y-79763117D01*
X100872461Y-79801125D01*
X100965266Y-79983265D01*
X100965396Y-79983519D01*
X101085709Y-80149119D01*
X101230467Y-80293877D01*
X101350907Y-80381380D01*
X101396071Y-80414193D01*
X101512288Y-80473409D01*
X101578457Y-80507124D01*
X101578459Y-80507124D01*
X101578462Y-80507126D01*
X101682818Y-80541033D01*
X101773146Y-80570383D01*
X101874238Y-80586394D01*
X101975329Y-80602406D01*
X102124030Y-80602406D01*
X102191069Y-80622091D01*
X102211711Y-80638725D01*
X105370515Y-83797530D01*
X105370519Y-83797533D01*
X105509813Y-83890607D01*
X105509814Y-83890607D01*
X105509818Y-83890610D01*
X105616231Y-83934687D01*
X105664599Y-83954722D01*
X105828909Y-83987405D01*
X105828913Y-83987406D01*
X105828914Y-83987406D01*
X105996448Y-83987406D01*
X122251058Y-83987406D01*
X122318097Y-84007091D01*
X122358444Y-84049405D01*
X122378233Y-84083680D01*
X122378238Y-84083686D01*
X122378239Y-84083688D01*
X122513932Y-84260528D01*
X122513938Y-84260535D01*
X122671551Y-84418148D01*
X122671557Y-84418153D01*
X122848407Y-84553854D01*
X123041455Y-84665311D01*
X123247400Y-84750616D01*
X123462718Y-84808310D01*
X123683724Y-84837406D01*
X123683731Y-84837406D01*
X123906631Y-84837406D01*
X123906638Y-84837406D01*
X124127644Y-84808310D01*
X124342962Y-84750616D01*
X124548907Y-84665311D01*
X124741955Y-84553854D01*
X124918805Y-84418153D01*
X125076428Y-84260530D01*
X125212129Y-84083680D01*
X125231917Y-84049405D01*
X125282484Y-84001190D01*
X125339304Y-83987406D01*
X129206449Y-83987406D01*
X129206450Y-83987405D01*
X129370763Y-83954722D01*
X129419131Y-83934687D01*
X129525544Y-83890610D01*
X129664843Y-83797533D01*
X138083650Y-75378724D01*
X138144973Y-75345240D01*
X138171331Y-75342406D01*
X183310704Y-75342406D01*
X183377743Y-75362091D01*
X183423498Y-75414895D01*
X183433442Y-75484053D01*
X183428635Y-75504723D01*
X183392078Y-75617234D01*
X183352681Y-75865977D01*
X183352681Y-76117834D01*
X183392078Y-76366575D01*
X183469900Y-76606090D01*
X183584238Y-76830489D01*
X183658429Y-76932603D01*
X183658429Y-76932604D01*
X184428893Y-76162139D01*
X184440163Y-76204198D01*
X184512571Y-76329614D01*
X184614973Y-76432016D01*
X184740389Y-76504424D01*
X184782446Y-76515693D01*
X184011981Y-77286156D01*
X184114097Y-77360348D01*
X184338496Y-77474686D01*
X184578011Y-77552508D01*
X184826753Y-77591906D01*
X185078609Y-77591906D01*
X185327350Y-77552508D01*
X185566865Y-77474686D01*
X185791256Y-77360352D01*
X185791262Y-77360348D01*
X185893378Y-77286156D01*
X185893379Y-77286156D01*
X185122915Y-76515693D01*
X185164973Y-76504424D01*
X185290389Y-76432016D01*
X185392791Y-76329614D01*
X185465199Y-76204198D01*
X185476468Y-76162140D01*
X186246931Y-76932604D01*
X186246931Y-76932603D01*
X186321123Y-76830487D01*
X186321127Y-76830481D01*
X186435461Y-76606090D01*
X186513283Y-76366575D01*
X186552681Y-76117834D01*
X186552681Y-75865977D01*
X186513283Y-75617236D01*
X186435461Y-75377721D01*
X186321123Y-75153322D01*
X186246931Y-75051207D01*
X186246931Y-75051206D01*
X185476468Y-75821670D01*
X185465199Y-75779614D01*
X185392791Y-75654198D01*
X185290389Y-75551796D01*
X185164973Y-75479388D01*
X185122914Y-75468118D01*
X185734275Y-74856757D01*
X185765656Y-74833957D01*
X185791526Y-74820776D01*
X185995337Y-74672699D01*
X186173474Y-74494562D01*
X186321551Y-74290751D01*
X186435922Y-74066285D01*
X186480825Y-73928087D01*
X186520263Y-73870412D01*
X186584621Y-73843214D01*
X186598756Y-73842406D01*
X198864030Y-73842406D01*
X198931069Y-73862091D01*
X198951711Y-73878725D01*
X200880862Y-75807876D01*
X200914347Y-75869199D01*
X200917181Y-75895557D01*
X200917181Y-113588255D01*
X200897496Y-113655294D01*
X200880862Y-113675936D01*
X181951711Y-132605087D01*
X181890388Y-132638572D01*
X181864030Y-132641406D01*
X101171332Y-132641406D01*
X101104293Y-132621721D01*
X101083651Y-132605087D01*
X90154500Y-121675936D01*
X90121015Y-121614613D01*
X90118181Y-121588255D01*
X90118181Y-116389588D01*
X110217681Y-116389588D01*
X110217681Y-116594223D01*
X110249690Y-116796323D01*
X110312925Y-116990937D01*
X110405822Y-117173256D01*
X110405828Y-117173265D01*
X110438204Y-117217827D01*
X110438205Y-117217828D01*
X111117681Y-116538352D01*
X111117681Y-116544567D01*
X111144940Y-116646300D01*
X111197601Y-116737512D01*
X111272075Y-116811986D01*
X111363287Y-116864647D01*
X111465020Y-116891906D01*
X111471234Y-116891906D01*
X110791757Y-117571380D01*
X110836331Y-117603765D01*
X111018649Y-117696661D01*
X111213263Y-117759896D01*
X111415364Y-117791906D01*
X111619998Y-117791906D01*
X111822098Y-117759896D01*
X112016712Y-117696661D01*
X112199030Y-117603765D01*
X112243602Y-117571380D01*
X111564128Y-116891906D01*
X111570342Y-116891906D01*
X111672075Y-116864647D01*
X111763287Y-116811986D01*
X111837761Y-116737512D01*
X111890422Y-116646300D01*
X111917681Y-116544567D01*
X111917681Y-116538354D01*
X112597155Y-117217828D01*
X112597155Y-117217827D01*
X112629540Y-117173255D01*
X112722436Y-116990937D01*
X112785671Y-116796323D01*
X112817681Y-116594223D01*
X112817681Y-116389588D01*
X112817676Y-116389554D01*
X137717181Y-116389554D01*
X137717181Y-116594257D01*
X137749203Y-116796440D01*
X137812462Y-116991129D01*
X137876372Y-117116559D01*
X137905266Y-117173265D01*
X137905396Y-117173519D01*
X138025709Y-117339119D01*
X138170467Y-117483877D01*
X138290907Y-117571380D01*
X138336071Y-117604193D01*
X138452288Y-117663409D01*
X138518457Y-117697124D01*
X138518459Y-117697124D01*
X138518462Y-117697126D01*
X138622818Y-117731033D01*
X138713146Y-117760383D01*
X138814238Y-117776394D01*
X138915329Y-117792406D01*
X138915330Y-117792406D01*
X139120032Y-117792406D01*
X139120033Y-117792406D01*
X139322215Y-117760383D01*
X139516900Y-117697126D01*
X139699291Y-117604193D01*
X139792271Y-117536638D01*
X139864894Y-117483877D01*
X139864896Y-117483874D01*
X139864900Y-117483872D01*
X140009647Y-117339125D01*
X140009649Y-117339121D01*
X140009652Y-117339119D01*
X140062413Y-117266496D01*
X140129968Y-117173516D01*
X140222901Y-116991125D01*
X140286158Y-116796440D01*
X140318181Y-116594258D01*
X140318181Y-116445557D01*
X140337866Y-116378518D01*
X140354500Y-116357876D01*
X144205805Y-112506571D01*
X144205808Y-112506568D01*
X144298885Y-112367269D01*
X144362997Y-112212487D01*
X144381052Y-112121721D01*
X144395680Y-112048177D01*
X144395681Y-112048174D01*
X144395681Y-104739257D01*
X144415366Y-104672218D01*
X144468170Y-104626463D01*
X144506428Y-104615967D01*
X144552664Y-104610997D01*
X144687512Y-104560702D01*
X144802727Y-104474452D01*
X144888977Y-104359237D01*
X144939272Y-104224389D01*
X144945681Y-104164779D01*
X144945680Y-102269034D01*
X144939272Y-102209423D01*
X144888977Y-102074575D01*
X144888976Y-102074574D01*
X144888974Y-102074570D01*
X144802728Y-101959361D01*
X144802725Y-101959358D01*
X144687516Y-101873112D01*
X144687509Y-101873108D01*
X144607600Y-101843304D01*
X144551666Y-101801433D01*
X144527249Y-101735968D01*
X144542101Y-101667695D01*
X144563250Y-101639443D01*
X144613423Y-101589271D01*
X144742996Y-101410928D01*
X144843076Y-101214512D01*
X144911196Y-101004857D01*
X144945681Y-100787128D01*
X144945681Y-100566684D01*
X144911196Y-100348955D01*
X144843076Y-100139300D01*
X144843076Y-100139299D01*
X144801206Y-100057127D01*
X144742996Y-99942884D01*
X144665838Y-99836684D01*
X144613428Y-99764547D01*
X144613424Y-99764542D01*
X144457548Y-99608666D01*
X144457542Y-99608661D01*
X144446793Y-99600851D01*
X144404129Y-99545520D01*
X144395681Y-99500535D01*
X144395681Y-84431029D01*
X144415366Y-84363990D01*
X144457681Y-84323642D01*
X144491955Y-84303854D01*
X144668805Y-84168153D01*
X144826428Y-84010530D01*
X144962129Y-83833680D01*
X145073586Y-83640632D01*
X145158891Y-83434687D01*
X145201557Y-83275455D01*
X156844681Y-83275455D01*
X156844681Y-83498356D01*
X156844682Y-83498372D01*
X156873775Y-83719358D01*
X156873776Y-83719363D01*
X156873777Y-83719369D01*
X156931471Y-83934687D01*
X157016776Y-84140632D01*
X157128233Y-84333680D01*
X157128238Y-84333686D01*
X157128239Y-84333688D01*
X157263932Y-84510528D01*
X157263938Y-84510535D01*
X157421551Y-84668148D01*
X157421558Y-84668154D01*
X157431700Y-84675936D01*
X157598407Y-84803854D01*
X157606127Y-84808311D01*
X157632681Y-84823642D01*
X157680897Y-84874209D01*
X157694681Y-84931029D01*
X157694681Y-98770535D01*
X157674996Y-98837574D01*
X157643569Y-98870851D01*
X157632819Y-98878661D01*
X157632813Y-98878666D01*
X157476937Y-99034542D01*
X157476933Y-99034547D01*
X157347368Y-99212880D01*
X157247285Y-99409299D01*
X157247284Y-99409302D01*
X157179166Y-99618953D01*
X157144681Y-99836684D01*
X157144681Y-100057127D01*
X157179166Y-100274858D01*
X157247284Y-100484509D01*
X157247285Y-100484512D01*
X157347368Y-100680931D01*
X157476933Y-100859264D01*
X157476937Y-100859269D01*
X157527497Y-100909829D01*
X157560982Y-100971152D01*
X157555998Y-101040844D01*
X157514126Y-101096777D01*
X157483150Y-101113691D01*
X157403099Y-101143549D01*
X157403087Y-101143555D01*
X157287993Y-101229715D01*
X157287990Y-101229718D01*
X157201830Y-101344812D01*
X157201826Y-101344819D01*
X157151584Y-101479526D01*
X157151582Y-101479533D01*
X157145181Y-101539061D01*
X157145181Y-102236906D01*
X158169903Y-102236906D01*
X158125848Y-102313212D01*
X158095181Y-102427662D01*
X158095181Y-102546150D01*
X158125848Y-102660600D01*
X158169903Y-102736906D01*
X157145181Y-102736906D01*
X157145181Y-103434750D01*
X157151582Y-103494278D01*
X157151584Y-103494285D01*
X157201826Y-103628992D01*
X157201830Y-103628999D01*
X157287990Y-103744093D01*
X157287993Y-103744096D01*
X157403087Y-103830256D01*
X157403094Y-103830260D01*
X157537801Y-103880502D01*
X157537808Y-103880504D01*
X157597336Y-103886905D01*
X157597353Y-103886906D01*
X158295181Y-103886906D01*
X158295181Y-102862183D01*
X158371487Y-102906239D01*
X158485937Y-102936906D01*
X158604425Y-102936906D01*
X158718875Y-102906239D01*
X158795181Y-102862183D01*
X158795181Y-103886906D01*
X159493009Y-103886906D01*
X159493025Y-103886905D01*
X159552553Y-103880504D01*
X159552560Y-103880502D01*
X159687267Y-103830260D01*
X159687274Y-103830256D01*
X159802368Y-103744096D01*
X159802371Y-103744093D01*
X159888531Y-103628999D01*
X159888535Y-103628992D01*
X159938777Y-103494285D01*
X159938779Y-103494278D01*
X159945180Y-103434750D01*
X159945181Y-103434733D01*
X159945181Y-102736906D01*
X158920459Y-102736906D01*
X158964514Y-102660600D01*
X158995181Y-102546150D01*
X158995181Y-102427662D01*
X158964514Y-102313212D01*
X158920459Y-102236906D01*
X159945181Y-102236906D01*
X159945181Y-101539078D01*
X159945180Y-101539061D01*
X159938779Y-101479533D01*
X159938777Y-101479526D01*
X159888535Y-101344819D01*
X159888531Y-101344812D01*
X159802371Y-101229718D01*
X159802368Y-101229715D01*
X159687274Y-101143555D01*
X159687268Y-101143552D01*
X159607211Y-101113692D01*
X159551278Y-101071820D01*
X159526861Y-101006356D01*
X159541713Y-100938083D01*
X159562862Y-100909831D01*
X159613423Y-100859271D01*
X159742996Y-100680928D01*
X159843076Y-100484512D01*
X159911196Y-100274857D01*
X159945681Y-100057128D01*
X159945681Y-99836684D01*
X159911196Y-99618955D01*
X159843076Y-99409300D01*
X159843076Y-99409299D01*
X159808418Y-99341281D01*
X159742996Y-99212884D01*
X159726441Y-99190098D01*
X159613428Y-99034547D01*
X159613424Y-99034542D01*
X159457548Y-98878666D01*
X159457542Y-98878661D01*
X159446793Y-98870851D01*
X159404129Y-98815520D01*
X159395681Y-98770535D01*
X159395681Y-84931029D01*
X159415366Y-84863990D01*
X159457681Y-84823642D01*
X159491955Y-84803854D01*
X159668805Y-84668153D01*
X159826428Y-84510530D01*
X159962129Y-84333680D01*
X160073586Y-84140632D01*
X160158891Y-83934687D01*
X160216585Y-83719369D01*
X160245681Y-83498363D01*
X160245681Y-83275449D01*
X160216585Y-83054443D01*
X160158891Y-82839125D01*
X160073586Y-82633180D01*
X159962129Y-82440132D01*
X159826428Y-82263282D01*
X159826423Y-82263276D01*
X159668810Y-82105663D01*
X159668803Y-82105657D01*
X159491963Y-81969964D01*
X159491961Y-81969963D01*
X159491955Y-81969958D01*
X159298907Y-81858501D01*
X159298903Y-81858499D01*
X159092971Y-81773199D01*
X159092964Y-81773197D01*
X159092962Y-81773196D01*
X158877644Y-81715502D01*
X158877638Y-81715501D01*
X158877633Y-81715500D01*
X158656647Y-81686407D01*
X158656644Y-81686406D01*
X158656638Y-81686406D01*
X158433724Y-81686406D01*
X158433718Y-81686406D01*
X158433714Y-81686407D01*
X158212728Y-81715500D01*
X158212721Y-81715501D01*
X158212718Y-81715502D01*
X158196066Y-81719964D01*
X157997400Y-81773196D01*
X157997390Y-81773199D01*
X157791458Y-81858499D01*
X157791454Y-81858501D01*
X157598407Y-81969958D01*
X157598398Y-81969964D01*
X157421558Y-82105657D01*
X157421551Y-82105663D01*
X157263938Y-82263276D01*
X157263932Y-82263283D01*
X157128239Y-82440123D01*
X157128233Y-82440132D01*
X157016776Y-82633179D01*
X157016774Y-82633183D01*
X156931474Y-82839115D01*
X156931471Y-82839125D01*
X156888806Y-82998356D01*
X156873778Y-83054440D01*
X156873775Y-83054453D01*
X156844682Y-83275439D01*
X156844681Y-83275455D01*
X145201557Y-83275455D01*
X145216585Y-83219369D01*
X145245681Y-82998363D01*
X145245681Y-82775449D01*
X145216585Y-82554443D01*
X145158891Y-82339125D01*
X145073586Y-82133180D01*
X144962129Y-81940132D01*
X144826428Y-81763282D01*
X144826423Y-81763276D01*
X144668810Y-81605663D01*
X144668803Y-81605657D01*
X144491963Y-81469964D01*
X144491961Y-81469963D01*
X144491955Y-81469958D01*
X144298907Y-81358501D01*
X144298903Y-81358499D01*
X144092971Y-81273199D01*
X144092964Y-81273197D01*
X144092962Y-81273196D01*
X143877644Y-81215502D01*
X143877638Y-81215501D01*
X143877633Y-81215500D01*
X143656647Y-81186407D01*
X143656644Y-81186406D01*
X143656638Y-81186406D01*
X143433724Y-81186406D01*
X143433718Y-81186406D01*
X143433714Y-81186407D01*
X143212728Y-81215500D01*
X143212721Y-81215501D01*
X143212718Y-81215502D01*
X142997400Y-81273196D01*
X142997390Y-81273199D01*
X142791458Y-81358499D01*
X142791454Y-81358501D01*
X142598407Y-81469958D01*
X142598398Y-81469964D01*
X142421558Y-81605657D01*
X142421551Y-81605663D01*
X142263938Y-81763276D01*
X142263932Y-81763283D01*
X142128239Y-81940123D01*
X142128233Y-81940132D01*
X142016776Y-82133179D01*
X142016774Y-82133183D01*
X141931474Y-82339115D01*
X141931471Y-82339125D01*
X141873778Y-82554440D01*
X141873775Y-82554453D01*
X141844682Y-82775439D01*
X141844681Y-82775455D01*
X141844681Y-82998356D01*
X141844682Y-82998372D01*
X141873775Y-83219358D01*
X141873776Y-83219363D01*
X141873777Y-83219369D01*
X141924358Y-83408139D01*
X141931471Y-83434686D01*
X141931474Y-83434696D01*
X142016774Y-83640628D01*
X142016776Y-83640632D01*
X142128233Y-83833680D01*
X142128238Y-83833686D01*
X142128239Y-83833688D01*
X142263932Y-84010528D01*
X142263938Y-84010535D01*
X142421551Y-84168148D01*
X142421557Y-84168153D01*
X142598407Y-84303854D01*
X142632681Y-84323642D01*
X142680897Y-84374209D01*
X142694681Y-84431029D01*
X142694681Y-99500535D01*
X142674996Y-99567574D01*
X142643569Y-99600851D01*
X142632819Y-99608661D01*
X142632813Y-99608666D01*
X142476937Y-99764542D01*
X142476933Y-99764547D01*
X142347368Y-99942880D01*
X142247285Y-100139299D01*
X142247284Y-100139302D01*
X142179166Y-100348953D01*
X142144681Y-100566684D01*
X142144681Y-100787127D01*
X142179166Y-101004858D01*
X142247284Y-101214509D01*
X142247285Y-101214512D01*
X142347368Y-101410931D01*
X142476933Y-101589264D01*
X142476937Y-101589269D01*
X142527109Y-101639441D01*
X142560594Y-101700764D01*
X142555610Y-101770456D01*
X142513738Y-101826389D01*
X142482762Y-101843304D01*
X142402850Y-101873109D01*
X142402845Y-101873112D01*
X142287636Y-101959358D01*
X142287633Y-101959361D01*
X142201387Y-102074570D01*
X142201383Y-102074577D01*
X142151089Y-102209423D01*
X142148135Y-102236906D01*
X142144682Y-102269029D01*
X142144681Y-102269041D01*
X142144681Y-104164776D01*
X142144682Y-104164782D01*
X142151089Y-104224389D01*
X142201383Y-104359234D01*
X142201387Y-104359241D01*
X142287633Y-104474450D01*
X142287636Y-104474453D01*
X142402845Y-104560699D01*
X142402852Y-104560703D01*
X142537697Y-104610997D01*
X142583938Y-104615969D01*
X142648488Y-104642707D01*
X142688336Y-104700100D01*
X142694681Y-104739258D01*
X142694681Y-111560755D01*
X142674996Y-111627794D01*
X142658362Y-111648436D01*
X139151711Y-115155087D01*
X139090388Y-115188572D01*
X139064030Y-115191406D01*
X138915329Y-115191406D01*
X138891010Y-115195257D01*
X138713146Y-115223428D01*
X138518457Y-115286687D01*
X138336067Y-115379621D01*
X138170467Y-115499934D01*
X138025709Y-115644692D01*
X137905396Y-115810292D01*
X137812462Y-115992682D01*
X137749203Y-116187371D01*
X137717181Y-116389554D01*
X112817676Y-116389554D01*
X112785671Y-116187488D01*
X112722436Y-115992874D01*
X112629540Y-115810556D01*
X112597155Y-115765983D01*
X112597155Y-115765982D01*
X111917681Y-116445457D01*
X111917681Y-116439245D01*
X111890422Y-116337512D01*
X111837761Y-116246300D01*
X111763287Y-116171826D01*
X111672075Y-116119165D01*
X111570342Y-116091906D01*
X111564127Y-116091906D01*
X112243603Y-115412430D01*
X112243602Y-115412429D01*
X112199040Y-115380053D01*
X112199031Y-115380047D01*
X112016712Y-115287150D01*
X111822098Y-115223915D01*
X111619998Y-115191906D01*
X111415364Y-115191906D01*
X111213263Y-115223915D01*
X111018649Y-115287150D01*
X110836325Y-115380049D01*
X110791758Y-115412429D01*
X110791758Y-115412430D01*
X111471235Y-116091906D01*
X111465020Y-116091906D01*
X111363287Y-116119165D01*
X111272075Y-116171826D01*
X111197601Y-116246300D01*
X111144940Y-116337512D01*
X111117681Y-116439245D01*
X111117681Y-116445459D01*
X110438205Y-115765983D01*
X110438204Y-115765983D01*
X110405824Y-115810550D01*
X110312925Y-115992874D01*
X110249690Y-116187488D01*
X110217681Y-116389588D01*
X90118181Y-116389588D01*
X90118181Y-107665074D01*
X95528063Y-107665074D01*
X95587023Y-107707911D01*
X95779863Y-107806169D01*
X95779866Y-107806170D01*
X95985699Y-107873048D01*
X96199461Y-107906906D01*
X96415901Y-107906906D01*
X96629662Y-107873048D01*
X96835495Y-107806170D01*
X96835498Y-107806169D01*
X97028337Y-107707912D01*
X97087296Y-107665074D01*
X97087297Y-107665074D01*
X96307681Y-106885459D01*
X95528063Y-107665074D01*
X90118181Y-107665074D01*
X90118181Y-106423685D01*
X94932681Y-106423685D01*
X94932681Y-106640126D01*
X94966538Y-106853887D01*
X95033416Y-107059720D01*
X95033417Y-107059723D01*
X95131677Y-107252566D01*
X95174510Y-107311521D01*
X95174511Y-107311522D01*
X95954127Y-106531907D01*
X95954127Y-106531905D01*
X95908050Y-106485828D01*
X95957681Y-106485828D01*
X95957681Y-106577984D01*
X95981533Y-106667001D01*
X96027611Y-106746811D01*
X96092776Y-106811976D01*
X96172586Y-106858054D01*
X96261603Y-106881906D01*
X96353759Y-106881906D01*
X96442776Y-106858054D01*
X96522586Y-106811976D01*
X96587751Y-106746811D01*
X96633829Y-106667001D01*
X96657681Y-106577984D01*
X96657681Y-106531905D01*
X96661234Y-106531905D01*
X96661234Y-106531907D01*
X97440849Y-107311522D01*
X97440849Y-107311521D01*
X97483687Y-107252562D01*
X97581944Y-107059723D01*
X97581945Y-107059720D01*
X97648823Y-106853887D01*
X97682681Y-106640126D01*
X97682681Y-106423685D01*
X97648823Y-106209924D01*
X97581945Y-106004091D01*
X97581944Y-106004088D01*
X97483686Y-105811248D01*
X97440849Y-105752289D01*
X97440849Y-105752288D01*
X96661234Y-106531905D01*
X96657681Y-106531905D01*
X96657681Y-106485828D01*
X96633829Y-106396811D01*
X96587751Y-106317001D01*
X96522586Y-106251836D01*
X96442776Y-106205758D01*
X96353759Y-106181906D01*
X96261603Y-106181906D01*
X96172586Y-106205758D01*
X96092776Y-106251836D01*
X96027611Y-106317001D01*
X95981533Y-106396811D01*
X95957681Y-106485828D01*
X95908050Y-106485828D01*
X95174511Y-105752289D01*
X95131673Y-105811252D01*
X95033417Y-106004088D01*
X95033416Y-106004091D01*
X94966538Y-106209924D01*
X94932681Y-106423685D01*
X90118181Y-106423685D01*
X90118181Y-105398736D01*
X95528064Y-105398736D01*
X96307681Y-106178352D01*
X97087297Y-105398736D01*
X97087296Y-105398735D01*
X97028341Y-105355902D01*
X96835498Y-105257642D01*
X96835495Y-105257641D01*
X96629662Y-105190763D01*
X96415901Y-105156906D01*
X96199461Y-105156906D01*
X95985699Y-105190763D01*
X95779866Y-105257641D01*
X95779863Y-105257642D01*
X95587027Y-105355898D01*
X95528064Y-105398736D01*
X90118181Y-105398736D01*
X90118181Y-96908138D01*
X90118180Y-96908134D01*
X90085498Y-96743830D01*
X90085497Y-96743824D01*
X90066718Y-96698490D01*
X90021385Y-96589043D01*
X89928308Y-96449744D01*
X89928305Y-96449740D01*
X78154500Y-84675935D01*
X78121015Y-84614612D01*
X78118181Y-84588254D01*
X78118181Y-71081889D01*
X93157181Y-71081889D01*
X93157181Y-72281907D01*
X93157182Y-72281924D01*
X93167681Y-72384702D01*
X93167682Y-72384705D01*
X93175816Y-72409250D01*
X93222867Y-72551240D01*
X93314969Y-72700562D01*
X93439025Y-72824618D01*
X93588347Y-72916720D01*
X93670251Y-72943860D01*
X93727696Y-72983633D01*
X93754519Y-73048149D01*
X93742204Y-73116924D01*
X93704132Y-73161884D01*
X93610468Y-73229934D01*
X93610463Y-73229938D01*
X93465709Y-73374692D01*
X93345396Y-73540292D01*
X93252462Y-73722682D01*
X93189203Y-73917371D01*
X93157181Y-74119554D01*
X93157181Y-74324257D01*
X93189203Y-74526440D01*
X93252462Y-74721129D01*
X93345396Y-74903519D01*
X93465709Y-75069119D01*
X93610467Y-75213877D01*
X93742389Y-75309722D01*
X93776071Y-75334193D01*
X93863470Y-75378725D01*
X93868761Y-75381421D01*
X93919557Y-75429396D01*
X93936352Y-75497217D01*
X93913815Y-75563352D01*
X93868761Y-75602391D01*
X93776067Y-75649621D01*
X93610467Y-75769934D01*
X93465709Y-75914692D01*
X93345396Y-76080292D01*
X93252462Y-76262682D01*
X93189203Y-76457371D01*
X93157181Y-76659554D01*
X93157181Y-76864257D01*
X93189203Y-77066440D01*
X93252462Y-77261129D01*
X93345396Y-77443519D01*
X93465709Y-77609119D01*
X93610467Y-77753877D01*
X93776066Y-77874190D01*
X93776068Y-77874191D01*
X93776071Y-77874193D01*
X93868761Y-77921421D01*
X93869311Y-77921701D01*
X93920107Y-77969676D01*
X93936902Y-78037497D01*
X93914365Y-78103631D01*
X93869311Y-78142671D01*
X93776325Y-78190049D01*
X93731758Y-78222429D01*
X93731758Y-78222430D01*
X94411235Y-78901906D01*
X94405020Y-78901906D01*
X94303287Y-78929165D01*
X94212075Y-78981826D01*
X94137601Y-79056300D01*
X94084940Y-79147512D01*
X94057681Y-79249245D01*
X94057681Y-79255459D01*
X93378205Y-78575983D01*
X93378204Y-78575983D01*
X93345824Y-78620550D01*
X93252925Y-78802874D01*
X93189690Y-78997488D01*
X93157681Y-79199588D01*
X93157681Y-79404223D01*
X93189690Y-79606323D01*
X93252925Y-79800937D01*
X93345822Y-79983256D01*
X93345828Y-79983265D01*
X93378204Y-80027827D01*
X93378205Y-80027828D01*
X94057681Y-79348352D01*
X94057681Y-79354567D01*
X94084940Y-79456300D01*
X94137601Y-79547512D01*
X94212075Y-79621986D01*
X94303287Y-79674647D01*
X94405020Y-79701906D01*
X94411234Y-79701906D01*
X93731757Y-80381380D01*
X93776331Y-80413765D01*
X93958649Y-80506661D01*
X94153263Y-80569896D01*
X94355364Y-80601906D01*
X94559998Y-80601906D01*
X94762098Y-80569896D01*
X94956712Y-80506661D01*
X95139030Y-80413765D01*
X95183602Y-80381380D01*
X94504128Y-79701906D01*
X94510342Y-79701906D01*
X94612075Y-79674647D01*
X94703287Y-79621986D01*
X94777761Y-79547512D01*
X94830422Y-79456300D01*
X94857681Y-79354567D01*
X94857681Y-79348353D01*
X95537155Y-80027827D01*
X95569540Y-79983255D01*
X95662436Y-79800937D01*
X95725671Y-79606323D01*
X95757681Y-79404223D01*
X95757681Y-79199588D01*
X95725671Y-78997488D01*
X95662436Y-78802874D01*
X95569540Y-78620556D01*
X95537155Y-78575983D01*
X95537155Y-78575982D01*
X94857681Y-79255457D01*
X94857681Y-79249245D01*
X94830422Y-79147512D01*
X94777761Y-79056300D01*
X94703287Y-78981826D01*
X94612075Y-78929165D01*
X94510342Y-78901906D01*
X94504127Y-78901906D01*
X95183603Y-78222430D01*
X95183602Y-78222429D01*
X95139040Y-78190053D01*
X95139031Y-78190047D01*
X95046050Y-78142671D01*
X94995254Y-78094696D01*
X94978459Y-78026875D01*
X95000996Y-77960741D01*
X95046051Y-77921701D01*
X95046601Y-77921421D01*
X95139291Y-77874193D01*
X95188825Y-77838204D01*
X95304894Y-77753877D01*
X95304896Y-77753874D01*
X95304900Y-77753872D01*
X95449647Y-77609125D01*
X95449649Y-77609121D01*
X95449652Y-77609119D01*
X95502413Y-77536496D01*
X95569968Y-77443516D01*
X95662901Y-77261125D01*
X95726158Y-77066440D01*
X95758181Y-76864258D01*
X95758181Y-76659554D01*
X95739547Y-76541906D01*
X95726158Y-76457371D01*
X95662899Y-76262682D01*
X95629184Y-76196513D01*
X95569968Y-76080296D01*
X95558357Y-76064315D01*
X95449652Y-75914692D01*
X95304894Y-75769934D01*
X95139295Y-75649621D01*
X95132687Y-75646254D01*
X95046598Y-75602389D01*
X94995804Y-75554417D01*
X94979009Y-75486596D01*
X95001546Y-75420461D01*
X95046598Y-75381422D01*
X95139291Y-75334193D01*
X95198820Y-75290943D01*
X95304894Y-75213877D01*
X95304896Y-75213874D01*
X95304900Y-75213872D01*
X95449647Y-75069125D01*
X95449649Y-75069121D01*
X95449652Y-75069119D01*
X95517591Y-74975607D01*
X95569968Y-74903516D01*
X95662901Y-74721125D01*
X95726158Y-74526440D01*
X95758181Y-74324258D01*
X95758181Y-74119554D01*
X95726158Y-73917372D01*
X95662901Y-73722687D01*
X95662899Y-73722684D01*
X95662899Y-73722682D01*
X95615776Y-73630200D01*
X95569968Y-73540296D01*
X95553338Y-73517406D01*
X95449652Y-73374692D01*
X95304900Y-73229940D01*
X95304892Y-73229934D01*
X95211228Y-73161884D01*
X95168563Y-73106555D01*
X95162584Y-73036942D01*
X95195189Y-72975146D01*
X95245107Y-72943861D01*
X95327015Y-72916720D01*
X95476337Y-72824618D01*
X95600393Y-72700562D01*
X95692495Y-72551240D01*
X95747680Y-72384703D01*
X95758181Y-72281915D01*
X95758180Y-71081898D01*
X95747680Y-70979109D01*
X95692495Y-70812572D01*
X95600393Y-70663250D01*
X95476337Y-70539194D01*
X95327015Y-70447092D01*
X95160478Y-70391907D01*
X95160476Y-70391906D01*
X95057691Y-70381406D01*
X93857679Y-70381406D01*
X93857662Y-70381407D01*
X93754884Y-70391906D01*
X93754881Y-70391907D01*
X93588349Y-70447091D01*
X93588344Y-70447093D01*
X93439023Y-70539195D01*
X93314970Y-70663248D01*
X93222868Y-70812569D01*
X93222867Y-70812572D01*
X93167682Y-70979109D01*
X93167682Y-70979110D01*
X93167681Y-70979110D01*
X93157181Y-71081889D01*
X78118181Y-71081889D01*
X78118181Y-64754453D01*
X78137866Y-64687414D01*
X78154500Y-64666772D01*
X78209500Y-64611772D01*
X78287147Y-64534125D01*
X78287149Y-64534121D01*
X78287152Y-64534119D01*
X78339913Y-64461496D01*
X78407468Y-64368516D01*
X78500401Y-64186125D01*
X78563658Y-63991440D01*
X78595681Y-63789258D01*
X78595681Y-63584554D01*
X78587438Y-63532512D01*
X78563658Y-63382371D01*
X78532639Y-63286906D01*
X78500401Y-63187687D01*
X78500399Y-63187684D01*
X78500399Y-63187682D01*
X78407600Y-63005556D01*
X78407468Y-63005296D01*
X78375273Y-62960983D01*
X78287152Y-62839692D01*
X78142394Y-62694934D01*
X77976794Y-62574621D01*
X77976793Y-62574620D01*
X77976791Y-62574619D01*
X77919834Y-62545597D01*
X77794404Y-62481687D01*
X77599715Y-62418428D01*
X77425176Y-62390784D01*
X77397533Y-62386406D01*
X77192829Y-62386406D01*
X77168510Y-62390257D01*
X76990646Y-62418428D01*
X76795957Y-62481687D01*
X76613567Y-62574621D01*
X76447967Y-62694934D01*
X76303209Y-62839692D01*
X76182896Y-63005292D01*
X76089962Y-63187682D01*
X76026703Y-63382371D01*
X75994681Y-63584554D01*
X75994681Y-63789257D01*
X76026703Y-63991440D01*
X76089962Y-64186129D01*
X76153872Y-64311559D01*
X76182766Y-64368265D01*
X76182896Y-64368519D01*
X76303209Y-64534119D01*
X76380862Y-64611772D01*
X76414347Y-64673095D01*
X76417181Y-64699453D01*
X76417181Y-84588255D01*
X76397496Y-84655294D01*
X76380862Y-84675936D01*
X73451711Y-87605087D01*
X73390388Y-87638572D01*
X73364030Y-87641406D01*
X39171332Y-87641406D01*
X39104293Y-87621721D01*
X39083651Y-87605087D01*
X34654500Y-83175936D01*
X34621015Y-83114613D01*
X34618181Y-83088255D01*
X34618181Y-82215453D01*
X34637866Y-82148414D01*
X34669295Y-82115136D01*
X34797473Y-82022010D01*
X34947785Y-81871698D01*
X34947787Y-81871694D01*
X34947790Y-81871692D01*
X35058030Y-81719958D01*
X35072732Y-81699722D01*
X35169238Y-81510318D01*
X35234927Y-81308149D01*
X35268181Y-81098193D01*
X35268181Y-80885619D01*
X35234927Y-80675663D01*
X35169238Y-80473494D01*
X35072732Y-80284090D01*
X35072730Y-80284087D01*
X35072729Y-80284085D01*
X34947790Y-80112119D01*
X34808612Y-79972941D01*
X34775127Y-79911618D01*
X34780111Y-79841926D01*
X34821983Y-79785993D01*
X34831197Y-79779721D01*
X34986024Y-79684223D01*
X35109996Y-79560251D01*
X35202037Y-79411030D01*
X35202039Y-79411025D01*
X35257186Y-79244603D01*
X35257187Y-79244596D01*
X35267680Y-79141892D01*
X35267681Y-79141879D01*
X35267681Y-78741906D01*
X34200693Y-78741906D01*
X34233606Y-78684899D01*
X34267681Y-78557732D01*
X34267681Y-78426080D01*
X34233606Y-78298913D01*
X34200693Y-78241906D01*
X35267680Y-78241906D01*
X35267680Y-77841934D01*
X35267679Y-77841919D01*
X35257186Y-77739208D01*
X35202039Y-77572786D01*
X35202037Y-77572781D01*
X35109996Y-77423560D01*
X34986026Y-77299590D01*
X34836805Y-77207549D01*
X34836800Y-77207547D01*
X34670378Y-77152400D01*
X34670371Y-77152399D01*
X34567667Y-77141906D01*
X34017681Y-77141906D01*
X34017681Y-78058894D01*
X33960674Y-78025981D01*
X33833507Y-77991906D01*
X33701855Y-77991906D01*
X33574688Y-78025981D01*
X33517681Y-78058894D01*
X33517681Y-77141906D01*
X32967709Y-77141906D01*
X32967693Y-77141907D01*
X32864983Y-77152400D01*
X32698561Y-77207547D01*
X32698556Y-77207549D01*
X32549335Y-77299590D01*
X32425365Y-77423560D01*
X32333324Y-77572781D01*
X32333322Y-77572786D01*
X32278175Y-77739208D01*
X32278174Y-77739215D01*
X32267681Y-77841919D01*
X32267681Y-78241906D01*
X33334669Y-78241906D01*
X33301756Y-78298913D01*
X33267681Y-78426080D01*
X33267681Y-78557732D01*
X33301756Y-78684899D01*
X33334669Y-78741906D01*
X32267682Y-78741906D01*
X32267682Y-79141892D01*
X32278175Y-79244603D01*
X32333322Y-79411025D01*
X32333324Y-79411030D01*
X32425365Y-79560251D01*
X32549335Y-79684221D01*
X32704165Y-79779721D01*
X32750889Y-79831669D01*
X32762112Y-79900632D01*
X32734268Y-79964714D01*
X32726750Y-79972941D01*
X32587570Y-80112121D01*
X32462632Y-80284085D01*
X32366125Y-80473491D01*
X32300434Y-80675666D01*
X32267181Y-80885619D01*
X25920447Y-80885619D01*
X25750829Y-63584588D01*
X48495181Y-63584588D01*
X48495181Y-63789223D01*
X48527190Y-63991323D01*
X48590425Y-64185937D01*
X48683322Y-64368256D01*
X48683328Y-64368265D01*
X48715704Y-64412827D01*
X48715705Y-64412828D01*
X49395181Y-63733352D01*
X49395181Y-63739567D01*
X49422440Y-63841300D01*
X49475101Y-63932512D01*
X49549575Y-64006986D01*
X49640787Y-64059647D01*
X49742520Y-64086906D01*
X49748734Y-64086906D01*
X49069257Y-64766380D01*
X49113831Y-64798765D01*
X49296149Y-64891661D01*
X49490763Y-64954896D01*
X49692864Y-64986906D01*
X49897498Y-64986906D01*
X50099598Y-64954896D01*
X50294212Y-64891661D01*
X50476530Y-64798765D01*
X50521102Y-64766380D01*
X49841628Y-64086906D01*
X49847842Y-64086906D01*
X49949575Y-64059647D01*
X50040787Y-64006986D01*
X50115261Y-63932512D01*
X50167922Y-63841300D01*
X50195181Y-63739567D01*
X50195181Y-63733354D01*
X50874655Y-64412828D01*
X50874655Y-64412827D01*
X50907040Y-64368255D01*
X50999936Y-64185937D01*
X51063171Y-63991323D01*
X51095181Y-63789223D01*
X51095181Y-63584588D01*
X51063171Y-63382488D01*
X50999936Y-63187874D01*
X50907040Y-63005556D01*
X50874655Y-62960983D01*
X50874655Y-62960982D01*
X50195181Y-63640457D01*
X50195181Y-63634245D01*
X50167922Y-63532512D01*
X50115261Y-63441300D01*
X50040787Y-63366826D01*
X49949575Y-63314165D01*
X49847842Y-63286906D01*
X49841627Y-63286906D01*
X50521103Y-62607430D01*
X50521102Y-62607429D01*
X50476540Y-62575053D01*
X50476531Y-62575047D01*
X50294212Y-62482150D01*
X50099598Y-62418915D01*
X49897498Y-62386906D01*
X49692864Y-62386906D01*
X49490763Y-62418915D01*
X49296149Y-62482150D01*
X49113825Y-62575049D01*
X49069258Y-62607429D01*
X49069258Y-62607430D01*
X49748735Y-63286906D01*
X49742520Y-63286906D01*
X49640787Y-63314165D01*
X49549575Y-63366826D01*
X49475101Y-63441300D01*
X49422440Y-63532512D01*
X49395181Y-63634245D01*
X49395181Y-63640459D01*
X48715705Y-62960983D01*
X48715704Y-62960983D01*
X48683324Y-63005550D01*
X48590425Y-63187874D01*
X48527190Y-63382488D01*
X48495181Y-63584588D01*
X25750829Y-63584588D01*
X25501234Y-38125901D01*
X25520260Y-38058673D01*
X25572613Y-38012403D01*
X25625902Y-38000689D01*
X207876679Y-38999324D01*
G37*
%TD.AperFunction*%
%TD*%
M02*
