%TF.GenerationSoftware,KiCad,Pcbnew,9.0.2*%
%TF.CreationDate,2026-08-03T02:49:22+07:00*%
%TF.ProjectId,latihankicad,6c617469-6861-46e6-9b69-6361642e6b69,rev?*%
%TF.SameCoordinates,Original*%
%TF.FileFunction,Copper,L2,Bot*%
%TF.FilePolarity,Positive*%
%FSLAX46Y46*%
G04 Gerber Fmt 4.6, Leading zero omitted, Abs format (unit mm)*
G04 Created by KiCad (PCBNEW 9.0.2) date 2026-08-03 02:49:22*
%MOMM*%
%LPD*%
G01*
G04 APERTURE LIST*
G04 Aperture macros list*
%AMRoundRect*
0 Rectangle with rounded corners*
0 $1 Rounding radius*
0 $2 $3 $4 $5 $6 $7 $8 $9 X,Y pos of 4 corners*
0 Add a 4 corners polygon primitive as box body*
4,1,4,$2,$3,$4,$5,$6,$7,$8,$9,$2,$3,0*
0 Add four circle primitives for the rounded corners*
1,1,$1+$1,$2,$3*
1,1,$1+$1,$4,$5*
1,1,$1+$1,$6,$7*
1,1,$1+$1,$8,$9*
0 Add four rect primitives between the rounded corners*
20,1,$1+$1,$2,$3,$4,$5,0*
20,1,$1+$1,$4,$5,$6,$7,0*
20,1,$1+$1,$6,$7,$8,$9,0*
20,1,$1+$1,$8,$9,$2,$3,0*%
G04 Aperture macros list end*
%TA.AperFunction,ComponentPad*%
%ADD10RoundRect,0.250000X-0.550000X-0.550000X0.550000X-0.550000X0.550000X0.550000X-0.550000X0.550000X0*%
%TD*%
%TA.AperFunction,ComponentPad*%
%ADD11C,1.600000*%
%TD*%
%TA.AperFunction,ComponentPad*%
%ADD12C,1.750000*%
%TD*%
%TA.AperFunction,ComponentPad*%
%ADD13R,1.800000X1.800000*%
%TD*%
%TA.AperFunction,ComponentPad*%
%ADD14C,1.800000*%
%TD*%
%TA.AperFunction,ComponentPad*%
%ADD15R,1.350000X1.350000*%
%TD*%
%TA.AperFunction,ComponentPad*%
%ADD16C,1.350000*%
%TD*%
%TA.AperFunction,ComponentPad*%
%ADD17RoundRect,0.249999X-0.850001X0.850001X-0.850001X-0.850001X0.850001X-0.850001X0.850001X0.850001X0*%
%TD*%
%TA.AperFunction,ComponentPad*%
%ADD18C,2.200000*%
%TD*%
%TA.AperFunction,ComponentPad*%
%ADD19C,2.400000*%
%TD*%
%TA.AperFunction,Conductor*%
%ADD20C,0.200000*%
%TD*%
G04 APERTURE END LIST*
D10*
%TO.P,U1,1*%
%TO.N,Net-(J1-Pin_2)*%
X139700000Y-93980000D03*
D11*
%TO.P,U1,2,-*%
%TO.N,Net-(U1B--)*%
X139700000Y-96520000D03*
%TO.P,U1,3,+*%
%TO.N,Net-(J1-Pin_3)*%
X139700000Y-99060000D03*
%TO.P,U1,4,V-*%
%TO.N,GND*%
X139700000Y-101600000D03*
%TO.P,U1,5*%
%TO.N,N/C*%
X147320000Y-101600000D03*
%TO.P,U1,6*%
X147320000Y-99060000D03*
%TO.P,U1,7*%
X147320000Y-96520000D03*
%TO.P,U1,8,V+*%
%TO.N,VCC*%
X147320000Y-93980000D03*
%TD*%
D12*
%TO.P,RV1,1,1*%
%TO.N,GND*%
X121920000Y-99060000D03*
%TO.P,RV1,2,2*%
%TO.N,Net-(U1B--)*%
X119380000Y-96520000D03*
%TO.P,RV1,3,3*%
%TO.N,VCC*%
X121920000Y-93980000D03*
%TD*%
D13*
%TO.P,D1,1,K*%
%TO.N,GND*%
X208280000Y-96520000D03*
D14*
%TO.P,D1,2,A*%
%TO.N,Net-(D1-A)*%
X208280000Y-93980000D03*
%TD*%
D15*
%TO.P,J2,1,Pin_1*%
%TO.N,GND*%
X62790000Y-107680000D03*
D16*
%TO.P,J2,2,Pin_2*%
%TO.N,Net-(J1-Pin_3)*%
X62790000Y-105680000D03*
%TD*%
D11*
%TO.P,C2,1*%
%TO.N,Net-(D2-K)*%
X165100000Y-100550000D03*
%TO.P,C2,2*%
%TO.N,GND*%
X165100000Y-128050000D03*
%TD*%
D17*
%TO.P,J1,1,Pin_1*%
%TO.N,VCC*%
X230002500Y-93975000D03*
D18*
%TO.P,J1,2,Pin_2*%
%TO.N,Net-(J1-Pin_2)*%
X230002500Y-96515000D03*
%TO.P,J1,3,Pin_3*%
%TO.N,Net-(J1-Pin_3)*%
X230002500Y-99055000D03*
%TO.P,J1,4,Pin_4*%
%TO.N,GND*%
X230002500Y-101595000D03*
%TD*%
D19*
%TO.P,R1,1*%
%TO.N,VCC*%
X91440000Y-50800000D03*
%TO.P,R1,2*%
%TO.N,Net-(J1-Pin_3)*%
X91440000Y-76200000D03*
%TD*%
%TO.P,R2,1*%
%TO.N,VCC*%
X186690000Y-59690000D03*
%TO.P,R2,2*%
%TO.N,Net-(D2-A)*%
X186690000Y-85090000D03*
%TD*%
%TO.P,R3,1*%
%TO.N,VCC*%
X207010000Y-59690000D03*
%TO.P,R3,2*%
%TO.N,Net-(D1-A)*%
X207010000Y-85090000D03*
%TD*%
D13*
%TO.P,D2,1,K*%
%TO.N,Net-(D2-K)*%
X186621700Y-96520000D03*
D14*
%TO.P,D2,2,A*%
%TO.N,Net-(D2-A)*%
X186621700Y-93980000D03*
%TD*%
D11*
%TO.P,C1,1*%
%TO.N,Net-(J1-Pin_3)*%
X91440000Y-87850000D03*
%TO.P,C1,2*%
%TO.N,GND*%
X91440000Y-115350000D03*
%TD*%
D20*
%TO.N,GND*%
X139700000Y-101600000D02*
X124460000Y-101600000D01*
X187960000Y-128050000D02*
X165100000Y-128050000D01*
X124460000Y-101600000D02*
X121920000Y-99060000D01*
X139700000Y-101600000D02*
X139700000Y-122970000D01*
X208280000Y-125510000D02*
X205740000Y-128050000D01*
X230090000Y-128050000D02*
X205740000Y-128050000D01*
X230002500Y-101595000D02*
X236220000Y-107812500D01*
X88900000Y-128050000D02*
X83160000Y-128050000D01*
X165100000Y-128050000D02*
X134620000Y-128050000D01*
X236220000Y-107812500D02*
X236220000Y-121920000D01*
X139700000Y-122970000D02*
X134620000Y-128050000D01*
X134620000Y-128050000D02*
X88900000Y-128050000D01*
X83160000Y-128050000D02*
X62790000Y-107680000D01*
X205740000Y-128050000D02*
X187960000Y-128050000D01*
X236220000Y-121920000D02*
X230090000Y-128050000D01*
X208280000Y-96520000D02*
X208280000Y-125510000D01*
X91440000Y-125510000D02*
X88900000Y-128050000D01*
X91440000Y-115350000D02*
X91440000Y-125510000D01*
%TO.N,Net-(D1-A)*%
X208280000Y-86360000D02*
X208280000Y-93980000D01*
X207010000Y-85090000D02*
X208280000Y-86360000D01*
%TO.N,Net-(D2-A)*%
X186621700Y-86428300D02*
X186621700Y-93980000D01*
X186690000Y-86360000D02*
X186621700Y-86428300D01*
X186690000Y-85090000D02*
X186690000Y-86360000D01*
%TO.N,Net-(D2-K)*%
X183930000Y-100550000D02*
X165100000Y-100550000D01*
X186621700Y-96520000D02*
X185420000Y-96520000D01*
X186621700Y-97858300D02*
X183930000Y-100550000D01*
X186621700Y-96520000D02*
X186621700Y-97858300D01*
%TO.N,Net-(U1B--)*%
X119380000Y-96520000D02*
X139700000Y-96520000D01*
%TO.N,VCC*%
X230002500Y-52202500D02*
X223520000Y-45720000D01*
X121920000Y-53340000D02*
X129540000Y-45720000D01*
X223520000Y-45720000D02*
X213360000Y-45720000D01*
X160020000Y-45720000D02*
X96520000Y-45720000D01*
X187960000Y-45720000D02*
X160020000Y-45720000D01*
X121920000Y-93980000D02*
X121920000Y-53340000D01*
X147320000Y-93980000D02*
X147320000Y-58420000D01*
X147320000Y-58420000D02*
X160020000Y-45720000D01*
X230002500Y-93975000D02*
X230002500Y-52202500D01*
X96520000Y-45720000D02*
X91440000Y-50800000D01*
X207010000Y-59690000D02*
X213360000Y-53340000D01*
X213360000Y-53340000D02*
X213360000Y-45720000D01*
X187960000Y-58420000D02*
X187960000Y-45720000D01*
X186690000Y-59690000D02*
X187960000Y-58420000D01*
X213360000Y-45720000D02*
X187960000Y-45720000D01*
%TO.N,Net-(J1-Pin_3)*%
X100550000Y-87850000D02*
X111760000Y-99060000D01*
X73660000Y-88900000D02*
X91440000Y-88900000D01*
X119781000Y-99060000D02*
X121920000Y-96921000D01*
X121920000Y-96921000D02*
X127000000Y-96921000D01*
X62790000Y-105680000D02*
X62500000Y-105390000D01*
X129139000Y-99060000D02*
X139700000Y-99060000D01*
X61813300Y-106656700D02*
X62790000Y-105680000D01*
X111760000Y-99060000D02*
X119781000Y-99060000D01*
X62500000Y-100060000D02*
X73660000Y-88900000D01*
X147320000Y-106680000D02*
X154940000Y-106680000D01*
X154940000Y-106680000D02*
X175260000Y-86360000D01*
X215900000Y-83820000D02*
X215900000Y-91440000D01*
X139700000Y-99060000D02*
X147320000Y-106680000D01*
X91440000Y-76200000D02*
X91440000Y-87850000D01*
X91440000Y-87850000D02*
X100550000Y-87850000D01*
X200660000Y-68580000D02*
X215900000Y-83820000D01*
X182880000Y-68580000D02*
X200660000Y-68580000D01*
X215900000Y-91440000D02*
X223515000Y-99055000D01*
X127000000Y-96921000D02*
X129139000Y-99060000D01*
X175260000Y-76200000D02*
X182880000Y-68580000D01*
X61813300Y-108492600D02*
X61813300Y-106656700D01*
X91440000Y-88900000D02*
X91440000Y-87850000D01*
X223515000Y-99055000D02*
X230002500Y-99055000D01*
X62500000Y-105390000D02*
X62500000Y-100060000D01*
X175260000Y-86360000D02*
X175260000Y-76200000D01*
%TO.N,Net-(J1-Pin_2)*%
X154940000Y-104140000D02*
X172720000Y-86360000D01*
X139700000Y-93980000D02*
X144780000Y-99060000D01*
X199527500Y-66040000D02*
X230002500Y-96515000D01*
X180340000Y-66040000D02*
X199527500Y-66040000D01*
X172720000Y-73660000D02*
X180340000Y-66040000D01*
X144780000Y-99060000D02*
X144780000Y-101600000D01*
X147320000Y-104140000D02*
X154940000Y-104140000D01*
X172720000Y-86360000D02*
X172720000Y-73660000D01*
X144780000Y-101600000D02*
X147320000Y-104140000D01*
%TD*%
M02*
